<svg width="1280" height="290" viewBox="0 0 1280 290" fill="none" xmlns="http://www.w3.org/2000/svg">
<g clip-path="url(#clip0_464_5261)">
<rect width="1280" height="290" fill="#AA9951"/>
<path fill-rule="evenodd" clip-rule="evenodd" d="M1027.14 62.2578C1026.59 62.578 1025.25 63.5682 1023.6 64.7885C1019.57 67.7754 1013.67 72.1383 1012.99 71.4168C1016.6 54.7319 1035.13 46.1896 1050.6 43.5188C1054.74 32.4785 1062.18 21.6438 1074 18C1073.17 27.4719 1070.4 34.0248 1065.04 41.6694C1063.94 43.2485 1061 45.1732 1060.59 46.6007C1060.03 48.5811 1060.78 51.8317 1061.61 55.4157C1062.91 61.0104 1064.4 67.4151 1061.35 71.0597C1060.48 71.6723 1059.13 71.0908 1057.78 70.0818C1055.88 68.6698 1053.97 66.4208 1053.3 65.4372C1050.8 61.7819 1051.05 58.2028 1049.04 54.6565C1044.48 55.5468 1040.23 56.5689 1036.11 58.0595C1033.07 59.1586 1030.1 60.5133 1027.14 62.2578ZM977.388 82.8567C988.323 73.7518 1005.32 73.9573 1015.23 84.4358C1024.63 94.3687 1023.34 109.213 1022.12 123.167C1021.62 128.975 1021.13 134.63 1021.43 139.712C1022.1 151.125 1025.23 160.521 1028.28 169.669C1032.82 183.296 1037.18 196.373 1032.94 214.754C1024.63 250.752 983.363 276.433 954.856 244.48C928.02 259.186 906.766 228.931 907.002 204.125C907.251 177.812 920.911 162.907 935.122 147.405C942.82 139.006 950.676 130.431 956.651 119.773C958.833 115.877 960.667 111.515 962.528 107.099C966.328 98.0682 970.227 88.8118 977.388 82.8567Z" fill="#E73F40"/>
<path fill-rule="evenodd" clip-rule="evenodd" d="M561.135 62.2578C560.591 62.578 559.255 63.5682 557.604 64.7885C553.568 67.7754 547.671 72.1383 546.99 71.4168C550.6 54.7319 569.135 46.1896 584.597 43.5188C588.744 32.4785 596.181 21.6438 608 18C607.168 27.4719 604.403 34.0248 599.044 41.6694C597.936 43.2485 595.001 45.1732 594.589 46.6007C594.025 48.5811 594.779 51.8317 595.611 55.4157C596.914 61.0104 598.402 67.4151 595.349 71.0597C594.477 71.6723 593.134 71.0908 591.778 70.0818C589.884 68.6698 587.971 66.4208 587.296 65.4372C584.8 61.7819 585.049 58.2028 583.038 54.6565C578.484 55.5468 574.232 56.5689 570.111 58.0595C567.071 59.1586 564.103 60.5133 561.135 62.2578ZM511.388 82.8567C522.323 73.7518 539.318 73.9573 549.231 84.4358C558.632 94.3687 557.342 109.213 556.123 123.167C555.619 128.975 555.127 134.63 555.429 139.712C556.097 151.125 559.229 160.521 562.282 169.669C566.822 183.296 571.179 196.373 566.94 214.754C558.632 250.752 517.363 276.433 488.856 244.48C462.02 259.186 440.766 228.931 441.002 204.125C441.251 177.812 454.911 162.907 469.122 147.405C476.82 139.006 484.676 130.431 490.651 119.773C492.833 115.877 494.667 111.515 496.528 107.099C500.328 98.0682 504.227 88.8118 511.388 82.8567Z" fill="#E73F40"/>
<path fill-rule="evenodd" clip-rule="evenodd" d="M95.1352 62.2578C94.5914 62.578 93.2548 63.5682 91.6038 64.7885C87.5679 67.7754 81.6713 72.1383 80.9899 71.4168C84.5999 54.7319 103.135 46.1896 118.597 43.5188C122.744 32.4785 130.181 21.6438 142 18C141.168 27.4719 138.403 34.0248 133.044 41.6694C131.936 43.2485 129.001 45.1732 128.589 46.6007C128.025 48.5811 128.779 51.8317 129.611 55.4157C130.914 61.0104 132.402 67.4151 129.349 71.0597C128.477 71.6723 127.134 71.0908 125.778 70.0818C123.884 68.6698 121.971 66.4208 121.296 65.4372C118.8 61.7819 119.049 58.2028 117.038 54.6565C112.484 55.5468 108.232 56.5689 104.111 58.0595C101.071 59.1586 98.1031 60.5133 95.1352 62.2578ZM45.3876 82.8567C56.3225 73.7518 73.3178 73.9573 83.2306 84.4358C92.6324 94.3687 91.3417 109.213 90.1231 123.167C89.6186 128.975 89.1272 134.63 89.4286 139.712C90.0969 151.125 93.2286 160.521 96.2818 169.669C100.822 183.296 105.179 196.373 100.94 214.754C92.6324 250.752 51.3628 276.433 22.8561 244.48C-3.97998 259.186 -25.2339 228.931 -24.9981 204.125C-24.7491 177.812 -11.0886 162.907 3.12214 147.405C10.8205 139.006 18.676 130.431 24.6513 119.773C26.833 115.877 28.6675 111.515 30.5282 107.099C34.3282 98.0682 38.2265 88.8118 45.3876 82.8567Z" fill="#E73F40"/>
<path d="M1176.84 123.399C1194.49 115.952 1215.09 122.615 1220.39 140.977L1220.74 142.22L1222.02 142.402C1223.54 142.62 1224.77 142.165 1225.74 141.338C1226.56 140.632 1227.16 139.653 1227.6 138.96L1227.6 138.961C1228.21 138.015 1228.7 137.262 1229.4 136.664C1237.45 129.764 1246.81 128.017 1255.75 129.896C1264.45 131.726 1272.78 137.014 1278.98 144.429L1279.57 145.152C1297.43 167.422 1296.49 199.701 1283.21 223.82C1276.58 235.844 1266.96 245.696 1255.26 251.202C1243.59 256.69 1229.75 257.917 1214.49 252.53H1214.5C1213.55 252.194 1212.21 251.387 1210.67 250.44C1209.82 249.915 1208.92 249.363 1208.12 248.94L1208.12 248.936L1207.81 248.78C1207.5 248.628 1207.19 248.487 1206.89 248.372C1206.51 248.231 1206.02 248.079 1205.49 248.062L1205.49 248.061C1204.92 248.04 1204.33 248.171 1203.87 248.298C1203.38 248.435 1202.83 248.627 1202.26 248.839C1201.15 249.255 1199.76 249.84 1198.4 250.383C1195.52 251.529 1192.53 252.581 1190.18 252.716H1190.17C1176.82 253.495 1166.21 247.364 1158.5 237.177C1150.73 226.935 1145.94 212.63 1144.48 197.409C1143.02 182.201 1144.89 166.26 1150.28 152.828C1155.66 139.398 1164.48 128.62 1176.84 123.398L1176.84 123.399ZM1231.15 94.5547C1252.49 81.4351 1279.88 85.4421 1301.77 96.6895C1291.7 107.118 1277.57 113.251 1262.68 115.069C1247.34 116.943 1231.36 114.215 1218.43 107.062C1218.57 106.589 1218.84 105.965 1219.35 105.18C1220.19 103.878 1221.46 102.447 1222.93 101.025C1225.88 98.1856 1229.39 95.6373 1231.14 94.5537L1231.15 94.5547ZM1150.15 62.0605C1160.38 62.6802 1167.62 69.8778 1172.45 79.0195C1176.93 87.5121 1179.11 97.2901 1179.54 103.781C1166.49 101.824 1157.94 95.5923 1153.24 87.876C1148.5 80.0904 1147.58 70.6166 1150.15 62.0605ZM1247.01 20.4717C1246.86 20.8828 1246.67 21.3587 1246.42 21.8984C1245.39 24.138 1243.67 27.0848 1241.53 30.4141C1237.27 37.0536 1231.57 44.9288 1227.04 51.1777C1223.71 55.7582 1220.94 59.5854 1219.96 61.2686L1219.96 61.2705C1212.72 73.8072 1209.13 84.5479 1205.45 96.9502L1203.85 102.376L1203.76 102.702C1201.85 84.3063 1209.62 64.1044 1218.77 48.1162L1218.77 48.1143C1222.27 41.9824 1226.44 35.4648 1231.53 30.2051C1236.01 25.5658 1241.12 21.9951 1247.01 20.4717Z" fill="#E73F40" stroke="#FCF6EB" stroke-width="4"/>
<path d="M710.84 123.399C728.492 115.952 749.091 122.615 754.386 140.977L754.744 142.22L756.024 142.402C757.544 142.62 758.774 142.165 759.735 141.338C760.556 140.632 761.161 139.653 761.603 138.96L761.604 138.961C762.209 138.015 762.703 137.262 763.4 136.664C771.452 129.764 780.812 128.017 789.745 129.896C798.449 131.726 806.783 137.014 812.981 144.429L813.574 145.152C831.433 167.422 830.494 199.701 817.208 223.82C810.585 235.844 800.96 245.696 789.258 251.202C777.593 256.69 763.75 257.917 748.494 252.53H748.495C747.55 252.194 746.215 251.387 744.674 250.44C743.821 249.915 742.92 249.363 742.125 248.94L742.116 248.936L741.812 248.78C741.505 248.628 741.193 248.487 740.889 248.372C740.514 248.231 740.017 248.079 739.485 248.062L739.486 248.061C738.916 248.04 738.332 248.171 737.874 248.298C737.376 248.435 736.826 248.627 736.261 248.839C735.154 249.255 733.76 249.84 732.396 250.383C729.516 251.529 726.527 252.581 724.177 252.716H724.175C710.821 253.495 700.214 247.364 692.495 237.177C684.734 226.935 679.944 212.63 678.479 197.409C677.016 182.201 678.892 166.26 684.276 152.828C689.66 139.398 698.482 128.62 710.839 123.398L710.84 123.399ZM765.146 94.5547C786.486 81.4351 813.881 85.4421 835.771 96.6895C825.696 107.118 811.568 113.251 796.68 115.069C781.34 116.943 765.356 114.215 752.435 107.062C752.566 106.589 752.841 105.965 753.349 105.18C754.19 103.878 755.458 102.447 756.935 101.025C759.883 98.1856 763.388 95.6373 765.145 94.5537L765.146 94.5547ZM684.152 62.0605C694.379 62.6802 701.617 69.8778 706.447 79.0195C710.934 87.5121 713.106 97.2901 713.536 103.781C700.49 101.824 691.936 95.5923 687.24 87.876C682.502 80.0904 681.581 70.6166 684.152 62.0605ZM781.013 20.4717C780.863 20.8828 780.668 21.3587 780.42 21.8984C779.391 24.138 777.667 27.0848 775.532 30.4141C771.274 37.0536 765.567 44.9288 761.037 51.1777C757.715 55.7582 754.941 59.5854 753.965 61.2686L753.964 61.2705C746.715 73.8072 743.133 84.5479 739.449 96.9502L737.854 102.376L737.757 102.702C735.851 84.3063 743.616 64.1044 752.766 48.1162L752.768 48.1143C756.268 41.9824 760.442 35.4648 765.528 30.2051C770.015 25.5657 775.124 21.9951 781.013 20.4717Z" fill="#E73F40" stroke="#FCF6EB" stroke-width="4"/>
<path d="M244.84 123.399C262.492 115.952 283.091 122.615 288.386 140.977L288.744 142.22L290.024 142.402C291.544 142.62 292.774 142.165 293.735 141.338C294.556 140.632 295.161 139.653 295.603 138.96L295.604 138.961C296.209 138.015 296.703 137.262 297.4 136.664C305.452 129.764 314.812 128.017 323.745 129.896C332.449 131.726 340.783 137.014 346.981 144.429L347.574 145.152C365.433 167.422 364.494 199.701 351.208 223.82C344.585 235.844 334.96 245.696 323.258 251.202C311.593 256.69 297.75 257.917 282.494 252.53H282.495C281.55 252.194 280.215 251.387 278.674 250.44C277.821 249.915 276.92 249.363 276.125 248.94L276.116 248.936L275.812 248.78C275.505 248.628 275.193 248.487 274.889 248.372C274.514 248.231 274.017 248.079 273.485 248.062L273.486 248.061C272.916 248.04 272.332 248.171 271.874 248.298C271.376 248.435 270.826 248.627 270.261 248.839C269.154 249.255 267.76 249.84 266.396 250.383C263.516 251.529 260.527 252.581 258.177 252.716H258.175C244.821 253.495 234.214 247.364 226.495 237.177C218.735 226.935 213.944 212.63 212.479 197.409C211.016 182.201 212.892 166.26 218.276 152.828C223.66 139.398 232.482 128.62 244.839 123.398L244.84 123.399ZM299.146 94.5547C320.486 81.4351 347.881 85.4421 369.771 96.6895C359.696 107.118 345.568 113.251 330.68 115.069C315.34 116.943 299.356 114.215 286.435 107.062C286.566 106.589 286.841 105.965 287.349 105.18C288.19 103.878 289.458 102.447 290.935 101.025C293.883 98.1856 297.388 95.6373 299.145 94.5537L299.146 94.5547ZM218.152 62.0605C228.379 62.6802 235.617 69.8778 240.447 79.0195C244.934 87.5121 247.106 97.2901 247.536 103.781C234.49 101.824 225.936 95.5923 221.24 87.876C216.502 80.0904 215.581 70.6166 218.152 62.0605ZM315.013 20.4717C314.863 20.8828 314.668 21.3587 314.42 21.8984C313.391 24.138 311.667 27.0848 309.532 30.4141C305.274 37.0536 299.567 44.9288 295.037 51.1777C291.715 55.7582 288.941 59.5854 287.965 61.2686L287.964 61.2705C280.715 73.8072 277.133 84.5479 273.449 96.9502L271.854 102.376L271.757 102.702C269.851 84.3063 277.616 64.1044 286.766 48.1162L286.768 48.1143C290.268 41.9824 294.442 35.4648 299.528 30.2051C304.015 25.5658 309.124 21.9951 315.013 20.4717Z" fill="#E73F40" stroke="#FCF6EB" stroke-width="4"/>
</g>
<defs>
<clipPath id="clip0_464_5261">
<rect width="1280" height="290" fill="white"/>
</clipPath>
</defs>
</svg>
