<svg width="1280" height="290" viewBox="0 0 1280 290" fill="none" xmlns="http://www.w3.org/2000/svg">
<g clip-path="url(#clip0_464_5258)">
<rect width="1280" height="290" fill="#AA9951"/>
<path d="M978.667 84.3936C988.867 75.9002 1004.66 76.1692 1013.78 85.8105H1013.78C1018.08 90.3518 1020 96.0705 1020.67 102.501C1021.35 108.972 1020.74 115.975 1020.13 122.993V122.994C1019.63 128.765 1019.12 134.574 1019.43 139.83C1020.03 150.077 1022.57 158.729 1025.24 166.851L1026.38 170.302C1030.85 183.699 1034.96 196.121 1031.18 213.475L1030.99 214.305C1026.97 231.746 1014.95 246.637 1000.63 253.284C993.494 256.597 985.827 257.846 978.288 256.412C970.761 254.98 963.217 250.847 956.349 243.148L955.29 241.962L953.895 242.726C947.559 246.197 941.676 246.961 936.418 245.906C931.131 244.846 926.309 241.913 922.206 237.721C913.959 229.294 908.889 216.048 909.002 204.145C909.228 180.265 920.778 166.12 933.944 151.657L936.597 148.757C944.275 140.379 952.29 131.643 958.396 120.751L958.396 120.75C960.643 116.738 962.52 112.268 964.371 107.875L964.372 107.874C968.218 98.7346 971.95 89.9798 978.666 84.3945L978.667 84.3936ZM1071.63 21.0234C1070.53 28.4286 1067.96 34.0197 1063.41 40.5215C1063.01 41.0849 1062.24 41.7551 1061.2 42.7256C1060.73 43.1588 1060.22 43.6466 1059.79 44.1426C1059.39 44.6042 1058.89 45.2605 1058.67 46.0449L1058.67 46.0537C1058.26 47.4741 1058.37 49.1381 1058.6 50.6982C1058.83 52.3039 1059.25 54.0985 1059.66 55.8682L1059.66 55.8701C1060.32 58.7061 1060.97 61.53 1061.12 64.0801C1061.24 66.2947 1060.95 67.9975 1060.21 69.2207C1059.91 69.0988 1059.49 68.8614 1058.97 68.4785H1058.97C1057.29 67.2251 1055.52 65.15 1054.95 64.3057C1053.89 62.7662 1053.4 61.2283 1052.91 59.4678C1052.43 57.7529 1051.93 55.702 1050.78 53.6699L1050.07 52.417L1048.65 52.6934C1044.34 53.5368 1040.23 54.5085 1036.23 55.8955L1035.43 56.1787C1032.29 57.3159 1029.2 58.7213 1026.12 60.5332L1026.12 60.5342C1025.46 60.9237 1024 62.0111 1022.42 63.1797L1022.41 63.1807C1020.5 64.5964 1018.22 66.2801 1016.28 67.5918C1018.64 61.9421 1023.01 57.4124 1028.44 53.8896C1035.17 49.518 1043.4 46.7914 1050.94 45.4893L1052.07 45.2949L1052.47 44.2217C1056.15 34.4201 1062.35 25.1763 1071.63 21.0234Z" fill="#E73F40" stroke="#FCF6EB" stroke-width="4"/>
<path d="M512.667 84.3936C522.867 75.9002 538.656 76.1692 547.777 85.8105H547.778C552.077 90.3518 553.998 96.0705 554.67 102.501C555.347 108.972 554.744 115.975 554.131 122.993V122.994C553.63 128.765 553.12 134.574 553.432 139.83C554.032 150.077 556.571 158.729 559.238 166.851L560.385 170.302C564.848 183.699 568.963 196.121 565.178 213.475L564.991 214.305C560.966 231.746 548.951 246.637 534.631 253.284C527.494 256.597 519.827 257.846 512.288 256.412C504.761 254.98 497.217 250.847 490.349 243.148L489.29 241.962L487.895 242.726C481.559 246.197 475.676 246.961 470.418 245.906C465.131 244.846 460.309 241.913 456.206 237.721C447.959 229.294 442.889 216.048 443.002 204.145C443.228 180.265 454.778 166.12 467.944 151.657L470.597 148.757C478.275 140.379 486.29 131.643 492.396 120.751L492.396 120.75C494.643 116.738 496.52 112.268 498.371 107.875L498.372 107.874C502.218 98.7346 505.95 89.9798 512.666 84.3945L512.667 84.3936ZM605.633 21.0234C604.534 28.4286 601.964 34.0197 597.406 40.5215C597.011 41.0849 596.241 41.7551 595.195 42.7256C594.728 43.1588 594.217 43.6466 593.789 44.1426C593.39 44.6042 592.894 45.2605 592.667 46.0449L592.665 46.0537C592.261 47.4741 592.368 49.1381 592.598 50.6982C592.834 52.3039 593.251 54.0985 593.662 55.8682L593.663 55.8701C594.324 58.7061 594.975 61.53 595.116 64.0801C595.239 66.2947 594.954 67.9975 594.209 69.2207C593.906 69.0988 593.487 68.8614 592.973 68.4785H592.974C591.293 67.2251 589.525 65.15 588.945 64.3057C587.895 62.7662 587.403 61.2283 586.911 59.4678C586.432 57.7529 585.93 55.702 584.777 53.6699L584.067 52.417L582.654 52.6934C578.34 53.5368 574.235 54.5085 570.23 55.8955L569.431 56.1787C566.285 57.3159 563.205 58.7213 560.122 60.5332L560.12 60.5342C559.459 60.9237 557.996 62.0111 556.415 63.1797L556.414 63.1807C554.501 64.5964 552.221 66.2801 550.279 67.5918C552.638 61.9421 557.01 57.4124 562.438 53.8896C569.173 49.518 577.399 46.7914 584.938 45.4893L586.066 45.2949L586.47 44.2217C590.152 34.4201 596.345 25.1763 605.633 21.0234Z" fill="#E73F40" stroke="#FCF6EB" stroke-width="4"/>
<path d="M46.667 84.3936C56.8674 75.9002 72.6564 76.1692 81.7773 85.8105H81.7783C86.0767 90.3518 87.9975 96.0705 88.6699 102.501C89.3466 108.972 88.7437 115.975 88.1309 122.993V122.994C87.6296 128.765 87.1199 134.574 87.4316 139.83C88.0318 150.077 90.5708 158.729 93.2383 166.851L94.3848 170.302C98.8484 183.699 102.963 196.121 99.1777 213.475L98.9912 214.305C94.966 231.746 82.9506 246.637 68.6309 253.284C61.4941 256.597 53.8272 257.846 46.2881 256.412C38.7615 254.98 31.2167 250.847 24.3486 243.148L23.29 241.962L21.8945 242.726C15.5592 246.197 9.67622 246.961 4.41797 245.906C-0.868534 244.846 -5.69069 241.913 -9.79395 237.721C-18.0411 229.294 -23.1112 216.048 -22.998 204.145C-22.7721 180.265 -11.2221 166.12 1.94434 151.657L4.59668 148.757C12.2747 140.379 20.2897 131.643 26.3955 120.751L26.3965 120.75C28.643 116.738 30.5203 112.268 32.3711 107.875L32.3721 107.874C36.218 98.7346 39.9497 89.9798 46.666 84.3945L46.667 84.3936ZM139.633 21.0234C138.534 28.4286 135.964 34.0197 131.406 40.5215C131.011 41.0849 130.241 41.7551 129.195 42.7256C128.728 43.1588 128.217 43.6466 127.789 44.1426C127.39 44.6042 126.894 45.2605 126.667 46.0449L126.665 46.0537C126.261 47.4741 126.368 49.1381 126.598 50.6982C126.834 52.3039 127.251 54.0985 127.662 55.8682L127.663 55.8701C128.324 58.7061 128.975 61.53 129.116 64.0801C129.239 66.2947 128.954 67.9975 128.209 69.2207C127.906 69.0988 127.487 68.8614 126.973 68.4785H126.974C125.293 67.2251 123.525 65.15 122.945 64.3057C121.895 62.7662 121.403 61.2283 120.911 59.4678C120.432 57.7529 119.93 55.702 118.777 53.6699L118.067 52.417L116.654 52.6934C112.34 53.5368 108.235 54.5085 104.23 55.8955L103.431 56.1787C100.285 57.3159 97.2048 58.7213 94.1221 60.5332L94.1201 60.5342C93.4587 60.9237 91.9961 62.0111 90.415 63.1797L90.4141 63.1807C88.5012 64.5964 86.2214 66.2801 84.2793 67.5918C86.638 61.9421 91.0101 57.4124 96.4375 53.8896C103.173 49.518 111.399 46.7914 118.938 45.4893L120.066 45.2949L120.47 44.2217C124.152 34.4201 130.345 25.1763 139.633 21.0234Z" fill="#E73F40" stroke="#FCF6EB" stroke-width="4"/>
<path fill-rule="evenodd" clip-rule="evenodd" d="M1217.03 47.1227C1224.08 34.7694 1234.12 20.3635 1249.08 18C1251.63 20.654 1237.7 39.8781 1228.66 52.3518C1225.29 56.9954 1222.6 60.7033 1221.7 62.2718C1213.54 76.3681 1210.1 88.137 1205.77 102.939L1204.85 106.066C1204.68 106.644 1204.71 107.064 1204.7 107.354C1204.67 107.923 1204.5 107.993 1202.5 107.777C1198.42 87.4547 1207.03 64.5903 1217.03 47.1227ZM1148.71 60.0165C1142.13 78.8769 1151.85 102.871 1181.62 106.066C1181.62 92.8505 1172.85 60.0165 1148.71 60.0165ZM1230.1 92.8504C1253.04 78.7429 1282.44 83.8121 1305 96.1361C1283.93 120.159 1243.41 123.876 1216.37 108.192C1215.61 103.391 1226.36 95.1554 1230.1 92.8504ZM1176.06 121.557C1194.49 113.783 1216.59 120.59 1222.31 140.423C1224.13 140.683 1224.95 139.408 1225.92 137.882C1226.5 136.968 1227.14 135.964 1228.1 135.145C1245.22 120.472 1268.12 127.682 1281.13 143.901C1318.1 190 1276.8 276.654 1213.82 254.415C1212.64 253.991 1211.1 253.047 1209.63 252.145C1208.76 251.612 1207.92 251.094 1207.19 250.707C1206.46 250.324 1205.84 250.071 1205.41 250.059C1203.4 249.985 1195.73 254.4 1190.29 254.712C1133.73 258.012 1124.13 143.5 1176.06 121.557Z" fill="#E73F40"/>
<path fill-rule="evenodd" clip-rule="evenodd" d="M751.03 47.1227C758.082 34.7694 768.123 20.3635 783.082 18C785.631 20.654 771.699 39.8781 762.657 52.3518C759.289 56.9954 756.605 60.7033 755.695 62.2718C747.545 76.3681 744.105 88.137 739.773 102.939L738.854 106.066C738.683 106.644 738.71 107.064 738.701 107.354C738.674 107.923 738.503 107.993 736.504 107.777C732.424 87.4547 741.034 64.5903 751.03 47.1227ZM682.711 60.0165C676.128 78.8769 685.845 102.871 715.619 106.066C715.619 92.8505 706.847 60.0165 682.711 60.0165ZM764.098 92.8504C787.045 78.7429 816.44 83.8121 839 96.1361C817.926 120.159 777.409 123.876 750.373 108.192C749.607 103.391 760.36 95.1554 764.098 92.8504ZM710.062 121.557C728.488 113.783 750.589 120.59 756.308 140.423C758.127 140.683 758.946 139.408 759.919 137.882C760.504 136.968 761.144 135.964 762.098 135.145C779.219 120.472 802.121 127.682 815.134 143.901C852.104 190 810.802 276.654 747.824 254.415C746.635 253.991 745.095 253.047 743.627 252.145C742.763 251.612 741.916 251.094 741.187 250.707C740.457 250.324 739.836 250.071 739.413 250.059C737.395 249.985 729.731 254.4 724.292 254.712C667.725 258.012 658.125 143.5 710.062 121.557Z" fill="#E73F40"/>
<path fill-rule="evenodd" clip-rule="evenodd" d="M285.03 47.1227C292.082 34.7694 302.123 20.3635 317.082 18C319.631 20.654 305.699 39.8781 296.657 52.3518C293.289 56.9954 290.605 60.7033 289.695 62.2718C281.545 76.3681 278.105 88.137 273.773 102.939L272.854 106.066C272.683 106.644 272.71 107.064 272.701 107.354C272.674 107.923 272.503 107.993 270.504 107.777C266.424 87.4547 275.034 64.5903 285.03 47.1227ZM216.711 60.0165C210.128 78.8769 219.845 102.871 249.619 106.066C249.619 92.8505 240.847 60.0165 216.711 60.0165ZM298.098 92.8504C321.045 78.7429 350.44 83.8121 373 96.1361C351.926 120.159 311.409 123.876 284.373 108.192C283.607 103.391 294.36 95.1554 298.098 92.8504ZM244.062 121.557C262.488 113.783 284.589 120.59 290.308 140.423C292.127 140.683 292.946 139.408 293.919 137.882C294.504 136.968 295.144 135.964 296.098 135.145C313.219 120.472 336.121 127.682 349.134 143.901C386.104 190 344.802 276.654 281.824 254.415C280.635 253.991 279.095 253.047 277.627 252.145C276.763 251.612 275.916 251.094 275.187 250.707C274.457 250.324 273.836 250.071 273.413 250.059C271.395 249.985 263.731 254.4 258.292 254.712C201.725 258.012 192.125 143.5 244.062 121.557Z" fill="#E73F40"/>
</g>
<defs>
<clipPath id="clip0_464_5258">
<rect width="1280" height="290" fill="white"/>
</clipPath>
</defs>
</svg>
