<svg width="200" height="85" viewBox="0 0 200 85" fill="none" xmlns="http://www.w3.org/2000/svg">
<path d="M0.000789946 29.1406L0.000789946 0.000669842L24.5941 0.000669842L24.5941 29.1406H20.7914L20.7914 3.22467L3.80345 3.22467L3.80345 29.1406H0.000789946ZM31.6869 29.1406L31.6869 0.000669842L43.7563 0.000669842C46.87 0.000669842 49.2536 0.744669 50.9069 2.23267C52.5602 3.72067 53.3869 5.77355 53.3869 8.39132C53.3869 11.0091 52.5602 13.0758 50.9069 14.5913C49.2536 16.0793 46.87 16.8233 43.7563 16.8233L35.5309 16.8233V29.1406H31.6869ZM35.5309 13.682L43.3843 13.682C45.4234 13.682 46.9665 13.2273 48.0136 12.318C49.0607 11.3811 49.5842 10.0722 49.5842 8.39132C49.5842 6.71044 49.0607 5.41533 48.0136 4.506C46.9665 3.59667 45.4234 3.142 43.3843 3.142H35.5309L35.5309 13.682ZM58.7715 29.1406V0.000669842H62.3262V24.222H61.3755L79.6448 0.000669842H82.6208V29.1406H79.0248V4.91933H79.9755L61.6649 29.1406H58.7715ZM89.6908 29.1406V0.000669842L101.553 0.000669842C104.695 0.000669842 107.106 0.662003 108.787 1.98467C110.468 3.30733 111.308 5.16733 111.308 7.56466C111.308 9.38332 110.757 10.8989 109.655 12.1113C108.58 13.3238 107.106 14.1366 105.232 14.55V13.93C107.381 14.178 109.049 14.922 110.233 16.162C111.446 17.402 112.052 19.0415 112.052 21.0806C112.052 23.6709 111.184 25.6686 109.448 27.074C107.712 28.4517 105.26 29.1406 102.091 29.1406L89.6908 29.1406ZM93.4107 26.082L101.719 26.082C103.758 26.082 105.356 25.6962 106.513 24.9246C107.698 24.1255 108.291 22.8166 108.291 20.998C108.291 19.1518 107.698 17.8429 106.513 17.0713C105.356 16.2998 103.758 15.914 101.719 15.914H93.4107V26.082ZM93.4107 12.8553H101.016C103.193 12.8553 104.819 12.442 105.893 11.6153C106.968 10.7611 107.505 9.53488 107.505 7.93666C107.505 6.33844 106.968 5.126 105.893 4.29933C104.819 3.44511 103.193 3.018 101.016 3.018L93.4107 3.018V12.8553ZM117.906 29.1406V0.000669842L136.754 0.000669842V3.142L121.626 3.142V12.7727L135.803 12.7727V15.914L121.626 15.914V25.9993H136.754V29.1406H117.906ZM139.392 35.7126V25.9993H142.368C143.856 24.2357 144.945 21.8384 145.634 18.8073C146.35 15.7762 146.708 12.0149 146.708 7.52333V0.000669842L166.838 0.000669842V25.9993H171.136V35.7126H167.706V29.1406H142.864V35.7126H139.392ZM146.336 25.9993H163.035V3.10066L150.263 3.10066V7.81266C150.263 12.194 149.946 15.8451 149.312 18.766C148.679 21.6593 147.687 24.0704 146.336 25.9993ZM175.627 29.1406V0.000669842L179.181 0.000669842V24.222H178.231L196.5 0.000669842H199.476V29.1406H195.88V4.91933H196.831L178.52 29.1406H175.627ZM31.4577 84.7126V74.9993H34.4337C35.9217 73.2357 37.0101 70.8384 37.699 67.8073C38.4154 64.7762 38.7737 61.0149 38.7737 56.5233L38.7737 49.0007L58.903 49.0007V74.9993H63.2016V84.7126H59.771V78.1406H34.9297V84.7126H31.4577ZM38.4017 74.9993H55.1003V52.1007L42.3283 52.1007L42.3283 56.8127C42.3283 61.194 42.0114 64.8451 41.3777 67.766C40.7439 70.6593 39.7519 73.0704 38.4017 74.9993ZM67.6921 78.1406V49.0007H79.7614C82.8752 49.0007 85.2587 49.7447 86.9121 51.2327C88.5654 52.7207 89.392 54.7736 89.392 57.3913C89.392 60.0091 88.5654 62.0758 86.9121 63.5913C85.2587 65.0793 82.8752 65.8233 79.7614 65.8233H71.5361V78.1406H67.6921ZM71.5361 62.682H79.3894C81.4285 62.682 82.9716 62.2273 84.0187 61.318C85.0658 60.3811 85.5894 59.0722 85.5894 57.3913C85.5894 55.7104 85.0658 54.4153 84.0187 53.506C82.9716 52.5967 81.4285 52.142 79.3894 52.142H71.5361V62.682ZM99.4887 78.1406L104.531 68.634L104.614 70.0393L91.0567 49.0007L95.2313 49.0007L106.515 66.6086H105.689L114.989 49.0007H118.998L103.539 78.1406H99.4887ZM122.305 78.1406L122.305 49.0007L141.277 49.0007V52.2247L126.149 52.2247L126.149 78.1406H122.305ZM138.704 78.1406L151.6 49.0007H154.948L168.051 78.1406H164.083L160.487 69.874L162.14 70.866H144.408L146.227 69.874L142.631 78.1406H138.704ZM153.212 53.2993L146.764 68.5926L145.772 67.7246H160.776L159.991 68.5926L153.378 53.2993H153.212Z" fill="#E73F40"/>
</svg>
