<svg width="32" height="32" viewBox="0 0 32 32" fill="none" xmlns="http://www.w3.org/2000/svg">
<path d="M2.58617 25.9035C2.87687 26.3147 6.77456 31.0451 12.8454 31.7498C15.6596 32.0765 17.4584 32.0978 19.7228 31.7272C27.7236 30.4179 32.9108 24.6146 31.8667 16.0251C31.4743 12.7598 30.0263 8.8832 27.1453 7.27257C25.366 6.27582 23.4583 5.95235 21.4331 6.20937C20.4435 6.3335 19.6247 6.87261 18.7175 7.2174C18.8858 6.55165 18.9452 5.76554 19.208 5.1374C19.3582 4.77883 21.4852 0.658959 18.9137 0.0759586C16.0309 -0.574745 17.3766 3.10756 16.3313 5.30666C16.1375 5.71915 15.4968 7.29639 15.2243 7.42678C14.9735 6.92653 13.7998 6.46013 13.2354 6.38741C5.65061 5.4032 0.25332 11.1805 0.00864983 17.7428C-0.146389 21.8915 1.8243 24.8203 2.58617 25.9035Z" fill="#E73F40"/>
</svg>
