<svg width="16" height="16" viewBox="0 0 16 16" fill="none" xmlns="http://www.w3.org/2000/svg">
<path d="M1.29309 12.9518C1.43843 13.1574 3.38728 15.5225 6.42269 15.8749C7.8298 16.0382 8.72922 16.0489 9.8614 15.8636C13.8618 15.2089 16.4554 12.3073 15.9334 8.01255C15.7371 6.3799 15.0132 4.4416 13.5726 3.63628C12.683 3.13791 11.7291 2.97618 10.7165 3.10469C10.2217 3.16675 9.81235 3.43631 9.35874 3.6087C9.44292 3.27583 9.4726 2.88277 9.60402 2.5687C9.67911 2.38941 10.7426 0.32948 9.45685 0.0379793C8.01547 -0.287373 8.68832 1.55378 8.16567 2.65333C8.06877 2.85958 7.74839 3.64819 7.61213 3.71339C7.48676 3.46326 6.89992 3.23006 6.6177 3.1937C2.82531 2.7016 0.12666 5.59028 0.00432492 8.87138C-0.0731945 10.9457 0.91215 12.4101 1.29309 12.9518Z" fill="#E73F40"/>
</svg>
