<svg width="320" height="592" viewBox="0 0 320 592" fill="none" xmlns="http://www.w3.org/2000/svg">
<g clip-path="url(#clip0_503_534)">
<rect x="-72" y="-0.626953" width="464" height="673.255" fill="#E73F40"/>
<path d="M316.541 278.517L312.846 278.268C302.263 277.556 295.298 277.204 282.519 276.508L282.52 276.507C253.287 274.896 229.252 262.285 212.075 249.454C195.965 237.42 186.085 225.337 183.868 222.446L183.527 221.994C176.073 211.756 157.183 184.567 158.67 146.137V146.136C161.019 85.2746 212.775 31.7541 285.686 40.8926L285.689 40.8936C287.983 41.1791 291.903 42.3223 295.576 44.0117C297.387 44.8443 299.013 45.7538 300.276 46.666C301.605 47.6255 302.224 48.3681 302.431 48.7656L304.173 52.125L307.608 50.5371C308.833 49.9709 309.711 48.9629 310.2 48.3574C310.792 47.6239 311.374 46.7499 311.922 45.8486C313.024 44.0359 314.196 41.7739 315.299 39.5215C316.409 37.2522 317.489 34.9079 318.402 32.9053C319.33 30.8714 320.05 29.2696 320.504 28.3359C323.417 22.4154 324.585 15.6798 325.253 9.37109C325.588 6.20312 325.807 3.02406 326.031 0.0712891C326.259 -2.92145 326.492 -5.69069 326.855 -8.21973C327.61 -13.4704 328.819 -16.7397 330.695 -18.5059C332.237 -19.9568 335.06 -21.1115 341.172 -19.8877L341.773 -19.7617C346.869 -18.6448 349.209 -16.0555 350.327 -12.8555C351.566 -9.30919 351.43 -4.57565 350.346 0.670898C348.178 11.1597 342.822 21.282 341.909 23.3857L341.908 23.3877C340.425 26.8121 339.56 30.5557 338.868 34.04C338.146 37.6732 337.632 40.8851 336.835 43.9287L334.915 51.2627L342.032 48.6494C346.628 46.9621 351.327 44.6679 355.398 42.9463C359.664 41.1425 363.76 39.7156 368.135 39.1855H368.141C387.527 36.8091 405.65 39.7999 422.55 48.9443L422.553 48.9463C434.209 55.2406 441.46 62.4599 446.829 70.9941C452.284 79.6639 455.876 89.7958 460.047 102.235C462.7 110.194 466.24 120.395 467.433 129.981V129.987C472.498 170.238 462.379 203.266 441.597 227.953C420.762 252.702 388.915 269.411 349.976 276.344C348.523 276.598 346.825 276.943 345.077 277.297C343.308 277.655 341.46 278.03 339.628 278.365C335.852 279.056 332.558 279.495 330.437 279.384L326.266 279.165L326.269 283.342L326.328 385.513L326.33 388.517L329.224 389.325C331.983 390.096 334.363 390.456 336.39 390.184C338.713 389.871 340.456 388.735 341.564 387.011C342.411 385.693 342.797 384.044 342.955 383.504C343.072 383.104 343.154 382.869 343.23 382.699C343.285 382.578 343.32 382.53 343.327 382.521L343.333 382.515C352.399 372.36 358.856 360.38 365.321 349.868C371.908 339.159 378.606 329.754 388.376 323.325L388.377 323.324C393.625 319.869 405.68 314.676 416.237 313.175C421.566 312.417 425.846 312.702 428.609 314.008C429.905 314.62 430.822 315.434 431.445 316.479C432.079 317.542 432.56 319.102 432.549 321.43V321.431C432.541 323.056 431.678 325.232 429.198 328.134C426.757 330.991 423.135 334.104 418.51 337.554C409.098 344.574 396.957 352.002 383.783 361.201C358.216 379.054 330.16 402.672 326.33 435.828V435.832C325.369 444.218 325.369 456.048 325.592 465.619C325.704 470.439 325.875 474.748 326.018 477.852C326.089 479.404 326.153 480.656 326.199 481.522C326.223 481.955 326.242 482.292 326.255 482.521C326.261 482.626 326.265 482.709 326.269 482.768L326.364 566.554L326.377 577.505L333.373 569.079L366.384 529.32L367.31 528.205L367.297 526.756C366.96 488.153 385.907 456.416 421.522 441.363H421.523C431.45 437.166 441.037 435.507 449.187 435.807C457.396 436.109 463.856 438.379 467.865 441.698C471.707 444.878 473.462 449.102 472.466 454.345C471.417 459.865 467.211 466.987 457.833 475.146C448.114 483.592 436.285 490.648 423.792 498.218C411.419 505.714 398.471 513.674 387.152 523.76C348.249 558.396 318.365 603.998 326.405 659.871L326.881 663.18L330.223 663.267L351.989 663.831C352.138 669.37 352.327 678.273 352.273 681.023C352.265 681.434 352.193 682.391 349.218 683.461C346.25 684.527 341.692 685.147 335.674 685.435C329.738 685.718 322.772 685.669 315.157 685.579C308.371 685.499 301.095 685.388 293.75 685.466L283.75 664.317L313.294 663.93L316.708 663.885L317.167 660.501C326.106 594.599 283.272 551.064 232.204 519.801L231.284 519.254C226.543 516.509 219.659 513.594 212.146 510.504C203.995 507.152 194.884 503.509 186.076 499.428C177.259 495.342 168.948 490.906 162.421 486.049C157.506 482.391 153.864 478.685 151.683 474.945C181.085 467.827 203.197 470.677 221.291 480.129C240.447 490.135 255.647 507.815 270.23 530.475L270.271 530.537L270.313 530.599L309.344 586.499L316.553 596.823V418.648C316.553 417.926 316.363 417.335 316.295 417.128C316.197 416.828 316.079 416.542 315.971 416.299C315.752 415.807 315.465 415.246 315.149 414.662C314.511 413.481 313.624 411.968 312.59 410.269C310.514 406.857 307.742 402.521 304.927 398.223C302.109 393.92 299.226 389.624 296.922 386.286C295.771 384.62 294.753 383.174 293.952 382.079C293.553 381.534 293.192 381.054 292.887 380.667C292.647 380.363 292.259 379.879 291.858 379.517L291.85 379.509L291.479 379.184C287.575 375.856 281.5 373.379 276.06 371.186C270.051 368.763 264.421 366.552 260.44 363.8L260.439 363.799C240.622 350.097 224.446 334.272 219.869 311.085C228.898 309.101 240.905 312.121 252.767 318.173C265.87 324.858 277.438 334.557 282.668 342.469V342.47C284.637 345.452 286.169 348.937 287.658 352.806C289.089 356.523 290.575 360.866 292.267 364.796C295.745 372.876 300.773 380.94 311.195 384.828L316.541 386.822V278.517Z" fill="#602930" stroke="#FCF6EB" stroke-width="7.9218"/>
</g>
<defs>
<clipPath id="clip0_503_534">
<rect width="320" height="592" fill="white"/>
</clipPath>
</defs>
</svg>
