<svg width="640" height="592" viewBox="0 0 640 592" fill="none" xmlns="http://www.w3.org/2000/svg">
<g clip-path="url(#clip0_503_1102)">
<rect x="0.179688" width="640" height="592" fill="#602930"/>
<path d="M33.2557 84.6875L45.6269 62.7479C47.1733 59.9129 48.913 57.851 50.846 56.5623C52.8435 55.2737 55.1631 54.6293 57.8048 54.6293H60.4144L60.0278 55.9824C52.5535 55.9824 46.7545 54.275 42.6308 50.86C38.5071 47.3806 36.4452 42.5159 36.4452 36.2658C36.4452 29.9514 38.4426 25.0867 42.4375 21.6717C46.4968 18.2567 52.2958 16.5492 59.8345 16.5492L88.3462 16.5492L88.3462 84.6875L79.3578 84.6875V56.2724H67.8564C64.6992 56.2724 62.1863 56.7234 60.3177 57.6255C58.4492 58.5276 56.7739 60.2995 55.2919 62.9412L43.114 84.6875H33.2557ZM61.1876 49.3136H79.3578V23.798L61.1876 23.798C50.5561 23.798 45.2403 28.0506 45.2403 36.5558C45.2403 45.061 50.5561 49.3136 61.1876 49.3136ZM104.91 84.6875L104.91 16.5492L151.399 16.5492V23.798L113.609 23.798L113.609 46.3174H134.775C142.121 46.3174 147.823 47.9283 151.882 51.1499C156.006 54.3072 158.068 59.043 158.068 65.3575C158.068 71.672 156.006 76.4722 151.882 79.7583C147.823 83.0444 142.121 84.6875 134.775 84.6875H104.91ZM113.609 77.5354H133.809C139.092 77.5354 142.958 76.5367 145.407 74.5392C147.92 72.5418 149.176 69.5134 149.176 65.4541C149.176 61.3948 147.92 58.3987 145.407 56.4657C142.958 54.4683 139.092 53.4695 133.809 53.4695H113.609V77.5354ZM168.186 86.1373L163.837 79.2751C166.543 77.8576 168.959 76.1501 171.085 74.1526C173.212 72.1552 174.984 69.6101 176.401 66.5173C177.819 63.4245 178.882 59.4941 179.591 54.726C180.364 49.9579 180.75 44.0945 180.75 37.1357V16.5492L227.916 16.5492L227.916 84.6875H218.927L218.927 24.0879L189.062 24.0879V39.3586C189.062 46.253 188.611 52.2775 187.709 57.4322C186.807 62.5869 185.454 67.0328 183.65 70.7699C181.91 74.4426 179.72 77.5354 177.078 80.0483C174.5 82.4968 171.536 84.5264 168.186 86.1373ZM241.898 50.57C241.898 43.4179 243.155 37.2323 245.668 32.0132C248.18 26.7941 251.789 22.7671 256.492 19.932C261.26 17.0969 266.931 15.6794 273.503 15.6794C280.011 15.6794 285.616 17.0969 290.32 19.932C295.088 22.7671 298.761 26.7941 301.338 32.0132C303.915 37.2323 305.204 43.3857 305.204 50.4734C305.204 57.6255 303.915 63.8433 301.338 69.1268C298.761 74.3459 295.088 78.4052 290.32 81.3047C285.616 84.1398 280.011 85.5574 273.503 85.5574C266.931 85.5574 261.293 84.1398 256.589 81.3047C251.885 78.4052 248.245 74.3459 245.668 69.1268C243.155 63.8433 241.898 57.6577 241.898 50.57ZM251.37 50.57C251.37 59.0752 253.238 65.7119 256.976 70.4799C260.713 75.248 266.222 77.632 273.503 77.632C280.526 77.632 285.971 75.2802 289.837 70.5766C293.767 65.8085 295.732 59.1397 295.732 50.57C295.732 42.0004 293.799 35.3638 289.933 30.6601C286.067 25.9565 280.59 23.6047 273.503 23.6047C266.222 23.6047 260.713 25.9565 256.976 30.6601C253.238 35.3638 251.37 42.0004 251.37 50.57ZM310.794 100.055V77.3421H317.753C321.232 73.2184 323.777 67.6127 325.388 60.525C327.063 53.4373 327.901 44.6422 327.901 34.1395V16.5492L374.969 16.5492V77.3421H385.021V100.055H376.999V84.6875H318.912V100.055H310.794ZM327.031 77.3421H366.078V23.798L336.213 23.798V34.8161C336.213 45.061 335.472 53.5984 333.99 60.4283C332.508 67.1938 330.188 72.8318 327.031 77.3421ZM395.521 84.6875V16.5492L404.51 16.5492V46.3174L422.39 46.3174C429.735 46.3174 435.438 47.9283 439.497 51.1499C443.621 54.3072 445.682 59.043 445.682 65.3575C445.682 71.672 443.621 76.4722 439.497 79.7583C435.438 83.0444 429.735 84.6875 422.39 84.6875H395.521ZM404.51 77.5354H421.423C426.707 77.5354 430.573 76.5367 433.021 74.5392C435.534 72.5418 436.791 69.5134 436.791 65.4541C436.791 61.3948 435.534 58.3987 433.021 56.4657C430.573 54.4683 426.707 53.4695 421.423 53.4695L404.51 53.4695V77.5354ZM455.444 84.6875V16.5492H464.433V84.6875H455.444ZM480.939 84.6875V16.5492H489.928V46.3174L529.554 46.3174V16.5492H538.639V84.6875H529.554V53.9528L489.928 53.9528V84.6875H480.939ZM550.39 84.6875L562.761 62.7479C564.307 59.9129 566.047 57.851 567.98 56.5623C569.978 55.2737 572.297 54.6293 574.939 54.6293H577.549L577.162 55.9824C569.688 55.9824 563.889 54.275 559.765 50.86C555.641 47.3806 553.579 42.5159 553.579 36.2658C553.579 29.9514 555.577 25.0867 559.572 21.6717C563.631 18.2567 569.43 16.5492 576.969 16.5492L605.48 16.5492V84.6875H596.492V56.2724H584.991C581.833 56.2724 579.32 56.7234 577.452 57.6255C575.583 58.5276 573.908 60.2995 572.426 62.9412L560.248 84.6875H550.39ZM578.322 49.3136H596.492V23.798L578.322 23.798C567.69 23.798 562.374 28.0506 562.374 36.5558C562.374 45.061 567.69 49.3136 578.322 49.3136Z" fill="#E73F40"/>
<path d="M27.9683 278.674L27.9683 214.825H71.5301V221.618H36.1192V242.719H55.9529C62.8359 242.719 68.1792 244.229 71.983 247.248C75.8471 250.206 77.7791 254.644 77.7791 260.561C77.7791 266.478 75.8471 270.976 71.983 274.055C68.1792 277.134 62.8359 278.674 55.9529 278.674H27.9683ZM36.1192 271.972H55.0473C59.9982 271.972 63.6208 271.036 65.9151 269.164C68.2698 267.293 69.4471 264.455 69.4471 260.651C69.4471 256.848 68.2698 254.04 65.9151 252.229C63.6208 250.357 59.9982 249.421 55.0473 249.421H36.1192L36.1192 271.972ZM83.0036 278.674L111.26 214.825H118.596L147.305 278.674H138.611L130.731 260.561L134.354 262.734H95.5016L99.4865 260.561L91.6073 278.674H83.0036ZM114.792 224.244L100.664 257.753L98.4902 255.851H131.365L129.645 257.753L115.154 224.244H114.792ZM156.387 278.674L156.387 214.825H164.809V242.719H201.941V214.825H210.454L210.454 278.674H201.941L201.941 249.874H164.809L164.809 278.674H156.387ZM219.382 278.674L247.638 214.825H254.974L283.683 278.674H274.989L267.11 260.561L270.732 262.734L231.88 262.734L235.865 260.561L227.986 278.674H219.382ZM251.17 224.244L237.042 257.753L234.869 255.851H267.744L266.023 257.753L251.533 224.244H251.17ZM292.765 278.674V214.825L301.188 214.825V242.719H338.32V214.825H346.833V278.674H338.32V249.874H301.188V278.674H292.765ZM359.926 246.704C359.926 240.003 361.104 234.206 363.458 229.316C365.813 224.425 369.194 220.652 373.602 217.995C378.07 215.339 383.383 214.01 389.541 214.01C395.639 214.01 400.892 215.339 405.3 217.995C409.767 220.652 413.209 224.425 415.624 229.316C418.039 234.206 419.247 239.972 419.247 246.614C419.247 253.316 418.039 259.142 415.624 264.093C413.209 268.983 409.767 272.787 405.3 275.504C400.892 278.161 395.639 279.489 389.541 279.489C383.383 279.489 378.1 278.161 373.692 275.504C369.285 272.787 365.873 268.983 363.458 264.093C361.104 259.142 359.926 253.346 359.926 246.704ZM368.802 246.704C368.802 254.674 370.553 260.893 374.055 265.361C377.556 269.829 382.719 272.063 389.541 272.063C396.122 272.063 401.224 269.859 404.847 265.451C408.53 260.983 410.371 254.734 410.371 246.704C410.371 238.674 408.56 232.455 404.937 228.048C401.315 223.64 396.183 221.437 389.541 221.437C382.719 221.437 377.556 223.64 374.055 228.048C370.553 232.455 368.802 238.674 368.802 246.704ZM432.593 278.674V214.825H458.585C465.468 214.825 470.751 216.274 474.434 219.173C478.117 222.071 479.958 226.146 479.958 231.399C479.958 235.384 478.751 238.704 476.336 241.361C473.981 244.018 470.751 245.799 466.645 246.704V245.346C471.355 245.889 475.008 247.519 477.604 250.236C480.26 252.953 481.589 256.546 481.589 261.014C481.589 266.689 479.687 271.066 475.883 274.146C472.079 277.164 466.706 278.674 459.762 278.674H432.593ZM440.744 271.972H458.947C463.415 271.972 466.917 271.127 469.453 269.436C472.049 267.685 473.347 264.817 473.347 260.832C473.347 256.787 472.049 253.919 469.453 252.229C466.917 250.538 463.415 249.693 458.947 249.693H440.744V271.972ZM440.744 242.991H457.408C462.178 242.991 465.74 242.086 468.094 240.274C470.449 238.403 471.626 235.716 471.626 232.214C471.626 228.712 470.449 226.055 468.094 224.244C465.74 222.372 462.178 221.437 457.408 221.437H440.744V242.991ZM494.414 278.674V214.825H502.203V267.897H500.12L540.15 214.825H546.67V278.674H538.791V225.603H540.874L500.754 278.674H494.414ZM562.161 278.674V214.825H570.584V242.719H607.715V214.825H616.229V278.674H607.715V249.874H570.584V278.674H562.161Z" fill="#E73F40"/>
<path d="M74.8254 473L74.8254 412.497H51.2428V404.862H107.59V412.497H83.9105L83.9105 473H74.8254ZM110.722 438.883C110.722 431.73 111.978 425.545 114.491 420.326C117.004 415.107 120.612 411.08 125.316 408.244C130.084 405.409 135.754 403.992 142.326 403.992C148.834 403.992 154.44 405.409 159.144 408.244C163.912 411.08 167.584 415.107 170.162 420.326C172.739 425.545 174.028 431.698 174.028 438.786C174.028 445.938 172.739 452.156 170.162 457.439C167.584 462.658 163.912 466.718 159.144 469.617C154.44 472.452 148.834 473.87 142.326 473.87C135.754 473.87 130.116 472.452 125.413 469.617C120.709 466.718 117.069 462.658 114.491 457.439C111.978 452.156 110.722 445.97 110.722 438.883ZM120.194 438.883C120.194 447.388 122.062 454.024 125.799 458.792C129.536 463.561 135.045 465.945 142.326 465.945C149.35 465.945 154.794 463.593 158.66 458.889C162.591 454.121 164.556 447.452 164.556 438.883C164.556 430.313 162.623 423.676 158.757 418.973C154.891 414.269 149.414 411.917 142.326 411.917C135.045 411.917 129.536 414.269 125.799 418.973C122.062 423.676 120.194 430.313 120.194 438.883ZM188.271 473L188.271 404.862H196.196L223.065 465.365H220.165L247.034 404.862L254.862 404.862L254.862 473H246.647L246.647 416.846H249.643L224.418 473H218.715L193.49 416.846H196.486L196.486 473H188.271ZM264.559 473L294.714 404.862H302.543L333.181 473H323.902L315.494 453.67L319.36 455.99L277.897 455.99L282.15 453.67L273.741 473H264.559ZM298.483 414.913L283.406 450.674L281.086 448.644L316.17 448.644L314.334 450.674L298.87 414.913H298.483ZM351.184 473V412.497H327.601V404.862H383.948V412.497H360.269V473H351.184ZM378.576 473L408.731 404.862H416.559L447.198 473H437.919L429.511 453.67L433.377 455.99H391.914L396.166 453.67L387.758 473H378.576ZM412.5 414.913L397.423 450.674L395.103 448.644H430.187L428.351 450.674L412.887 414.913H412.5ZM454.473 474.45L450.124 467.588C452.83 466.17 455.247 464.463 457.373 462.465C459.499 460.468 461.271 457.923 462.689 454.83C464.106 451.737 465.169 447.807 465.878 443.038C466.651 438.27 467.038 432.407 467.038 425.448V404.862H514.203V473H505.215V412.4H475.35V427.671C475.35 434.566 474.899 440.59 473.997 445.745C473.095 450.899 471.742 455.345 469.937 459.082C468.198 462.755 466.007 465.848 463.365 468.361C460.788 470.809 457.824 472.839 454.473 474.45ZM523.74 473L553.895 404.862H561.723L592.361 473H583.083L574.674 453.67L578.54 455.99L537.077 455.99L541.33 453.67L532.922 473H523.74ZM557.664 414.913L542.587 450.674L540.267 448.644H575.351L573.515 450.674L558.051 414.913H557.664Z" fill="#E73F40"/>
<path d="M101.479 147.883C101.479 140.73 102.735 134.545 105.248 129.326C107.761 124.107 111.369 120.08 116.073 117.244C120.841 114.409 126.511 112.992 133.083 112.992C139.591 112.992 145.197 114.409 149.9 117.244C154.668 120.08 158.341 124.107 160.918 129.326C163.496 134.545 164.784 140.698 164.784 147.786C164.784 154.938 163.496 161.156 160.918 166.439C158.341 171.658 154.668 175.718 149.9 178.617C145.197 181.452 139.591 182.87 133.083 182.87C126.511 182.87 120.873 181.452 116.169 178.617C111.466 175.718 107.825 171.658 105.248 166.439C102.735 161.156 101.479 154.97 101.479 147.883ZM110.95 147.883C110.95 156.388 112.819 163.024 116.556 167.792C120.293 172.561 125.802 174.945 133.083 174.945C140.106 174.945 145.551 172.593 149.417 167.889C153.348 163.121 155.313 156.452 155.313 147.883C155.313 139.313 153.38 132.676 149.514 127.973C145.648 123.269 140.171 120.917 133.083 120.917C125.802 120.917 120.293 123.269 116.556 127.973C112.819 132.676 110.95 139.313 110.95 147.883ZM179.027 182V113.862H223.39V121.4H188.016V182H179.027ZM244.034 182L255.825 159.77L256.018 163.057L224.317 113.862L234.079 113.862L260.464 155.035H258.531L280.277 113.862H289.652L253.505 182H244.034ZM297.386 182L297.386 113.862H325.608C332.889 113.862 338.462 115.601 342.328 119.081C346.194 122.56 348.127 127.361 348.127 133.482C348.127 139.603 346.194 144.435 342.328 147.979C338.462 151.459 332.889 153.198 325.608 153.198H306.374V182H297.386ZM306.374 145.853H324.738C329.506 145.853 333.114 144.79 335.563 142.663C338.011 140.473 339.235 137.412 339.235 133.482C339.235 129.551 338.011 126.523 335.563 124.397C333.114 122.27 329.506 121.207 324.738 121.207H306.374V145.853ZM360.718 182V113.862H369.707V143.63H409.333V113.862H418.418V182H409.333V151.265H369.707V182H360.718ZM427.946 182L458.101 113.862H465.929L496.567 182H487.289L478.88 162.67L482.746 164.99H441.283L445.536 162.67L437.128 182H427.946ZM461.87 123.913L446.793 159.674L444.473 157.644H479.557L477.721 159.674L462.257 123.913H461.87ZM514.571 182V121.497H490.988V113.862L547.335 113.862V121.497L523.656 121.497V182H514.571Z" fill="#E73F40"/>
<path d="M88.9916 376L88.9916 307.862H97.8834L97.8834 337.92H111.221L108.805 339.466L130.164 307.862H140.313L117.31 341.013L114.024 338.306C118.148 338.758 121.627 340.143 124.462 342.462C127.362 344.782 129.907 348.036 132.097 352.224L143.985 376H134.224L124.559 356.09C122.69 352.224 120.532 349.486 118.083 347.875C115.635 346.264 112.574 345.459 108.901 345.459H97.8834V376H88.9916ZM153.173 376V307.862H161.485V364.499H159.262L201.981 307.862H208.94L208.94 376H200.532V319.363H202.755L159.939 376H153.173ZM225.472 376L225.472 307.862H253.211C260.556 307.862 266.194 309.408 270.124 312.501C274.055 315.594 276.02 319.943 276.02 325.549C276.02 329.801 274.731 333.345 272.154 336.18C269.641 339.015 266.194 340.916 261.812 341.883V340.433C266.838 341.013 270.736 342.752 273.507 345.652C276.342 348.551 277.76 352.385 277.76 357.153C277.76 363.21 275.73 367.881 271.671 371.167C267.611 374.389 261.877 376 254.467 376H225.472ZM234.17 368.848H253.597C258.365 368.848 262.102 367.946 264.809 366.142C267.579 364.273 268.964 361.213 268.964 356.96C268.964 352.643 267.579 349.582 264.809 347.778C262.102 345.974 258.365 345.072 253.597 345.072H234.17L234.17 368.848ZM234.17 337.92H251.954C257.044 337.92 260.846 336.953 263.359 335.02C265.872 333.023 267.128 330.156 267.128 326.419C267.128 322.681 265.872 319.846 263.359 317.913C260.846 315.916 257.044 314.917 251.954 314.917H234.17V337.92ZM291.447 376L291.447 307.862H299.759V364.499H297.536L340.255 307.862H347.214V376H338.805V319.363H341.028L298.212 376H291.447ZM363.746 376V307.862H372.734V337.63H412.361V307.862H421.446V376H412.361V345.265H372.734V376H363.746ZM460.355 376.87C454.491 376.87 449.24 376.097 444.601 374.55C440.026 373.004 436.225 370.91 433.196 368.268L436.386 361.406C439.478 363.983 442.926 365.916 446.727 367.205C450.529 368.494 454.91 369.138 459.872 369.138C466.186 369.138 470.825 368.107 473.789 366.045C476.753 363.919 478.235 360.826 478.235 356.767C478.235 352.772 476.946 349.84 474.369 347.971C471.856 346.103 467.99 345.169 462.771 345.169H445.567V337.823H461.321C466.347 337.823 470.149 336.857 472.726 334.924C475.303 332.991 476.592 330.156 476.592 326.419C476.592 322.81 475.207 319.975 472.436 317.913C469.665 315.787 465.51 314.724 459.968 314.724C455.78 314.724 451.817 315.336 448.08 316.56C444.408 317.784 441.057 319.685 438.029 322.263L434.839 315.4C437.868 312.63 441.669 310.536 446.244 309.118C450.819 307.701 455.619 306.992 460.645 306.992C468.828 306.992 475.013 308.667 479.202 312.018C483.39 315.368 485.484 319.846 485.484 325.452C485.484 329.705 484.195 333.281 481.618 336.18C479.105 339.015 475.69 340.884 471.373 341.786V340.433C476.27 341.077 480.104 342.849 482.874 345.749C485.709 348.648 487.127 352.482 487.127 357.25C487.127 361.245 486.128 364.724 484.131 367.688C482.198 370.652 479.234 372.939 475.239 374.55C471.309 376.097 466.347 376.87 460.355 376.87ZM492.984 376L523.139 307.862H530.968L561.606 376H552.327L543.919 356.67L547.785 358.99H506.322L510.574 356.67L502.166 376H492.984ZM526.908 317.913L511.831 353.674L509.511 351.644H544.595L542.759 353.674L527.295 317.913H526.908Z" fill="#E73F40"/>
<path d="M135.992 576L135.992 507.862H144.303V564.499H142.081L184.8 507.862H191.759V576H183.35V519.363H185.573L142.757 576H135.992ZM208.29 576V507.862H252.653V515.4H217.279V576H208.29ZM273.297 576L285.088 553.77L285.281 557.057L253.58 507.862H263.342L289.727 549.035H287.794L309.54 507.862H318.915L282.768 576H273.297ZM326.649 576L326.649 507.862L354.871 507.862C362.152 507.862 367.725 509.601 371.591 513.081C375.457 516.56 377.39 521.361 377.39 527.482C377.39 533.603 375.457 538.435 371.591 541.979C367.725 545.459 362.152 547.198 354.871 547.198H335.637V576H326.649ZM335.637 539.853H354.001C358.769 539.853 362.377 538.79 364.826 536.663C367.274 534.473 368.498 531.412 368.498 527.482C368.498 523.551 367.274 520.523 364.826 518.397C362.377 516.27 358.769 515.207 354.001 515.207H335.637V539.853ZM389.981 576V507.862H434.053V515.207H398.679V537.727H431.83V545.072H398.679V568.655H434.053V576H389.981ZM506.429 591.367V576H446.989V507.862H455.881V568.365H495.604V507.862H504.496V568.365H514.451V591.367H506.429Z" fill="#E73F40"/>
</g>
<defs>
<clipPath id="clip0_503_1102">
<rect width="640" height="592" fill="white"/>
</clipPath>
</defs>
</svg>
