<svg width="320" height="592" viewBox="0 0 320 592" fill="none" xmlns="http://www.w3.org/2000/svg">
<g clip-path="url(#clip0_503_519)">
<rect x="-72" y="-0.626953" width="464" height="673.255" fill="#AA9951"/>
<mask id="path-2-inside-1_503_519" fill="white">
<path d="M-81.9467 661.408L-81.4584 660.824C-67.4577 644.058 -53.6124 621.009 -51.516 610.973C-50.903 608.043 -50.1679 600.556 -49.8816 594.337C-49.1052 577.475 -51.6296 565.553 -60.3196 545.03C-66.4199 530.624 -73.5635 521.714 -87.0189 511.725C-102.634 500.133 -117.987 492.498 -148.746 481.028C-179.544 469.543 -204.397 453.614 -214.534 438.864C-217.939 433.909 -224.147 416.417 -224.737 412.477C-226.083 403.491 -215.676 398.352 -202.177 398.352C-194.114 398.352 -178.421 399.273 -168.194 401.8C-148.746 409.822 -129.848 424.286 -109.995 444.48C-91.6918 463.099 -82.7576 473.823 -67.9881 502.115C-62.1538 513.29 -55.4903 527.793 -53.3456 532.725C-48.7054 543.396 -43.4265 559.084 -40.9403 569.594C-39.9524 573.77 -38.931 577.187 -38.6719 577.187C-37.5813 577.187 -24.9847 564.304 -23.0204 553.052C-20.5187 538.723 -23.2584 523.143 -24.4253 513.322C-24.8105 510.08 -26.0295 490.107 -40.9403 477.581C-48.7286 471.039 -67.9881 471.74 -87.0189 444.48C-93.6244 435.019 -103.355 415.494 -101.049 402.756C-100.536 399.92 -91.4552 402.397 -73.8225 407.4C-40.9403 416.73 -27.6587 441.369 -21.3137 454.216C-13.4281 470.182 -14.7014 497.052 -13.4281 513.322C-13.0098 518.667 -11.5051 528.563 -11.3425 533.008C-11.2515 535.483 -10.8976 537.41 -10.5545 537.292C-9.38684 536.889 3.39729 519.966 9.90605 510.207C24.2234 488.741 28.705 477.999 32.1643 456.856C34.5704 442.153 34.1091 437.084 29.5062 427.65C27.5202 423.58 25.458 419.7 24.9228 419.027C24.3534 418.311 21.528 417.41 18.1153 416.859C14.9064 416.34 6.15499 414.368 -1.33236 412.477C-17.008 408.518 -24.7583 407.4 -36.5125 407.4C-43.2554 407.4 -44.8952 407.183 -44.8952 406.289C-44.8952 404.617 -37.1263 401.271 -29.6498 399.724L-23.0205 398.352L-29.516 394.378C-49.0158 382.448 -69.2523 360.293 -80.1664 338.925C-82.9193 333.536 -87.5067 322.818 -90.3608 315.107C-96.227 299.26 -105.665 279.63 -114.888 264.094C-118.321 258.312 -121.13 253.317 -121.13 252.996C-121.13 252.674 -120.772 252.411 -120.333 252.411C-118.599 252.411 -108.722 257.949 -102.488 262.417C-98.8673 265.012 -95.7712 267.002 -95.6086 266.839C-95.446 266.676 -95.7829 263.276 -96.3585 259.282C-97.9633 248.136 -97.6958 212.022 -95.9408 202.954C-93.7035 191.398 -90.9567 181.158 -86.0163 165.959C-79.0244 144.453 -78.6012 135.519 -83.4678 112.219C-84.497 107.293 -85.3402 103 -85.3426 102.679C-85.355 100.89 -82.623 102.778 -77.4546 108.131C-69.9827 115.87 -67.0492 120.242 -64.3538 127.655C-61.9664 134.222 -61.3052 137.727 -61.2609 144.052C-61.2243 149.271 -60.756 148.962 -54.3888 139.527C-44.2744 124.54 -42.2364 113.838 -44.6168 88.2164C-45.4258 79.5129 -45.8093 71.9776 -45.4686 71.4713C-44.8283 70.5188 -44.0582 71.2743 -36.311 80.4599C-29.8163 88.1603 -20.7824 103.349 -20.7809 106.573C-20.7793 108.959 -19.3768 106.977 -16.3546 100.318C-11.4958 89.6129 -9.73069 81.7481 -9.67469 70.5515C-9.6257 60.7436 -9.91041 58.1781 -11.9649 49.9123C-13.6334 43.1971 -15.9477 37.1439 -20.6121 27.2908C-25.4211 17.1332 -27.3838 11.0364 -26.7101 8.34787C-25.9726 5.40697 -20.9684 2.42011 -13.9649 0.742487C-7.0267 -0.920338 -3.02126 -1.06442 -1.26474 0.286087C-0.586395 0.80791 0.340088 1.93567 0.792832 2.7924C2.14874 5.35712 5.40192 20.2003 6.85272 30.4412C7.836 37.3838 8.04604 38.6829 8.86518 42.9027C12.7672 62.9905 20.0266 79.4794 30.407 91.8318C33.7147 95.768 46.022 106.346 46.6093 105.758C46.7617 105.606 46.155 99.7253 45.2619 92.6893C42.5307 71.1839 43.1717 49.5696 46.6248 46.7003C48.2094 45.3841 48.7166 46.1676 51.983 54.9747C60.6038 78.2223 68.915 93.1893 81.6198 108.35C87.0333 114.811 103.63 131.226 104.185 130.67C104.326 130.53 103.065 127.285 101.384 123.459C99.7038 119.633 97.3989 113.349 96.2624 109.494C92.9002 98.0828 92.7415 85.7389 95.9574 85.7389C96.3083 85.7389 98.5984 89.3309 101.046 93.722C103.493 98.1123 108.528 106.266 112.236 111.84C121.244 125.387 127.152 135.539 131.754 145.379C135.73 153.884 144.115 176.386 147.548 187.767C149.8 195.236 154.249 214.421 154.249 216.667C154.249 218.893 155.564 218.435 156.167 216C156.458 214.822 158.498 210.185 160.7 205.696C166.482 193.908 176.242 181.391 178.542 182.814C179.481 183.395 179.103 185.565 176.052 197.112C172.661 209.944 170.031 229.256 169.047 248.542C167.387 281.093 164.779 299.922 159.77 315.518C158.535 319.361 157.761 322.506 158.048 322.506C158.336 322.506 159.263 322.021 160.109 321.428C160.956 320.834 164.694 319.272 168.418 317.956C179.435 314.063 193.922 312.857 193.922 315.833C193.922 316.407 191.56 318.283 188.672 320.002C176.347 327.334 165.66 337.419 149.115 357.327C130.128 380.173 116.686 392.51 100.336 402.096C89.6797 408.344 73.9341 414.18 60.8583 416.73L56.5377 417.572L52.0881 431.762C49.6408 439.567 47.4588 447.355 47.2394 449.068C45.6307 461.596 41.2767 480.441 37.4961 491.237C34.9469 498.516 25.8392 517.655 18.5618 531.025C16.1776 535.407 14.2258 539.354 14.2258 539.796C14.2258 541 26.0562 534.825 34.4514 529.238C47.3872 520.63 52.9228 514.816 63.6743 498.54C75.1725 481.134 80.9742 473.827 90.6015 464.619C106.602 449.316 125.84 439.18 145.211 435.848C153.663 434.394 167.403 434.354 175.276 435.76C186.059 437.687 202.826 445.521 203.71 449.046C204.805 453.412 200.982 459.357 190.606 469.425C181.09 478.66 175.89 482.709 165.529 488.953C144.789 501.452 126.025 508.381 99.6276 513.29C71.9582 518.435 71.6852 518.547 47.6704 534.516C37.619 541.2 24.3191 549.542 18.1153 553.052C8.13399 558.701 6.04685 560.256 -0.0153771 566.559C-7.54399 574.387 -10.5576 579.73 -19.6256 601.331C-44.4946 660.572 -50.0683 671.164 -56.994 672.339C-58.255 672.552 -65.7626 672.675 -73.6778 672.609L-74.5051 672.603L-75.0851 672.598C-83.4611 672.533 -87.483 672.502 -88.1566 670.983C-88.7789 669.579 -86.5431 666.905 -82.2417 661.761L-81.9809 661.449L-81.9569 661.42L-81.9467 661.408Z"/>
</mask>
<path d="M-81.9467 661.408L-81.4584 660.824C-67.4577 644.058 -53.6124 621.009 -51.516 610.973C-50.903 608.043 -50.1679 600.556 -49.8816 594.337C-49.1052 577.475 -51.6296 565.553 -60.3196 545.03C-66.4199 530.624 -73.5635 521.714 -87.0189 511.725C-102.634 500.133 -117.987 492.498 -148.746 481.028C-179.544 469.543 -204.397 453.614 -214.534 438.864C-217.939 433.909 -224.147 416.417 -224.737 412.477C-226.083 403.491 -215.676 398.352 -202.177 398.352C-194.114 398.352 -178.421 399.273 -168.194 401.8C-148.746 409.822 -129.848 424.286 -109.995 444.48C-91.6918 463.099 -82.7576 473.823 -67.9881 502.115C-62.1538 513.29 -55.4903 527.793 -53.3456 532.725C-48.7054 543.396 -43.4265 559.084 -40.9403 569.594C-39.9524 573.77 -38.931 577.187 -38.6719 577.187C-37.5813 577.187 -24.9847 564.304 -23.0204 553.052C-20.5187 538.723 -23.2584 523.143 -24.4253 513.322C-24.8105 510.08 -26.0295 490.107 -40.9403 477.581C-48.7286 471.039 -67.9881 471.74 -87.0189 444.48C-93.6244 435.019 -103.355 415.494 -101.049 402.756C-100.536 399.92 -91.4552 402.397 -73.8225 407.4C-40.9403 416.73 -27.6587 441.369 -21.3137 454.216C-13.4281 470.182 -14.7014 497.052 -13.4281 513.322C-13.0098 518.667 -11.5051 528.563 -11.3425 533.008C-11.2515 535.483 -10.8976 537.41 -10.5545 537.292C-9.38684 536.889 3.39729 519.966 9.90605 510.207C24.2234 488.741 28.705 477.999 32.1643 456.856C34.5704 442.153 34.1091 437.084 29.5062 427.65C27.5202 423.58 25.458 419.7 24.9228 419.027C24.3534 418.311 21.528 417.41 18.1153 416.859C14.9064 416.34 6.15499 414.368 -1.33236 412.477C-17.008 408.518 -24.7583 407.4 -36.5125 407.4C-43.2554 407.4 -44.8952 407.183 -44.8952 406.289C-44.8952 404.617 -37.1263 401.271 -29.6498 399.724L-23.0205 398.352L-29.516 394.378C-49.0158 382.448 -69.2523 360.293 -80.1664 338.925C-82.9193 333.536 -87.5067 322.818 -90.3608 315.107C-96.227 299.26 -105.665 279.63 -114.888 264.094C-118.321 258.312 -121.13 253.317 -121.13 252.996C-121.13 252.674 -120.772 252.411 -120.333 252.411C-118.599 252.411 -108.722 257.949 -102.488 262.417C-98.8673 265.012 -95.7712 267.002 -95.6086 266.839C-95.446 266.676 -95.7829 263.276 -96.3585 259.282C-97.9633 248.136 -97.6958 212.022 -95.9408 202.954C-93.7035 191.398 -90.9567 181.158 -86.0163 165.959C-79.0244 144.453 -78.6012 135.519 -83.4678 112.219C-84.497 107.293 -85.3402 103 -85.3426 102.679C-85.355 100.89 -82.623 102.778 -77.4546 108.131C-69.9827 115.87 -67.0492 120.242 -64.3538 127.655C-61.9664 134.222 -61.3052 137.727 -61.2609 144.052C-61.2243 149.271 -60.756 148.962 -54.3888 139.527C-44.2744 124.54 -42.2364 113.838 -44.6168 88.2164C-45.4258 79.5129 -45.8093 71.9776 -45.4686 71.4713C-44.8283 70.5188 -44.0582 71.2743 -36.311 80.4599C-29.8163 88.1603 -20.7824 103.349 -20.7809 106.573C-20.7793 108.959 -19.3768 106.977 -16.3546 100.318C-11.4958 89.6129 -9.73069 81.7481 -9.67469 70.5515C-9.6257 60.7436 -9.91041 58.1781 -11.9649 49.9123C-13.6334 43.1971 -15.9477 37.1439 -20.6121 27.2908C-25.4211 17.1332 -27.3838 11.0364 -26.7101 8.34787C-25.9726 5.40697 -20.9684 2.42011 -13.9649 0.742487C-7.0267 -0.920338 -3.02126 -1.06442 -1.26474 0.286087C-0.586395 0.80791 0.340088 1.93567 0.792832 2.7924C2.14874 5.35712 5.40192 20.2003 6.85272 30.4412C7.836 37.3838 8.04604 38.6829 8.86518 42.9027C12.7672 62.9905 20.0266 79.4794 30.407 91.8318C33.7147 95.768 46.022 106.346 46.6093 105.758C46.7617 105.606 46.155 99.7253 45.2619 92.6893C42.5307 71.1839 43.1717 49.5696 46.6248 46.7003C48.2094 45.3841 48.7166 46.1676 51.983 54.9747C60.6038 78.2223 68.915 93.1893 81.6198 108.35C87.0333 114.811 103.63 131.226 104.185 130.67C104.326 130.53 103.065 127.285 101.384 123.459C99.7038 119.633 97.3989 113.349 96.2624 109.494C92.9002 98.0828 92.7415 85.7389 95.9574 85.7389C96.3083 85.7389 98.5984 89.3309 101.046 93.722C103.493 98.1123 108.528 106.266 112.236 111.84C121.244 125.387 127.152 135.539 131.754 145.379C135.73 153.884 144.115 176.386 147.548 187.767C149.8 195.236 154.249 214.421 154.249 216.667C154.249 218.893 155.564 218.435 156.167 216C156.458 214.822 158.498 210.185 160.7 205.696C166.482 193.908 176.242 181.391 178.542 182.814C179.481 183.395 179.103 185.565 176.052 197.112C172.661 209.944 170.031 229.256 169.047 248.542C167.387 281.093 164.779 299.922 159.77 315.518C158.535 319.361 157.761 322.506 158.048 322.506C158.336 322.506 159.263 322.021 160.109 321.428C160.956 320.834 164.694 319.272 168.418 317.956C179.435 314.063 193.922 312.857 193.922 315.833C193.922 316.407 191.56 318.283 188.672 320.002C176.347 327.334 165.66 337.419 149.115 357.327C130.128 380.173 116.686 392.51 100.336 402.096C89.6797 408.344 73.9341 414.18 60.8583 416.73L56.5377 417.572L52.0881 431.762C49.6408 439.567 47.4588 447.355 47.2394 449.068C45.6307 461.596 41.2767 480.441 37.4961 491.237C34.9469 498.516 25.8392 517.655 18.5618 531.025C16.1776 535.407 14.2258 539.354 14.2258 539.796C14.2258 541 26.0562 534.825 34.4514 529.238C47.3872 520.63 52.9228 514.816 63.6743 498.54C75.1725 481.134 80.9742 473.827 90.6015 464.619C106.602 449.316 125.84 439.18 145.211 435.848C153.663 434.394 167.403 434.354 175.276 435.76C186.059 437.687 202.826 445.521 203.71 449.046C204.805 453.412 200.982 459.357 190.606 469.425C181.09 478.66 175.89 482.709 165.529 488.953C144.789 501.452 126.025 508.381 99.6276 513.29C71.9582 518.435 71.6852 518.547 47.6704 534.516C37.619 541.2 24.3191 549.542 18.1153 553.052C8.13399 558.701 6.04685 560.256 -0.0153771 566.559C-7.54399 574.387 -10.5576 579.73 -19.6256 601.331C-44.4946 660.572 -50.0683 671.164 -56.994 672.339C-58.255 672.552 -65.7626 672.675 -73.6778 672.609L-74.5051 672.603L-75.0851 672.598C-83.4611 672.533 -87.483 672.502 -88.1566 670.983C-88.7789 669.579 -86.5431 666.905 -82.2417 661.761L-81.9809 661.449L-81.9569 661.42L-81.9467 661.408Z" fill="#E73F40"/>
<path d="M-82.2417 661.761L-79.174 664.328L-79.266 664.438L-82.3337 661.871L-85.4014 659.304L-85.3094 659.194L-82.2417 661.761ZM-81.4584 660.824L-75.318 665.952L-75.3194 665.953L-81.4584 660.824ZM-81.9467 661.408L-88.0875 656.281L-88.0858 656.279L-81.9467 661.408ZM-81.9569 661.42L-75.8162 666.548L-75.8198 666.552L-81.9569 661.42ZM-81.9809 661.449L-88.1183 656.318L-88.1181 656.317L-81.9809 661.449ZM-82.2417 661.761L-76.1043 666.893L-76.1046 666.893L-82.2417 661.761ZM-88.1566 670.983L-95.4701 674.225L-95.4702 674.225L-88.1566 670.983ZM-75.0851 672.598L-75.023 664.598L-75.0219 664.598L-75.0851 672.598ZM-74.5051 672.603L-74.4419 664.603L-74.4407 664.603L-74.5051 672.603ZM-73.6778 672.609L-73.6135 664.61L-73.6117 664.61L-73.6778 672.609ZM-56.994 672.339L-55.6555 680.226L-55.6592 680.227L-56.994 672.339ZM-19.6256 601.331L-12.2493 604.428L-12.2493 604.428L-19.6256 601.331ZM-0.0153771 566.559L5.7506 572.105L5.75042 572.105L-0.0153771 566.559ZM18.1153 553.052L14.175 546.089L14.1757 546.089L18.1153 553.052ZM47.6704 534.516L43.2405 527.855L43.2406 527.855L47.6704 534.516ZM99.6276 513.29L101.09 521.156L101.09 521.156L99.6276 513.29ZM165.529 488.953L161.4 482.101L161.4 482.101L165.529 488.953ZM190.606 469.425L196.178 475.166L196.178 475.166L190.606 469.425ZM203.71 449.046L195.95 450.992L195.95 450.991L203.71 449.046ZM175.276 435.76L176.682 427.885L176.683 427.885L175.276 435.76ZM145.211 435.848L146.567 443.732L146.567 443.732L145.211 435.848ZM90.6015 464.619L96.131 470.401L96.1309 470.401L90.6015 464.619ZM63.6743 498.54L56.9991 494.131L56.9993 494.13L63.6743 498.54ZM34.4514 529.238L30.0194 522.578L30.0195 522.578L34.4514 529.238ZM18.5618 531.025L11.5345 527.201L11.5353 527.2L18.5618 531.025ZM37.4961 491.237L45.0465 493.881L45.0465 493.881L37.4961 491.237ZM47.2394 449.068L55.1746 450.084L55.1742 450.087L47.2394 449.068ZM52.0881 431.762L59.7216 434.156L59.7216 434.156L52.0881 431.762ZM56.5377 417.572L48.9042 415.178L50.3301 410.631L55.0075 409.719L56.5377 417.572ZM60.8583 416.73L62.3895 424.582L62.3884 424.582L60.8583 416.73ZM100.336 402.096L96.2891 395.195L96.2893 395.195L100.336 402.096ZM149.115 357.327L155.268 362.44L155.268 362.44L149.115 357.327ZM188.672 320.002L192.763 326.876L192.762 326.877L188.672 320.002ZM168.418 317.956L165.752 310.413L165.753 310.413L168.418 317.956ZM160.109 321.428L164.702 327.978L164.702 327.978L160.109 321.428ZM159.77 315.518L167.387 317.964L167.387 317.964L159.77 315.518ZM169.047 248.542L161.058 248.135L161.058 248.135L169.047 248.542ZM176.052 197.112L168.318 195.068L168.318 195.068L176.052 197.112ZM178.542 182.814L174.335 189.619L174.332 189.617L178.542 182.814ZM160.7 205.696L167.883 209.219L167.883 209.219L160.7 205.696ZM156.167 216L148.401 214.077L148.401 214.076L156.167 216ZM147.548 187.767L155.207 185.457L155.207 185.457L147.548 187.767ZM131.754 145.379L139.001 141.991L139.001 141.991L131.754 145.379ZM112.236 111.84L118.897 107.41L118.898 107.411L112.236 111.84ZM101.046 93.722L94.058 97.6172L94.0577 97.6166L101.046 93.722ZM96.2624 109.494L88.5889 111.756L88.5885 111.755L96.2624 109.494ZM101.384 123.459L94.06 126.677L94.0595 126.676L101.384 123.459ZM104.185 130.67L98.5251 125.017L98.5331 125.009L98.5411 125.001L104.185 130.67ZM81.6198 108.35L87.7515 103.212L87.7517 103.212L81.6198 108.35ZM51.983 54.9747L59.4838 52.1928L59.4839 52.1932L51.983 54.9747ZM46.6248 46.7003L41.5121 40.5472L41.5131 40.5464L46.6248 46.7003ZM45.2619 92.6893L53.1982 91.6814L53.1983 91.682L45.2619 92.6893ZM46.6093 105.758L40.9491 100.105L40.9562 100.098L40.9634 100.09L46.6093 105.758ZM30.407 91.8318L36.5316 86.685L36.5317 86.6852L30.407 91.8318ZM8.86518 42.9027L1.01197 44.4281L1.01178 44.4272L8.86518 42.9027ZM6.85272 30.4412L14.7736 29.3191L14.7737 29.3194L6.85272 30.4412ZM0.792832 2.7924L-6.2796 6.53144L-6.28024 6.53023L0.792832 2.7924ZM-1.26474 0.286087L3.61145 -6.05604L3.61305 -6.05481L-1.26474 0.286087ZM-13.9649 0.742487L-12.1004 8.52217L-12.1013 8.52238L-13.9649 0.742487ZM-26.7101 8.34787L-34.4702 6.40346L-34.4698 6.40205L-26.7101 8.34787ZM-20.6121 27.2908L-13.3815 23.8676L-13.3813 23.8679L-20.6121 27.2908ZM-11.9649 49.9123L-19.7286 51.8419L-19.7288 51.8414L-11.9649 49.9123ZM-9.67469 70.5515L-1.6748 70.5915L-1.6748 70.5915L-9.67469 70.5515ZM-16.3546 100.318L-23.6394 97.0119L-23.6393 97.0117L-16.3546 100.318ZM-20.7809 106.573L-28.7809 106.578L-28.7809 106.577L-20.7809 106.573ZM-36.311 80.4599L-42.4263 85.6178L-42.4264 85.6176L-36.311 80.4599ZM-45.4686 71.4713L-38.8289 75.934L-38.8317 75.9381L-45.4686 71.4713ZM-44.6168 88.2164L-36.6511 87.476L-36.6511 87.4764L-44.6168 88.2164ZM-54.3888 139.527L-61.02 135.052L-61.02 135.052L-54.3888 139.527ZM-61.2609 144.052L-53.2611 143.996L-53.2611 143.996L-61.2609 144.052ZM-64.3538 127.655L-56.8354 124.921L-56.8352 124.921L-64.3538 127.655ZM-77.4546 108.131L-71.6994 102.574L-71.6991 102.574L-77.4546 108.131ZM-85.3426 102.679L-93.3424 102.737L-93.3424 102.734L-85.3426 102.679ZM-83.4678 112.219L-75.6369 110.583L-75.6368 110.584L-83.4678 112.219ZM-86.0163 165.959L-93.6244 163.486L-93.6243 163.486L-86.0163 165.959ZM-95.9408 202.954L-103.795 201.434L-103.795 201.434L-95.9408 202.954ZM-96.3585 259.282L-104.277 260.423L-104.277 260.422L-96.3585 259.282ZM-95.6086 266.839L-101.282 261.199L-101.276 261.192L-101.269 261.185L-95.6086 266.839ZM-102.488 262.417L-107.149 268.919L-107.149 268.919L-102.488 262.417ZM-114.888 264.094L-108.009 260.01L-108.009 260.01L-114.888 264.094ZM-90.3608 315.107L-82.8584 312.33L-82.8583 312.33L-90.3608 315.107ZM-80.1664 338.925L-73.042 335.286L-73.0419 335.286L-80.1664 338.925ZM-29.516 394.378L-25.3409 387.554L-25.3407 387.554L-29.516 394.378ZM-23.0205 398.352L-18.8452 391.528L-1.58761 402.087L-21.3997 406.186L-23.0205 398.352ZM-29.6498 399.724L-31.2713 391.89L-31.2706 391.89L-29.6498 399.724ZM-1.33236 412.477L0.626516 404.721L0.626592 404.721L-1.33236 412.477ZM18.1153 416.859L16.8392 424.757L16.8386 424.757L18.1153 416.859ZM24.9228 419.027L31.1833 414.046L31.1867 414.05L24.9228 419.027ZM29.5062 427.65L36.6957 424.141L36.6961 424.142L29.5062 427.65ZM32.1643 456.856L24.2693 455.565L24.2693 455.564L32.1643 456.856ZM9.90605 510.207L3.25055 505.768L3.25065 505.768L9.90605 510.207ZM-10.5545 537.292L-7.94191 544.853L-7.94559 544.855L-10.5545 537.292ZM-11.3425 533.008L-19.3371 533.302L-19.3371 533.301L-11.3425 533.008ZM-13.4281 513.322L-5.45247 512.698L-13.4281 513.322ZM-87.0189 444.48L-93.5785 449.06L-87.0189 444.48ZM-40.9403 477.581L-35.7946 471.456L-40.9403 477.581ZM-24.4253 513.322L-16.4812 512.378L-16.4812 512.378L-24.4253 513.322ZM-23.0204 553.052L-30.9013 551.676L-30.9012 551.676L-23.0204 553.052ZM-40.9403 569.594L-48.7254 571.435L-48.7254 571.435L-40.9403 569.594ZM-53.3456 532.725L-46.0093 529.534L-46.0092 529.535L-53.3456 532.725ZM-67.9881 502.115L-60.8964 498.412L-60.8964 498.412L-67.9881 502.115ZM-109.995 444.48L-115.7 450.089L-115.7 450.089L-109.995 444.48ZM-168.194 401.8L-166.274 394.034L-165.695 394.177L-165.143 394.405L-168.194 401.8ZM-224.737 412.477L-216.825 411.292L-216.825 411.293L-224.737 412.477ZM-214.534 438.864L-207.941 434.332L-207.94 434.333L-214.534 438.864ZM-148.746 481.028L-151.541 488.523L-151.541 488.523L-148.746 481.028ZM-87.0189 511.725L-91.7874 518.148L-91.7876 518.148L-87.0189 511.725ZM-60.3196 545.03L-52.9528 541.911L-52.9528 541.911L-60.3196 545.03ZM-49.8816 594.337L-57.8731 593.969L-57.8731 593.969L-49.8816 594.337ZM-51.516 610.973L-59.3469 609.337L-59.3465 609.336L-51.516 610.973ZM-21.3137 454.216L-14.1408 450.673L-14.1408 450.673L-21.3137 454.216ZM-73.8225 407.4L-71.6388 399.704L-73.8225 407.4ZM-101.049 402.756L-108.921 401.331L-108.921 401.331L-101.049 402.756ZM-81.4584 660.824L-75.3194 665.953L-75.8077 666.538L-81.9467 661.408L-88.0858 656.279L-87.5975 655.694L-81.4584 660.824ZM-81.9467 661.408L-75.806 666.536L-75.8162 666.548L-81.9569 661.42L-88.0977 656.293L-88.0875 656.281L-81.9467 661.408ZM-81.9569 661.42L-75.8198 666.552L-75.8438 666.581L-81.9809 661.449L-88.1181 656.317L-88.0941 656.289L-81.9569 661.42ZM-81.9809 661.449L-75.8435 666.581L-76.1043 666.893L-82.2417 661.761L-88.3791 656.629L-88.1183 656.318L-81.9809 661.449ZM-82.2417 661.761L-76.1046 666.893C-77.193 668.194 -78.0918 669.27 -78.8455 670.203C-79.6084 671.147 -80.1159 671.814 -80.4461 672.296C-80.8241 672.848 -80.725 672.808 -80.5685 672.371C-80.4171 671.948 -79.8217 670.044 -80.8431 667.74L-88.1566 670.983L-95.4702 674.225C-96.8027 671.219 -96.1612 668.455 -95.6311 666.975C-95.096 665.481 -94.2858 664.188 -93.645 663.253C-92.3553 661.37 -90.4118 659.061 -88.3788 656.629L-82.2417 661.761ZM-88.1566 670.983L-80.8431 667.74C-81.9572 665.227 -83.9991 664.448 -84.291 664.342C-84.6421 664.216 -84.6098 664.289 -83.7422 664.373C-82.0469 664.536 -79.3874 664.564 -75.023 664.598L-75.0851 672.598L-75.1471 680.598C-79.1588 680.567 -82.6982 680.547 -85.2764 680.299C-86.5454 680.177 -88.1684 679.953 -89.7247 679.391C-91.222 678.851 -94.0192 677.498 -95.4701 674.225L-88.1566 670.983ZM-75.0851 672.598L-75.0219 664.598L-74.4419 664.603L-74.5051 672.603L-74.5682 680.602L-75.1482 680.598L-75.0851 672.598ZM-74.5051 672.603L-74.4407 664.603L-73.6135 664.61L-73.6778 672.609L-73.7421 680.609L-74.5694 680.602L-74.5051 672.603ZM-73.6778 672.609L-73.6117 664.61C-69.709 664.642 -65.9194 664.628 -62.9704 664.58C-61.4919 664.556 -60.2578 664.524 -59.3415 664.487C-58.2031 664.441 -58.0422 664.403 -58.3287 664.451L-56.994 672.339L-55.6592 680.227C-56.5762 680.382 -57.8266 680.439 -58.6979 680.474C-59.7913 680.518 -61.1652 680.553 -62.7108 680.578C-65.8095 680.628 -69.7313 680.642 -73.7439 680.609L-73.6778 672.609ZM-56.994 672.339L-58.3324 664.452C-58.7741 664.527 -58.649 664.802 -57.6634 663.712C-56.4702 662.393 -54.7215 659.831 -52.118 654.884C-46.9466 645.057 -39.4789 627.956 -27.002 598.235L-19.6256 601.331L-12.2493 604.428C-24.6414 633.947 -32.3949 651.762 -37.959 662.335C-40.7233 667.588 -43.2209 671.597 -45.7977 674.446C-48.5823 677.524 -51.751 679.564 -55.6555 680.226L-56.994 672.339ZM-19.6256 601.331L-27.002 598.235C-17.8911 576.532 -14.4117 569.986 -5.78117 561.013L-0.0153771 566.559L5.75042 572.105C-0.67631 578.787 -3.22401 582.929 -12.2493 604.428L-19.6256 601.331ZM-0.0153771 566.559L-5.78135 561.014C-2.67723 557.786 -0.271359 555.434 2.80075 553.145C5.78064 550.925 9.20696 548.901 14.175 546.089L18.1153 553.052L22.0556 560.014C17.0423 562.851 14.4344 564.43 12.3599 565.975C10.3775 567.452 8.7087 569.029 5.7506 572.105L-0.0153771 566.559ZM18.1153 553.052L14.1757 546.089C20.1375 542.716 33.2558 534.494 43.2405 527.855L47.6704 534.516L52.1002 541.178C41.9822 547.906 28.5008 556.367 22.055 560.014L18.1153 553.052ZM47.6704 534.516L43.2406 527.855C54.9959 520.037 61.817 515.476 69.2531 512.438C76.7089 509.392 84.6223 507.943 98.1651 505.425L99.6276 513.29L101.09 521.156C86.9636 523.782 80.9057 524.962 75.304 527.25C69.6825 529.546 64.3596 533.025 52.1002 541.178L47.6704 534.516ZM99.6276 513.29L98.165 505.425C123.722 500.672 141.565 494.054 161.4 482.101L165.529 488.953L169.658 495.805C148.013 508.85 128.328 516.09 101.09 521.156L99.6276 513.29ZM165.529 488.953L161.4 482.101C171.192 476.2 175.914 472.535 185.035 463.684L190.606 469.425L196.178 475.166C186.266 484.785 180.588 489.219 169.658 495.805L165.529 488.953ZM190.606 469.425L185.035 463.684C190.113 458.756 193.125 455.268 194.731 452.77C196.4 450.173 195.697 449.982 195.95 450.992L203.71 449.046L211.47 447.101C212.818 452.476 210.75 457.44 208.189 461.424C205.563 465.507 201.475 470.025 196.178 475.166L190.606 469.425ZM203.71 449.046L195.95 450.991C196.393 452.756 197.361 453.535 197.065 453.243C196.978 453.158 196.642 452.863 195.931 452.382C194.534 451.438 192.423 450.268 189.819 449.052C184.561 446.595 178.359 444.438 173.869 443.635L175.276 435.76L176.683 427.885C182.976 429.009 190.55 431.733 196.592 434.556C199.638 435.979 202.558 437.55 204.891 439.126C206.044 439.905 207.248 440.816 208.289 441.841C209.121 442.66 210.807 444.455 211.47 447.101L203.71 449.046ZM175.276 435.76L173.87 443.635C166.974 442.404 154.171 442.424 146.567 443.732L145.211 435.848L143.854 427.964C153.155 426.364 167.832 426.304 176.682 427.885L175.276 435.76ZM145.211 435.848L146.567 443.732C128.959 446.761 111.132 456.054 96.131 470.401L90.6015 464.619L85.0721 458.838C102.073 442.578 122.721 431.599 143.855 427.964L145.211 435.848ZM90.6015 464.619L96.1309 470.401C87.1064 479.031 81.6808 485.796 70.3493 502.95L63.6743 498.54L56.9993 494.13C68.6643 476.472 74.8419 468.622 85.0722 458.838L90.6015 464.619ZM63.6743 498.54L70.3494 502.949C64.8995 511.2 60.5175 517.195 55.6762 522.281C50.7708 527.434 45.624 531.413 38.8832 535.898L34.4514 529.238L30.0195 522.578C36.2146 518.455 40.3035 515.224 44.0877 511.249C47.9361 507.206 51.6976 502.156 56.9991 494.131L63.6743 498.54ZM34.4514 529.238L38.8833 535.898C34.4263 538.864 29.1233 541.947 24.8924 544.155C22.8059 545.245 20.7895 546.221 19.1807 546.866C18.4723 547.15 17.3817 547.56 16.2428 547.777C15.8448 547.852 14.3814 548.134 12.6388 547.75C11.6757 547.537 9.98953 546.983 8.50368 545.443C6.84899 543.729 6.22579 541.611 6.22579 539.796L14.2258 539.796L22.2258 539.796C22.2258 538.056 21.6257 535.999 20.0162 534.332C18.5757 532.839 16.957 532.317 16.0825 532.125C14.5174 531.78 13.3164 532.046 13.2582 532.058C12.7991 532.145 12.6983 532.227 13.2302 532.014C14.102 531.664 15.5679 530.974 17.4884 529.972C21.2715 527.997 26.0813 525.198 30.0194 522.578L34.4514 529.238ZM14.2258 539.796L6.22579 539.796C6.22579 538.635 6.48717 537.725 6.53291 537.558C6.62821 537.21 6.73081 536.916 6.80022 536.726C6.94278 536.336 7.10536 535.952 7.24518 535.634C7.53461 534.976 7.91242 534.183 8.32834 533.342C9.17052 531.639 10.3047 529.462 11.5345 527.201L18.5618 531.025L25.5892 534.848C24.4347 536.97 23.4008 538.957 22.6711 540.433C22.301 541.182 22.0418 541.733 21.8908 542.076C21.8104 542.259 21.8019 542.29 21.8284 542.217C21.8398 542.186 21.8981 542.027 21.9636 541.788C21.9971 541.666 22.0512 541.455 22.1007 541.185C22.1433 540.952 22.2258 540.448 22.2258 539.796L14.2258 539.796ZM18.5618 531.025L11.5353 527.2C18.7642 513.919 27.6175 495.241 29.9458 488.593L37.4961 491.237L45.0465 493.881C42.2764 501.791 32.9141 521.391 25.5884 534.849L18.5618 531.025ZM37.4961 491.237L29.9457 488.593C33.5238 478.375 37.7596 460.08 39.3046 448.049L47.2394 449.068L55.1742 450.087C53.5017 463.111 49.0297 482.507 45.0465 493.881L37.4961 491.237ZM47.2394 449.068L39.3042 448.052C39.5056 446.479 40.3113 443.445 41.1249 440.541C42.0283 437.317 43.2093 433.34 44.4546 429.369L52.0881 431.762L59.7216 434.156C58.5196 437.989 57.3859 441.808 56.5316 444.858C56.1036 446.385 55.7551 447.686 55.5059 448.682C55.2181 449.831 55.1604 450.195 55.1746 450.084L47.2394 449.068ZM52.0881 431.762L44.4546 429.369L48.9042 415.178L56.5377 417.572L64.1713 419.965L59.7216 434.156L52.0881 431.762ZM56.5377 417.572L55.0075 409.719L59.3281 408.877L60.8583 416.73L62.3884 424.582L58.0679 425.424L56.5377 417.572ZM60.8583 416.73L59.327 408.878C71.587 406.487 86.4714 400.951 96.2891 395.195L100.336 402.096L104.382 408.997C92.888 415.737 76.2812 421.873 62.3895 424.582L60.8583 416.73ZM100.336 402.096L96.2893 395.195C111.517 386.267 124.271 374.704 142.962 352.214L149.115 357.327L155.268 362.44C135.985 385.642 121.854 398.754 104.382 408.997L100.336 402.096ZM149.115 357.327L142.962 352.214C159.699 332.074 171.081 321.159 184.581 313.127L188.672 320.002L192.762 326.877C181.613 333.51 171.62 342.763 155.268 362.44L149.115 357.327ZM188.672 320.002L184.58 313.127C185.785 312.41 186.791 311.711 187.406 311.223C187.737 310.96 187.789 310.889 187.68 311.004C187.637 311.05 187.378 311.325 187.079 311.791C186.925 312.031 186.677 312.451 186.452 313.024C186.238 313.565 185.922 314.55 185.922 315.833L193.922 315.833L201.922 315.833C201.922 318.282 200.823 319.998 200.552 320.421C200.113 321.107 199.646 321.636 199.336 321.965C198.695 322.647 197.975 323.261 197.355 323.753C196.066 324.776 194.446 325.874 192.763 326.876L188.672 320.002ZM193.922 315.833L185.922 315.833C185.922 319.375 188.297 321.264 189.24 321.816C190.074 322.303 190.598 322.321 190.224 322.261C189.623 322.165 188.207 322.104 185.965 322.291C181.614 322.653 175.913 323.792 171.083 325.499L168.418 317.956L165.753 310.413C171.939 308.227 178.991 306.816 184.638 306.346C187.395 306.116 190.289 306.069 192.749 306.462C193.905 306.646 195.647 307.028 197.317 308.004C199.095 309.044 201.922 311.546 201.922 315.833L193.922 315.833ZM168.418 317.956L171.084 325.498C169.352 326.111 167.627 326.777 166.269 327.344C165.587 327.629 165.048 327.868 164.671 328.047C164.135 328.302 164.301 328.259 164.702 327.978L160.109 321.428L155.516 314.878C156.341 314.299 157.291 313.839 157.81 313.593C158.489 313.27 159.276 312.926 160.1 312.581C161.754 311.89 163.76 311.117 165.752 310.413L168.418 317.956ZM160.109 321.428L164.702 327.978C164.022 328.455 163.285 328.908 162.578 329.278C162.233 329.459 161.782 329.679 161.275 329.876C161.088 329.949 159.75 330.506 158.048 330.506L158.048 322.506L158.048 314.506C157.527 314.506 157.105 314.559 156.828 314.604C156.54 314.651 156.305 314.706 156.139 314.75C155.816 314.836 155.581 314.923 155.469 314.967C155.344 315.016 155.258 315.055 155.22 315.072C155.198 315.083 155.182 315.09 155.173 315.095C155.169 315.097 155.165 315.099 155.163 315.1C155.162 315.1 155.161 315.101 155.161 315.101C155.16 315.101 155.16 315.102 155.16 315.102C155.16 315.102 155.16 315.101 155.16 315.101C155.161 315.101 155.162 315.1 155.163 315.1C155.164 315.099 155.167 315.098 155.171 315.096C155.178 315.092 155.187 315.087 155.199 315.08C155.224 315.066 155.255 315.048 155.291 315.025C155.365 314.98 155.444 314.928 155.516 314.878L160.109 321.428ZM158.048 322.506L158.048 330.506C153.288 330.506 151.155 326.854 150.6 325.495C150.059 324.171 150.009 323.022 149.996 322.695C149.96 321.832 150.063 321.094 150.105 320.805C150.213 320.06 150.396 319.248 150.571 318.539C150.94 317.041 151.499 315.108 152.153 313.071L159.77 315.518L167.387 317.964C166.806 319.771 166.361 321.333 166.106 322.368C165.968 322.926 165.934 323.14 165.939 323.105C165.943 323.079 165.956 322.987 165.967 322.847C165.977 322.73 165.998 322.433 165.982 322.033C165.972 321.799 165.934 320.721 165.412 319.445C165.134 318.763 164.535 317.567 163.301 316.484C161.908 315.263 160.059 314.506 158.048 314.506L158.048 322.506ZM159.77 315.518L152.153 313.072C156.831 298.506 159.405 280.534 161.058 248.135L169.047 248.542L177.037 248.95C175.369 281.653 172.726 301.339 167.387 317.964L159.77 315.518ZM169.047 248.542L161.058 248.135C162.058 228.521 164.738 208.617 168.318 195.068L176.052 197.112L183.787 199.155C180.585 211.272 178.004 229.991 177.037 248.95L169.047 248.542ZM176.052 197.112L168.318 195.068C169.872 189.185 170.625 186.125 170.912 184.479C171.072 183.561 170.948 183.801 171.022 184.508C171.069 184.947 171.218 185.854 171.777 186.899C172.397 188.057 173.306 188.983 174.335 189.619L178.542 182.814L182.749 176.01C185.739 177.859 186.718 180.78 186.934 182.832C187.107 184.47 186.874 186.082 186.675 187.223C186.245 189.693 185.284 193.491 183.787 199.155L176.052 197.112ZM178.542 182.814L174.332 189.617C177.601 191.64 180.542 190.244 180.694 190.174C181.206 189.938 181.282 189.789 180.852 190.164C180.08 190.836 178.826 192.181 177.236 194.22C174.113 198.225 170.524 203.835 167.883 209.219L160.7 205.696L153.518 202.173C156.659 195.769 160.84 189.227 164.618 184.382C166.478 181.997 168.456 179.743 170.342 178.1C171.24 177.317 172.501 176.331 174.01 175.637C175.159 175.109 178.908 173.633 182.751 176.012L178.542 182.814ZM160.7 205.696L167.883 209.219C166.826 211.373 165.813 213.554 165.04 215.311C164.652 216.193 164.341 216.929 164.122 217.481C163.845 218.178 163.858 218.223 163.932 217.924L156.167 216L148.401 214.076C148.749 212.675 149.666 210.525 150.394 208.868C151.265 206.89 152.372 204.508 153.518 202.173L160.7 205.696ZM156.167 216L163.932 217.923C163.645 219.082 163.197 220.341 162.492 221.527C161.986 222.38 160.527 224.622 157.613 225.636C155.873 226.242 153.646 226.366 151.443 225.384C149.372 224.462 148.162 222.94 147.52 221.816C146.353 219.777 146.249 217.711 146.249 216.667L154.249 216.667L162.249 216.667C162.249 216.573 162.244 216.294 162.167 215.886C162.096 215.515 161.914 214.757 161.408 213.872C160.898 212.981 159.846 211.612 157.951 210.768C155.923 209.865 153.888 209.991 152.351 210.526C149.841 211.4 148.823 213.209 148.733 213.362C148.445 213.847 148.387 214.136 148.401 214.077L156.167 216ZM154.249 216.667L146.249 216.667C146.249 217.16 146.307 217.268 146.163 216.406C146.058 215.779 145.896 214.916 145.678 213.844C145.246 211.71 144.637 208.945 143.95 205.983C142.564 200.005 140.936 193.551 139.888 190.077L147.548 187.767L155.207 185.457C156.412 189.452 158.135 196.326 159.536 202.369C160.243 205.417 160.887 208.337 161.359 210.665C161.594 211.824 161.797 212.886 161.944 213.768C162.052 214.415 162.249 215.613 162.249 216.667L154.249 216.667ZM147.548 187.767L139.888 190.077C136.539 178.973 128.284 156.846 124.507 148.768L131.754 145.379L139.001 141.991C143.177 150.922 151.69 173.799 155.207 185.457L147.548 187.767ZM131.754 145.379L124.507 148.768C120.135 139.419 114.459 129.631 105.574 116.27L112.236 111.84L118.898 107.411C128.029 121.143 134.169 131.659 139.001 141.991L131.754 145.379ZM112.236 111.84L105.575 116.271C101.786 110.575 96.6339 102.238 94.058 97.6172L101.046 93.722L108.033 89.8269C110.352 93.9866 115.27 101.957 118.897 107.41L112.236 111.84ZM101.046 93.722L94.0577 97.6166C92.8891 95.5198 91.7861 93.6652 90.9694 92.384C90.5483 91.7234 90.2737 91.3262 90.1431 91.1511C90.0586 91.0378 90.1472 91.1694 90.3634 91.3981C90.4555 91.4955 90.7693 91.8245 91.2569 92.1889C91.5038 92.3734 91.9571 92.6897 92.5839 92.9852C93.1498 93.2521 94.3485 93.7389 95.9574 93.7389L95.9574 85.7389L95.9574 77.7389C98.8061 77.7389 100.685 79.2601 100.834 79.3718C101.395 79.7909 101.796 80.2014 101.989 80.4055C102.408 80.8478 102.752 81.2944 102.97 81.5864C103.444 82.2221 103.96 82.9973 104.461 83.7836C105.489 85.3962 106.755 87.5332 108.034 89.8274L101.046 93.722ZM95.9574 85.7389L95.9574 93.7389C98.4977 93.7389 100.249 92.3899 101.08 91.3828C101.763 90.5556 101.905 89.9137 101.863 90.0609C101.794 90.2987 101.618 91.2968 101.642 93.2344C101.69 96.9384 102.439 102.15 103.936 107.232L96.2624 109.494L88.5885 111.755C86.724 105.426 85.7121 98.7606 85.6438 93.4399C85.6107 90.8652 85.7872 88.0642 86.4883 85.6309C86.8307 84.4427 87.4623 82.7472 88.7385 81.2004C90.1631 79.4737 92.6131 77.7389 95.9574 77.7389L95.9574 85.7389ZM96.2624 109.494L103.936 107.231C104.973 110.749 107.159 116.714 108.709 120.242L101.384 123.459L94.0595 126.676C92.2482 122.552 89.8251 115.949 88.5889 111.756L96.2624 109.494ZM101.384 123.459L108.708 120.241C109.581 122.227 110.364 124.106 110.925 125.55C111.198 126.253 111.458 126.954 111.652 127.55C111.739 127.817 111.877 128.259 111.985 128.747C112.031 128.953 112.143 129.478 112.182 130.137C112.2 130.452 112.224 131.116 112.09 131.937C111.99 132.548 111.611 134.566 109.83 136.34L104.185 130.67L98.5411 125.001C97.6023 125.935 97.0803 126.917 96.7915 127.62C96.5011 128.327 96.3668 128.943 96.299 129.359C96.1683 130.16 96.1928 130.796 96.2095 131.079C96.2445 131.674 96.3423 132.11 96.3638 132.207C96.4233 132.476 96.473 132.611 96.435 132.494C96.3794 132.323 96.2456 131.948 96.0109 131.344C95.5562 130.173 94.8681 128.516 94.06 126.677L101.384 123.459ZM104.185 130.67L109.846 136.324C107.95 138.221 105.713 138.64 104.394 138.68C103.138 138.719 102.164 138.454 101.702 138.31C100.758 138.015 100.06 137.606 99.8094 137.457C99.1933 137.091 98.653 136.677 98.3236 136.417C97.5826 135.832 96.7029 135.061 95.8063 134.246C93.9696 132.578 91.5845 130.288 89.0986 127.829C84.1843 122.968 78.4525 117.026 75.4879 113.488L81.6198 108.35L87.7517 103.212C90.2006 106.135 95.4738 111.63 100.35 116.454C102.759 118.837 104.966 120.951 106.567 122.405C107.389 123.152 107.939 123.623 108.233 123.855C108.421 124.003 108.3 123.891 107.99 123.707C107.893 123.649 107.321 123.302 106.472 123.037C106.058 122.908 105.125 122.65 103.902 122.688C102.615 122.727 100.403 123.136 98.5251 125.017L104.185 130.67ZM81.6198 108.35L75.4881 113.489C62.068 97.474 53.344 81.6538 44.4822 57.7562L51.983 54.9747L59.4839 52.1932C67.8637 74.7908 75.762 88.9045 87.7515 103.212L81.6198 108.35ZM51.983 54.9747L44.4823 57.7566C43.6645 55.5516 43.0646 53.9722 42.593 52.8267C42.0754 51.5694 41.8905 51.2851 41.9582 51.3896C42.0031 51.4589 42.3448 51.992 43.0479 52.5753C43.8434 53.2351 45.1929 54.0252 47.0269 54.1734C48.7902 54.3159 50.126 53.7913 50.7999 53.4489C51.1385 53.2768 51.3815 53.1154 51.5135 53.0225C51.6477 52.9281 51.7278 52.8615 51.7365 52.8542L46.6248 46.7003L41.5131 40.5464C41.7802 40.3246 44.4161 37.9103 48.3155 38.2254C52.6476 38.5754 54.8182 41.8125 55.3883 42.6929C56.1891 43.9297 56.8426 45.4103 57.3882 46.7357C57.98 48.173 58.6684 49.9943 59.4838 52.1928L51.983 54.9747ZM46.6248 46.7003L51.7375 52.8534C52.9257 51.8661 53.1416 50.9287 52.9471 51.4438C52.8376 51.734 52.6456 52.3833 52.4419 53.5038C52.0385 55.7217 51.7398 58.9247 51.6207 62.9433C51.384 70.93 51.8786 81.2912 53.1982 91.6814L45.2619 92.6893L37.3257 93.6972C35.914 82.582 35.3635 71.3833 35.6278 62.4692C35.7591 58.0374 36.0974 53.9548 36.7001 50.6409C36.9993 48.9955 37.4027 47.3175 37.9785 45.7924C38.4693 44.4924 39.4606 42.2519 41.5121 40.5472L46.6248 46.7003ZM45.2619 92.6893L53.1983 91.682C53.6503 95.2432 54.0331 98.5372 54.2855 100.985C54.4105 102.198 54.5097 103.261 54.5678 104.064C54.5955 104.447 54.6223 104.882 54.6302 105.283C54.6337 105.458 54.6382 105.812 54.6096 106.221C54.5968 106.405 54.5626 106.834 54.4527 107.361C54.398 107.623 54.287 108.096 54.0673 108.658C53.8923 109.106 53.3953 110.29 52.2552 111.426L46.6093 105.758L40.9634 100.09C39.828 101.221 39.3354 102.398 39.1644 102.836C38.9487 103.388 38.8414 103.847 38.79 104.093C38.6867 104.589 38.6577 104.976 38.6486 105.106C38.6364 105.281 38.6338 105.412 38.6331 105.472C38.6323 105.54 38.6331 105.585 38.6334 105.6C38.6338 105.623 38.6312 105.519 38.6095 105.219C38.5689 104.657 38.4891 103.782 38.3699 102.626C38.1337 100.336 37.7667 97.1714 37.3256 93.6966L45.2619 92.6893ZM46.6093 105.758L52.2695 111.412C49.8343 113.85 46.9235 113.83 45.9527 113.761C44.8097 113.68 43.9359 113.374 43.5615 113.234C42.7409 112.927 42.0768 112.539 41.7498 112.341C40.9918 111.884 40.1882 111.306 39.4809 110.773C38.0006 109.658 36.1595 108.145 34.3136 106.559C30.7636 103.507 26.4018 99.5007 24.2823 96.9784L30.407 91.8318L36.5317 86.6852C37.7199 88.0991 41.1655 91.3499 44.7429 94.4247C46.4607 95.9012 48.0133 97.1687 49.1092 97.9945C49.376 98.1955 49.5934 98.3534 49.7624 98.4716C49.9409 98.5963 50.0172 98.6429 50.0105 98.6388C50.0047 98.6354 49.9422 98.5975 49.8337 98.5413C49.7404 98.4929 49.5069 98.3753 49.1722 98.25C48.921 98.1559 48.1501 97.8769 47.0883 97.8014C46.1988 97.7381 43.3476 97.7034 40.9491 100.105L46.6093 105.758ZM30.407 91.8318L24.2824 96.9786C12.8232 83.3424 5.105 65.4995 1.01197 44.4281L8.86518 42.9027L16.7184 41.3772C20.4293 60.4816 27.23 75.6163 36.5316 86.685L30.407 91.8318ZM8.86518 42.9027L1.01178 44.4272C0.155811 40.0177 -0.0760464 38.5685 -1.06822 31.5631L6.85272 30.4412L14.7737 29.3194C15.7481 36.1992 15.9363 37.3482 16.7186 41.3782L8.86518 42.9027ZM6.85272 30.4412L-1.06817 31.5634C-1.75941 26.684 -2.89557 20.6146 -4.02731 15.4509C-4.59244 12.8725 -5.1407 10.5922 -5.61366 8.84734C-6.17706 6.76881 -6.42906 6.24875 -6.2796 6.53144L0.792832 2.7924L7.86526 -0.946645C8.69267 0.618403 9.3558 2.9155 9.82906 4.66143C10.3927 6.741 11.0027 9.29246 11.6017 12.0255C12.7982 17.4848 14.0141 23.9575 14.7736 29.3191L6.85272 30.4412ZM0.792832 2.7924L-6.28024 6.53023C-6.24463 6.59764 -6.22034 6.63773 -6.21294 6.64975C-6.2048 6.66298 -6.20555 6.66104 -6.21657 6.64501C-6.22723 6.62949 -6.24354 6.60658 -6.26509 6.57803C-6.28651 6.54963 -6.30992 6.51987 -6.33406 6.49047C-6.35825 6.461 -6.38 6.43577 -6.39772 6.41597C-6.41573 6.39583 -6.42514 6.38626 -6.42436 6.38703C-6.42366 6.38776 -6.41898 6.3925 -6.4102 6.40094C-6.40152 6.40932 -6.38719 6.42287 -6.36719 6.44097C-6.33086 6.47384 -6.25557 6.54003 -6.14253 6.62698L-1.26474 0.286087L3.61305 -6.05481C5.31163 -4.74817 6.94565 -2.68685 7.86591 -0.945434L0.792832 2.7924ZM-1.26474 0.286087L-6.14093 6.62822C-5.35901 7.2294 -4.71294 7.37192 -4.62709 7.38959C-4.54298 7.4069 -4.7487 7.35627 -5.38431 7.37911C-6.6902 7.42605 -8.82808 7.73792 -12.1004 8.52217L-13.9649 0.742487L-15.8294 -7.03719C-12.1635 -7.91577 -8.82958 -8.50736 -5.95906 -8.61054C-3.39674 -8.70264 0.440948 -8.49371 3.61145 -6.05604L-1.26474 0.286087ZM-13.9649 0.742487L-12.1013 8.52238C-15.045 9.22753 -17.2408 10.1374 -18.5876 10.9412C-19.2581 11.3413 -19.5399 11.6093 -19.5863 11.6583C-19.6555 11.7312 -19.2013 11.2945 -18.9504 10.2937L-26.7101 8.34787L-34.4698 6.40205C-33.2974 1.72658 -29.4797 -1.19127 -26.7869 -2.79828C-23.6963 -4.6426 -19.8882 -6.06493 -15.8285 -7.03741L-13.9649 0.742487ZM-26.7101 8.34787L-18.95 10.2923C-18.7556 9.51661 -18.8963 9.21959 -18.8044 9.83971C-18.7262 10.3665 -18.5269 11.2468 -18.102 12.567C-17.251 15.2105 -15.7277 18.912 -13.3815 23.8676L-20.6121 27.2908L-27.8426 30.7141C-30.3055 25.5121 -32.1681 21.0863 -33.3322 17.4699C-33.9148 15.6601 -34.3805 13.8772 -34.6312 12.1873C-34.868 10.5907 -35.0014 8.52341 -34.4702 6.40346L-26.7101 8.34787ZM-20.6121 27.2908L-13.3813 23.8679C-8.60391 33.9599 -6.04853 40.5476 -4.20095 47.9831L-11.9649 49.9123L-19.7288 51.8414C-21.2184 45.8466 -23.2916 40.328 -27.8428 30.7138L-20.6121 27.2908ZM-11.9649 49.9123L-4.20108 47.9826C-3.15623 52.1864 -2.4629 55.3187 -2.0798 58.7713C-1.70219 62.1743 -1.65025 65.6753 -1.6748 70.5915L-9.67469 70.5515L-17.6746 70.5116C-17.6501 65.6198 -17.7161 62.934 -17.9822 60.5359C-18.2428 58.1873 -18.719 55.9039 -19.7286 51.8419L-11.9649 49.9123ZM-9.67469 70.5515L-1.6748 70.5915C-1.73672 82.9714 -3.76903 91.9455 -9.06982 103.624L-16.3546 100.318L-23.6393 97.0117C-19.2225 87.2803 -17.7247 80.5249 -17.6746 70.5115L-9.67469 70.5515ZM-16.3546 100.318L-9.06972 103.624C-10.5307 106.843 -11.93 109.706 -13.1701 111.459C-13.4895 111.91 -14.0888 112.713 -14.9539 113.458C-15.3487 113.799 -18.269 116.369 -22.4936 115.29C-27.0685 114.121 -28.2445 110.049 -28.4269 109.387C-28.7558 108.193 -28.7805 107.119 -28.7809 106.578L-20.7809 106.573L-12.7809 106.568C-12.7809 106.532 -12.7818 106.401 -12.8011 106.2C-12.8187 106.018 -12.8648 105.634 -13.0015 105.138C-13.0951 104.798 -14.1376 100.911 -18.5336 99.7877C-22.5793 98.7542 -25.2752 101.231 -25.3992 101.338C-25.737 101.629 -25.9563 101.877 -26.0547 101.993C-26.163 102.121 -26.2223 102.204 -26.2308 102.216C-26.2423 102.233 -26.1733 102.135 -26.0169 101.863C-25.868 101.604 -25.6765 101.252 -25.4392 100.789C-24.9626 99.8599 -24.3663 98.6134 -23.6394 97.0119L-16.3546 100.318ZM-20.7809 106.573L-28.7809 106.577C-28.7804 107.613 -28.5141 108.107 -28.7291 107.495C-28.8622 107.117 -29.1141 106.505 -29.5213 105.647C-30.3284 103.948 -31.5288 101.736 -32.9868 99.2846C-35.9278 94.3396 -39.5595 89.0168 -42.4263 85.6178L-36.311 80.4599L-30.1958 75.3021C-26.5678 79.6035 -22.4352 85.7253 -19.2352 91.1059C-17.6227 93.817 -16.1584 96.4882 -15.0683 98.7839C-14.5269 99.9239 -14.022 101.088 -13.6354 102.187C-13.3307 103.053 -12.7818 104.727 -12.7809 106.569L-20.7809 106.573ZM-36.311 80.4599L-42.4264 85.6176C-46.4339 80.866 -48.2579 78.7574 -49.1587 77.8732C-49.3466 77.6888 -49.3169 77.7366 -49.1285 77.8777C-49.0158 77.9621 -48.2696 78.5296 -47.0414 78.8782C-45.498 79.3163 -43.4186 79.331 -41.4116 78.2486C-39.7876 77.3728 -38.9855 76.1669 -38.8289 75.934L-45.4686 71.4713L-52.1082 67.0087C-51.7916 66.5376 -50.8254 65.147 -49.0064 64.1661C-46.8045 62.9785 -44.4994 62.9678 -42.6727 63.4862C-41.1612 63.9152 -40.0742 64.669 -39.5363 65.0719C-38.9228 65.5315 -38.3837 66.0299 -37.9511 66.4544C-36.37 68.0063 -33.9353 70.8682 -30.1957 75.3022L-36.311 80.4599ZM-45.4686 71.4713L-38.8317 75.9381C-38.2292 75.0428 -37.9624 74.2427 -37.8673 73.9405C-37.7473 73.5592 -37.6858 73.2556 -37.6569 73.0991C-37.5995 72.788 -37.5858 72.5835 -37.5858 72.5828C-37.5838 72.5569 -37.5933 72.6937 -37.593 73.0714C-37.5924 73.7904 -37.5586 74.8999 -37.4842 76.3634C-37.3367 79.261 -37.048 83.206 -36.6511 87.476L-44.6168 88.2164L-52.5824 88.9569C-52.9945 84.5233 -53.3021 80.3489 -53.4635 77.1764C-53.5434 75.6049 -53.5921 74.1916 -53.593 73.0834C-53.5933 72.5475 -53.5832 71.9446 -53.5402 71.3757C-53.5196 71.1035 -53.48 70.6767 -53.3912 70.1953C-53.3719 70.0909 -53.1412 68.5436 -52.1054 67.0046L-45.4686 71.4713ZM-44.6168 88.2164L-36.6511 87.4764C-35.4432 100.477 -35.2659 110.469 -36.9585 119.356C-38.6962 128.48 -42.2967 135.911 -47.7576 144.002L-54.3888 139.527L-61.02 135.052C-56.3666 128.157 -53.8909 122.742 -52.676 116.363C-51.416 109.747 -51.4099 101.577 -52.5825 88.9565L-44.6168 88.2164ZM-54.3888 139.527L-47.7576 144.002C-49.3353 146.34 -50.6502 148.267 -51.7056 149.697C-52.2337 150.413 -52.7831 151.123 -53.3335 151.752C-53.7969 152.281 -54.647 153.207 -55.7992 153.966C-56.6997 154.559 -60.2244 156.617 -64.3393 154.551C-67.7996 152.813 -68.6445 149.507 -68.7974 148.933C-69.2641 147.181 -69.2539 145.081 -69.2607 144.108L-61.2609 144.052L-53.2611 143.996C-53.2567 144.619 -53.2462 145.008 -53.231 145.257C-53.2106 145.593 -53.1999 145.328 -53.3368 144.814C-53.409 144.543 -53.6009 143.893 -54.0579 143.125C-54.526 142.338 -55.4724 141.099 -57.1593 140.252C-60.9919 138.328 -64.1568 140.312 -64.5984 140.603C-65.2919 141.06 -65.5843 141.455 -65.3697 141.21C-65.2422 141.065 -64.9933 140.758 -64.5816 140.2C-63.7572 139.082 -62.6259 137.432 -61.02 135.052L-54.3888 139.527ZM-61.2609 144.052L-69.2607 144.108C-69.298 138.787 -69.7645 136.186 -71.8724 130.388L-64.3538 127.655L-56.8352 124.921C-54.1684 132.257 -53.3125 136.666 -53.2611 143.996L-61.2609 144.052ZM-64.3538 127.655L-71.8722 130.388C-74.0718 124.339 -76.2503 120.896 -83.21 113.687L-77.4546 108.131L-71.6991 102.574C-63.7152 110.844 -60.0267 116.144 -56.8354 124.921L-64.3538 127.655ZM-77.4546 108.131L-83.2098 113.687C-85.77 111.036 -87.2719 109.735 -87.8898 109.308C-88.0068 109.227 -87.8996 109.314 -87.611 109.45C-87.4333 109.533 -86.4815 109.982 -85.0582 110.02C-83.3091 110.067 -80.7013 109.437 -78.8686 107.045C-77.3836 105.107 -77.339 103.162 -77.3428 102.623L-85.3426 102.679L-93.3424 102.734C-93.3492 101.748 -93.222 99.4712 -91.5698 97.3146C-89.5698 94.704 -86.7103 93.9697 -84.6261 94.026C-82.8676 94.0735 -81.4974 94.6447 -80.819 94.9627C-80.0298 95.3327 -79.3397 95.7674 -78.793 96.1453C-76.7559 97.5531 -74.3075 99.8725 -71.6994 102.574L-77.4546 108.131ZM-85.3426 102.679L-77.3428 102.62C-77.3453 102.28 -77.3703 102.021 -77.3765 101.957C-77.3863 101.854 -77.3958 101.779 -77.3996 101.75C-77.4073 101.691 -77.4112 101.67 -77.4045 101.712C-77.3921 101.789 -77.3664 101.939 -77.3227 102.18C-77.2369 102.651 -77.1072 103.33 -76.9403 104.18C-76.6081 105.871 -76.1466 108.144 -75.6369 110.583L-83.4678 112.219L-91.2987 113.856C-91.8182 111.369 -92.2929 109.032 -92.6402 107.264C-92.813 106.384 -92.959 105.622 -93.0641 105.044C-93.1158 104.76 -93.1644 104.484 -93.2027 104.245C-93.2212 104.129 -93.2444 103.979 -93.2653 103.819C-93.2683 103.796 -93.3382 103.309 -93.3424 102.737L-85.3426 102.679ZM-83.4678 112.219L-75.6368 110.584C-73.1684 122.402 -71.8833 131.265 -72.3041 140.141C-72.7265 149.05 -74.8429 157.466 -78.4082 168.433L-86.0163 165.959L-93.6243 163.486C-90.1977 152.946 -88.6066 146.142 -88.2861 139.383C-87.964 132.59 -88.9007 125.337 -91.2988 113.855L-83.4678 112.219ZM-86.0163 165.959L-78.4081 168.433C-83.2803 183.421 -85.9293 193.331 -88.0867 204.475L-95.9408 202.954L-103.795 201.434C-101.478 189.465 -98.6332 178.895 -93.6244 163.486L-86.0163 165.959ZM-95.9408 202.954L-88.0866 204.474C-88.7984 208.152 -89.3229 218.681 -89.4098 230.398C-89.4958 241.995 -89.1454 253.243 -88.4402 258.142L-96.3585 259.282L-104.277 260.422C-105.176 254.174 -105.495 241.793 -105.409 230.28C-105.325 218.887 -104.838 206.824 -103.795 201.434L-95.9408 202.954ZM-96.3585 259.282L-88.4403 258.141C-88.1404 260.221 -87.8962 262.191 -87.7458 263.707C-87.6724 264.448 -87.6111 265.181 -87.5839 265.801C-87.5715 266.085 -87.5576 266.522 -87.5786 266.99C-87.5881 267.201 -87.6135 267.655 -87.7127 268.2C-87.7616 268.47 -87.8631 268.96 -88.0752 269.544C-88.2373 269.991 -88.7329 271.275 -89.9486 272.492L-95.6086 266.839L-101.269 261.185C-101.921 261.838 -102.336 262.481 -102.586 262.928C-102.843 263.388 -103.009 263.794 -103.115 264.084C-103.318 264.645 -103.413 265.107 -103.455 265.341C-103.542 265.818 -103.558 266.177 -103.562 266.272C-103.573 266.508 -103.563 266.621 -103.569 266.501C-103.577 266.313 -103.605 265.916 -103.668 265.286C-103.789 264.063 -104.001 262.336 -104.277 260.423L-96.3585 259.282ZM-95.6086 266.839L-89.9349 272.479C-91.8041 274.359 -93.9639 274.731 -94.9263 274.817C-95.9653 274.909 -96.7885 274.776 -97.1791 274.702C-97.9867 274.547 -98.6037 274.3 -98.8288 274.208C-99.3741 273.985 -99.8467 273.73 -100.111 273.585C-100.713 273.252 -101.403 272.825 -102.078 272.392C-103.469 271.497 -105.263 270.27 -107.149 268.919L-102.488 262.417L-97.8284 255.914C-96.0928 257.158 -94.5285 258.224 -93.4256 258.933C-92.8531 259.301 -92.5124 259.503 -92.3754 259.579C-92.2695 259.637 -92.4453 259.532 -92.7759 259.397C-92.8938 259.349 -93.4241 259.13 -94.1668 258.988C-94.5248 258.919 -95.3209 258.789 -96.3385 258.879C-97.2794 258.962 -99.4233 259.329 -101.282 261.199L-95.6086 266.839ZM-102.488 262.417L-107.149 268.919C-109.974 266.894 -113.741 264.55 -117.011 262.716C-118.644 261.8 -120.044 261.074 -121.062 260.601C-121.58 260.36 -121.888 260.237 -122.016 260.191C-122.456 260.034 -121.637 260.411 -120.333 260.411L-120.333 252.411L-120.333 244.411C-118.595 244.411 -117.088 244.961 -116.632 245.124C-115.863 245.399 -115.066 245.743 -114.318 246.091C-112.801 246.796 -111.017 247.733 -109.185 248.761C-105.524 250.813 -101.237 253.471 -97.8282 255.914L-102.488 262.417ZM-120.333 252.411L-120.333 260.411C-119.015 260.411 -117.519 260.027 -116.164 259.033C-114.823 258.049 -113.13 256.014 -113.13 252.996L-121.13 252.996L-129.13 252.996C-129.13 249.656 -127.259 247.329 -125.628 246.133C-123.984 244.926 -122.089 244.411 -120.333 244.411L-120.333 252.411ZM-121.13 252.996L-113.13 252.996C-113.13 251.85 -113.389 250.985 -113.427 250.851C-113.512 250.553 -113.595 250.332 -113.631 250.238C-113.674 250.126 -113.709 250.045 -113.725 250.008C-113.743 249.967 -113.754 249.943 -113.756 249.94C-113.757 249.936 -113.743 249.967 -113.705 250.043C-113.668 250.116 -113.618 250.212 -113.554 250.334C-113.29 250.838 -112.875 251.596 -112.324 252.576C-111.231 254.52 -109.703 257.158 -108.009 260.01L-114.888 264.094L-121.767 268.178C-123.507 265.248 -125.1 262.498 -126.269 260.419C-126.85 259.387 -127.351 258.475 -127.721 257.771C-127.9 257.43 -128.089 257.06 -128.25 256.716C-128.325 256.555 -128.446 256.29 -128.564 255.982C-128.622 255.832 -128.721 255.564 -128.817 255.227C-128.866 255.056 -129.13 254.161 -129.13 252.996L-121.13 252.996ZM-114.888 264.094L-108.009 260.01C-98.5564 275.934 -88.9036 296 -82.8584 312.33L-90.3608 315.107L-97.8633 317.885C-103.55 302.521 -112.774 283.327 -121.767 268.178L-114.888 264.094ZM-90.3608 315.107L-82.8583 312.33C-80.0775 319.843 -75.6119 330.255 -73.042 335.286L-80.1664 338.925L-87.2907 342.564C-90.2268 336.816 -94.9359 325.793 -97.8633 317.885L-90.3608 315.107ZM-80.1664 338.925L-73.0419 335.286C-62.7639 355.409 -43.5192 376.432 -25.3409 387.554L-29.516 394.378L-33.6911 401.202C-54.5124 388.463 -75.7407 365.177 -87.2908 342.564L-80.1664 338.925ZM-29.516 394.378L-25.3407 387.554L-18.8452 391.528L-23.0205 398.352L-27.1958 405.176L-33.6913 401.202L-29.516 394.378ZM-23.0205 398.352L-21.3997 406.186L-28.029 407.558L-29.6498 399.724L-31.2706 391.89L-24.6412 390.518L-23.0205 398.352ZM-29.6498 399.724L-28.0283 407.558C-31.2569 408.226 -34.55 409.29 -36.9122 410.307C-38.1276 410.831 -38.82 411.224 -39.0755 411.397C-39.2248 411.498 -38.9631 411.348 -38.5768 410.915C-38.373 410.687 -36.8952 409.05 -36.8952 406.289L-44.8952 406.289L-52.8952 406.289C-52.8952 403.109 -51.1746 401.002 -50.5168 400.265C-49.6764 399.322 -48.7493 398.625 -48.0535 398.153C-46.6186 397.181 -44.9016 396.327 -43.2401 395.612C-39.8488 394.151 -35.5191 392.769 -31.2713 391.89L-29.6498 399.724ZM-44.8952 406.289L-36.8952 406.289C-36.8952 405.106 -37.1892 403.675 -38.0548 402.31C-38.8786 401.01 -39.9078 400.264 -40.6042 399.871C-41.2701 399.496 -41.8047 399.344 -41.9878 399.296C-42.1966 399.241 -42.2855 399.235 -42.1811 399.249C-41.548 399.333 -40.0015 399.4 -36.5125 399.4L-36.5125 407.4L-36.5125 415.4C-39.7664 415.4 -42.4112 415.358 -44.2837 415.11C-45.095 415.003 -46.7993 414.746 -48.4631 413.808C-49.4186 413.269 -50.6286 412.359 -51.5684 410.876C-52.5499 409.328 -52.8952 407.694 -52.8952 406.289L-44.8952 406.289ZM-36.5125 407.4L-36.5125 399.4C-23.9034 399.4 -15.4687 400.656 0.626516 404.721L-1.33236 412.477L-3.29124 420.234C-18.5473 416.381 -25.6132 415.4 -36.5125 415.4L-36.5125 407.4ZM-1.33236 412.477L0.626592 404.721C8.11042 406.611 16.5617 408.504 19.392 408.962L18.1153 416.859L16.8386 424.757C13.2512 424.177 4.19956 422.126 -3.29131 420.234L-1.33236 412.477ZM18.1153 416.859L19.3914 408.962C21.3934 409.285 23.351 409.729 25.0129 410.258C25.8321 410.519 26.7356 410.85 27.5973 411.269C28.1696 411.547 29.8571 412.379 31.1833 414.046L24.9228 419.027L18.6623 424.007C18.9917 424.421 19.3051 424.722 19.5323 424.92C19.7642 425.122 19.965 425.268 20.106 425.364C20.3769 425.549 20.5653 425.641 20.6003 425.658C20.6654 425.69 20.5426 425.627 20.1576 425.504C19.4113 425.266 18.2498 424.985 16.8392 424.757L18.1153 416.859ZM24.9228 419.027L31.1867 414.05C31.7587 414.77 32.2775 415.674 32.524 416.104C32.8826 416.729 33.297 417.487 33.7346 418.31C34.6141 419.965 35.6679 422.035 36.6957 424.141L29.5062 427.65L22.3167 431.159C21.3585 429.195 20.3883 427.291 19.6063 425.819C19.2132 425.08 18.8876 424.487 18.6469 424.068C18.5255 423.856 18.447 423.726 18.4065 423.661C18.3259 423.532 18.4312 423.716 18.6589 424.003L24.9228 419.027ZM29.5062 427.65L36.6961 424.142C39.2204 429.316 40.9188 433.927 41.4307 439.552C41.9192 444.919 41.2747 450.721 40.0593 458.148L32.1643 456.856L24.2693 455.564C25.4601 448.288 25.7879 444.203 25.4966 441.002C25.2286 438.058 24.3949 435.418 22.3164 431.158L29.5062 427.65ZM32.1643 456.856L40.0593 458.148C38.2721 469.071 36.1565 477.703 32.4902 486.491C28.8531 495.208 23.822 503.761 16.5614 514.646L9.90605 510.207L3.25065 505.768C10.3075 495.188 14.6758 487.636 17.7238 480.33C20.7424 473.095 22.5972 465.784 24.2693 455.565L32.1643 456.856ZM9.90605 510.207L16.5616 514.646C13.1893 519.702 8.26521 526.508 4.05618 532.08C1.94887 534.869 -0.028197 537.415 -1.58044 539.318C-2.34677 540.258 -3.07381 541.12 -3.69282 541.8C-3.99249 542.129 -4.35992 542.518 -4.75017 542.882C-4.94162 543.06 -5.23543 543.323 -5.59932 543.597C-5.82074 543.764 -6.68315 544.418 -7.94191 544.853L-10.5545 537.292L-13.1671 529.731C-14.3528 530.14 -15.1196 530.737 -15.2237 530.816C-15.4704 531.001 -15.6253 531.146 -15.6574 531.175C-15.7289 531.242 -15.6956 531.217 -15.5213 531.025C-15.1922 530.664 -14.6781 530.062 -13.98 529.206C-12.6034 527.518 -10.7587 525.147 -8.71045 522.436C-4.60831 517.005 0.114089 510.471 3.25055 505.768L9.90605 510.207ZM-10.5545 537.292L-7.94559 544.855C-12.2936 546.355 -15.487 543.833 -16.5598 542.672C-17.5773 541.57 -18.054 540.441 -18.2151 540.047C-18.613 539.073 -18.8095 538.122 -18.9111 537.569C-19.1454 536.295 -19.2825 534.786 -19.3371 533.302L-11.3425 533.008L-3.34791 532.714C-3.31146 533.705 -3.22613 534.397 -3.1749 534.676C-3.13382 534.899 -3.1718 534.563 -3.40402 533.994C-3.4823 533.803 -3.87425 532.824 -4.80647 531.815C-5.30757 531.273 -6.26611 530.391 -7.75685 529.82C-9.42061 529.183 -11.3366 529.099 -13.1634 529.729L-10.5545 537.292ZM-11.3425 533.008L-19.3371 533.301C-19.4034 531.491 -19.7674 528.287 -20.2311 524.467C-20.6658 520.885 -21.1774 516.838 -21.4037 513.947L-13.4281 513.322L-5.45247 512.698C-5.26048 515.151 -4.81058 518.725 -4.34769 522.539C-3.9138 526.114 -3.44424 530.081 -3.34785 532.716L-11.3425 533.008ZM-87.0189 444.48L-80.4594 439.901C-71.7854 452.325 -63.2928 458.12 -56.2096 461.632C-52.4964 463.474 -49.1979 464.686 -45.7765 466.055C-42.6826 467.294 -38.8565 468.884 -35.7946 471.456L-40.9403 477.581L-46.0861 483.707C-46.9183 483.007 -48.4202 482.231 -51.7226 480.909C-54.6976 479.719 -58.8637 478.175 -63.3177 475.967C-72.5691 471.379 -83.2217 463.895 -93.5785 449.06L-87.0189 444.48ZM-40.9403 477.581L-35.7946 471.456C-18.0798 486.337 -16.7952 509.736 -16.4812 512.378L-24.4253 513.322L-32.3694 514.266C-32.8259 510.424 -33.9792 493.877 -46.0861 483.707L-40.9403 477.581ZM-24.4253 513.322L-16.4812 512.378C-15.3974 521.5 -12.381 538.628 -15.1397 554.428L-23.0204 553.052L-30.9012 551.676C-28.6563 538.819 -31.1195 524.786 -32.3694 514.266L-24.4253 513.322ZM-23.0204 553.052L-15.1396 554.428C-16.4606 561.994 -21.0693 569.285 -24.8139 574.192C-26.7781 576.766 -28.7374 578.985 -30.3474 580.617C-31.1401 581.42 -31.9362 582.171 -32.6691 582.777C-33.0191 583.067 -33.4971 583.442 -34.044 583.79C-34.3119 583.96 -34.7479 584.222 -35.3001 584.466C-35.6768 584.633 -36.9526 585.187 -38.6719 585.187L-38.6719 577.187L-38.6719 569.187C-40.3231 569.187 -41.5083 569.717 -41.7732 569.834C-42.2136 570.029 -42.5168 570.217 -42.632 570.29C-42.8736 570.444 -42.9672 570.531 -42.8646 570.446C-42.6922 570.304 -42.3098 569.96 -41.7376 569.38C-40.6176 568.245 -39.1005 566.539 -37.5337 564.486C-34.2162 560.139 -31.5445 555.361 -30.9013 551.676L-23.0204 553.052ZM-38.6719 577.187L-38.6719 585.187C-40.8836 585.187 -42.4708 584.294 -43.2406 583.763C-44.0455 583.208 -44.5754 582.625 -44.8468 582.303C-45.3903 581.658 -45.7196 581.062 -45.8487 580.822C-46.1474 580.267 -46.3563 579.74 -46.468 579.448C-46.7224 578.784 -46.9721 578.003 -47.198 577.247C-47.6652 575.683 -48.2067 573.628 -48.7254 571.435L-40.9403 569.594L-33.1552 567.752C-32.686 569.735 -32.2228 571.477 -31.8676 572.666C-31.6822 573.287 -31.5663 573.621 -31.5254 573.728C-31.4896 573.822 -31.5684 573.595 -31.7578 573.243C-31.8322 573.104 -32.1121 572.586 -32.6117 571.993C-32.8611 571.697 -33.3705 571.134 -34.1563 570.592C-34.9069 570.074 -36.4765 569.187 -38.6719 569.187L-38.6719 577.187ZM-40.9403 569.594L-48.7254 571.435C-51.0943 561.422 -56.2165 546.184 -60.682 535.915L-53.3456 532.725L-46.0092 529.535C-41.1943 540.607 -35.7588 556.746 -33.1552 567.752L-40.9403 569.594ZM-53.3456 532.725L-60.6819 535.915C-62.7712 531.111 -69.3537 516.786 -75.0799 505.817L-67.9881 502.115L-60.8964 498.412C-54.954 509.795 -48.2093 524.475 -46.0093 529.534L-53.3456 532.725ZM-67.9881 502.115L-75.0799 505.817C-89.4289 478.331 -97.8609 468.235 -115.7 450.089L-109.995 444.48L-104.29 438.872C-85.5227 457.962 -76.0864 469.316 -60.8964 498.412L-67.9881 502.115ZM-109.995 444.48L-115.7 450.089C-135.181 430.272 -153.198 416.64 -171.244 409.196L-168.194 401.8L-165.143 394.405C-144.294 403.004 -124.515 418.299 -104.29 438.872L-109.995 444.48ZM-168.194 401.8L-170.113 409.567C-179.411 407.269 -194.352 406.352 -202.177 406.352L-202.177 398.352L-202.177 390.352C-193.876 390.352 -177.43 391.277 -166.274 394.034L-168.194 401.8ZM-202.177 398.352L-202.177 406.352C-208.107 406.352 -212.522 407.511 -214.988 408.952C-217.132 410.205 -216.882 410.908 -216.825 411.292L-224.737 412.477L-232.648 413.663C-233.937 405.06 -229.158 398.701 -223.06 395.138C-217.284 391.763 -209.746 390.352 -202.177 390.352L-202.177 398.352ZM-224.737 412.477L-216.825 411.293C-216.828 411.272 -216.815 411.36 -216.762 411.593C-216.712 411.812 -216.64 412.1 -216.544 412.459C-216.349 413.181 -216.081 414.091 -215.745 415.154C-215.074 417.276 -214.182 419.856 -213.198 422.487C-211.092 428.118 -208.997 432.795 -207.941 434.332L-214.534 438.864L-221.127 443.395C-223.475 439.978 -226.187 433.432 -228.184 428.092C-229.251 425.239 -230.235 422.397 -231 419.977C-231.705 417.749 -232.395 415.354 -232.648 413.662L-224.737 412.477ZM-214.534 438.864L-207.94 434.333C-203.724 440.469 -195.963 447.454 -185.071 454.435C-174.291 461.344 -160.902 467.957 -145.951 473.532L-148.746 481.028L-151.541 488.523C-167.388 482.614 -181.825 475.519 -193.705 467.906C-205.473 460.363 -215.207 452.009 -221.127 443.394L-214.534 438.864ZM-148.746 481.028L-145.951 473.532C-114.899 485.111 -98.743 493.058 -82.2503 505.302L-87.0189 511.725L-91.7876 518.148C-106.525 507.208 -121.074 499.885 -151.541 488.523L-148.746 481.028ZM-87.0189 511.725L-82.2504 505.301C-67.7345 516.077 -59.649 526.098 -52.9528 541.911L-60.3196 545.03L-67.6863 548.15C-73.1909 535.151 -79.3925 527.35 -91.7874 518.148L-87.0189 511.725ZM-60.3196 545.03L-52.9528 541.911C-43.9395 563.197 -41.044 576.33 -41.8901 594.705L-49.8816 594.337L-57.8731 593.969C-57.1665 578.621 -59.3197 567.909 -67.6863 548.15L-60.3196 545.03ZM-49.8816 594.337L-41.8901 594.704C-42.1797 600.996 -42.934 609.019 -43.6854 612.611L-51.516 610.973L-59.3465 609.336C-58.8719 607.066 -58.156 600.115 -57.8731 593.969L-49.8816 594.337ZM-51.516 610.973L-43.685 612.609C-45.0364 619.078 -49.6851 628.371 -55.1651 637.494C-60.8301 646.925 -68.0276 657.222 -75.318 665.952L-81.4584 660.824L-87.5989 655.696C-80.8886 647.661 -74.163 638.049 -68.881 629.256C-63.4141 620.154 -60.092 612.904 -59.3469 609.337L-51.516 610.973ZM-21.3137 454.216L-28.4865 457.759C-34.6143 445.351 -46.5601 423.451 -76.0061 415.096L-73.8225 407.4L-71.6388 399.704C-35.3206 410.008 -20.7031 437.386 -14.1408 450.673L-21.3137 454.216ZM-73.8225 407.4L-76.0061 415.096C-84.9581 412.556 -91.2599 410.8 -95.3955 409.989C-96.3904 409.793 -97.155 409.675 -97.7261 409.612C-98.3287 409.547 -98.5346 409.564 -98.47 409.56C-98.4241 409.556 -98.2153 409.539 -97.8969 409.459C-97.5833 409.379 -97.0462 409.209 -96.4194 408.843C-94.9114 407.962 -93.5648 406.322 -93.1772 404.181L-101.049 402.756L-108.921 401.331C-108.405 398.48 -106.663 396.297 -104.491 395.028C-102.658 393.958 -100.808 393.689 -99.6461 393.603C-97.3078 393.431 -94.6789 393.824 -92.3157 394.288C-87.3745 395.257 -80.3195 397.241 -71.6388 399.704L-73.8225 407.4ZM-101.049 402.756L-93.1771 404.181C-93.9241 408.307 -92.7506 414.65 -89.9174 421.953C-87.1907 428.982 -83.4162 435.666 -80.4594 439.901L-87.0189 444.48L-93.5785 449.06C-97.2271 443.834 -101.621 436.024 -104.834 427.74C-107.941 419.731 -110.48 409.942 -108.921 401.331L-101.049 402.756ZM-13.4281 513.322L-21.4037 513.947C-21.7382 509.672 -21.9029 504.743 -22.0833 499.757C-22.2664 494.694 -22.4684 489.46 -22.8677 484.269C-23.6839 473.656 -25.2695 464.272 -28.4865 457.759L-21.3137 454.216L-14.1408 450.673C-9.47228 460.126 -7.75174 472.16 -6.91486 483.042C-6.48761 488.597 -6.27638 494.13 -6.09374 499.179C-5.90827 504.306 -5.75459 508.838 -5.45247 512.698L-13.4281 513.322Z" fill="#FCF6EB" mask="url(#path-2-inside-1_503_519)"/>
</g>
<defs>
<clipPath id="clip0_503_519">
<rect width="320" height="592" fill="white"/>
</clipPath>
</defs>
</svg>
