<svg width="320" height="592" viewBox="0 0 320 592" fill="none" xmlns="http://www.w3.org/2000/svg">
<g clip-path="url(#clip0_503_521)">
<rect x="-72" y="-0.626953" width="464" height="673.255" fill="#AA9951"/>
<path d="M-3.38086 278.144L-7.07617 277.895C-17.6591 277.183 -24.6235 276.831 -37.4033 276.135L-37.4023 276.134C-66.6349 274.523 -90.67 261.912 -107.847 249.081C-123.957 237.047 -133.837 224.964 -136.054 222.073L-136.395 221.621C-143.849 211.383 -162.739 184.194 -161.252 145.764V145.763C-158.903 84.9016 -107.147 31.381 -34.2363 40.5195L-34.2324 40.5205C-31.9386 40.806 -28.0193 41.9492 -24.3457 43.6387C-22.5353 44.4713 -20.9087 45.3808 -19.6455 46.293C-18.3168 47.2525 -17.6975 47.9951 -17.4912 48.3926L-15.749 51.752L-12.3135 50.1641C-11.0886 49.5979 -10.2104 48.5899 -9.72168 47.9844C-9.12968 47.2509 -8.54813 46.3768 -8 45.4756C-6.89756 43.6629 -5.7254 41.4009 -4.62305 39.1484C-3.51247 36.8792 -2.43277 34.5348 -1.51953 32.5322C-0.592037 30.4984 0.128583 28.8966 0.582031 27.9629C3.49551 22.0424 4.66323 15.3068 5.33105 8.99805C5.6664 5.83007 5.88514 2.65101 6.10938 -0.301758C6.33665 -3.2945 6.57032 -6.06374 6.93359 -8.59277C7.68783 -13.8434 8.89744 -17.1127 10.7734 -18.8789C12.3147 -20.3299 15.1379 -21.4845 21.25 -20.2607L21.8516 -20.1348C26.9474 -19.0178 29.2875 -16.4286 30.4053 -13.2285C31.6439 -9.68224 31.5079 -4.9487 30.4238 0.297852C28.2564 10.7867 22.8997 20.9089 21.9873 23.0127L21.9863 23.0146C20.5029 26.439 19.6384 30.1827 18.9463 33.667C18.2246 37.3002 17.7099 40.5121 16.9131 43.5557L14.9932 50.8896L22.1104 48.2764C26.7066 46.5891 31.4049 44.2949 35.4766 42.5732C39.7425 40.7695 43.838 39.3426 48.2129 38.8125H48.2188C67.6046 36.436 85.7281 39.4268 102.628 48.5713L102.631 48.5732C114.287 54.8675 121.538 62.0869 126.907 70.6211C132.362 79.2908 135.954 89.4228 140.125 101.862C142.778 109.821 146.318 120.022 147.511 129.608V129.614C152.576 169.865 142.458 202.893 121.675 227.58C100.84 252.329 68.9926 269.038 30.0537 275.971C28.601 276.225 26.9031 276.57 25.1553 276.924C23.3859 277.282 21.5384 277.657 19.7061 277.992C15.93 278.683 12.6364 279.122 10.5146 279.011L6.34375 278.792L6.34668 282.969L6.40625 385.14L6.4082 388.144L9.30176 388.952C12.0612 389.723 14.4413 390.083 16.4678 389.811C18.7914 389.498 20.5346 388.362 21.6426 386.638C22.4895 385.32 22.8754 383.671 23.0332 383.131C23.1501 382.731 23.2321 382.496 23.3086 382.326C23.3633 382.205 23.3983 382.157 23.4053 382.148L23.4111 382.142C32.4774 371.986 38.9338 360.007 45.3994 349.495C51.9864 338.786 58.6843 329.381 68.4541 322.952L68.4551 322.951C73.703 319.496 85.7585 314.303 96.3154 312.802C101.644 312.044 105.924 312.329 108.688 313.635C109.984 314.247 110.901 315.061 111.523 316.105C112.158 317.169 112.638 318.729 112.627 321.057V321.058C112.62 322.683 111.756 324.859 109.276 327.761C106.835 330.618 103.214 333.731 98.5879 337.181C89.1759 344.201 77.0352 351.629 63.8613 360.828C38.2944 378.681 10.2386 402.299 6.4082 435.455V435.459C5.44721 443.845 5.44709 455.675 5.66992 465.246C5.78214 470.066 5.95324 474.375 6.0957 477.479C6.16696 479.031 6.23076 480.283 6.27734 481.149C6.30064 481.582 6.3199 481.919 6.33301 482.148C6.339 482.253 6.34323 482.336 6.34668 482.395L6.44238 566.181L6.45508 577.132L13.4512 568.706L46.4619 528.947L47.3877 527.832L47.375 526.383C47.0386 487.78 65.9851 456.043 101.601 440.99H101.602C111.528 436.792 121.115 435.133 129.265 435.434C137.474 435.736 143.934 438.006 147.943 441.325C151.785 444.505 153.54 448.729 152.544 453.972C151.495 459.492 147.289 466.614 137.911 474.773C128.192 483.219 116.363 490.275 103.87 497.845C91.4973 505.341 78.5492 513.301 67.2305 523.387C28.327 558.023 -1.55677 603.625 6.4834 659.498L6.95898 662.807L10.3008 662.894L32.0674 663.458C32.2163 668.997 32.4054 677.9 32.3516 680.65C32.343 681.061 32.2716 682.018 29.2959 683.088C26.3284 684.154 21.7704 684.774 15.752 685.062C9.81638 685.345 2.85031 685.296 -4.76465 685.206C-11.5509 685.126 -18.8266 685.015 -26.1719 685.093L-36.1719 663.944L-6.62793 663.557L-3.21387 663.512L-2.75488 660.128C6.18408 594.226 -36.6501 550.691 -87.7178 519.428L-88.6377 518.881C-93.3789 516.136 -100.263 513.221 -107.776 510.131C-115.927 506.779 -125.038 503.136 -133.846 499.055C-142.663 494.969 -150.974 490.533 -157.501 485.676C-162.416 482.018 -166.058 478.312 -168.239 474.572C-138.837 467.454 -116.725 470.304 -98.6309 479.756C-79.4747 489.762 -64.2747 507.442 -49.6914 530.102L-49.6514 530.164L-49.6084 530.226L-10.5781 586.126L-3.36914 596.45V418.275C-3.36915 417.553 -3.55933 416.962 -3.62695 416.755C-3.72504 416.455 -3.8432 416.169 -3.95117 415.926C-4.16949 415.434 -4.45676 414.873 -4.77246 414.289C-5.41095 413.108 -6.298 411.595 -7.33203 409.896C-9.40779 406.483 -12.1794 402.148 -14.9951 397.85C-17.8133 393.547 -20.6954 389.251 -23 385.913C-24.1505 384.247 -25.169 382.801 -25.9697 381.706C-26.3685 381.161 -26.7299 380.68 -27.0352 380.294C-27.2751 379.99 -27.663 379.506 -28.0635 379.144L-28.0723 379.136L-28.4434 378.811C-32.3465 375.483 -38.4215 373.006 -43.8623 370.812C-49.8704 368.39 -55.5005 366.179 -59.4814 363.427L-59.4824 363.426C-79.3002 349.724 -95.4759 333.899 -100.053 310.712C-91.0234 308.728 -79.0169 311.748 -67.1553 317.8C-54.0519 324.485 -42.4843 334.184 -37.2539 342.096V342.097C-35.2844 345.079 -33.7529 348.564 -32.2637 352.433C-30.8327 356.15 -29.3473 360.493 -27.6553 364.423C-24.1765 372.503 -19.149 380.567 -8.72656 384.455L-3.38086 386.449V278.144Z" fill="#602930" stroke="#FCF6EB" stroke-width="7.9218"/>
</g>
<defs>
<clipPath id="clip0_503_521">
<rect width="320" height="592" fill="white"/>
</clipPath>
</defs>
</svg>
