<svg width="320" height="592" viewBox="0 0 320 592" fill="none" xmlns="http://www.w3.org/2000/svg">
<g clip-path="url(#clip0_503_536)">
<rect x="-72" y="-0.626953" width="464" height="673.255" fill="#E73F40"/>
<mask id="path-2-inside-1_503_536" fill="white">
<path d="M238.077 661.408L238.565 660.824C252.566 644.058 266.411 621.009 268.507 610.973C269.12 608.043 269.856 600.556 270.142 594.337C270.918 577.475 268.394 565.553 259.704 545.03C253.604 530.624 246.46 521.714 233.005 511.725C217.39 500.133 202.037 492.498 171.278 481.028C140.479 469.543 115.626 453.614 105.49 438.864C102.085 433.909 95.8765 416.417 95.2868 412.477C93.9403 403.491 104.348 398.352 117.846 398.352C125.909 398.352 141.603 399.273 151.83 401.8C171.278 409.822 190.175 424.286 210.028 444.48C228.332 463.099 237.266 473.823 252.035 502.115C257.87 513.29 264.533 527.793 266.678 532.725C271.318 543.396 276.597 559.084 279.083 569.594C280.071 573.77 281.092 577.187 281.352 577.187C282.442 577.187 295.039 564.304 297.003 553.052C299.505 538.723 296.765 523.143 295.598 513.322C295.213 510.08 293.994 490.107 279.083 477.581C271.295 471.039 252.035 471.74 233.004 444.48C226.399 435.019 216.668 415.494 218.974 402.756C219.488 399.92 228.568 402.397 246.201 407.4C279.083 416.73 292.365 441.369 298.71 454.216C306.595 470.182 305.322 497.052 306.595 513.322C307.014 518.667 308.518 528.563 308.681 533.008C308.772 535.483 309.126 537.41 309.469 537.292C310.637 536.889 323.421 519.966 329.929 510.207C344.247 488.741 348.728 477.999 352.188 456.856C354.594 442.153 354.133 437.084 349.53 427.65C347.544 423.58 345.481 419.7 344.946 419.027C344.377 418.311 341.551 417.41 338.139 416.859C334.93 416.34 326.178 414.368 318.691 412.477C303.015 408.518 295.265 407.4 283.511 407.4C276.768 407.4 275.128 407.183 275.128 406.289C275.128 404.617 282.897 401.271 290.374 399.724L297.003 398.352L290.507 394.378C271.008 382.448 250.771 360.293 239.857 338.925C237.104 333.536 232.517 322.818 229.663 315.107C223.796 299.26 214.358 279.63 205.135 264.094C201.702 258.312 198.893 253.317 198.893 252.996C198.893 252.674 199.252 252.411 199.691 252.411C201.425 252.411 211.302 257.949 217.535 262.417C221.156 265.012 224.252 267.002 224.415 266.839C224.577 266.676 224.241 263.276 223.665 259.282C222.06 248.136 222.328 212.022 224.083 202.954C226.32 191.398 229.067 181.158 234.007 165.959C240.999 144.453 241.422 135.519 236.556 112.219C235.526 107.293 234.683 103 234.681 102.679C234.668 100.89 237.4 102.778 242.569 108.131C250.041 115.87 252.974 120.242 255.67 127.655C258.057 134.222 258.718 137.727 258.763 144.052C258.799 149.271 259.267 148.962 265.635 139.527C275.749 124.54 277.787 113.838 275.407 88.2164C274.598 79.5129 274.214 71.9776 274.555 71.4713C275.195 70.5188 275.965 71.2743 283.712 80.4599C290.207 88.1603 299.241 103.349 299.243 106.573C299.244 108.959 300.647 106.977 303.669 100.318C308.528 89.6129 310.293 81.7481 310.349 70.5515C310.398 60.7436 310.113 58.1781 308.059 49.9123C306.39 43.1971 304.076 37.1439 299.411 27.2908C294.602 17.1332 292.64 11.0364 293.313 8.34787C294.051 5.40697 299.055 2.42011 306.059 0.742487C312.997 -0.920338 317.002 -1.06442 318.759 0.286087C319.437 0.80791 320.364 1.93567 320.816 2.7924C322.172 5.35712 325.425 20.2003 326.876 30.4412C327.859 37.3838 328.069 38.6829 328.889 42.9027C332.791 62.9905 340.05 79.4794 350.43 91.8318C353.738 95.768 366.045 106.346 366.633 105.758C366.785 105.606 366.178 99.7253 365.285 92.6893C362.554 71.1839 363.195 49.5696 366.648 46.7003C368.233 45.3841 368.74 46.1676 372.006 54.9747C380.627 78.2223 388.938 93.1893 401.643 108.35C407.057 114.811 423.653 131.226 424.209 130.67C424.35 130.53 423.089 127.285 421.408 123.459C419.727 119.633 417.422 113.349 416.286 109.494C412.924 98.0828 412.765 85.7389 415.981 85.7389C416.332 85.7389 418.622 89.3309 421.069 93.722C423.516 98.1123 428.552 106.266 432.259 111.84C441.268 125.387 447.176 135.539 451.777 145.379C455.754 153.884 464.138 176.386 467.571 187.767C469.824 195.236 474.273 214.421 474.273 216.667C474.273 218.893 475.587 218.435 476.19 216C476.482 214.822 478.522 210.185 480.724 205.696C486.505 193.908 496.266 181.391 498.565 182.814C499.505 183.395 499.127 185.565 496.076 197.112C492.685 209.944 490.055 229.256 489.071 248.542C487.411 281.093 484.802 299.922 479.793 315.518C478.559 319.361 477.784 322.506 478.071 322.506C478.359 322.506 479.286 322.021 480.133 321.428C480.979 320.834 484.718 319.272 488.441 317.956C499.458 314.063 513.946 312.857 513.946 315.833C513.946 316.407 511.583 318.283 508.695 320.002C496.371 327.334 485.683 337.419 469.138 357.327C450.151 380.173 436.709 392.51 420.359 402.096C409.703 408.344 393.958 414.18 380.882 416.73L376.561 417.572L372.112 431.762C369.664 439.567 367.482 447.355 367.263 449.068C365.654 461.596 361.3 480.441 357.52 491.237C354.97 498.516 345.863 517.655 338.585 531.025C336.201 535.407 334.249 539.354 334.249 539.796C334.249 541 346.08 534.825 354.475 529.238C367.411 520.63 372.946 514.816 383.698 498.54C395.196 481.134 400.998 473.827 410.625 464.619C426.626 449.316 445.863 439.18 465.234 435.848C473.687 434.394 487.426 434.354 495.299 435.76C506.083 437.687 522.85 445.521 523.734 449.046C524.828 453.412 521.005 459.357 510.63 469.425C501.114 478.66 495.913 482.709 485.552 488.953C464.813 501.452 446.049 508.381 419.651 513.29C391.982 518.435 391.709 518.547 367.694 534.516C357.642 541.2 344.343 549.542 338.139 553.052C328.157 558.701 326.07 560.256 320.008 566.559C312.479 574.387 309.466 579.73 300.398 601.331C275.529 660.572 269.955 671.164 263.029 672.339C261.768 672.552 254.261 672.675 246.346 672.609L245.518 672.603L244.938 672.598C236.562 672.533 232.54 672.502 231.867 670.983C231.245 669.579 233.48 666.905 237.782 661.761L238.043 661.449L238.066 661.42L238.077 661.408Z"/>
</mask>
<path d="M238.077 661.408L238.565 660.824C252.566 644.058 266.411 621.009 268.507 610.973C269.12 608.043 269.856 600.556 270.142 594.337C270.918 577.475 268.394 565.553 259.704 545.03C253.604 530.624 246.46 521.714 233.005 511.725C217.39 500.133 202.037 492.498 171.278 481.028C140.479 469.543 115.626 453.614 105.49 438.864C102.085 433.909 95.8765 416.417 95.2868 412.477C93.9403 403.491 104.348 398.352 117.846 398.352C125.909 398.352 141.603 399.273 151.83 401.8C171.278 409.822 190.175 424.286 210.028 444.48C228.332 463.099 237.266 473.823 252.035 502.115C257.87 513.29 264.533 527.793 266.678 532.725C271.318 543.396 276.597 559.084 279.083 569.594C280.071 573.77 281.092 577.187 281.352 577.187C282.442 577.187 295.039 564.304 297.003 553.052C299.505 538.723 296.765 523.143 295.598 513.322C295.213 510.08 293.994 490.107 279.083 477.581C271.295 471.039 252.035 471.74 233.004 444.48C226.399 435.019 216.668 415.494 218.974 402.756C219.488 399.92 228.568 402.397 246.201 407.4C279.083 416.73 292.365 441.369 298.71 454.216C306.595 470.182 305.322 497.052 306.595 513.322C307.014 518.667 308.518 528.563 308.681 533.008C308.772 535.483 309.126 537.41 309.469 537.292C310.637 536.889 323.421 519.966 329.929 510.207C344.247 488.741 348.728 477.999 352.188 456.856C354.594 442.153 354.133 437.084 349.53 427.65C347.544 423.58 345.481 419.7 344.946 419.027C344.377 418.311 341.551 417.41 338.139 416.859C334.93 416.34 326.178 414.368 318.691 412.477C303.015 408.518 295.265 407.4 283.511 407.4C276.768 407.4 275.128 407.183 275.128 406.289C275.128 404.617 282.897 401.271 290.374 399.724L297.003 398.352L290.507 394.378C271.008 382.448 250.771 360.293 239.857 338.925C237.104 333.536 232.517 322.818 229.663 315.107C223.796 299.26 214.358 279.63 205.135 264.094C201.702 258.312 198.893 253.317 198.893 252.996C198.893 252.674 199.252 252.411 199.691 252.411C201.425 252.411 211.302 257.949 217.535 262.417C221.156 265.012 224.252 267.002 224.415 266.839C224.577 266.676 224.241 263.276 223.665 259.282C222.06 248.136 222.328 212.022 224.083 202.954C226.32 191.398 229.067 181.158 234.007 165.959C240.999 144.453 241.422 135.519 236.556 112.219C235.526 107.293 234.683 103 234.681 102.679C234.668 100.89 237.4 102.778 242.569 108.131C250.041 115.87 252.974 120.242 255.67 127.655C258.057 134.222 258.718 137.727 258.763 144.052C258.799 149.271 259.267 148.962 265.635 139.527C275.749 124.54 277.787 113.838 275.407 88.2164C274.598 79.5129 274.214 71.9776 274.555 71.4713C275.195 70.5188 275.965 71.2743 283.712 80.4599C290.207 88.1603 299.241 103.349 299.243 106.573C299.244 108.959 300.647 106.977 303.669 100.318C308.528 89.6129 310.293 81.7481 310.349 70.5515C310.398 60.7436 310.113 58.1781 308.059 49.9123C306.39 43.1971 304.076 37.1439 299.411 27.2908C294.602 17.1332 292.64 11.0364 293.313 8.34787C294.051 5.40697 299.055 2.42011 306.059 0.742487C312.997 -0.920338 317.002 -1.06442 318.759 0.286087C319.437 0.80791 320.364 1.93567 320.816 2.7924C322.172 5.35712 325.425 20.2003 326.876 30.4412C327.859 37.3838 328.069 38.6829 328.889 42.9027C332.791 62.9905 340.05 79.4794 350.43 91.8318C353.738 95.768 366.045 106.346 366.633 105.758C366.785 105.606 366.178 99.7253 365.285 92.6893C362.554 71.1839 363.195 49.5696 366.648 46.7003C368.233 45.3841 368.74 46.1676 372.006 54.9747C380.627 78.2223 388.938 93.1893 401.643 108.35C407.057 114.811 423.653 131.226 424.209 130.67C424.35 130.53 423.089 127.285 421.408 123.459C419.727 119.633 417.422 113.349 416.286 109.494C412.924 98.0828 412.765 85.7389 415.981 85.7389C416.332 85.7389 418.622 89.3309 421.069 93.722C423.516 98.1123 428.552 106.266 432.259 111.84C441.268 125.387 447.176 135.539 451.777 145.379C455.754 153.884 464.138 176.386 467.571 187.767C469.824 195.236 474.273 214.421 474.273 216.667C474.273 218.893 475.587 218.435 476.19 216C476.482 214.822 478.522 210.185 480.724 205.696C486.505 193.908 496.266 181.391 498.565 182.814C499.505 183.395 499.127 185.565 496.076 197.112C492.685 209.944 490.055 229.256 489.071 248.542C487.411 281.093 484.802 299.922 479.793 315.518C478.559 319.361 477.784 322.506 478.071 322.506C478.359 322.506 479.286 322.021 480.133 321.428C480.979 320.834 484.718 319.272 488.441 317.956C499.458 314.063 513.946 312.857 513.946 315.833C513.946 316.407 511.583 318.283 508.695 320.002C496.371 327.334 485.683 337.419 469.138 357.327C450.151 380.173 436.709 392.51 420.359 402.096C409.703 408.344 393.958 414.18 380.882 416.73L376.561 417.572L372.112 431.762C369.664 439.567 367.482 447.355 367.263 449.068C365.654 461.596 361.3 480.441 357.52 491.237C354.97 498.516 345.863 517.655 338.585 531.025C336.201 535.407 334.249 539.354 334.249 539.796C334.249 541 346.08 534.825 354.475 529.238C367.411 520.63 372.946 514.816 383.698 498.54C395.196 481.134 400.998 473.827 410.625 464.619C426.626 449.316 445.863 439.18 465.234 435.848C473.687 434.394 487.426 434.354 495.299 435.76C506.083 437.687 522.85 445.521 523.734 449.046C524.828 453.412 521.005 459.357 510.63 469.425C501.114 478.66 495.913 482.709 485.552 488.953C464.813 501.452 446.049 508.381 419.651 513.29C391.982 518.435 391.709 518.547 367.694 534.516C357.642 541.2 344.343 549.542 338.139 553.052C328.157 558.701 326.07 560.256 320.008 566.559C312.479 574.387 309.466 579.73 300.398 601.331C275.529 660.572 269.955 671.164 263.029 672.339C261.768 672.552 254.261 672.675 246.346 672.609L245.518 672.603L244.938 672.598C236.562 672.533 232.54 672.502 231.867 670.983C231.245 669.579 233.48 666.905 237.782 661.761L238.043 661.449L238.066 661.42L238.077 661.408Z" fill="#E73F40"/>
<path d="M237.782 661.761L240.849 664.328L240.757 664.438L237.69 661.871L234.622 659.304L234.714 659.194L237.782 661.761ZM238.565 660.824L244.705 665.952L244.704 665.953L238.565 660.824ZM238.077 661.408L231.936 656.281L231.938 656.279L238.077 661.408ZM238.066 661.42L244.207 666.548L244.204 666.552L238.066 661.42ZM238.043 661.449L231.905 656.318L231.905 656.317L238.043 661.449ZM237.782 661.761L243.919 666.893L243.919 666.893L237.782 661.761ZM231.867 670.983L224.553 674.225L224.553 674.225L231.867 670.983ZM244.938 672.598L245 664.598L245.002 664.598L244.938 672.598ZM245.518 672.603L245.582 664.603L245.583 664.603L245.518 672.603ZM246.346 672.609L246.41 664.61L246.412 664.61L246.346 672.609ZM263.029 672.339L264.368 680.226L264.364 680.227L263.029 672.339ZM300.398 601.331L307.774 604.428L307.774 604.428L300.398 601.331ZM320.008 566.559L325.774 572.105L325.774 572.105L320.008 566.559ZM338.139 553.052L334.198 546.089L334.199 546.089L338.139 553.052ZM367.694 534.516L363.264 527.855L363.264 527.855L367.694 534.516ZM419.651 513.29L421.114 521.156L421.114 521.156L419.651 513.29ZM485.552 488.953L481.423 482.101L481.423 482.101L485.552 488.953ZM510.63 469.425L516.201 475.166L516.201 475.166L510.63 469.425ZM523.734 449.046L515.974 450.992L515.974 450.991L523.734 449.046ZM495.299 435.76L496.706 427.885L496.707 427.885L495.299 435.76ZM465.234 435.848L466.59 443.732L466.59 443.732L465.234 435.848ZM410.625 464.619L416.154 470.401L416.154 470.401L410.625 464.619ZM383.698 498.54L377.023 494.131L377.023 494.13L383.698 498.54ZM354.475 529.238L350.043 522.578L350.043 522.578L354.475 529.238ZM338.585 531.025L331.558 527.201L331.559 527.2L338.585 531.025ZM357.52 491.237L365.07 493.881L365.07 493.881L357.52 491.237ZM367.263 449.068L375.198 450.084L375.198 450.087L367.263 449.068ZM372.112 431.762L379.745 434.156L379.745 434.156L372.112 431.762ZM376.561 417.572L368.928 415.178L370.353 410.631L375.031 409.719L376.561 417.572ZM380.882 416.73L382.413 424.582L382.412 424.582L380.882 416.73ZM420.359 402.096L416.313 395.195L416.313 395.195L420.359 402.096ZM469.138 357.327L475.291 362.44L475.291 362.44L469.138 357.327ZM508.695 320.002L512.786 326.876L512.786 326.877L508.695 320.002ZM488.441 317.956L485.775 310.413L485.776 310.413L488.441 317.956ZM480.133 321.428L484.726 327.978L484.726 327.978L480.133 321.428ZM479.793 315.518L487.41 317.964L487.41 317.964L479.793 315.518ZM489.071 248.542L481.081 248.135L481.081 248.135L489.071 248.542ZM496.076 197.112L488.341 195.068L488.341 195.068L496.076 197.112ZM498.565 182.814L494.358 189.619L494.355 189.617L498.565 182.814ZM480.724 205.696L487.906 209.219L487.906 209.219L480.724 205.696ZM476.19 216L468.425 214.077L468.425 214.076L476.19 216ZM467.571 187.767L475.23 185.457L475.23 185.457L467.571 187.767ZM451.777 145.379L459.024 141.991L459.024 141.991L451.777 145.379ZM432.259 111.84L438.92 107.41L438.921 107.411L432.259 111.84ZM421.069 93.722L414.081 97.6172L414.081 97.6166L421.069 93.722ZM416.286 109.494L408.612 111.756L408.612 111.755L416.286 109.494ZM421.408 123.459L414.083 126.677L414.083 126.676L421.408 123.459ZM424.209 130.67L418.549 125.017L418.557 125.009L418.565 125.001L424.209 130.67ZM401.643 108.35L407.775 103.212L407.775 103.212L401.643 108.35ZM372.006 54.9747L379.507 52.1928L379.507 52.1932L372.006 54.9747ZM366.648 46.7003L361.536 40.5472L361.537 40.5464L366.648 46.7003ZM365.285 92.6893L373.222 91.6814L373.222 91.682L365.285 92.6893ZM366.633 105.758L360.972 100.105L360.98 100.098L360.987 100.09L366.633 105.758ZM350.43 91.8318L356.555 86.685L356.555 86.6852L350.43 91.8318ZM328.889 42.9027L321.035 44.4281L321.035 44.4272L328.889 42.9027ZM326.876 30.4412L334.797 29.3191L334.797 29.3194L326.876 30.4412ZM320.816 2.7924L313.744 6.53144L313.743 6.53023L320.816 2.7924ZM318.759 0.286087L323.635 -6.05604L323.636 -6.05481L318.759 0.286087ZM306.059 0.742487L307.923 8.52217L307.922 8.52238L306.059 0.742487ZM293.313 8.34787L285.553 6.40346L285.554 6.40205L293.313 8.34787ZM299.411 27.2908L306.642 23.8676L306.642 23.8679L299.411 27.2908ZM308.059 49.9123L300.295 51.8419L300.295 51.8414L308.059 49.9123ZM310.349 70.5515L318.349 70.5915L318.349 70.5915L310.349 70.5515ZM303.669 100.318L296.384 97.0119L296.384 97.0117L303.669 100.318ZM299.243 106.573L291.243 106.578L291.243 106.577L299.243 106.573ZM283.712 80.4599L277.597 85.6178L277.597 85.6176L283.712 80.4599ZM274.555 71.4713L281.194 75.934L281.192 75.9381L274.555 71.4713ZM275.407 88.2164L283.372 87.476L283.372 87.4764L275.407 88.2164ZM265.635 139.527L259.003 135.052L259.003 135.052L265.635 139.527ZM258.763 144.052L266.762 143.996L266.762 143.996L258.763 144.052ZM255.67 127.655L263.188 124.921L263.188 124.921L255.67 127.655ZM242.569 108.131L248.324 102.574L248.324 102.574L242.569 108.131ZM234.681 102.679L226.681 102.737L226.681 102.734L234.681 102.679ZM236.556 112.219L244.387 110.583L244.387 110.584L236.556 112.219ZM234.007 165.959L226.399 163.486L226.399 163.486L234.007 165.959ZM224.083 202.954L216.228 201.434L216.228 201.434L224.083 202.954ZM223.665 259.282L215.747 260.423L215.747 260.422L223.665 259.282ZM224.415 266.839L218.741 261.199L218.748 261.192L218.755 261.185L224.415 266.839ZM217.535 262.417L212.875 268.919L212.875 268.919L217.535 262.417ZM205.135 264.094L212.014 260.01L212.014 260.01L205.135 264.094ZM229.663 315.107L237.165 312.33L237.165 312.33L229.663 315.107ZM239.857 338.925L246.981 335.286L246.982 335.286L239.857 338.925ZM290.507 394.378L294.683 387.554L294.683 387.554L290.507 394.378ZM297.003 398.352L301.178 391.528L318.436 402.087L298.624 406.186L297.003 398.352ZM290.374 399.724L288.752 391.89L288.753 391.89L290.374 399.724ZM318.691 412.477L320.65 404.721L320.65 404.721L318.691 412.477ZM338.139 416.859L336.863 424.757L336.862 424.757L338.139 416.859ZM344.946 419.027L351.207 414.046L351.21 414.05L344.946 419.027ZM349.53 427.65L356.719 424.141L356.72 424.142L349.53 427.65ZM352.188 456.856L344.293 455.565L344.293 455.564L352.188 456.856ZM329.929 510.207L323.274 505.768L323.274 505.768L329.929 510.207ZM309.469 537.292L312.082 544.853L312.078 544.855L309.469 537.292ZM308.681 533.008L300.686 533.302L300.686 533.301L308.681 533.008ZM306.595 513.322L314.571 512.698L306.595 513.322ZM233.004 444.48L226.445 449.06L233.004 444.48ZM279.083 477.581L284.229 471.456L279.083 477.581ZM295.598 513.322L303.542 512.378L303.542 512.378L295.598 513.322ZM297.003 553.052L289.122 551.676L289.122 551.676L297.003 553.052ZM279.083 569.594L271.298 571.435L271.298 571.435L279.083 569.594ZM266.678 532.725L274.014 529.534L274.014 529.535L266.678 532.725ZM252.035 502.115L259.127 498.412L259.127 498.412L252.035 502.115ZM210.028 444.48L204.323 450.089L204.323 450.089L210.028 444.48ZM151.83 401.8L153.749 394.034L154.329 394.177L154.88 394.405L151.83 401.8ZM95.2868 412.477L103.198 411.292L103.199 411.293L95.2868 412.477ZM105.49 438.864L112.083 434.332L112.083 434.333L105.49 438.864ZM171.278 481.028L168.482 488.523L168.482 488.523L171.278 481.028ZM233.005 511.725L228.236 518.148L228.236 518.148L233.005 511.725ZM259.704 545.03L267.071 541.911L267.071 541.911L259.704 545.03ZM270.142 594.337L262.15 593.969L262.15 593.969L270.142 594.337ZM268.507 610.973L260.677 609.337L260.677 609.336L268.507 610.973ZM298.71 454.216L305.883 450.673L305.883 450.673L298.71 454.216ZM246.201 407.4L248.385 399.704L246.201 407.4ZM218.974 402.756L211.102 401.331L211.102 401.331L218.974 402.756ZM238.565 660.824L244.704 665.953L244.216 666.538L238.077 661.408L231.938 656.279L232.426 655.694L238.565 660.824ZM238.077 661.408L244.217 666.536L244.207 666.548L238.066 661.42L231.926 656.293L231.936 656.281L238.077 661.408ZM238.066 661.42L244.204 666.552L244.18 666.581L238.043 661.449L231.905 656.317L231.929 656.289L238.066 661.42ZM238.043 661.449L244.18 666.581L243.919 666.893L237.782 661.761L231.644 656.629L231.905 656.318L238.043 661.449ZM237.782 661.761L243.919 666.893C242.83 668.194 241.932 669.27 241.178 670.203C240.415 671.147 239.908 671.814 239.577 672.296C239.199 672.848 239.298 672.808 239.455 672.371C239.606 671.948 240.202 670.044 239.18 667.74L231.867 670.983L224.553 674.225C223.221 671.219 223.862 668.455 224.392 666.975C224.927 665.481 225.738 664.188 226.378 663.253C227.668 661.37 229.612 659.061 231.645 656.629L237.782 661.761ZM231.867 670.983L239.18 667.74C238.066 665.227 236.024 664.448 235.732 664.342C235.381 664.216 235.414 664.289 236.281 664.373C237.976 664.536 240.636 664.564 245 664.598L244.938 672.598L244.876 680.598C240.865 680.567 237.325 680.547 234.747 680.299C233.478 680.177 231.855 679.953 230.299 679.391C228.801 678.851 226.004 677.498 224.553 674.225L231.867 670.983ZM244.938 672.598L245.002 664.598L245.582 664.603L245.518 672.603L245.455 680.602L244.875 680.598L244.938 672.598ZM245.518 672.603L245.583 664.603L246.41 664.61L246.346 672.609L246.281 680.609L245.454 680.602L245.518 672.603ZM246.346 672.609L246.412 664.61C250.314 664.642 254.104 664.628 257.053 664.58C258.531 664.556 259.766 664.524 260.682 664.487C261.82 664.441 261.981 664.403 261.695 664.451L263.029 672.339L264.364 680.227C263.447 680.382 262.197 680.439 261.325 680.474C260.232 680.518 258.858 680.553 257.313 680.578C254.214 680.628 250.292 680.642 246.28 680.609L246.346 672.609ZM263.029 672.339L261.691 664.452C261.249 664.527 261.374 664.802 262.36 663.712C263.553 662.393 265.302 659.831 267.905 654.884C273.077 645.057 280.545 627.956 293.021 598.235L300.398 601.331L307.774 604.428C295.382 633.947 287.629 651.762 282.064 662.335C279.3 667.588 276.803 671.597 274.226 674.446C271.441 677.524 268.272 679.564 264.368 680.226L263.029 672.339ZM300.398 601.331L293.021 598.235C302.132 576.532 305.612 569.986 314.242 561.013L320.008 566.559L325.774 572.105C319.347 578.787 316.799 582.929 307.774 604.428L300.398 601.331ZM320.008 566.559L314.242 561.014C317.346 557.786 319.752 555.434 322.824 553.145C325.804 550.925 329.23 548.901 334.198 546.089L338.139 553.052L342.079 560.014C337.066 562.851 334.458 564.43 332.383 565.975C330.401 567.452 328.732 569.029 325.774 572.105L320.008 566.559ZM338.139 553.052L334.199 546.089C340.161 542.716 353.279 534.494 363.264 527.855L367.694 534.516L372.124 541.178C362.006 547.906 348.524 556.367 342.078 560.014L338.139 553.052ZM367.694 534.516L363.264 527.855C375.019 520.037 381.84 515.476 389.277 512.438C396.732 509.392 404.646 507.943 418.189 505.425L419.651 513.29L421.114 521.156C406.987 523.782 400.929 524.962 395.327 527.25C389.706 529.546 384.383 533.025 372.124 541.178L367.694 534.516ZM419.651 513.29L418.188 505.425C443.746 500.672 461.589 494.054 481.423 482.101L485.552 488.953L489.682 495.805C468.036 508.85 448.351 516.09 421.114 521.156L419.651 513.29ZM485.552 488.953L481.423 482.101C491.216 476.2 495.938 472.535 505.058 463.684L510.63 469.425L516.201 475.166C506.289 484.785 500.611 489.219 489.682 495.805L485.552 488.953ZM510.63 469.425L505.058 463.684C510.136 458.756 513.148 455.268 514.754 452.77C516.424 450.173 515.72 449.982 515.974 450.992L523.734 449.046L531.493 447.101C532.841 452.476 530.774 457.44 528.212 461.424C525.586 465.507 521.499 470.025 516.201 475.166L510.63 469.425ZM523.734 449.046L515.974 450.991C516.416 452.756 517.385 453.535 517.088 453.243C517.001 453.158 516.666 452.863 515.955 452.382C514.558 451.438 512.446 450.268 509.842 449.052C504.584 446.595 498.382 444.438 493.892 443.635L495.299 435.76L496.707 427.885C503 429.009 510.573 431.733 516.615 434.556C519.662 435.979 522.582 437.55 524.914 439.126C526.068 439.905 527.271 440.816 528.313 441.841C529.144 442.66 530.83 444.455 531.493 447.101L523.734 449.046ZM495.299 435.76L493.893 443.635C486.997 442.404 474.195 442.424 466.59 443.732L465.234 435.848L463.878 427.964C473.179 426.364 487.855 426.304 496.706 427.885L495.299 435.76ZM465.234 435.848L466.59 443.732C448.983 446.761 431.155 456.054 416.154 470.401L410.625 464.619L405.096 458.838C422.096 442.578 442.744 431.599 463.878 427.964L465.234 435.848ZM410.625 464.619L416.154 470.401C407.13 479.031 401.704 485.796 390.373 502.95L383.698 498.54L377.023 494.13C388.688 476.472 394.865 468.622 405.096 458.838L410.625 464.619ZM383.698 498.54L390.373 502.949C384.923 511.2 380.541 517.195 375.7 522.281C370.794 527.434 365.647 531.413 358.907 535.898L354.475 529.238L350.043 522.578C356.238 518.455 360.327 515.224 364.111 511.249C367.96 507.206 371.721 502.156 377.023 494.131L383.698 498.54ZM354.475 529.238L358.907 535.898C354.45 538.864 349.147 541.947 344.916 544.155C342.829 545.245 340.813 546.221 339.204 546.866C338.496 547.15 337.405 547.56 336.266 547.777C335.868 547.852 334.405 548.134 332.662 547.75C331.699 547.537 330.013 546.983 328.527 545.443C326.872 543.729 326.249 541.611 326.249 539.796L334.249 539.796L342.249 539.796C342.249 538.056 341.649 535.999 340.04 534.332C338.599 532.839 336.98 532.317 336.106 532.125C334.541 531.78 333.34 532.046 333.282 532.058C332.823 532.145 332.722 532.227 333.254 532.014C334.125 531.664 335.591 530.974 337.512 529.972C341.295 527.997 346.105 525.198 350.043 522.578L354.475 529.238ZM334.249 539.796L326.249 539.796C326.249 538.635 326.511 537.725 326.556 537.558C326.652 537.21 326.754 536.916 326.824 536.726C326.966 536.336 327.129 535.952 327.269 535.634C327.558 534.976 327.936 534.183 328.352 533.342C329.194 531.639 330.328 529.462 331.558 527.201L338.585 531.025L345.613 534.848C344.458 536.97 343.424 538.957 342.694 540.433C342.324 541.182 342.065 541.733 341.914 542.076C341.834 542.259 341.825 542.29 341.852 542.217C341.863 542.186 341.922 542.027 341.987 541.788C342.021 541.666 342.075 541.455 342.124 541.185C342.167 540.952 342.249 540.448 342.249 539.796L334.249 539.796ZM338.585 531.025L331.559 527.2C338.788 513.919 347.641 495.241 349.969 488.593L357.52 491.237L365.07 493.881C362.3 501.791 352.938 521.391 345.612 534.849L338.585 531.025ZM357.52 491.237L349.969 488.593C353.547 478.375 357.783 460.08 359.328 448.049L367.263 449.068L375.198 450.087C373.525 463.111 369.053 482.507 365.07 493.881L357.52 491.237ZM367.263 449.068L359.328 448.052C359.529 446.479 360.335 443.445 361.148 440.541C362.052 437.317 363.233 433.34 364.478 429.369L372.112 431.762L379.745 434.156C378.543 437.989 377.409 441.808 376.555 444.858C376.127 446.385 375.779 447.686 375.529 448.682C375.242 449.831 375.184 450.195 375.198 450.084L367.263 449.068ZM372.112 431.762L364.478 429.369L368.928 415.178L376.561 417.572L384.195 419.965L379.745 434.156L372.112 431.762ZM376.561 417.572L375.031 409.719L379.351 408.877L380.882 416.73L382.412 424.582L378.091 425.424L376.561 417.572ZM380.882 416.73L379.35 408.878C391.61 406.487 406.495 400.951 416.313 395.195L420.359 402.096L424.405 408.997C412.911 415.737 396.305 421.873 382.413 424.582L380.882 416.73ZM420.359 402.096L416.313 395.195C431.541 386.267 444.294 374.704 462.986 352.214L469.138 357.327L475.291 362.44C456.008 385.642 441.877 398.754 424.405 408.997L420.359 402.096ZM469.138 357.327L462.986 352.214C479.722 332.074 491.105 321.159 504.604 313.127L508.695 320.002L512.786 326.877C501.637 333.51 491.643 342.763 475.291 362.44L469.138 357.327ZM508.695 320.002L504.604 313.127C505.809 312.41 506.814 311.711 507.429 311.223C507.76 310.96 507.812 310.889 507.704 311.004C507.661 311.05 507.401 311.325 507.102 311.791C506.948 312.031 506.701 312.451 506.475 313.024C506.262 313.565 505.946 314.55 505.946 315.833L513.946 315.833L521.946 315.833C521.946 318.282 520.847 319.998 520.575 320.421C520.136 321.107 519.669 321.636 519.36 321.965C518.718 322.647 517.998 323.261 517.378 323.753C516.09 324.776 514.47 325.874 512.786 326.876L508.695 320.002ZM513.946 315.833L505.946 315.833C505.946 319.375 508.32 321.264 509.264 321.816C510.098 322.303 510.622 322.321 510.248 322.261C509.647 322.165 508.23 322.104 505.989 322.291C501.637 322.653 495.937 323.792 491.107 325.499L488.441 317.956L485.776 310.413C491.963 308.227 499.014 306.816 504.661 306.346C507.419 306.116 510.313 306.069 512.773 306.462C513.929 306.646 515.671 307.028 517.34 308.004C519.119 309.044 521.946 311.546 521.946 315.833L513.946 315.833ZM488.441 317.956L491.108 325.498C489.376 326.111 487.65 326.777 486.293 327.344C485.61 327.629 485.071 327.868 484.695 328.047C484.159 328.302 484.324 328.259 484.726 327.978L480.133 321.428L475.54 314.878C476.364 314.299 477.314 313.839 477.834 313.593C478.513 313.27 479.3 312.926 480.123 312.581C481.778 311.89 483.783 311.117 485.775 310.413L488.441 317.956ZM480.133 321.428L484.726 327.978C484.046 328.455 483.308 328.908 482.602 329.278C482.256 329.459 481.805 329.679 481.299 329.876C481.112 329.949 479.773 330.506 478.071 330.506L478.071 322.506L478.071 314.506C477.551 314.506 477.129 314.559 476.852 314.604C476.564 314.651 476.328 314.706 476.162 314.75C475.839 314.836 475.605 314.923 475.493 314.967C475.367 315.016 475.281 315.055 475.243 315.072C475.221 315.083 475.206 315.09 475.197 315.095C475.192 315.097 475.189 315.099 475.186 315.1C475.185 315.1 475.185 315.101 475.184 315.101C475.183 315.101 475.183 315.102 475.183 315.102C475.183 315.102 475.183 315.101 475.184 315.101C475.184 315.101 475.185 315.1 475.186 315.1C475.188 315.099 475.191 315.098 475.194 315.096C475.201 315.092 475.211 315.087 475.223 315.08C475.247 315.066 475.278 315.048 475.314 315.025C475.389 314.98 475.467 314.928 475.54 314.878L480.133 321.428ZM478.071 322.506L478.071 330.506C473.312 330.506 471.179 326.854 470.624 325.495C470.083 324.171 470.033 323.022 470.019 322.695C469.983 321.832 470.087 321.094 470.129 320.805C470.237 320.06 470.419 319.248 470.594 318.539C470.963 317.041 471.522 315.108 472.177 313.071L479.793 315.518L487.41 317.964C486.83 319.771 486.384 321.333 486.129 322.368C485.992 322.926 485.957 323.14 485.962 323.105C485.966 323.079 485.979 322.987 485.991 322.847C486 322.73 486.022 322.433 486.005 322.033C485.996 321.799 485.957 320.721 485.436 319.445C485.157 318.763 484.558 317.567 483.324 316.484C481.932 315.263 480.083 314.506 478.071 314.506L478.071 322.506ZM479.793 315.518L472.177 313.072C476.855 298.506 479.429 280.534 481.081 248.135L489.071 248.542L497.06 248.95C495.393 281.653 492.75 301.339 487.41 317.964L479.793 315.518ZM489.071 248.542L481.081 248.135C482.082 228.521 484.761 208.617 488.341 195.068L496.076 197.112L503.81 199.155C500.609 211.272 498.028 229.991 497.06 248.95L489.071 248.542ZM496.076 197.112L488.341 195.068C489.896 189.185 490.649 186.125 490.936 184.479C491.095 183.561 490.971 183.801 491.046 184.508C491.092 184.947 491.241 185.854 491.801 186.899C492.421 188.057 493.329 188.983 494.358 189.619L498.565 182.814L502.772 176.01C505.763 177.859 506.742 180.78 506.958 182.832C507.13 184.47 506.897 186.082 506.698 187.223C506.268 189.693 505.307 193.491 503.81 199.155L496.076 197.112ZM498.565 182.814L494.355 189.617C497.624 191.64 500.565 190.244 500.718 190.174C501.23 189.938 501.306 189.789 500.875 190.164C500.104 190.836 498.849 192.181 497.259 194.22C494.136 198.225 490.547 203.835 487.906 209.219L480.724 205.696L473.541 202.173C476.682 195.769 480.863 189.227 484.641 184.382C486.501 181.997 488.479 179.743 490.365 178.1C491.264 177.317 492.525 176.331 494.033 175.637C495.182 175.109 498.931 173.633 502.775 176.012L498.565 182.814ZM480.724 205.696L487.906 209.219C486.85 211.373 485.836 213.554 485.063 215.311C484.675 216.193 484.365 216.929 484.146 217.481C483.868 218.178 483.881 218.223 483.955 217.924L476.19 216L468.425 214.076C468.772 212.675 469.689 210.525 470.418 208.868C471.288 206.89 472.396 204.508 473.541 202.173L480.724 205.696ZM476.19 216L483.956 217.923C483.669 219.082 483.22 220.341 482.516 221.527C482.01 222.38 480.55 224.622 477.636 225.636C475.897 226.242 473.67 226.366 471.466 225.384C469.396 224.462 468.186 222.94 467.543 221.816C466.377 219.777 466.273 217.711 466.273 216.667L474.273 216.667L482.273 216.667C482.273 216.573 482.267 216.294 482.19 215.886C482.12 215.515 481.938 214.757 481.432 213.872C480.922 212.981 479.87 211.612 477.975 210.768C475.946 209.865 473.912 209.991 472.375 210.526C469.865 211.4 468.847 213.209 468.756 213.362C468.468 213.847 468.41 214.136 468.425 214.077L476.19 216ZM474.273 216.667L466.273 216.667C466.273 217.16 466.331 217.268 466.187 216.406C466.082 215.779 465.919 214.916 465.702 213.844C465.269 211.71 464.66 208.945 463.973 205.983C462.587 200.005 460.959 193.551 459.912 190.077L467.571 187.767L475.23 185.457C476.435 189.452 478.158 196.326 479.56 202.369C480.267 205.417 480.911 208.337 481.383 210.665C481.618 211.824 481.82 212.886 481.968 213.768C482.076 214.415 482.273 215.613 482.273 216.667L474.273 216.667ZM467.571 187.767L459.912 190.077C456.562 178.973 448.307 156.846 444.53 148.768L451.777 145.379L459.024 141.991C463.2 150.922 471.714 173.799 475.23 185.457L467.571 187.767ZM451.777 145.379L444.53 148.768C440.159 139.419 434.482 129.631 425.598 116.27L432.259 111.84L438.921 107.411C448.053 121.143 454.193 131.659 459.024 141.991L451.777 145.379ZM432.259 111.84L425.598 116.271C421.81 110.575 416.657 102.238 414.081 97.6172L421.069 93.722L428.057 89.8269C430.376 93.9866 435.294 101.957 438.92 107.41L432.259 111.84ZM421.069 93.722L414.081 97.6166C412.913 95.5198 411.81 93.6652 410.993 92.384C410.572 91.7234 410.297 91.3262 410.167 91.1511C410.082 91.0378 410.171 91.1694 410.387 91.3981C410.479 91.4955 410.793 91.8245 411.28 92.1889C411.527 92.3734 411.981 92.6897 412.607 92.9852C413.173 93.2521 414.372 93.7389 415.981 93.7389L415.981 85.7389L415.981 77.7389C418.83 77.7389 420.708 79.2601 420.858 79.3718C421.418 79.7909 421.82 80.2014 422.013 80.4055C422.431 80.8478 422.775 81.2944 422.993 81.5864C423.467 82.2221 423.984 82.9973 424.485 83.7836C425.513 85.3962 426.778 87.5332 428.057 89.8274L421.069 93.722ZM415.981 85.7389L415.981 93.7389C418.521 93.7389 420.273 92.3899 421.104 91.3828C421.786 90.5556 421.929 89.9137 421.886 90.0609C421.818 90.2987 421.641 91.2968 421.666 93.2344C421.713 96.9384 422.462 102.15 423.96 107.232L416.286 109.494L408.612 111.755C406.747 105.426 405.736 98.7606 405.667 93.4399C405.634 90.8652 405.811 88.0642 406.512 85.6309C406.854 84.4427 407.486 82.7472 408.762 81.2004C410.187 79.4737 412.637 77.7389 415.981 77.7389L415.981 85.7389ZM416.286 109.494L423.959 107.231C424.996 110.749 427.183 116.714 428.732 120.242L421.408 123.459L414.083 126.676C412.272 122.552 409.849 115.949 408.612 111.756L416.286 109.494ZM421.408 123.459L428.732 120.241C429.605 122.227 430.388 124.106 430.948 125.55C431.222 126.253 431.482 126.954 431.675 127.55C431.762 127.817 431.9 128.259 432.008 128.747C432.054 128.953 432.166 129.478 432.205 130.137C432.224 130.452 432.247 131.116 432.113 131.937C432.014 132.548 431.634 134.566 429.853 136.34L424.209 130.67L418.565 125.001C417.626 125.935 417.104 126.917 416.815 127.62C416.525 128.327 416.39 128.943 416.322 129.359C416.192 130.16 416.216 130.796 416.233 131.079C416.268 131.674 416.366 132.11 416.387 132.207C416.447 132.476 416.496 132.611 416.458 132.494C416.403 132.323 416.269 131.948 416.034 131.344C415.58 130.173 414.892 128.516 414.083 126.677L421.408 123.459ZM424.209 130.67L429.869 136.324C427.973 138.221 425.737 138.64 424.417 138.68C423.161 138.719 422.187 138.454 421.725 138.31C420.781 138.015 420.083 137.606 419.833 137.457C419.217 137.091 418.676 136.677 418.347 136.417C417.606 135.832 416.726 135.061 415.83 134.246C413.993 132.578 411.608 130.288 409.122 127.829C404.208 122.968 398.476 117.026 395.511 113.488L401.643 108.35L407.775 103.212C410.224 106.135 415.497 111.63 420.374 116.454C422.783 118.837 424.989 120.951 426.59 122.405C427.412 123.152 427.962 123.623 428.256 123.855C428.445 124.003 428.323 123.891 428.014 123.707C427.917 123.649 427.344 123.302 426.496 123.037C426.082 122.908 425.148 122.65 423.925 122.688C422.638 122.727 420.427 123.136 418.549 125.017L424.209 130.67ZM401.643 108.35L395.512 113.489C382.091 97.474 373.367 81.6538 364.506 57.7562L372.006 54.9747L379.507 52.1932C387.887 74.7908 395.785 88.9045 407.775 103.212L401.643 108.35ZM372.006 54.9747L364.506 57.7566C363.688 55.5516 363.088 53.9722 362.616 52.8267C362.099 51.5694 361.914 51.2851 361.982 51.3896C362.027 51.4589 362.368 51.992 363.071 52.5753C363.867 53.2351 365.216 54.0252 367.05 54.1734C368.814 54.3159 370.149 53.7913 370.823 53.4489C371.162 53.2768 371.405 53.1154 371.537 53.0225C371.671 52.9281 371.751 52.8615 371.76 52.8542L366.648 46.7003L361.537 40.5464C361.804 40.3246 364.44 37.9103 368.339 38.2254C372.671 38.5754 374.842 41.8125 375.412 42.6929C376.213 43.9297 376.866 45.4103 377.412 46.7357C378.003 48.173 378.692 49.9943 379.507 52.1928L372.006 54.9747ZM366.648 46.7003L371.761 52.8534C372.949 51.8661 373.165 50.9287 372.971 51.4438C372.861 51.734 372.669 52.3833 372.465 53.5038C372.062 55.7217 371.763 58.9247 371.644 62.9433C371.407 70.93 371.902 81.2912 373.222 91.6814L365.285 92.6893L357.349 93.6972C355.937 82.582 355.387 71.3833 355.651 62.4692C355.783 58.0374 356.121 53.9548 356.724 50.6409C357.023 48.9955 357.426 47.3175 358.002 45.7924C358.493 44.4924 359.484 42.2519 361.536 40.5472L366.648 46.7003ZM365.285 92.6893L373.222 91.682C373.674 95.2432 374.057 98.5372 374.309 100.985C374.434 102.198 374.533 103.261 374.591 104.064C374.619 104.447 374.646 104.882 374.654 105.283C374.657 105.458 374.662 105.812 374.633 106.221C374.62 106.405 374.586 106.834 374.476 107.361C374.421 107.623 374.31 108.096 374.091 108.658C373.916 109.106 373.419 110.29 372.279 111.426L366.633 105.758L360.987 100.09C359.851 101.221 359.359 102.398 359.188 102.836C358.972 103.388 358.865 103.847 358.813 104.093C358.71 104.589 358.681 104.976 358.672 105.106C358.66 105.281 358.657 105.412 358.657 105.472C358.656 105.54 358.657 105.585 358.657 105.6C358.657 105.623 358.655 105.519 358.633 105.219C358.592 104.657 358.513 103.782 358.393 102.626C358.157 100.336 357.79 97.1714 357.349 93.6966L365.285 92.6893ZM366.633 105.758L372.293 111.412C369.858 113.85 366.947 113.83 365.976 113.761C364.833 113.68 363.959 113.374 363.585 113.234C362.764 112.927 362.1 112.539 361.773 112.341C361.015 111.884 360.212 111.306 359.504 110.773C358.024 109.658 356.183 108.145 354.337 106.559C350.787 103.507 346.425 99.5007 344.306 96.9784L350.43 91.8318L356.555 86.6852C357.743 88.0991 361.189 91.3499 364.766 94.4247C366.484 95.9012 368.037 97.1687 369.133 97.9945C369.399 98.1955 369.617 98.3534 369.786 98.4716C369.964 98.5963 370.041 98.6429 370.034 98.6388C370.028 98.6354 369.966 98.5975 369.857 98.5413C369.764 98.4929 369.53 98.3753 369.196 98.25C368.944 98.1559 368.174 97.8769 367.112 97.8014C366.222 97.7381 363.371 97.7034 360.972 100.105L366.633 105.758ZM350.43 91.8318L344.306 96.9786C332.847 83.3424 325.128 65.4995 321.035 44.4281L328.889 42.9027L336.742 41.3772C340.453 60.4816 347.253 75.6163 356.555 86.685L350.43 91.8318ZM328.889 42.9027L321.035 44.4272C320.179 40.0177 319.947 38.5685 318.955 31.5631L326.876 30.4412L334.797 29.3194C335.771 36.1992 335.96 37.3482 336.742 41.3782L328.889 42.9027ZM326.876 30.4412L318.955 31.5634C318.264 26.684 317.128 20.6146 315.996 15.4509C315.431 12.8725 314.883 10.5922 314.41 8.84734C313.846 6.76881 313.594 6.24875 313.744 6.53144L320.816 2.7924L327.889 -0.946645C328.716 0.618403 329.379 2.9155 329.852 4.66143C330.416 6.741 331.026 9.29246 331.625 12.0255C332.822 17.4848 334.037 23.9575 334.797 29.3191L326.876 30.4412ZM320.816 2.7924L313.743 6.53023C313.779 6.59764 313.803 6.63773 313.811 6.64975C313.819 6.66298 313.818 6.66104 313.807 6.64501C313.796 6.62949 313.78 6.60658 313.758 6.57803C313.737 6.54963 313.714 6.51987 313.689 6.49047C313.665 6.461 313.643 6.43577 313.626 6.41597C313.608 6.39583 313.598 6.38626 313.599 6.38703C313.6 6.38776 313.604 6.3925 313.613 6.40094C313.622 6.40932 313.636 6.42287 313.656 6.44097C313.693 6.47384 313.768 6.54003 313.881 6.62698L318.759 0.286087L323.636 -6.05481C325.335 -4.74817 326.969 -2.68685 327.889 -0.945434L320.816 2.7924ZM318.759 0.286087L313.883 6.62822C314.664 7.2294 315.311 7.37192 315.396 7.38959C315.48 7.4069 315.275 7.35627 314.639 7.37911C313.333 7.42605 311.195 7.73792 307.923 8.52217L306.059 0.742487L304.194 -7.03719C307.86 -7.91577 311.194 -8.50736 314.064 -8.61054C316.627 -8.70264 320.464 -8.49371 323.635 -6.05604L318.759 0.286087ZM306.059 0.742487L307.922 8.52238C304.978 9.22753 302.783 10.1374 301.436 10.9412C300.765 11.3413 300.484 11.6093 300.437 11.6583C300.368 11.7312 300.822 11.2945 301.073 10.2937L293.313 8.34787L285.554 6.40205C286.726 1.72658 290.544 -1.19127 293.237 -2.79828C296.327 -4.6426 300.135 -6.06493 304.195 -7.03741L306.059 0.742487ZM293.313 8.34787L301.073 10.2923C301.268 9.51661 301.127 9.21959 301.219 9.83971C301.297 10.3665 301.496 11.2468 301.921 12.567C302.772 15.2105 304.296 18.912 306.642 23.8676L299.411 27.2908L292.181 30.7141C289.718 25.5121 287.855 21.0863 286.691 17.4699C286.109 15.6601 285.643 13.8772 285.392 12.1873C285.155 10.5907 285.022 8.52341 285.553 6.40346L293.313 8.34787ZM299.411 27.2908L306.642 23.8679C311.42 33.9599 313.975 40.5476 315.822 47.9831L308.059 49.9123L300.295 51.8414C298.805 45.8466 296.732 40.328 292.181 30.7138L299.411 27.2908ZM308.059 49.9123L315.822 47.9826C316.867 52.1864 317.561 55.3187 317.944 58.7713C318.321 62.1743 318.373 65.6753 318.349 70.5915L310.349 70.5515L302.349 70.5116C302.373 65.6198 302.307 62.934 302.041 60.5359C301.781 58.1873 301.304 55.9039 300.295 51.8419L308.059 49.9123ZM310.349 70.5515L318.349 70.5915C318.287 82.9714 316.254 91.9455 310.954 103.624L303.669 100.318L296.384 97.0117C300.801 87.2803 302.299 80.5249 302.349 70.5115L310.349 70.5515ZM303.669 100.318L310.954 103.624C309.493 106.843 308.093 109.706 306.853 111.459C306.534 111.91 305.935 112.713 305.07 113.458C304.675 113.799 301.754 116.369 297.53 115.29C292.955 114.121 291.779 110.049 291.597 109.387C291.268 108.193 291.243 107.119 291.243 106.578L299.243 106.573L307.243 106.568C307.243 106.532 307.242 106.401 307.222 106.2C307.205 106.018 307.159 105.634 307.022 105.138C306.928 104.798 305.886 100.911 301.49 99.7877C297.444 98.7542 294.748 101.231 294.624 101.338C294.286 101.629 294.067 101.877 293.969 101.993C293.86 102.121 293.801 102.204 293.793 102.216C293.781 102.233 293.85 102.135 294.007 101.863C294.155 101.604 294.347 101.252 294.584 100.789C295.061 99.8599 295.657 98.6134 296.384 97.0119L303.669 100.318ZM299.243 106.573L291.243 106.577C291.243 107.613 291.509 108.107 291.294 107.495C291.161 107.117 290.909 106.505 290.502 105.647C289.695 103.948 288.495 101.736 287.037 99.2846C284.096 94.3396 280.464 89.0168 277.597 85.6178L283.712 80.4599L289.828 75.3021C293.456 79.6035 297.588 85.7253 300.788 91.1059C302.401 93.817 303.865 96.4882 304.955 98.7839C305.497 99.9239 306.001 101.088 306.388 102.187C306.693 103.053 307.242 104.727 307.243 106.569L299.243 106.573ZM283.712 80.4599L277.597 85.6176C273.59 80.866 271.766 78.7574 270.865 77.8732C270.677 77.6888 270.706 77.7366 270.895 77.8777C271.008 77.9621 271.754 78.5296 272.982 78.8782C274.525 79.3163 276.605 79.331 278.612 78.2486C280.236 77.3728 281.038 76.1669 281.194 75.934L274.555 71.4713L267.915 67.0087C268.232 66.5376 269.198 65.147 271.017 64.1661C273.219 62.9785 275.524 62.9678 277.351 63.4862C278.862 63.9152 279.949 64.669 280.487 65.0719C281.101 65.5315 281.64 66.0299 282.072 66.4544C283.653 68.0063 286.088 70.8682 289.828 75.3022L283.712 80.4599ZM274.555 71.4713L281.192 75.9381C281.794 75.0428 282.061 74.2427 282.156 73.9405C282.276 73.5592 282.338 73.2556 282.367 73.0991C282.424 72.788 282.438 72.5835 282.438 72.5828C282.44 72.5569 282.43 72.6937 282.43 73.0714C282.431 73.7904 282.465 74.8999 282.539 76.3634C282.687 79.261 282.975 83.206 283.372 87.476L275.407 88.2164L267.441 88.9569C267.029 84.5233 266.721 80.3489 266.56 77.1764C266.48 75.6049 266.431 74.1916 266.43 73.0834C266.43 72.5475 266.44 71.9446 266.483 71.3757C266.504 71.1035 266.543 70.6767 266.632 70.1953C266.652 70.0909 266.882 68.5436 267.918 67.0046L274.555 71.4713ZM275.407 88.2164L283.372 87.4764C284.58 100.477 284.758 110.469 283.065 119.356C281.327 128.48 277.727 135.911 272.266 144.002L265.635 139.527L259.003 135.052C263.657 128.157 266.133 122.742 267.347 116.363C268.607 109.747 268.614 101.577 267.441 88.9565L275.407 88.2164ZM265.635 139.527L272.266 144.002C270.688 146.34 269.373 148.267 268.318 149.697C267.79 150.413 267.24 151.123 266.69 151.752C266.227 152.281 265.376 153.207 264.224 153.966C263.324 154.559 259.799 156.617 255.684 154.551C252.224 152.813 251.379 149.507 251.226 148.933C250.759 147.181 250.77 145.081 250.763 144.108L258.763 144.052L266.762 143.996C266.767 144.619 266.777 145.008 266.792 145.257C266.813 145.593 266.824 145.328 266.687 144.814C266.614 144.543 266.422 143.893 265.966 143.125C265.497 142.338 264.551 141.099 262.864 140.252C259.032 138.328 255.867 140.312 255.425 140.603C254.732 141.06 254.439 141.455 254.654 141.21C254.781 141.065 255.03 140.758 255.442 140.2C256.266 139.082 257.398 137.432 259.003 135.052L265.635 139.527ZM258.763 144.052L250.763 144.108C250.725 138.787 250.259 136.186 248.151 130.388L255.67 127.655L263.188 124.921C265.855 132.257 266.711 136.666 266.762 143.996L258.763 144.052ZM255.67 127.655L248.151 130.388C245.952 124.339 243.773 120.896 236.813 113.687L242.569 108.131L248.324 102.574C256.308 110.844 259.997 116.144 263.188 124.921L255.67 127.655ZM242.569 108.131L236.814 113.687C234.253 111.036 232.752 109.735 232.134 109.308C232.017 109.227 232.124 109.314 232.412 109.45C232.59 109.533 233.542 109.982 234.965 110.02C236.714 110.067 239.322 109.437 241.155 107.045C242.64 105.107 242.684 103.162 242.681 102.623L234.681 102.679L226.681 102.734C226.674 101.748 226.801 99.4712 228.454 97.3146C230.454 94.704 233.313 93.9697 235.397 94.026C237.156 94.0735 238.526 94.6447 239.204 94.9627C239.994 95.3327 240.684 95.7674 241.23 96.1453C243.267 97.5531 245.716 99.8725 248.324 102.574L242.569 108.131ZM234.681 102.679L242.681 102.62C242.678 102.28 242.653 102.021 242.647 101.957C242.637 101.854 242.628 101.779 242.624 101.75C242.616 101.691 242.612 101.67 242.619 101.712C242.631 101.789 242.657 101.939 242.701 102.18C242.787 102.651 242.916 103.33 243.083 104.18C243.415 105.871 243.877 108.144 244.387 110.583L236.556 112.219L228.725 113.856C228.205 111.369 227.731 109.032 227.383 107.264C227.21 106.384 227.064 105.622 226.959 105.044C226.908 104.76 226.859 104.484 226.821 104.245C226.802 104.129 226.779 103.979 226.758 103.819C226.755 103.796 226.685 103.309 226.681 102.737L234.681 102.679ZM236.556 112.219L244.387 110.584C246.855 122.402 248.14 131.265 247.719 140.141C247.297 149.05 245.181 157.466 241.615 168.433L234.007 165.959L226.399 163.486C229.826 152.946 231.417 146.142 231.737 139.383C232.059 132.59 231.123 125.337 228.725 113.855L236.556 112.219ZM234.007 165.959L241.615 168.433C236.743 183.421 234.094 193.331 231.937 204.475L224.083 202.954L216.228 201.434C218.546 189.465 221.39 178.895 226.399 163.486L234.007 165.959ZM224.083 202.954L231.937 204.474C231.225 208.152 230.7 218.681 230.614 230.398C230.528 241.995 230.878 253.243 231.583 258.142L223.665 259.282L215.747 260.422C214.847 254.174 214.529 241.793 214.614 230.28C214.699 218.887 215.185 206.824 216.228 201.434L224.083 202.954ZM223.665 259.282L231.583 258.141C231.883 260.221 232.127 262.191 232.278 263.707C232.351 264.448 232.412 265.181 232.44 265.801C232.452 266.085 232.466 266.522 232.445 266.99C232.435 267.201 232.41 267.655 232.311 268.2C232.262 268.47 232.16 268.96 231.948 269.544C231.786 269.991 231.291 271.275 230.075 272.492L224.415 266.839L218.755 261.185C218.102 261.838 217.687 262.481 217.438 262.928C217.181 263.388 217.014 263.794 216.909 264.084C216.705 264.645 216.611 265.107 216.568 265.341C216.482 265.818 216.465 266.177 216.461 266.272C216.45 266.508 216.46 266.621 216.455 266.501C216.447 266.313 216.418 265.916 216.356 265.286C216.234 264.063 216.022 262.336 215.747 260.423L223.665 259.282ZM224.415 266.839L230.089 272.479C228.219 274.359 226.06 274.731 225.097 274.817C224.058 274.909 223.235 274.776 222.844 274.702C222.037 274.547 221.42 274.3 221.195 274.208C220.649 273.985 220.177 273.73 219.913 273.585C219.311 273.252 218.62 272.825 217.946 272.392C216.555 271.497 214.761 270.27 212.875 268.919L217.535 262.417L222.195 255.914C223.931 257.158 225.495 258.224 226.598 258.933C227.17 259.301 227.511 259.503 227.648 259.579C227.754 259.637 227.578 259.532 227.247 259.397C227.13 259.349 226.599 259.13 225.857 258.988C225.499 258.919 224.703 258.789 223.685 258.879C222.744 258.962 220.6 259.329 218.741 261.199L224.415 266.839ZM217.535 262.417L212.875 268.919C210.05 266.894 206.282 264.55 203.013 262.716C201.38 261.8 199.979 261.074 198.962 260.601C198.443 260.36 198.135 260.237 198.007 260.191C197.568 260.034 198.386 260.411 199.691 260.411L199.691 252.411L199.691 244.411C201.428 244.411 202.935 244.961 203.392 245.124C204.16 245.399 204.957 245.743 205.706 246.091C207.223 246.796 209.006 247.733 210.838 248.761C214.499 250.813 218.787 253.471 222.195 255.914L217.535 262.417ZM199.691 252.411L199.691 260.411C201.008 260.411 202.505 260.027 203.86 259.033C205.201 258.049 206.893 256.014 206.893 252.996L198.893 252.996L190.893 252.996C190.893 249.656 192.765 247.329 194.395 246.133C196.039 244.926 197.934 244.411 199.691 244.411L199.691 252.411ZM198.893 252.996L206.893 252.996C206.893 251.85 206.634 250.985 206.596 250.851C206.511 250.553 206.428 250.332 206.392 250.238C206.349 250.126 206.315 250.045 206.298 250.008C206.281 249.967 206.269 249.943 206.268 249.94C206.266 249.936 206.281 249.967 206.319 250.043C206.356 250.116 206.405 250.212 206.469 250.334C206.733 250.838 207.149 251.596 207.7 252.576C208.793 254.52 210.321 257.158 212.014 260.01L205.135 264.094L198.256 268.178C196.517 265.248 194.923 262.498 193.754 260.419C193.174 259.387 192.672 258.475 192.302 257.771C192.124 257.43 191.934 257.06 191.773 256.716C191.698 256.555 191.577 256.29 191.459 255.982C191.401 255.832 191.302 255.564 191.206 255.227C191.158 255.056 190.893 254.161 190.893 252.996L198.893 252.996ZM205.135 264.094L212.014 260.01C221.467 275.934 231.12 296 237.165 312.33L229.663 315.107L222.16 317.885C216.473 302.521 207.249 283.327 198.256 268.178L205.135 264.094ZM229.663 315.107L237.165 312.33C239.946 319.843 244.412 330.255 246.981 335.286L239.857 338.925L232.733 342.564C229.797 336.816 225.088 325.793 222.16 317.885L229.663 315.107ZM239.857 338.925L246.982 335.286C257.26 355.409 276.504 376.432 294.683 387.554L290.507 394.378L286.332 401.202C265.511 388.463 244.283 365.177 232.733 342.564L239.857 338.925ZM290.507 394.378L294.683 387.554L301.178 391.528L297.003 398.352L292.828 405.176L286.332 401.202L290.507 394.378ZM297.003 398.352L298.624 406.186L291.994 407.558L290.374 399.724L288.753 391.89L295.382 390.518L297.003 398.352ZM290.374 399.724L291.995 407.558C288.767 408.226 285.473 409.29 283.111 410.307C281.896 410.831 281.203 411.224 280.948 411.397C280.799 411.498 281.06 411.348 281.447 410.915C281.65 410.687 283.128 409.05 283.128 406.289L275.128 406.289L267.128 406.289C267.128 403.109 268.849 401.002 269.507 400.265C270.347 399.322 271.274 398.625 271.97 398.153C273.405 397.181 275.122 396.327 276.783 395.612C280.175 394.151 284.504 392.769 288.752 391.89L290.374 399.724ZM275.128 406.289L283.128 406.289C283.128 405.106 282.834 403.675 281.969 402.31C281.145 401.01 280.116 400.264 279.419 399.871C278.753 399.496 278.219 399.344 278.036 399.296C277.827 399.241 277.738 399.235 277.842 399.249C278.475 399.333 280.022 399.4 283.511 399.4L283.511 407.4L283.511 415.4C280.257 415.4 277.612 415.358 275.74 415.11C274.928 415.003 273.224 414.746 271.56 413.808C270.605 413.269 269.395 412.359 268.455 410.876C267.474 409.328 267.128 407.694 267.128 406.289L275.128 406.289ZM283.511 407.4L283.511 399.4C296.12 399.4 304.555 400.656 320.65 404.721L318.691 412.477L316.732 420.234C301.476 416.381 294.41 415.4 283.511 415.4L283.511 407.4ZM318.691 412.477L320.65 404.721C328.134 406.611 336.585 408.504 339.415 408.962L338.139 416.859L336.862 424.757C333.275 424.177 324.223 422.126 316.732 420.234L318.691 412.477ZM338.139 416.859L339.415 408.962C341.417 409.285 343.374 409.729 345.036 410.258C345.856 410.519 346.759 410.85 347.621 411.269C348.193 411.547 349.881 412.379 351.207 414.046L344.946 419.027L338.686 424.007C339.015 424.421 339.329 424.722 339.556 424.92C339.788 425.122 339.988 425.268 340.129 425.364C340.4 425.549 340.589 425.641 340.624 425.658C340.689 425.69 340.566 425.627 340.181 425.504C339.435 425.266 338.273 424.985 336.863 424.757L338.139 416.859ZM344.946 419.027L351.21 414.05C351.782 414.77 352.301 415.674 352.547 416.104C352.906 416.729 353.32 417.487 353.758 418.31C354.638 419.965 355.691 422.035 356.719 424.141L349.53 427.65L342.34 431.159C341.382 429.195 340.412 427.291 339.63 425.819C339.237 425.08 338.911 424.487 338.67 424.068C338.549 423.856 338.47 423.726 338.43 423.661C338.349 423.532 338.455 423.716 338.682 424.003L344.946 419.027ZM349.53 427.65L356.72 424.142C359.244 429.316 360.942 433.927 361.454 439.552C361.943 444.919 361.298 450.721 360.083 458.148L352.188 456.856L344.293 455.564C345.484 448.288 345.811 444.203 345.52 441.002C345.252 438.058 344.418 435.418 342.34 431.158L349.53 427.65ZM352.188 456.856L360.083 458.148C358.296 469.071 356.18 477.703 352.514 486.491C348.877 495.208 343.845 503.761 336.585 514.646L329.929 510.207L323.274 505.768C330.331 495.188 334.699 487.636 337.747 480.33C340.766 473.095 342.621 465.784 344.293 455.565L352.188 456.856ZM329.929 510.207L336.585 514.646C333.213 519.702 328.289 526.508 324.08 532.08C321.972 534.869 319.995 537.415 318.443 539.318C317.677 540.258 316.95 541.12 316.331 541.8C316.031 542.129 315.664 542.518 315.273 542.882C315.082 543.06 314.788 543.323 314.424 543.597C314.203 543.764 313.34 544.418 312.082 544.853L309.469 537.292L306.856 529.731C305.671 530.14 304.904 530.737 304.8 530.816C304.553 531.001 304.398 531.146 304.366 531.175C304.295 531.242 304.328 531.217 304.502 531.025C304.831 530.664 305.345 530.062 306.043 529.206C307.42 527.518 309.265 525.147 311.313 522.436C315.415 517.005 320.138 510.471 323.274 505.768L329.929 510.207ZM309.469 537.292L312.078 544.855C307.73 546.355 304.536 543.833 303.464 542.672C302.446 541.57 301.969 540.441 301.808 540.047C301.41 539.073 301.214 538.122 301.112 537.569C300.878 536.295 300.741 534.786 300.686 533.302L308.681 533.008L316.676 532.714C316.712 533.705 316.797 534.397 316.849 534.676C316.89 534.899 316.852 534.563 316.619 533.994C316.541 533.803 316.149 532.824 315.217 531.815C314.716 531.273 313.757 530.391 312.267 529.82C310.603 529.183 308.687 529.099 306.86 529.729L309.469 537.292ZM308.681 533.008L300.686 533.301C300.62 531.491 300.256 528.287 299.792 524.467C299.358 520.885 298.846 516.838 298.62 513.947L306.595 513.322L314.571 512.698C314.763 515.151 315.213 518.725 315.676 522.539C316.11 526.114 316.579 530.081 316.676 532.716L308.681 533.008ZM233.004 444.48L239.564 439.901C248.238 452.325 256.731 458.12 263.814 461.632C267.527 463.474 270.826 464.686 274.247 466.055C277.341 467.294 281.167 468.884 284.229 471.456L279.083 477.581L273.937 483.707C273.105 483.007 271.603 482.231 268.301 480.909C265.326 479.719 261.16 478.175 256.706 475.967C247.454 471.379 236.802 463.895 226.445 449.06L233.004 444.48ZM279.083 477.581L284.229 471.456C301.944 486.337 303.228 509.736 303.542 512.378L295.598 513.322L287.654 514.266C287.198 510.424 286.044 493.877 273.937 483.707L279.083 477.581ZM295.598 513.322L303.542 512.378C304.626 521.5 307.642 538.628 304.884 554.428L297.003 553.052L289.122 551.676C291.367 538.819 288.904 524.786 287.654 514.266L295.598 513.322ZM297.003 553.052L304.884 554.428C303.563 561.994 298.954 569.285 295.21 574.192C293.245 576.766 291.286 578.985 289.676 580.617C288.883 581.42 288.087 582.171 287.354 582.777C287.004 583.067 286.526 583.442 285.979 583.79C285.712 583.96 285.276 584.222 284.723 584.466C284.347 584.633 283.071 585.187 281.352 585.187L281.352 577.187L281.352 569.187C279.7 569.187 278.515 569.717 278.25 569.834C277.81 570.029 277.507 570.217 277.391 570.29C277.15 570.444 277.056 570.531 277.159 570.446C277.331 570.304 277.714 569.96 278.286 569.38C279.406 568.245 280.923 566.539 282.49 564.486C285.807 560.139 288.479 555.361 289.122 551.676L297.003 553.052ZM281.352 577.187L281.352 585.187C279.14 585.187 277.553 584.294 276.783 583.763C275.978 583.208 275.448 582.625 275.177 582.303C274.633 581.658 274.304 581.062 274.175 580.822C273.876 580.267 273.667 579.74 273.555 579.448C273.301 578.784 273.051 578.003 272.825 577.247C272.358 575.683 271.817 573.628 271.298 571.435L279.083 569.594L286.868 567.752C287.337 569.735 287.801 571.477 288.156 572.666C288.341 573.287 288.457 573.621 288.498 573.728C288.534 573.822 288.455 573.595 288.266 573.243C288.191 573.104 287.911 572.586 287.412 571.993C287.162 571.697 286.653 571.134 285.867 570.592C285.117 570.074 283.547 569.187 281.352 569.187L281.352 577.187ZM279.083 569.594L271.298 571.435C268.929 561.422 263.807 546.184 259.341 535.915L266.678 532.725L274.014 529.535C278.829 540.607 284.265 556.746 286.868 567.752L279.083 569.594ZM266.678 532.725L259.342 535.915C257.252 531.111 250.67 516.786 244.944 505.817L252.035 502.115L259.127 498.412C265.069 509.795 271.814 524.475 274.014 529.534L266.678 532.725ZM252.035 502.115L244.944 505.817C230.594 478.331 222.163 468.235 204.323 450.089L210.028 444.48L215.733 438.872C234.501 457.962 243.937 469.316 259.127 498.412L252.035 502.115ZM210.028 444.48L204.323 450.089C184.842 430.272 166.826 416.64 148.779 409.196L151.83 401.8L154.88 394.405C175.729 403.004 195.508 418.299 215.733 438.872L210.028 444.48ZM151.83 401.8L149.911 409.567C140.612 407.269 125.671 406.352 117.846 406.352L117.846 398.352L117.846 390.352C126.148 390.352 142.593 391.277 153.749 394.034L151.83 401.8ZM117.846 398.352L117.846 406.352C111.916 406.352 107.502 407.511 105.036 408.952C102.892 410.205 103.141 410.908 103.198 411.292L95.2868 412.477L87.3752 413.663C86.0861 405.06 90.8658 398.701 96.9636 395.138C102.74 391.763 110.278 390.352 117.846 390.352L117.846 398.352ZM95.2868 412.477L103.199 411.293C103.196 411.272 103.209 411.36 103.262 411.593C103.312 411.812 103.383 412.1 103.48 412.459C103.674 413.181 103.943 414.091 104.279 415.154C104.95 417.276 105.841 419.856 106.826 422.487C108.931 428.118 111.026 432.795 112.083 434.332L105.49 438.864L98.8968 443.395C96.5482 439.978 93.8366 433.432 91.8395 428.092C90.7725 425.239 89.7885 422.397 89.0232 419.977C88.3186 417.749 87.6283 415.354 87.375 413.662L95.2868 412.477ZM105.49 438.864L112.083 434.333C116.3 440.469 124.06 447.454 134.952 454.435C145.733 461.344 159.121 467.957 174.073 473.532L171.278 481.028L168.482 488.523C152.635 482.614 138.198 475.519 126.319 467.906C114.55 460.363 104.816 452.009 98.8965 443.394L105.49 438.864ZM171.278 481.028L174.073 473.532C205.124 485.111 221.28 493.058 237.773 505.302L233.005 511.725L228.236 518.148C213.499 507.208 198.95 499.885 168.482 488.523L171.278 481.028ZM233.005 511.725L237.773 505.301C252.289 516.077 260.374 526.098 267.071 541.911L259.704 545.03L252.337 548.15C246.833 535.151 240.631 527.35 228.236 518.148L233.005 511.725ZM259.704 545.03L267.071 541.911C276.084 563.197 278.979 576.33 278.133 594.705L270.142 594.337L262.15 593.969C262.857 578.621 260.704 567.909 252.337 548.15L259.704 545.03ZM270.142 594.337L278.133 594.704C277.844 600.996 277.089 609.019 276.338 612.611L268.507 610.973L260.677 609.336C261.152 607.066 261.867 600.115 262.15 593.969L270.142 594.337ZM268.507 610.973L276.338 612.609C274.987 619.078 270.338 628.371 264.858 637.494C259.193 646.925 251.996 657.222 244.705 665.952L238.565 660.824L232.425 655.696C239.135 647.661 245.86 638.049 251.142 629.256C256.609 620.154 259.931 612.904 260.677 609.337L268.507 610.973ZM298.71 454.216L291.537 457.759C285.409 445.351 273.463 423.451 244.017 415.096L246.201 407.4L248.385 399.704C284.703 410.008 299.32 437.386 305.883 450.673L298.71 454.216ZM246.201 407.4L244.017 415.096C235.065 412.556 228.764 410.8 224.628 409.989C223.633 409.793 222.868 409.675 222.297 409.612C221.695 409.547 221.489 409.564 221.553 409.56C221.599 409.556 221.808 409.539 222.127 409.459C222.44 409.379 222.977 409.209 223.604 408.843C225.112 407.962 226.459 406.322 226.846 404.181L218.974 402.756L211.102 401.331C211.618 398.48 213.361 396.297 215.533 395.028C217.365 393.958 219.215 393.689 220.377 393.603C222.716 393.431 225.345 393.824 227.708 394.288C232.649 395.257 239.704 397.241 248.385 399.704L246.201 407.4ZM218.974 402.756L226.846 404.181C226.099 408.307 227.273 414.65 230.106 421.953C232.833 428.982 236.607 435.666 239.564 439.901L233.004 444.48L226.445 449.06C222.796 443.834 218.403 436.024 215.189 427.74C212.082 419.731 209.543 409.942 211.102 401.331L218.974 402.756ZM306.595 513.322L298.62 513.947C298.285 509.672 298.121 504.743 297.94 499.757C297.757 494.694 297.555 489.46 297.156 484.269C296.34 473.656 294.754 464.272 291.537 457.759L298.71 454.216L305.883 450.673C310.551 460.126 312.272 472.16 313.109 483.042C313.536 488.597 313.747 494.13 313.93 499.179C314.115 504.306 314.269 508.838 314.571 512.698L306.595 513.322Z" fill="#FCF6EB" mask="url(#path-2-inside-1_503_536)"/>
</g>
<defs>
<clipPath id="clip0_503_536">
<rect width="320" height="592" fill="white"/>
</clipPath>
</defs>
</svg>
