<svg width="214" height="86" viewBox="0 0 214 86" fill="none" xmlns="http://www.w3.org/2000/svg">
<path d="M15.9201 29.5527L15.9201 0.412779L41.4227 0.412779L41.4227 29.5527H36.1321L36.1321 4.75277L21.1694 4.75277L21.1694 29.5527H15.9201ZM46.8978 14.9621C46.8978 11.9034 47.4489 9.2581 48.5511 7.0261C49.6809 4.79411 51.2929 3.07189 53.3871 1.85944C55.4813 0.619446 57.9751 -0.000553061 60.8684 -0.000553061C63.7342 -0.000553061 66.2142 0.619446 68.3084 1.85944C70.4026 3.07189 72.0146 4.79411 73.1444 7.0261C74.3017 9.2581 74.8804 11.8897 74.8804 14.9208C74.8804 17.9794 74.3017 20.6385 73.1444 22.8981C72.0146 25.1301 70.4026 26.8661 68.3084 28.1061C66.2142 29.3461 63.7342 29.9661 60.8684 29.9661C57.9751 29.9661 55.4813 29.3461 53.3871 28.1061C51.3204 26.8661 49.7222 25.1301 48.5924 22.8981C47.4627 20.6385 46.8978 17.9932 46.8978 14.9621ZM52.4778 14.9621C52.4778 18.2412 53.1804 20.8039 54.5858 22.6501C55.9911 24.4963 58.0853 25.4194 60.8684 25.4194C63.5689 25.4194 65.6493 24.4963 67.1097 22.6501C68.5702 20.8039 69.3004 18.2412 69.3004 14.9621C69.3004 11.6554 68.5702 9.09277 67.1097 7.2741C65.6769 5.45544 63.5964 4.54611 60.8684 4.54611C58.0853 4.54611 55.9911 5.45544 54.5858 7.2741C53.1804 9.09277 52.4778 11.6554 52.4778 14.9621ZM80.2602 30.2554L77.6562 26.3287C78.8135 25.695 79.8331 24.951 80.7149 24.0967C81.5966 23.2425 82.3268 22.1816 82.9055 20.9141C83.4842 19.619 83.9113 18.0345 84.1868 16.1608C84.49 14.2594 84.6415 11.9723 84.6415 9.29943V0.412779L105.804 0.412779V29.5527H100.513V4.75277L89.5602 4.75277V10.6221C89.5602 13.4052 89.3535 15.8576 88.9402 17.9794C88.5268 20.1012 87.9206 21.9612 87.1215 23.5594C86.3224 25.1301 85.3442 26.4665 84.1868 27.5687C83.0571 28.6434 81.7482 29.539 80.2602 30.2554ZM116.694 29.5527L121.819 19.8394L121.902 21.4927L108.427 0.412779H114.131L124.506 16.8634H123.472L132.111 0.412779L137.608 0.412779L122.232 29.5527H116.694ZM158.015 29.5527V18.1448C157.216 18.503 156.21 18.7923 154.998 19.0128C153.785 19.2332 152.573 19.3434 151.361 19.3434C147.448 19.3434 144.444 18.3376 142.35 16.3261C140.283 14.3145 139.25 11.2697 139.25 7.19144V0.412779H144.541V6.94344C144.541 9.69899 145.147 11.7105 146.359 12.9781C147.599 14.2181 149.459 14.8381 151.939 14.8381C152.986 14.8381 154.02 14.7416 155.039 14.5488C156.086 14.3559 157.078 14.039 158.015 13.5981V0.412779H163.306V29.5527H158.015ZM169.709 29.5527V0.412779H174.628V22.4021H173.636L190.5 0.412779H194.509V29.5527H189.549V7.56344H190.541L173.636 29.5527L169.709 29.5527ZM-0.00369674 78.5527L-0.00369674 49.4128L25.4989 49.4128L25.4989 78.5527H20.2083L20.2083 53.7528H5.24563L5.24563 78.5527H-0.00369674ZM30.974 63.9621C30.974 60.9034 31.5251 58.2581 32.6273 56.0261C33.7571 53.7941 35.3691 52.0719 37.4633 50.8594C39.5575 49.6194 42.0513 48.9994 44.9446 48.9994C47.8104 48.9994 50.2904 49.6194 52.3846 50.8594C54.4788 52.0719 56.0908 53.7941 57.2206 56.0261C58.3779 58.2581 58.9566 60.8897 58.9566 63.9208C58.9566 66.9794 58.3779 69.6385 57.2206 71.8981C56.0908 74.1301 54.4788 75.8661 52.3846 77.1061C50.2904 78.3461 47.8104 78.9661 44.9446 78.9661C42.0513 78.9661 39.5575 78.3461 37.4633 77.1061C35.3966 75.8661 33.7984 74.1301 32.6686 71.8981C31.5389 69.6385 30.974 66.9932 30.974 63.9621ZM36.554 63.9621C36.554 67.2412 37.2566 69.8039 38.662 71.6501C40.0673 73.4963 42.1615 74.4194 44.9446 74.4194C47.6451 74.4194 49.7255 73.4963 51.1859 71.6501C52.6464 69.8039 53.3766 67.2412 53.3766 63.9621C53.3766 60.6554 52.6464 58.0928 51.1859 56.2741C49.7531 54.4554 47.6726 53.5461 44.9446 53.5461C42.1615 53.5461 40.0673 54.4554 38.662 56.2741C37.2566 58.0928 36.554 60.6554 36.554 63.9621ZM61.0058 85.3727V74.3781H64.0231C65.4009 72.7247 66.4205 70.4652 67.0818 67.5994C67.7431 64.7336 68.0738 61.2065 68.0738 57.0181V49.4128H89.1951V74.3781H93.4524V85.3727H88.8231V78.5527H65.6765V85.3727H61.0058ZM69.3551 74.3781H83.9045V53.5461H72.9511V57.5141C72.9511 61.5096 72.648 64.8714 72.0418 67.5994C71.4631 70.3274 70.5676 72.587 69.3551 74.3781ZM94.4141 78.5527L107.599 49.4128H112.063L125.414 78.5527H119.999L116.445 70.3687L118.594 71.8154L101.11 71.8154L103.342 70.3687L99.7874 78.5527H94.4141ZM109.79 55.1168L103.962 68.9221L102.887 67.6408L116.775 67.6408L115.907 68.9221L109.955 55.1168H109.79ZM128.638 78.5527V49.4128L141.575 49.4128C144.772 49.4128 147.21 50.1843 148.891 51.7274C150.572 53.2706 151.413 55.3923 151.413 58.0928C151.413 60.7657 150.572 62.8874 148.891 64.4581C147.21 66.0288 144.772 66.8141 141.575 66.8141H133.97V78.5527H128.638ZM133.97 62.5981H140.955C142.719 62.5981 144.042 62.2123 144.923 61.4408C145.805 60.6417 146.246 59.5257 146.246 58.0928C146.246 56.6599 145.805 55.5577 144.923 54.7861C144.042 53.987 142.719 53.5874 140.955 53.5874H133.97V62.5981ZM154.812 63.9621C154.812 60.9034 155.363 58.2581 156.466 56.0261C157.595 53.7941 159.207 52.0719 161.302 50.8594C163.396 49.6194 165.89 48.9994 168.783 48.9994C171.649 48.9994 174.129 49.6194 176.223 50.8594C178.317 52.0719 179.929 53.7941 181.059 56.0261C182.216 58.2581 182.795 60.8897 182.795 63.9208C182.795 66.9794 182.216 69.6385 181.059 71.8981C179.929 74.1301 178.317 75.8661 176.223 77.1061C174.129 78.3461 171.649 78.9661 168.783 78.9661C165.89 78.9661 163.396 78.3461 161.302 77.1061C159.235 75.8661 157.637 74.1301 156.507 71.8981C155.377 69.6385 154.812 66.9932 154.812 63.9621ZM160.392 63.9621C160.392 67.2412 161.095 69.8039 162.5 71.6501C163.906 73.4963 166 74.4194 168.783 74.4194C171.483 74.4194 173.564 73.4963 175.024 71.6501C176.485 69.8039 177.215 67.2412 177.215 63.9621C177.215 60.6554 176.485 58.0928 175.024 56.2741C173.591 54.4554 171.511 53.5461 168.783 53.5461C166 53.5461 163.906 54.4554 162.5 56.2741C161.095 58.0928 160.392 60.6554 160.392 63.9621ZM188.297 78.5527V49.4128H193.546V61.8128H198.506L197.431 62.5154L206.029 49.4128H211.898L202.309 63.5074L200.283 62.0194C202.157 62.295 203.714 62.9425 204.954 63.9621C206.222 64.9541 207.324 66.3594 208.261 68.1781L213.427 78.5527H207.682L203.673 70.1621C202.984 68.7016 202.157 67.6683 201.193 67.0621C200.256 66.4559 199.057 66.1528 197.597 66.1528H193.546V78.5527L188.297 78.5527Z" fill="#FCF6EB"/>
</svg>
