<svg width="640" height="290" viewBox="0 0 640 290" fill="none" xmlns="http://www.w3.org/2000/svg">
<g clip-path="url(#clip0_478_517)">
<rect width="640" height="290" fill="#AA9951"/>
<path d="M478.447 295.424C478.497 305.919 475.256 316.188 469.198 324.808C465.543 332.31 462.357 341.334 453.356 343.527C442.69 348.714 427.56 341.885 428.965 359.457C429.412 366.028 435.536 370.564 435.398 377.366C437.079 385.502 435.062 400.274 426.474 404C416.266 407.313 405.848 411.53 394.868 411.728C390.794 411.976 387.724 410.67 383.948 410.284C375.647 410.273 364.072 408.526 361.889 398.968C358.598 389.063 364.832 384.46 367.936 376.434C368.41 372.609 367.037 368.596 368.647 365.008C371.155 360.223 372.924 351.625 366.095 349.756C360.511 348.284 354.74 350.991 349.068 350.23C337.575 349.034 323.42 344.696 332.752 362.434C342.575 376.043 325.983 386.648 314.992 391.786C304.933 396.746 293.655 398.356 282.636 400.197C264.855 402.628 239.852 407.5 228.436 389.867C226.143 385.171 228.199 379.323 231.6 375.674C236.401 371.286 243.804 371.512 249.57 369.181C259.028 368.034 271.353 352.391 263.543 344.354C255.864 339.454 247.751 334.884 239.527 330.921C230.079 327.118 219.997 323.855 224.842 311.568C226.898 305.522 228.745 299.354 228.646 293.097C228.723 288.737 227.323 284.311 227.913 279.962C228.695 276.098 232.014 270.415 226.38 269.092C219.986 268.833 213.256 274.053 206.713 271.275C202.386 269.842 202.315 263.487 197.916 262.302C197.806 262.29 197.717 262.302 197.657 262.329C197.172 262.539 197.784 263.288 197.26 263.536C196.036 263.95 194.62 264.297 194.019 265.631C191.864 278.518 196.224 291.444 199.051 303.829C201.659 316.419 202.215 328.992 204.36 341.466C205.567 348.345 208.212 354.8 208.262 361.844C208.725 370.481 210.792 378.871 211.564 387.47C212.01 390.97 213.184 395.545 208.224 396.129C195.921 397.535 201.692 379.042 199.013 371.501C195.546 350.054 193.391 328.457 188.143 307.258C184.929 297.959 184.814 265.085 178.497 261.635C165.797 258.945 160.351 251.652 158.306 239.151C154.47 231.401 155.512 221.727 160.748 214.925C165.533 205.406 173.536 210.753 171.43 203.383C164.276 181.82 169.165 157.186 158.979 136.522C153.693 128.821 158.494 113.426 169.209 119.01C174.831 123.298 172.048 131.5 174.616 137.293C180.476 152.363 175.217 169.495 180.614 184.565C182.521 188.589 182.394 199.271 185.833 200.814C188.65 201.476 193.997 200.103 197.062 202.507C201.934 205.351 204.354 211.144 208.268 214.881C208.604 215.03 209.039 214.732 209.304 214.435C210.528 212.875 211.459 211.017 213.118 209.76C223.674 204.513 226.204 200.241 230.889 189.923C234.891 183.942 234.643 176.76 234.103 169.897C233.976 166.717 234.417 163.117 232.521 160.361C230.603 157.594 226.998 157.06 223.734 155.836C219.237 153.967 215.246 152.595 211.035 149.48C201.289 141.256 214.463 131.462 222.748 129.466C228.806 127.498 233.689 123.32 238.975 120.029C244.146 117.422 247.265 113.376 251.576 109.512C253.108 107.445 256.19 103.455 256.377 101.024C254.646 98.2954 248.947 103.278 247.442 105.097C245.97 106.718 243.065 108.338 241.798 108.311C241.224 107.975 240.949 107.528 240.166 107.479C233.998 106.134 236.638 103.543 238.336 99.5136C238.308 95.6882 237.537 94.5417 242.035 94.3543C250.297 92.8109 249.801 100.897 258.35 96.6087C261.867 95.0488 264.943 87.4476 261.018 85.2649C258.4 84.5152 255.049 85.0279 252.618 83.4073C249.018 80.2544 254.784 74.2573 251.934 70.6193C251.57 70.0736 252.27 69.9964 252.585 69.809C252.811 69.3846 251.863 69.0373 251.262 68.6349C248.158 67.279 246.417 64.5119 247.447 60.907C248.368 56.2824 253.329 53.8295 257.893 54.254C259.436 54.254 262.892 55.8249 262.269 53.135C259.116 47.1269 262.28 27.8842 268.785 42.2322C270.141 46.3442 272.825 43.4173 276.176 42.2322C278.309 41.5211 280.735 41.1353 282.085 39.1564C289.686 21.2863 299.046 3.01378 312.969 -10.794C318.978 -22.1102 321.419 -32.2304 332.322 -40.73C339.289 -48.1327 348.599 -53.9038 356.923 -59.934C362.617 -63.9964 367.318 -69.255 373.04 -73.2677C379.732 -78.4546 388.082 -78.2506 396.097 -79.2649C405.269 -82.1918 410.913 -75.9135 415.042 -68.6486C417.958 -64.239 421.833 -60.612 423.431 -55.4252C427.709 -44.0813 426.149 -23.7308 442.36 -22.5843C443.534 -22.4079 444.327 -22.2094 444.504 -21.8732C445.028 -21.4598 442.646 -20.0763 441.627 -19.7896C436.704 -18.0974 430.101 -16.6092 425.388 -19.6133C422.158 -22.3417 422.197 -27.4294 419.341 -30.5051C417.274 -33.0241 413.884 -34.3084 410.952 -36.0999C408.51 -37.544 405.941 -39.4898 403.015 -39.5173C395.375 -38.6299 398.666 -29.2208 396.372 -24.1276C391.687 -14.6304 388.97 -11.7034 393.969 -1.3187C396.51 6.23283 396.538 14.06 398.792 21.5123C399.74 25.1613 402.292 23.6565 404.514 21.0272C406.261 19.2468 409.26 14.545 405.583 14.0379C404.387 14.1757 403.252 14.4734 402.094 13.9993C399.911 12.7757 401.995 10.4 403.417 8.63058C405.523 6.18874 407.579 3.86816 409.375 7.27461C412.727 12.908 414.799 6.72892 418.288 6.52497C426.711 6.96043 423.547 19.9358 416.817 20.5697C414.838 20.7957 413.151 19.324 411.294 19.0594C404.365 19.335 401.471 30.6127 411.668 25.9881C417.004 22.4989 424.341 21.0879 424.12 29.9402C423.172 37.1831 418.448 34.5869 413.465 34.6145C409.364 33.1317 400.44 30.5631 401.014 38.043C401.515 41.4715 404.056 44.2496 405.423 47.3749C407.182 50.8751 407.893 54.9761 409.75 58.3164C411.272 60.0251 415.009 70.8177 416.828 64.9474C419.633 57.2195 430.525 51.6743 438.623 53.6091C442.172 55.5548 438.176 58.9172 437.465 62.3347C436.23 72.1572 426.92 75.7565 418.972 78.7496C415.395 81.9411 420.554 85.557 423.971 84.8956C429.081 84.4105 431.887 78.0055 437.454 77.9559C443.164 77.4212 440.921 82.3545 442.415 85.535C443.749 87.3319 447.85 89.4595 445.783 92.3038C443.027 95.4071 437.68 97.7111 433.783 95.5945C429.324 93.1416 426.49 83.0435 420.311 86.9846C418.751 88.6272 420.488 96.9174 423.315 96.978C424.313 96.8402 425.173 95.8591 426.132 95.5559C429.732 95.2307 433.562 101.939 435.53 104.943C437.674 108.845 432.162 108.757 429.186 108.62C421.684 107.66 429.213 117.169 430.558 120.063C432.791 124.301 436.539 127.256 438.909 130.932C439.284 132.729 440.59 134.708 442.034 136.169C447.844 142.337 456.145 144.222 461.861 150.462C466.795 154.97 467.147 164.247 462.06 168.657C454.696 175.398 447.028 170.537 451.84 180.398C454.062 186.764 461.013 189.757 463.554 195.903C474.545 219.17 481.065 244.382 484.466 269.809L484.494 269.996C486.826 282.906 479.643 284.951 478.464 295.468L478.447 295.424Z" fill="#602930"/>
</g>
<defs>
<clipPath id="clip0_478_517">
<rect width="640" height="290" fill="white"/>
</clipPath>
</defs>
</svg>
