<svg width="640" height="290" viewBox="0 0 640 290" fill="none" xmlns="http://www.w3.org/2000/svg">
<g clip-path="url(#clip0_478_516)">
<rect width="640" height="290" fill="#AA9951"/>
<path d="M164.755 324.808C158.697 316.188 155.456 305.919 155.506 295.424L155.489 295.468C154.31 284.951 147.128 282.906 149.459 269.996L149.487 269.809C152.888 244.382 159.408 219.17 170.4 195.903C172.941 189.757 179.891 186.764 182.113 180.398C186.925 170.537 179.257 175.398 171.893 168.657C166.806 164.247 167.158 154.97 172.092 150.462C177.808 144.222 186.109 142.337 191.919 136.169C193.363 134.708 194.669 132.729 195.044 130.932C197.414 127.256 201.162 124.301 203.395 120.063C204.74 117.169 212.269 107.66 204.767 108.62C201.791 108.757 196.279 108.845 198.423 104.943C200.391 101.939 204.222 95.2307 207.821 95.5559C208.78 95.8591 209.64 96.8402 210.638 96.978C213.465 96.9174 215.202 88.6272 213.642 86.9846C207.463 83.0435 204.629 93.1416 200.17 95.5945C196.273 97.7111 190.926 95.4071 188.17 92.3038C186.103 89.4595 190.204 87.3319 191.538 85.535C193.032 82.3545 190.789 77.4212 196.499 77.9559C202.066 78.0055 204.872 84.4105 209.982 84.8956C213.399 85.557 218.558 81.9411 214.981 78.7496C207.033 75.7565 197.723 72.1572 196.488 62.3347C195.777 58.9172 191.781 55.5548 195.331 53.6091C203.428 51.6743 214.32 57.2195 217.125 64.9474C218.944 70.8177 222.682 60.0251 224.203 58.3164C226.06 54.9761 226.771 50.8751 228.53 47.3749C229.897 44.2496 232.438 41.4715 232.939 38.043C233.513 30.5631 224.589 33.1317 220.488 34.6145C215.505 34.5869 210.781 37.1831 209.833 29.9402C209.612 21.0879 216.949 22.4989 222.285 25.9881C232.482 30.6127 229.588 19.335 222.659 19.0594C220.802 19.324 219.115 20.7957 217.136 20.5697C210.406 19.9358 207.242 6.96043 215.665 6.52497C219.154 6.72892 221.226 12.908 224.578 7.27461C226.375 3.86816 228.431 6.18874 230.536 8.63058C231.958 10.4 234.042 12.7757 231.859 13.9993C230.702 14.4734 229.566 14.1757 228.37 14.0379C224.693 14.545 227.692 19.2468 229.439 21.0272C231.661 23.6565 234.213 25.1613 235.161 21.5123C237.415 14.06 237.443 6.23283 239.984 -1.3187C244.983 -11.7034 242.266 -14.6304 237.581 -24.1276C235.288 -29.2208 238.578 -38.6299 230.939 -39.5173C228.012 -39.4898 225.443 -37.544 223.001 -36.0999C220.069 -34.3084 216.679 -33.0241 214.612 -30.5051C211.757 -27.4294 211.795 -22.3417 208.565 -19.6133C203.852 -16.6092 197.249 -18.0974 192.327 -19.7896C191.307 -20.0763 188.926 -21.4598 189.449 -21.8732C189.626 -22.2094 190.419 -22.4079 191.593 -22.5843C207.804 -23.7308 206.245 -44.0813 210.522 -55.4252C212.12 -60.612 215.995 -64.239 218.911 -68.6486C223.04 -75.9135 228.684 -82.1918 237.856 -79.2649C245.871 -78.2506 254.222 -78.4546 260.913 -73.2677C266.635 -69.255 271.337 -63.9964 277.031 -59.934C285.354 -53.9038 294.664 -48.1327 301.631 -40.73C312.534 -32.2304 314.976 -22.1102 320.984 -10.794C334.907 3.01378 344.267 21.2863 351.868 39.1564C353.218 41.1353 355.644 41.5211 357.777 42.2322C361.128 43.4173 363.813 46.3442 365.169 42.2322C371.673 27.8842 374.837 47.1269 371.684 53.135C371.061 55.8249 374.517 54.254 376.06 54.254C380.624 53.8295 385.585 56.2824 386.506 60.907C387.536 64.5119 385.795 67.279 382.691 68.6349C382.091 69.0373 381.142 69.3846 381.368 69.809C381.683 69.9964 382.383 70.0736 382.019 70.6193C379.169 74.2573 384.935 80.2544 381.335 83.4073C378.905 85.0279 375.553 84.5152 372.935 85.2649C369.01 87.4476 372.086 95.0488 375.603 96.6087C384.152 100.897 383.656 92.8109 391.919 94.3543C396.416 94.5417 395.645 95.6882 395.617 99.5136C397.315 103.543 399.955 106.134 393.787 107.479C393.004 107.528 392.729 107.975 392.156 108.311C390.888 108.338 387.983 106.718 386.511 105.097C385.006 103.278 379.307 98.2954 377.576 101.024C377.764 103.455 380.845 107.445 382.377 109.512C386.688 113.376 389.807 117.422 394.978 120.029C400.264 123.32 405.148 127.498 411.205 129.466C419.49 131.462 432.664 141.256 422.918 149.48C418.707 152.595 414.717 153.967 410.219 155.836C406.956 157.06 403.351 157.594 401.432 160.361C399.536 163.117 399.977 166.717 399.85 169.897C399.31 176.76 399.062 183.942 403.064 189.923C407.749 200.241 410.279 204.513 420.835 209.76C422.494 211.017 423.426 212.875 424.649 214.435C424.914 214.732 425.349 215.03 425.686 214.881C429.599 211.144 432.019 205.351 436.892 202.507C439.956 200.103 445.303 201.476 448.12 200.814C460.763 200.814 470.112 210.222 473.205 214.925C478.442 221.727 479.483 231.401 475.647 239.151C473.602 251.652 468.156 258.945 455.456 261.635C449.743 263.297 440.505 264.146 436.296 262.329C436.236 262.302 436.147 262.29 436.037 262.302C431.639 263.487 431.567 269.842 427.24 271.275C420.697 274.053 413.967 268.833 407.573 269.092C401.94 270.415 405.258 276.098 406.041 279.962C406.63 284.311 405.23 288.737 405.307 293.097C405.208 299.354 407.055 305.522 409.111 311.568C413.956 323.855 403.874 327.118 394.427 330.921C386.203 334.884 378.089 339.454 370.41 344.354C362.6 352.391 374.925 368.034 384.384 369.181C390.149 371.512 397.552 371.286 402.353 375.674C405.754 379.323 407.81 385.171 405.517 389.867C394.101 407.5 369.099 402.628 351.317 400.197C340.298 398.356 329.02 396.746 318.961 391.786C307.97 386.648 291.378 376.043 301.201 362.434C310.533 344.696 296.378 349.034 284.885 350.23C279.213 350.991 273.442 348.284 267.858 349.756C261.029 351.625 262.798 360.223 265.306 365.008C266.916 368.596 265.543 372.609 266.017 376.434C269.121 384.46 275.355 389.063 272.064 398.968C269.881 408.526 258.306 410.273 250.005 410.284C246.229 410.67 243.159 411.976 239.085 411.728C228.105 411.53 217.688 407.313 207.479 404C198.891 400.274 196.874 385.502 198.555 377.366C198.417 370.564 204.541 366.028 204.988 359.457C206.393 341.885 191.263 348.714 180.597 343.527C171.596 341.334 168.41 332.31 164.755 324.808Z" fill="#602930"/>
<path d="M440.771 107.597C455.502 102.594 498.441 106.555 500.178 107.597C501.915 108.639 501.153 114.336 500.873 114.892C500.524 115.587 498.441 114.892 497.746 115.587C497.052 116.282 497.746 116.977 498.094 118.019C498.372 118.853 497.978 123.925 497.746 126.357C501.082 128.025 503.305 135.622 504 139.212C503.768 165.847 503.305 219.327 503.305 220.161C503.305 221.203 502.263 227.457 501.221 229.194C500.178 230.931 480.375 233.363 469.953 233.363C459.53 233.363 441.813 231.626 439.381 229.194C437.436 227.248 437.181 219.813 437.297 216.339C437.529 195.378 437.992 153.109 437.992 151.719C437.992 149.982 437.297 138.864 438.687 133.653C440.076 128.442 443.898 125.662 443.551 125.662C443.203 125.662 443.551 118.366 443.898 118.019C444.176 117.741 444.245 116.282 444.245 115.587C444.014 115.24 443.342 114.614 442.508 114.892C441.674 115.17 441.003 114.545 440.771 114.197C440.655 113.155 440.424 110.793 440.424 109.681C440.424 108.569 440.655 107.828 440.771 107.597Z" fill="#FCF6EB"/>
<path d="M453.953 62.7578C455.343 71.7908 459.512 80.8237 464.723 88.1196C468.43 93.3094 470.977 96.1102 470.629 105.838" stroke="#FCF6EB" stroke-width="5.55874"/>
</g>
<defs>
<clipPath id="clip0_478_516">
<rect width="640" height="290" fill="white"/>
</clipPath>
</defs>
</svg>
