<svg width="90" height="112" viewBox="0 0 90 112" fill="none" xmlns="http://www.w3.org/2000/svg">
<path d="M56.9283 0.412107C60.422 0.93255 65.1068 2.22563 68.3366 4.23892C71.2299 6.04245 76.8203 10.6317 77.8547 11.8872C78.474 12.5792 80.0624 14.5909 81.3846 16.3574C84.1529 20.0559 85.6729 21.6974 88.2839 23.8085C89.7818 25.0196 90.1069 25.3626 89.9456 25.562C89.6441 25.935 87.3151 25.2857 85.3752 24.288L83.6552 23.4031L84.3814 25.4562C86.5617 31.6194 87.0617 40.1953 85.633 46.9211C85.2726 48.6176 84.3589 51.8319 83.6025 54.0642C82.0479 58.6522 80.6046 64.7255 79.8517 69.847C79.5716 71.7532 79.2949 73.3717 79.2369 73.4434C79.1789 73.5152 79.0517 73.5095 78.9543 73.4307C78.5691 73.1192 77.3737 70.11 76.7947 67.994C76.4583 66.7649 76.1295 65.7648 76.0639 65.7721C75.9984 65.7792 75.46 66.5981 74.8677 67.5922C73.2142 70.3663 66.6424 78.3726 64.6173 80.0798C62.0364 82.2554 59.5796 84.0459 55.7414 86.5482C50.3099 90.0891 48.6049 92.0054 45.4843 98.0761C44.8246 99.3596 44.2376 100.469 44.1803 100.541C43.8604 100.942 43.594 100.03 43.4112 97.908C43.147 94.8398 43.2837 93.338 44.0218 91.2005C44.6757 89.307 45.1609 88.4066 46.2917 86.9878C47.2246 85.8174 47.065 85.8021 43.9492 86.7627C38.9997 88.2887 36.6171 90.3095 32.5255 96.4514C31.1357 98.5378 29.8621 100.287 29.6951 100.339C29.3811 100.436 29.3463 100.13 29.2818 96.6895C29.2277 93.8056 29.9599 88.7954 30.5409 88.0762C30.9709 87.5437 30.3019 87.7338 28.4297 88.6762C25.4199 90.1911 23.6096 91.6281 21.578 94.1152C19.7985 96.2939 19.3991 96.9172 18.3649 99.1297C17.5246 100.927 16.9471 102.693 16.2064 105.728C15.4429 108.857 14.7795 110.57 14.145 111.048C13.4508 111.572 11.8006 111.339 9.94231 110.455C8.10122 109.58 7.18547 108.893 7.03882 108.276C6.98223 108.038 6.9798 107.62 7.03372 107.347C7.19502 106.532 9.14904 102.637 10.6735 100.092C11.7071 98.3675 11.8947 98.04 12.4737 96.9517C15.2293 91.7707 16.5902 86.7894 16.5118 82.17C16.4869 80.698 15.6606 76.1282 15.4241 76.1539C15.3628 76.1604 14.437 77.581 13.3666 79.3106C10.0952 84.5975 6.05512 89.303 4.77063 89.3227C4.18127 89.3317 4.2099 89.0658 5.0725 86.5149C7.34975 79.7816 8.20253 74.9508 8.11429 69.2875C8.07678 66.8744 7.35027 60.2323 7.1266 60.2565C7.07005 60.2625 6.76491 61.2128 6.44846 62.368C6.13183 63.523 5.51055 65.3386 5.06779 66.4026C3.75693 69.5514 1.56621 72.3329 0.851842 71.7553C0.773906 71.6923 0.912925 70.4799 1.16114 69.061C1.40921 67.6422 1.76101 64.9193 1.94263 63.0102C2.38454 58.3708 2.90271 55.0456 3.65515 52.0244C4.30549 49.4133 6.50072 42.8889 7.79053 39.734C8.63699 37.6635 11.1084 32.5856 11.5135 32.0846C11.9147 31.5884 11.5401 31.4544 10.9671 31.8891C10.69 32.0993 9.40066 32.7672 8.10191 33.3729C4.69194 34.9635 0.266625 36.002 0.0124176 35.2717C-0.0915543 34.9733 0.383719 34.5573 3.14361 32.5301C6.21103 30.277 10.2777 26.4424 13.9743 22.3177C20.2129 15.3561 24.1878 11.6251 28.1129 9.04652C29.0802 8.41102 29.8195 7.84877 29.7557 7.79721C29.6918 7.74551 29.3983 7.68719 29.1032 7.66754C28.8082 7.64788 27.696 7.32483 26.6314 6.94955C23.4822 5.839 20.0464 3.50592 20.583 2.8422C20.6867 2.714 21.5497 2.72005 22.5013 2.85546C26.5613 3.43363 30.754 3.10414 38.0192 1.63566C46.3569 -0.0494807 51.5677 -0.386585 56.9283 0.412107Z" fill="#FCF6EB"/>
</svg>
