<svg width="212" height="205" viewBox="0 0 212 205" fill="none" xmlns="http://www.w3.org/2000/svg">
<path d="M95.4446 12.8144C92.3002 17.3614 91.4313 22.7896 92.0504 28.7607C93.7144 45.9244 105.92 46.412 101.621 54.2922C88.6754 76.8528 79.7866 102.742 83.987 128.945C85.7361 139.342 89.0293 149.294 96.9061 156.898C98.5214 158.575 100.204 160.304 101.734 162.039C103.439 164.345 106.453 165.078 105.228 167.505C100.728 172.56 92.0324 171.14 85.9753 168.823C76.2226 165.492 67.5066 159.716 57.3146 157.865C40.8855 154.616 23.367 158.21 9.29326 167.474C3.65075 170.955 -2.79505 177.18 1.29098 184.151C7.43569 194.438 22.8806 202.287 34.4129 204.201C45.6289 205.61 57.2212 204.644 68.2285 202.761C76.1072 200.97 83.6104 194.837 89.8657 190.466C95.4486 186.506 97.909 179.555 104.422 176.373C111.658 171.393 124.509 175.33 121.23 168.656C115.748 157.877 104.198 162.816 95.5776 147.843C93.2682 143.28 89.391 136.163 90.2766 131.325C91.5515 128.37 95.5192 129.363 98.1584 128.902C114.125 125.778 132.803 119.494 147.475 111.074C150.232 109.725 152.893 106.903 156.048 106.991C160.76 107.587 163.608 119.435 170.23 122.71C177.212 126.824 190.2 123.805 196.601 119.688C230.316 98.8658 199.222 46.6012 165.079 51.7517C153.437 54.3056 142.765 64.0512 140.436 75.9816C138.412 88.9158 152.747 96.0135 151.202 99.4599C137.724 112.142 114.819 116.576 97.2974 120.478C89.1258 121.694 89.0496 117.188 89.507 110.262C89.0272 97.683 99.7534 63.4309 111.503 58.8602C115.467 58.9999 117.019 68.8776 126.877 72.3883C138.493 76.9315 137.866 69.0862 142.84 61.8147C145.981 58.2235 150.046 55.6689 154.069 52.4032C161.478 45.8364 168.793 47.2411 166.046 35.6114C163.76 20.3858 156.194 20.4455 147.27 10.4409C139.649 2.70677 127.928 -0.0744722 117.463 0.00238836C108.71 0.193974 100.507 5.83326 95.5317 12.7026L95.4596 12.8113L95.4446 12.8144ZM95.4534 178.097C95.393 178.556 93.347 179.218 92.4325 179.443C89.8828 180.097 86.9516 180.743 84.6898 181.285C81.3242 182.078 78.4996 182.492 75.1567 182.733C61.41 183.599 47.3953 183.239 33.4332 182.445C27.7334 182.315 22.3108 180.91 16.6542 179.373C14.0632 178.668 14.9745 178.551 17.4017 178.544C21.1798 178.514 25.3487 178.939 29.136 179.601C46.6127 182.416 64.0138 179.386 81.1607 178.13C83.8082 178.126 94.2549 176.217 95.4666 178.07L95.4577 178.103L95.4534 178.097Z" fill="#FCF6EB"/>
</svg>
