<svg width="81" height="80" viewBox="0 0 81 80" fill="none" xmlns="http://www.w3.org/2000/svg">
<path d="M22.6884 78.245C23.9131 78.6385 39.1723 82.3143 53.0629 74.4309C59.5021 70.7764 63.3401 68.0575 67.5823 63.8233C82.5713 48.8624 84.9457 29.0439 70.0045 13.1037C64.334 7.03726 55.524 1.34322 47.0403 2.47793C41.7978 3.1746 37.2816 5.44353 33.3772 9.07852C31.4672 10.8517 30.5337 13.2102 29.125 15.3076C28.4945 13.6893 27.4549 11.9926 27.08 10.3061C26.8663 9.34304 25.2602 -2.33777 18.9548 0.420423C11.8903 3.51838 20.1959 8.97267 21.2437 15.0694C21.445 16.2095 22.4271 20.4149 22.0437 21.0997C20.7716 20.463 17.5967 21.3128 16.2946 22.0311C-1.2139 31.6687 -4.07118 51.757 5.13797 65.5355C10.9594 74.247 19.4706 77.2025 22.6884 78.245Z" fill="#FCF6EB"/>
</svg>
