<svg width="162" height="227" viewBox="0 0 162 227" fill="none" xmlns="http://www.w3.org/2000/svg">
<path d="M141.482 201.252C142.505 195.819 141.091 190.507 138.097 185.304C129.596 170.301 118.247 174.82 118.969 165.873C121.619 139.997 119.21 112.731 104.715 90.5017C98.888 81.7146 91.8317 73.9626 81.543 70.2197C79.3853 69.3448 77.145 68.4493 75.0418 67.4867C72.5457 66.0739 69.4943 66.6305 69.6268 63.9149C71.6817 57.4664 80.2025 55.2264 86.6785 54.8797C96.9428 53.9559 107.255 55.6877 117.318 53.233C133.648 49.5186 148.191 39.1103 157.28 24.9231C161.019 19.4478 164.375 11.1387 157.807 6.43233C148.009 -0.465855 130.707 -1.35398 119.393 1.58779C108.574 4.86244 98.3769 10.4604 89.087 16.6573C82.6179 21.498 78.258 30.1529 74.3214 36.6904C70.8317 42.5783 71.4114 49.9295 66.7556 55.4853C62.1708 62.9778 48.8299 64.6082 54.54 69.3721C63.9322 76.9886 72.4743 67.7792 86.4398 77.9519C90.4055 81.1812 96.8421 86.1056 98.0008 90.8852C98.0381 94.1036 94.0094 94.8098 91.786 96.3047C78.4707 105.653 63.9633 118.991 53.984 132.65C52.0144 135.004 50.7316 138.664 47.8127 139.867C43.2658 141.24 35.8453 131.574 28.4634 131.276C20.4123 130.357 9.77494 138.398 5.60211 144.763C-16.7288 177.497 32.9344 212.597 62.0307 194.004C71.628 186.936 77.413 173.692 74.6879 161.846C71.2762 149.207 55.2936 148.553 55.3035 144.776C62.4583 127.708 81.5791 114.341 95.9988 103.65C102.97 99.216 104.872 103.302 107.271 109.815C112.826 121.111 116.958 156.764 108.083 165.719C104.406 167.203 98.9702 158.811 88.5362 159.614C76.0771 160.188 79.841 167.1 78.2541 175.766C76.8451 180.324 74.171 184.311 71.8239 188.931C67.7266 197.943 60.4729 199.635 67.7124 209.142C75.9937 222.122 82.8812 218.99 95.1029 224.5C105.211 228.466 117.05 226.239 126.579 221.912C134.497 218.177 139.697 209.689 141.448 201.39L141.47 201.261L141.482 201.252ZM74.2475 50.2624C74.1164 49.8191 75.7159 48.3816 76.46 47.8044C78.5234 46.1699 80.9384 44.3878 82.784 42.9722C85.5362 40.879 87.9483 39.3521 90.904 37.7718C103.11 31.39 116.06 26.0182 129.138 21.065C134.398 18.8655 139.923 17.9432 145.715 17.0465C148.369 16.6363 147.584 17.114 145.37 18.1078C141.931 19.6723 137.949 20.9796 134.22 21.9152C117.109 26.4518 102.445 36.2971 87.2914 44.4193C84.8745 45.5001 76.1071 51.4923 74.2468 50.2931L74.2415 50.2591L74.2475 50.2624Z" fill="#FCF6EB"/>
</svg>
