<svg width="640" height="290" viewBox="0 0 640 290" fill="none" xmlns="http://www.w3.org/2000/svg">
<g clip-path="url(#clip0_503_404)">
<rect x="0.046875" width="640" height="290" fill="#FCF6EB"/>
<rect x="0.046875" width="640" height="290" fill="#FCF6EB"/>
<line y1="-2" x2="299.42" y2="-2" transform="matrix(-0.221248 0.975218 -0.972945 -0.231039 63.2969 -2)" stroke="#602930" stroke-width="4"/>
<line y1="-2" x2="299.42" y2="-2" transform="matrix(-0.221248 0.975218 -0.972945 -0.231039 131.422 -2)" stroke="#602930" stroke-width="4"/>
<line y1="-2" x2="299.42" y2="-2" transform="matrix(-0.221248 0.975218 -0.972945 -0.231039 199.547 -2)" stroke="#602930" stroke-width="4"/>
<line y1="-2" x2="299.42" y2="-2" transform="matrix(-0.221248 0.975218 -0.972945 -0.231039 267.672 -2)" stroke="#602930" stroke-width="4"/>
<line y1="-2" x2="299.42" y2="-2" transform="matrix(-0.221248 0.975218 -0.972945 -0.231039 335.797 -2)" stroke="#602930" stroke-width="4"/>
<line y1="-2" x2="299.42" y2="-2" transform="matrix(-0.221248 0.975218 -0.972945 -0.231039 403.922 -2)" stroke="#602930" stroke-width="4"/>
<line y1="-2" x2="299.42" y2="-2" transform="matrix(-0.221248 0.975218 -0.972945 -0.231039 472.047 -2)" stroke="#602930" stroke-width="4"/>
<line y1="-2" x2="299.42" y2="-2" transform="matrix(-0.221248 0.975218 -0.972945 -0.231039 540.172 -2)" stroke="#602930" stroke-width="4"/>
<line y1="-2" x2="299.42" y2="-2" transform="matrix(-0.221248 0.975218 -0.972945 -0.231039 608.297 -2)" stroke="#602930" stroke-width="4"/>
<line y1="-2" x2="299.42" y2="-2" transform="matrix(-0.221248 0.975218 -0.972945 -0.231039 676.422 -2)" stroke="#602930" stroke-width="4"/>
<path d="M215.832 20.4512C219.613 20.5469 222.023 21.8063 224.029 22.9004L224.232 23.0186C224.755 23.3364 225.604 23.9457 226.657 24.7334C227.888 25.6541 229.463 26.8702 231.262 28.2803C234.859 31.1011 239.366 34.7119 243.828 38.3271C248.291 41.9426 252.713 45.5646 256.145 48.4072C259.536 51.217 262.022 53.3163 262.568 53.8623C262.568 53.8623 262.572 53.8655 262.579 53.8721C262.586 53.8785 262.595 53.8876 262.607 53.8984C262.632 53.9205 262.665 53.9488 262.706 53.9834C262.788 54.0527 262.894 54.1414 263.024 54.248C263.286 54.4616 263.631 54.7374 264.04 55.0654L264.046 55.0703L265.28 56.0605C266.63 57.1492 268.276 58.4997 269.755 59.8223C270.74 60.703 271.667 61.5874 272.392 62.3838C272.754 62.7818 273.077 63.1711 273.334 63.5381C273.582 63.8924 273.81 64.2825 273.925 64.6768C274.885 67.961 276.369 72.9103 278.19 78.9707L278.274 79.2275L278.28 79.2461L278.426 79.7227L278.427 79.7275L278.452 79.8115C283.536 96.763 291.076 121.907 296.994 143.619C299.953 154.473 302.511 164.485 304.154 172.193C304.975 176.045 305.572 179.342 305.875 181.891C306.026 183.164 306.107 184.271 306.102 185.179C306.096 186.046 306.012 186.85 305.756 187.447C305.755 187.45 305.754 187.453 305.753 187.455C305.752 187.457 305.752 187.46 305.751 187.462L305.75 187.461C305.543 187.947 305.161 188.41 304.733 188.835L304.732 188.834C304.361 189.208 303.9 189.599 303.382 190.001C299.504 193.007 290.976 197.561 280.406 202.673C269.799 207.804 257.033 213.544 244.601 218.926C232.167 224.308 220.059 229.335 210.765 233.038C206.118 234.889 202.17 236.412 199.232 237.483C197.765 238.019 196.542 238.444 195.607 238.742C194.723 239.024 193.978 239.234 193.543 239.265C192.805 239.317 191.753 239.073 190.588 238.709C189.373 238.329 187.877 237.766 186.177 237.062C182.773 235.654 178.486 233.658 173.87 231.375C164.636 226.808 154.026 221.062 146.407 216.491V216.492C143.489 214.743 140.997 213.157 139.182 211.869C138.341 211.273 137.528 210.314 136.736 209.127C135.936 207.926 135.115 206.424 134.28 204.677C132.611 201.181 130.85 196.627 129.051 191.357C125.452 180.813 121.672 167.311 118.156 153.47C111.125 125.794 105.119 96.6629 103.68 86.9463C102.576 79.4926 105.799 74.2374 109.947 70.6172C114.056 67.032 119.126 64.9964 121.891 63.8828L121.98 63.8457L122.001 63.8369L122.119 63.791C122.576 63.6064 122.95 63.4538 123.239 63.3252L123.24 63.3242C132.878 59.0396 152.008 49.3866 168.756 40.79C177.124 36.4948 184.888 32.4677 190.56 29.5146C193.396 28.0382 195.709 26.83 197.312 25.9912C198.114 25.5719 198.739 25.2447 199.163 25.0225C199.375 24.9115 199.537 24.8266 199.646 24.7695C199.7 24.741 199.742 24.7195 199.77 24.7051C199.783 24.698 199.793 24.6921 199.8 24.6885L199.81 24.6836C199.81 24.6834 199.811 24.6832 200.181 25.3877L199.811 24.6836C199.828 24.6742 199.847 24.6655 199.865 24.6572C207.099 21.402 212.089 20.3565 215.832 20.4512ZM257.396 161.55C257.213 161.518 256.748 161.542 255.898 161.743C255.092 161.934 254.057 162.255 252.809 162.699C250.313 163.587 247.037 164.943 243.154 166.674C235.393 170.133 225.271 175.055 214.247 180.618C192.766 191.458 167.901 204.712 150.494 214.267C151.789 215.147 153.764 216.3 156.253 217.638C159.649 219.464 163.895 221.587 168.407 223.768C177.334 228.082 187.272 232.606 193.675 235.472C194.787 235.42 196.7 234.967 199.361 234.101C202.149 233.193 205.638 231.873 209.663 230.23C217.71 226.946 227.843 222.395 238.661 217.331C259.643 207.509 283.167 195.777 298.986 187.687C292.625 183.074 284.041 177.035 276.187 171.909C271.98 169.164 267.994 166.687 264.677 164.832C263.018 163.904 261.538 163.138 260.288 162.573C259.18 162.073 258.299 161.751 257.657 161.603L257.396 161.55ZM212.71 24.6982C211.32 24.1282 209.617 24.0005 207.549 24.918C192.994 31.3729 172.31 41.9158 154.716 51.0996C137.167 60.2595 122.631 68.1008 120.483 69.0889C116.786 70.7897 114.549 72.5476 112.976 74.8896L137.885 90.877L211.47 63.999L211.564 63.9697C212.042 63.8469 212.546 64.0925 212.737 64.5576L213.195 65.6709C213.298 65.9214 213.296 66.2029 213.188 66.4512C213.079 66.6995 212.874 66.8936 212.62 66.9883C212.456 67.0495 212.138 67.1809 211.79 67.3252C211.461 67.4614 211.1 67.6108 210.894 67.6875C195.985 73.2327 181.7 78.5216 166.802 84.1465C164.896 84.8662 163.039 85.5687 161.244 86.249L161.195 86.2656L161.196 86.2666L160.199 86.6436L160.2 86.6445C151.56 89.9209 144.437 92.6548 140.207 94.335L158.709 167.064C158.836 167.564 158.563 168.078 158.078 168.252L157.437 168.482C157.176 168.576 156.888 168.557 156.642 168.431C156.395 168.304 156.212 168.081 156.137 167.814L135.48 95.1631C132.761 93.6125 117.762 84.7353 109.564 79.1045C109.482 79.2219 109.408 79.3357 109.344 79.4551C109.172 79.7767 109.032 80.1761 108.925 80.792C108.702 82.0749 108.648 84.1117 108.648 87.9648C108.648 89.1523 108.961 91.7015 109.564 95.3643C110.163 98.9971 111.034 103.653 112.127 109.004C114.312 119.705 117.377 133.167 120.89 146.764C124.403 160.363 128.361 174.081 132.332 185.296C134.318 190.904 136.301 195.871 138.228 199.878C139.984 203.531 141.662 206.317 143.208 208.069C163.508 198.723 191.991 185.345 215.391 173.613C227.22 167.682 237.734 162.18 245.233 157.837C248.987 155.663 251.959 153.794 253.957 152.317C254.96 151.576 255.682 150.959 256.131 150.474C256.356 150.23 256.482 150.05 256.545 149.933C256.554 149.916 256.558 149.901 256.563 149.89C256.353 148.707 255.267 144.776 253.535 138.911C251.771 132.936 249.367 125.045 246.631 116.241C241.158 98.6339 234.356 77.3895 228.681 60.5449C228.616 60.3544 228.553 60.164 228.489 59.9746C228.37 59.6212 228.251 59.2693 228.133 58.9199C225.52 51.1974 223.309 44.592 221.682 39.7793C220.035 34.9093 218.998 31.9119 218.69 31.2471C218.066 29.8985 217.47 29.0352 216.192 27.459C215.307 26.3672 214.137 25.2837 212.71 24.6982ZM226.693 31.2793C232.656 52.4572 240.983 81.1884 248.474 105.206C252.255 117.332 255.82 128.247 258.759 136.377C260.229 140.444 261.536 143.799 262.631 146.255C263.179 147.484 263.666 148.471 264.087 149.203C264.528 149.972 264.834 150.345 264.991 150.469H264.99C267.704 152.607 273.269 157.73 279.493 163.46L279.676 163.63H279.677L279.845 163.78L279.851 163.786L280.337 164.23L280.34 164.233L285.795 169.253H285.794C291.113 174.13 296.413 178.923 300.507 182.372C300.466 181.672 300.376 180.779 300.27 179.761C300.268 179.751 300.268 179.741 300.268 179.73L300.25 179.503V179.502C300.145 178.532 300.038 177.491 299.971 176.478L299.916 175.489C299.903 175.163 299.896 174.842 299.896 174.529C299.895 174.53 299.895 174.502 299.887 174.435C299.879 174.37 299.868 174.285 299.85 174.178C299.814 173.963 299.757 173.679 299.682 173.328C299.53 172.627 299.306 171.682 299.013 170.517C298.427 168.187 297.577 165.001 296.523 161.157C294.416 153.471 291.497 143.177 288.252 131.89C281.798 109.439 274.06 83.0751 268.868 65.5293C262.719 60.3743 253.288 52.4889 245.14 45.7178C237.5 39.37 231.02 34.033 229.396 32.8145V32.8135C228.099 31.8426 227.26 31.4339 226.76 31.2949C226.737 31.2886 226.714 31.2844 226.693 31.2793Z" fill="#E73F40" stroke="#E73F40" stroke-width="2" stroke-linejoin="round"/>
<path d="M442.535 49.4727C438.754 49.5684 436.344 50.8277 434.338 51.9219L434.135 52.04C433.613 52.3579 432.763 52.9672 431.71 53.7549C430.479 54.6756 428.904 55.8917 427.105 57.3018C423.508 60.1226 419.002 63.7334 414.539 67.3486C410.076 70.9641 405.654 74.5861 402.223 77.4287C398.831 80.2385 396.345 82.3378 395.799 82.8838C395.799 82.8838 395.795 82.887 395.788 82.8936C395.781 82.9 395.772 82.9091 395.76 82.9199C395.735 82.942 395.702 82.9703 395.661 83.0049C395.58 83.0742 395.473 83.1629 395.343 83.2695C395.081 83.483 394.736 83.7589 394.327 84.0869L394.321 84.0918L393.087 85.082C391.737 86.1707 390.091 87.5211 388.612 88.8438C387.627 89.7245 386.7 90.6089 385.976 91.4053C385.614 91.8033 385.29 92.1926 385.033 92.5596C384.785 92.9139 384.557 93.304 384.442 93.6982C383.483 96.9825 381.998 101.932 380.177 107.992L380.093 108.249L380.087 108.268L379.941 108.744L379.94 108.749L379.915 108.833C374.832 125.784 367.292 150.929 361.373 172.641C358.414 183.495 355.856 193.507 354.213 201.215C353.392 205.066 352.795 208.364 352.492 210.912C352.341 212.185 352.26 213.293 352.266 214.2C352.271 215.068 352.355 215.872 352.611 216.469C352.612 216.471 352.613 216.474 352.614 216.477C352.615 216.479 352.615 216.481 352.616 216.483L352.617 216.482C352.824 216.969 353.206 217.432 353.634 217.856L353.635 217.855C354.007 218.23 354.467 218.621 354.985 219.022C358.863 222.028 367.391 226.582 377.961 231.694C388.569 236.825 401.334 242.566 413.767 247.947C426.2 253.329 438.308 258.356 447.603 262.06C452.249 263.911 456.198 265.433 459.135 266.505C460.602 267.04 461.825 267.465 462.76 267.764C463.645 268.046 464.39 268.255 464.824 268.286C465.562 268.339 466.614 268.094 467.779 267.73C468.994 267.351 470.49 266.787 472.19 266.084C475.595 264.676 479.881 262.68 484.497 260.396C493.731 255.829 504.341 250.083 511.96 245.513V245.514C514.878 243.764 517.37 242.178 519.186 240.891C520.026 240.294 520.839 239.336 521.631 238.148C522.431 236.947 523.252 235.446 524.087 233.698C525.757 230.203 527.518 225.649 529.316 220.379C532.915 209.835 536.695 196.332 540.211 182.491C547.242 154.816 553.248 125.684 554.688 115.968C555.791 108.514 552.569 103.259 548.42 99.6387C544.311 96.0535 539.242 94.0179 536.477 92.9043L536.387 92.8672L536.366 92.8584L536.248 92.8125C535.792 92.6279 535.417 92.4753 535.128 92.3467L535.127 92.3457C525.49 88.061 506.359 78.4081 489.611 69.8115C481.244 65.5163 473.48 61.4892 467.808 58.5361C464.972 57.0597 462.659 55.8515 461.055 55.0127C460.253 54.5933 459.628 54.2662 459.204 54.0439C458.992 53.933 458.831 53.8481 458.722 53.791C458.667 53.7625 458.625 53.741 458.598 53.7266C458.584 53.7195 458.574 53.7136 458.567 53.71L458.558 53.7051C458.557 53.7049 458.556 53.7046 458.187 54.4092L458.557 53.7051C458.539 53.6957 458.52 53.687 458.502 53.6787C451.268 50.4234 446.278 49.3779 442.535 49.4727ZM400.971 190.571C401.154 190.539 401.619 190.563 402.469 190.765C403.276 190.956 404.31 191.276 405.559 191.721C408.054 192.608 411.33 193.965 415.213 195.695C422.974 199.154 433.096 204.077 444.12 209.64C465.601 220.48 490.466 233.734 507.873 243.288C506.579 244.168 504.603 245.321 502.114 246.659C498.718 248.485 494.472 250.608 489.96 252.789C481.033 257.104 471.095 261.628 464.692 264.493C463.58 264.442 461.667 263.989 459.006 263.122C456.219 262.214 452.729 260.894 448.704 259.252C440.657 255.968 430.524 251.417 419.706 246.353C398.724 236.531 375.201 224.799 359.381 216.708C365.743 212.096 374.326 206.057 382.181 200.931C386.388 198.185 390.374 195.708 393.69 193.854C395.349 192.926 396.829 192.16 398.079 191.595C399.187 191.094 400.068 190.773 400.71 190.624L400.971 190.571ZM445.657 53.7197C447.047 53.1496 448.75 53.022 450.818 53.9395C465.373 60.3944 486.057 70.9373 503.651 80.1211C521.2 89.2809 535.736 97.1223 537.884 98.1104C541.581 99.8112 543.818 101.569 545.392 103.911L520.482 119.898L446.897 93.0205L446.803 92.9912C446.325 92.8684 445.821 93.114 445.63 93.5791L445.172 94.6924C445.069 94.9428 445.071 95.2244 445.18 95.4727C445.288 95.721 445.493 95.9151 445.747 96.0098C445.911 96.0709 446.229 96.2024 446.577 96.3467C446.906 96.4829 447.267 96.6323 447.474 96.709C462.382 102.254 476.667 107.543 491.565 113.168C493.471 113.888 495.328 114.59 497.123 115.271L497.172 115.287L497.171 115.288L498.168 115.665L498.167 115.666C506.807 118.942 513.93 121.676 518.16 123.356L499.658 196.086C499.531 196.585 499.804 197.099 500.289 197.273L500.931 197.504C501.191 197.598 501.479 197.579 501.726 197.452C501.972 197.326 502.155 197.102 502.23 196.836L522.887 124.185C525.606 122.634 540.605 113.757 548.803 108.126C548.886 108.243 548.96 108.357 549.023 108.477C549.195 108.798 549.335 109.198 549.442 109.813C549.665 111.096 549.719 113.133 549.719 116.986C549.719 118.174 549.406 120.723 548.803 124.386C548.204 128.019 547.333 132.674 546.24 138.025C544.055 148.726 540.99 162.189 537.478 175.785C533.964 189.385 530.006 203.102 526.035 214.317C524.049 219.926 522.066 224.892 520.14 228.899C518.383 232.553 516.705 235.338 515.159 237.091C494.859 227.745 466.376 214.367 442.977 202.635C431.147 196.704 420.633 191.202 413.134 186.858C409.38 184.684 406.408 182.816 404.41 181.339C403.407 180.597 402.685 179.98 402.236 179.495C402.011 179.252 401.885 179.072 401.822 178.954C401.813 178.937 401.809 178.922 401.804 178.911C402.014 177.728 403.1 173.798 404.832 167.933C406.596 161.958 409 154.066 411.736 145.263C417.21 127.655 424.011 106.411 429.687 89.5664C429.751 89.3758 429.814 89.1855 429.878 88.9961C429.997 88.6427 430.116 88.2907 430.234 87.9414C432.847 80.2189 435.059 73.6134 436.686 68.8008C438.332 63.9308 439.369 60.9334 439.677 60.2686C440.301 58.92 440.897 58.0567 442.175 56.4805C443.06 55.3887 444.23 54.3051 445.657 53.7197ZM431.674 60.3008C425.711 81.4787 417.384 110.21 409.894 134.228C406.112 146.354 402.547 157.268 399.608 165.398C398.139 169.465 396.831 172.82 395.736 175.276C395.188 176.506 394.701 177.493 394.28 178.225C393.839 178.993 393.533 179.366 393.376 179.49H393.377C390.663 181.628 385.098 186.752 378.874 192.481L378.691 192.651H378.69L378.522 192.802L378.517 192.808L378.03 193.252L378.027 193.255L372.572 198.274H372.573C367.254 203.151 361.954 207.945 357.86 211.394C357.901 210.693 357.991 209.8 358.098 208.782C358.099 208.772 358.099 208.762 358.1 208.752L358.117 208.524V208.523C358.222 207.554 358.329 206.512 358.396 205.499L358.451 204.511C358.464 204.185 358.472 203.864 358.472 203.551C358.472 203.551 358.473 203.524 358.48 203.456C358.488 203.392 358.5 203.306 358.518 203.199C358.554 202.984 358.61 202.701 358.686 202.35C358.837 201.648 359.062 200.704 359.354 199.538C359.94 197.208 360.79 194.022 361.844 190.179C363.951 182.493 366.871 172.198 370.115 160.911C376.569 138.461 384.308 112.097 389.499 94.5508C395.649 89.3958 405.08 81.5104 413.228 74.7393C420.867 68.3915 427.347 63.0545 428.972 61.8359V61.835C430.268 60.8641 431.107 60.4554 431.607 60.3164C431.631 60.31 431.653 60.3058 431.674 60.3008Z" fill="#E73F40" stroke="#E73F40" stroke-width="2" stroke-linejoin="round"/>
</g>
<defs>
<clipPath id="clip0_503_404">
<rect width="640" height="290" fill="white"/>
</clipPath>
</defs>
</svg>
