<svg width="640" height="290" viewBox="0 0 640 290" fill="none" xmlns="http://www.w3.org/2000/svg">
<g clip-path="url(#clip0_503_402)">
<rect x="0.046875" width="640" height="290" fill="#FCF6EB"/>
<path d="M442.535 20.4512C438.754 20.5469 436.344 21.8063 434.338 22.9004L434.135 23.0186C433.613 23.3364 432.763 23.9457 431.71 24.7334C430.479 25.6541 428.904 26.8702 427.105 28.2803C423.508 31.1011 419.002 34.7119 414.539 38.3271C410.076 41.9426 405.654 45.5646 402.223 48.4072C398.831 51.217 396.345 53.3163 395.799 53.8623C395.799 53.8623 395.795 53.8655 395.788 53.8721C395.781 53.8785 395.772 53.8876 395.76 53.8984C395.735 53.9205 395.702 53.9488 395.661 53.9834C395.58 54.0527 395.473 54.1414 395.343 54.248C395.081 54.4616 394.736 54.7374 394.327 55.0654L394.321 55.0703L393.087 56.0605C391.737 57.1492 390.091 58.4997 388.612 59.8223C387.627 60.703 386.7 61.5874 385.976 62.3838C385.614 62.7818 385.29 63.1711 385.033 63.5381C384.785 63.8924 384.557 64.2825 384.442 64.6768C383.483 67.961 381.998 72.9103 380.177 78.9707L380.093 79.2275L380.087 79.2461L379.941 79.7227L379.94 79.7275L379.915 79.8115C374.832 96.763 367.292 121.907 361.373 143.619C358.414 154.473 355.856 164.485 354.213 172.193C353.392 176.045 352.795 179.342 352.492 181.891C352.341 183.164 352.26 184.271 352.266 185.179C352.271 186.046 352.355 186.85 352.611 187.447C352.612 187.45 352.613 187.453 352.614 187.455C352.615 187.457 352.615 187.46 352.616 187.462L352.617 187.461C352.824 187.947 353.206 188.41 353.634 188.835L353.635 188.834C354.007 189.208 354.467 189.599 354.985 190.001C358.863 193.007 367.391 197.561 377.961 202.673C388.569 207.804 401.334 213.544 413.767 218.926C426.2 224.308 438.308 229.335 447.603 233.038C452.249 234.889 456.198 236.412 459.135 237.483C460.602 238.019 461.825 238.444 462.76 238.742C463.645 239.024 464.39 239.234 464.824 239.265C465.562 239.317 466.614 239.073 467.779 238.709C468.994 238.329 470.49 237.766 472.19 237.062C475.595 235.654 479.881 233.658 484.497 231.375C493.731 226.808 504.341 221.062 511.96 216.491V216.492C514.878 214.743 517.37 213.157 519.186 211.869C520.026 211.273 520.839 210.314 521.631 209.127C522.431 207.926 523.252 206.424 524.087 204.677C525.757 201.181 527.518 196.627 529.316 191.357C532.915 180.813 536.695 167.311 540.211 153.47C547.242 125.794 553.248 96.6629 554.688 86.9463C555.791 79.4926 552.569 74.2374 548.42 70.6172C544.311 67.032 539.242 64.9964 536.477 63.8828L536.387 63.8457L536.366 63.8369L536.248 63.791C535.792 63.6064 535.417 63.4538 535.128 63.3252L535.127 63.3242C525.49 59.0396 506.359 49.3866 489.611 40.79C481.244 36.4948 473.48 32.4677 467.808 29.5146C464.972 28.0382 462.659 26.83 461.055 25.9912C460.253 25.5719 459.628 25.2447 459.204 25.0225C458.992 24.9115 458.831 24.8266 458.722 24.7695C458.667 24.741 458.625 24.7195 458.598 24.7051C458.584 24.698 458.574 24.6921 458.567 24.6885L458.558 24.6836C458.557 24.6834 458.556 24.6832 458.187 25.3877L458.557 24.6836C458.539 24.6742 458.52 24.6655 458.502 24.6572C451.268 21.402 446.278 20.3565 442.535 20.4512ZM400.971 161.55C401.154 161.518 401.619 161.542 402.469 161.743C403.276 161.934 404.31 162.255 405.559 162.699C408.054 163.587 411.33 164.943 415.213 166.674C422.974 170.133 433.096 175.055 444.12 180.618C465.601 191.458 490.466 204.712 507.873 214.267C506.579 215.147 504.603 216.3 502.114 217.638C498.718 219.464 494.472 221.587 489.96 223.768C481.033 228.082 471.095 232.606 464.692 235.472C463.58 235.42 461.667 234.967 459.006 234.101C456.219 233.193 452.729 231.873 448.704 230.23C440.657 226.946 430.524 222.395 419.706 217.331C398.724 207.509 375.201 195.777 359.381 187.687C365.743 183.074 374.326 177.035 382.181 171.909C386.388 169.164 390.374 166.687 393.69 164.832C395.349 163.904 396.829 163.138 398.079 162.573C399.187 162.073 400.068 161.751 400.71 161.603L400.971 161.55ZM445.657 24.6982C447.047 24.1282 448.75 24.0005 450.818 24.918C465.373 31.3729 486.057 41.9158 503.651 51.0996C521.2 60.2595 535.736 68.1008 537.884 69.0889C541.581 70.7897 543.818 72.5476 545.392 74.8896L520.482 90.877L446.897 63.999L446.803 63.9697C446.325 63.8469 445.821 64.0925 445.63 64.5576L445.172 65.6709C445.069 65.9214 445.071 66.2029 445.18 66.4512C445.288 66.6995 445.493 66.8936 445.747 66.9883C445.911 67.0495 446.229 67.1809 446.577 67.3252C446.906 67.4614 447.267 67.6108 447.474 67.6875C462.382 73.2327 476.667 78.5216 491.565 84.1465C493.471 84.8662 495.328 85.5687 497.123 86.249L497.172 86.2656L497.171 86.2666L498.168 86.6436L498.167 86.6445C506.807 89.9209 513.93 92.6548 518.16 94.335L499.658 167.064C499.531 167.564 499.804 168.078 500.289 168.252L500.931 168.482C501.191 168.576 501.479 168.557 501.726 168.431C501.972 168.304 502.155 168.081 502.23 167.814L522.887 95.1631C525.606 93.6125 540.605 84.7353 548.803 79.1045C548.886 79.2219 548.96 79.3357 549.023 79.4551C549.195 79.7767 549.335 80.1761 549.442 80.792C549.665 82.0749 549.719 84.1117 549.719 87.9648C549.719 89.1523 549.406 91.7015 548.803 95.3643C548.204 98.9971 547.333 103.653 546.24 109.004C544.055 119.705 540.99 133.167 537.478 146.764C533.964 160.363 530.006 174.081 526.035 185.296C524.049 190.904 522.066 195.871 520.14 199.878C518.383 203.531 516.705 206.317 515.159 208.069C494.859 198.723 466.376 185.345 442.977 173.613C431.147 167.682 420.633 162.18 413.134 157.837C409.38 155.663 406.408 153.794 404.41 152.317C403.407 151.576 402.685 150.959 402.236 150.474C402.011 150.23 401.885 150.05 401.822 149.933C401.813 149.916 401.809 149.901 401.804 149.89C402.014 148.707 403.1 144.776 404.832 138.911C406.596 132.936 409 125.045 411.736 116.241C417.21 98.6339 424.011 77.3895 429.687 60.5449C429.751 60.3544 429.814 60.164 429.878 59.9746C429.997 59.6212 430.116 59.2693 430.234 58.9199C432.847 51.1974 435.059 44.592 436.686 39.7793C438.332 34.9093 439.369 31.9119 439.677 31.2471C440.301 29.8985 440.897 29.0352 442.175 27.459C443.06 26.3672 444.23 25.2837 445.657 24.6982ZM431.674 31.2793C425.711 52.4572 417.384 81.1884 409.894 105.206C406.112 117.332 402.547 128.247 399.608 136.377C398.139 140.444 396.831 143.799 395.736 146.255C395.188 147.484 394.701 148.471 394.28 149.203C393.839 149.972 393.533 150.345 393.376 150.469H393.377C390.663 152.607 385.098 157.73 378.874 163.46L378.691 163.63H378.69L378.522 163.78L378.517 163.786L378.03 164.23L378.027 164.233L372.572 169.253H372.573C367.254 174.13 361.954 178.923 357.86 182.372C357.901 181.672 357.991 180.779 358.098 179.761C358.099 179.751 358.099 179.741 358.1 179.73L358.117 179.503V179.502C358.222 178.532 358.329 177.491 358.396 176.478L358.451 175.489C358.464 175.163 358.472 174.842 358.472 174.529C358.472 174.53 358.473 174.502 358.48 174.435C358.488 174.37 358.5 174.285 358.518 174.178C358.554 173.963 358.61 173.679 358.686 173.328C358.837 172.627 359.062 171.682 359.354 170.517C359.94 168.187 360.79 165.001 361.844 161.157C363.951 153.471 366.871 143.177 370.115 131.89C376.569 109.439 384.308 83.0751 389.499 65.5293C395.649 60.3743 405.08 52.4889 413.228 45.7178C420.867 39.37 427.347 34.033 428.972 32.8145V32.8135C430.268 31.8426 431.107 31.4339 431.607 31.2949C431.631 31.2886 431.653 31.2844 431.674 31.2793Z" fill="#E73F40" stroke="#E73F40" stroke-width="2" stroke-linejoin="round"/>
<path d="M215.832 49.4727C219.613 49.5684 222.023 50.8277 224.029 51.9219L224.232 52.04C224.755 52.3579 225.604 52.9672 226.657 53.7549C227.888 54.6756 229.463 55.8917 231.262 57.3018C234.859 60.1226 239.366 63.7334 243.828 67.3486C248.291 70.9641 252.713 74.5861 256.145 77.4287C259.536 80.2385 262.022 82.3378 262.568 82.8838C262.568 82.8838 262.572 82.887 262.579 82.8936C262.586 82.9 262.595 82.9091 262.607 82.9199C262.632 82.942 262.665 82.9703 262.706 83.0049C262.788 83.0742 262.894 83.1629 263.024 83.2695C263.286 83.483 263.631 83.7589 264.04 84.0869L264.046 84.0918L265.28 85.082C266.63 86.1707 268.276 87.5211 269.755 88.8438C270.74 89.7245 271.667 90.6089 272.392 91.4053C272.754 91.8033 273.077 92.1926 273.334 92.5596C273.582 92.9139 273.81 93.304 273.925 93.6982C274.885 96.9825 276.369 101.932 278.19 107.992L278.274 108.249L278.28 108.268L278.426 108.744L278.427 108.749L278.452 108.833C283.536 125.784 291.076 150.929 296.994 172.641C299.953 183.495 302.511 193.507 304.154 201.215C304.975 205.066 305.572 208.364 305.875 210.912C306.026 212.185 306.107 213.293 306.102 214.2C306.096 215.068 306.012 215.872 305.756 216.469C305.755 216.471 305.754 216.474 305.753 216.477C305.752 216.479 305.752 216.481 305.751 216.483L305.75 216.482C305.543 216.969 305.161 217.432 304.733 217.856L304.732 217.855C304.361 218.23 303.9 218.621 303.382 219.022C299.504 222.028 290.976 226.582 280.406 231.694C269.799 236.825 257.033 242.566 244.601 247.947C232.167 253.329 220.059 258.356 210.765 262.06C206.118 263.911 202.17 265.433 199.232 266.505C197.765 267.04 196.542 267.465 195.607 267.764C194.723 268.046 193.978 268.255 193.543 268.286C192.805 268.339 191.753 268.094 190.588 267.73C189.373 267.351 187.877 266.787 186.177 266.084C182.773 264.676 178.486 262.68 173.87 260.396C164.636 255.829 154.026 250.083 146.407 245.513V245.514C143.489 243.764 140.997 242.178 139.182 240.891C138.341 240.294 137.528 239.336 136.736 238.148C135.936 236.947 135.115 235.446 134.28 233.698C132.611 230.203 130.85 225.649 129.051 220.379C125.452 209.835 121.672 196.332 118.156 182.491C111.125 154.816 105.119 125.684 103.68 115.968C102.576 108.514 105.799 103.259 109.947 99.6387C114.056 96.0535 119.126 94.0179 121.891 92.9043L121.98 92.8672L122.001 92.8584L122.119 92.8125C122.576 92.6279 122.95 92.4753 123.239 92.3467L123.24 92.3457C132.878 88.061 152.008 78.4081 168.756 69.8115C177.124 65.5163 184.888 61.4892 190.56 58.5361C193.396 57.0597 195.709 55.8515 197.312 55.0127C198.114 54.5933 198.739 54.2662 199.163 54.0439C199.375 53.933 199.537 53.8481 199.646 53.791C199.7 53.7625 199.742 53.741 199.77 53.7266C199.783 53.7195 199.793 53.7136 199.8 53.71L199.81 53.7051C199.81 53.7049 199.811 53.7046 200.181 54.4092L199.811 53.7051C199.828 53.6957 199.847 53.687 199.865 53.6787C207.099 50.4234 212.089 49.3779 215.832 49.4727ZM257.396 190.571C257.213 190.539 256.748 190.563 255.898 190.765C255.092 190.956 254.057 191.276 252.809 191.721C250.313 192.608 247.037 193.965 243.154 195.695C235.393 199.154 225.271 204.077 214.247 209.64C192.766 220.48 167.901 233.734 150.494 243.288C151.789 244.168 153.764 245.321 156.253 246.659C159.649 248.485 163.895 250.608 168.407 252.789C177.334 257.104 187.272 261.628 193.675 264.493C194.787 264.442 196.7 263.989 199.361 263.122C202.149 262.214 205.638 260.894 209.663 259.252C217.71 255.968 227.843 251.417 238.661 246.353C259.643 236.531 283.167 224.799 298.986 216.708C292.625 212.096 284.041 206.057 276.187 200.931C271.98 198.185 267.994 195.708 264.677 193.854C263.018 192.926 261.538 192.16 260.288 191.595C259.18 191.094 258.299 190.773 257.657 190.624L257.396 190.571ZM212.71 53.7197C211.32 53.1496 209.617 53.022 207.549 53.9395C192.994 60.3944 172.31 70.9373 154.716 80.1211C137.167 89.2809 122.631 97.1223 120.483 98.1104C116.786 99.8112 114.549 101.569 112.976 103.911L137.885 119.898L211.47 93.0205L211.564 92.9912C212.042 92.8684 212.546 93.114 212.737 93.5791L213.195 94.6924C213.298 94.9428 213.296 95.2244 213.188 95.4727C213.079 95.721 212.874 95.9151 212.62 96.0098C212.456 96.0709 212.138 96.2024 211.79 96.3467C211.461 96.4829 211.1 96.6323 210.894 96.709C195.985 102.254 181.7 107.543 166.802 113.168C164.896 113.888 163.039 114.59 161.244 115.271L161.195 115.287L161.196 115.288L160.199 115.665L160.2 115.666C151.56 118.942 144.437 121.676 140.207 123.356L158.709 196.086C158.836 196.585 158.563 197.099 158.078 197.273L157.437 197.504C157.176 197.598 156.888 197.579 156.642 197.452C156.395 197.326 156.212 197.102 156.137 196.836L135.48 124.185C132.761 122.634 117.762 113.757 109.564 108.126C109.482 108.243 109.408 108.357 109.344 108.477C109.172 108.798 109.032 109.198 108.925 109.813C108.702 111.096 108.648 113.133 108.648 116.986C108.648 118.174 108.961 120.723 109.564 124.386C110.163 128.019 111.034 132.674 112.127 138.025C114.312 148.726 117.377 162.189 120.89 175.785C124.403 189.385 128.361 203.102 132.332 214.317C134.318 219.926 136.301 224.892 138.228 228.899C139.984 232.553 141.662 235.338 143.208 237.091C163.508 227.745 191.991 214.367 215.391 202.635C227.22 196.704 237.734 191.202 245.233 186.858C248.987 184.684 251.959 182.816 253.957 181.339C254.96 180.597 255.682 179.98 256.131 179.495C256.356 179.252 256.482 179.072 256.545 178.954C256.554 178.937 256.558 178.922 256.563 178.911C256.353 177.728 255.267 173.798 253.535 167.933C251.771 161.958 249.367 154.066 246.631 145.263C241.158 127.655 234.356 106.411 228.681 89.5664C228.616 89.3758 228.553 89.1855 228.489 88.9961C228.37 88.6427 228.251 88.2907 228.133 87.9414C225.52 80.2189 223.309 73.6134 221.682 68.8008C220.035 63.9308 218.998 60.9334 218.69 60.2686C218.066 58.92 217.47 58.0567 216.192 56.4805C215.307 55.3887 214.137 54.3051 212.71 53.7197ZM226.693 60.3008C232.656 81.4787 240.983 110.21 248.474 134.228C252.255 146.354 255.82 157.268 258.759 165.398C260.229 169.465 261.536 172.82 262.631 175.276C263.179 176.506 263.666 177.493 264.087 178.225C264.528 178.993 264.834 179.366 264.991 179.49H264.99C267.704 181.628 273.269 186.752 279.493 192.481L279.676 192.651H279.677L279.845 192.802L279.851 192.808L280.337 193.252L280.34 193.255L285.795 198.274H285.794C291.113 203.151 296.413 207.945 300.507 211.394C300.466 210.693 300.376 209.8 300.27 208.782C300.268 208.772 300.268 208.762 300.268 208.752L300.25 208.524V208.523C300.145 207.554 300.038 206.512 299.971 205.499L299.916 204.511C299.903 204.185 299.896 203.864 299.896 203.551C299.895 203.551 299.895 203.524 299.887 203.456C299.879 203.392 299.868 203.306 299.85 203.199C299.814 202.984 299.757 202.701 299.682 202.35C299.53 201.648 299.306 200.704 299.013 199.538C298.427 197.208 297.577 194.022 296.523 190.179C294.416 182.493 291.497 172.198 288.252 160.911C281.798 138.461 274.06 112.097 268.868 94.5508C262.719 89.3958 253.288 81.5104 245.14 74.7393C237.5 68.3915 231.02 63.0545 229.396 61.8359V61.835C228.099 60.8641 227.26 60.4554 226.76 60.3164C226.737 60.31 226.714 60.3058 226.693 60.3008Z" fill="#E73F40" stroke="#E73F40" stroke-width="2" stroke-linejoin="round"/>
</g>
<defs>
<clipPath id="clip0_503_402">
<rect width="640" height="290" fill="white"/>
</clipPath>
</defs>
</svg>
