<svg width="620" height="111" viewBox="0 0 620 111" fill="none" xmlns="http://www.w3.org/2000/svg">
<path d="M582.307 45.1875C581.919 45.1875 581.542 45.1925 581.173 45.2031C578.867 45.2699 576.93 45.5449 575.354 46.0176L575.348 46.0195C572.374 46.8691 570.194 48.2252 568.755 50.0576C567.318 51.8875 566.58 54.2425 566.58 57.1631C566.58 62.0618 568.524 65.966 572.434 68.9209C577.286 72.5882 585.201 74.8137 596.272 75.5254L596.272 55.9697C596.272 53.6795 596.103 51.8491 595.775 50.4648L595.774 50.4619C595.458 49.0918 594.8 48.0483 593.81 47.2969L593.803 47.291C592.841 46.5352 591.405 45.9882 589.445 45.6924L589.435 45.6914V45.6904C587.504 45.3562 585.129 45.1875 582.307 45.1875ZM580.124 108.619L549.177 108.619V102.789L549.648 102.739C551.802 102.513 553.512 102.287 554.783 102.062C555.441 101.946 556 101.775 556.468 101.556C556.868 101.368 557.2 101.145 557.469 100.891L557.478 100.882C557.8 100.592 557.912 100.538 558.172 100.259C558.42 99.9924 558.771 99.5432 559.403 98.5947C560.04 97.6404 562.847 93.4186 565.495 89.4346C566.819 87.4428 568.103 85.5104 569.057 84.0762C569.533 83.359 569.927 82.7659 570.202 82.3525C570.339 82.146 570.447 81.9842 570.521 81.874C570.557 81.8193 570.585 81.7774 570.604 81.749L570.631 81.708L570.632 81.7061H570.633L570.638 81.6973L570.644 81.6904L572.393 79.251C572.401 79.0906 572.48 78.9747 572.534 78.915C572.566 78.8795 572.602 78.8521 572.636 78.8291C571.99 78.6551 571.378 78.4726 570.881 78.2803C567.363 76.9198 564.238 75.232 561.513 73.2139V73.2129C560.712 72.6294 559.957 72.0395 559.251 71.4414C554.055 67.0409 552.515 62.2605 552.515 57.1631C552.515 52.8675 552.727 49.0089 555.403 45.8018C555.966 45.1276 556.589 44.4841 557.27 43.8721C559.264 42.0733 561.81 40.64 564.892 39.5615C565.052 39.5052 565.215 39.4508 565.378 39.3975C568.372 38.4198 572.825 37.9405 576.624 37.9404C580.626 37.9404 586.328 38.2835 593.721 38.9658H593.72C597.307 39.2678 600.492 39.418 603.276 39.418L617.896 39.418V45.1963L617.42 45.2412C615.422 45.4297 613.835 45.6553 612.652 45.9141L612.651 45.9131C611.586 46.1545 610.678 46.6856 609.916 47.5166L609.908 47.5254C609.771 47.6687 609.62 47.9199 609.477 48.3223C609.335 48.7196 609.21 49.2335 609.109 49.8721C608.907 51.1496 608.804 52.8756 608.804 55.0605L608.804 93.249C608.804 95.3762 608.912 97.058 609.123 98.3047C609.339 99.5824 609.647 100.296 609.957 100.605C610.788 101.399 611.791 101.92 612.979 102.166C614.245 102.389 615.949 102.596 618.098 102.784L618.578 102.826V108.664L587.095 108.664V102.834L587.565 102.785C589.701 102.56 590.691 102.337 591.99 102.107C593.215 101.891 594.093 101.487 594.676 100.937L594.685 100.928C595.127 100.53 595.524 99.7379 595.801 98.4258C596.074 97.1311 596.216 95.4094 596.216 93.249V82.5117C594.935 82.4883 592.44 82.529 589.986 82.5566C587.735 82.582 585.5 82.5947 584.339 82.5303C584.268 82.6338 584.177 82.7681 584.066 82.9297C583.785 83.3421 583.382 83.9329 582.896 84.6455C581.923 86.0707 580.618 87.9843 579.286 89.9375C576.622 93.8451 573.853 97.9076 573.427 98.543C573.042 99.1164 572.855 99.6754 572.809 100.119C572.759 100.59 572.874 100.832 572.943 100.901C573.672 101.595 574.763 102.016 576 102.281C577.235 102.546 578.537 102.641 579.644 102.738L580.124 102.78V108.619Z" fill="#FCF6EB" stroke="#FCF6EB" stroke-width="1.05208"/>
<path d="M519.208 72.2197C509.274 72.8584 501.876 74.7176 496.952 77.748C491.973 80.8127 489.517 85.0768 489.517 90.584C489.517 93.5046 490.254 95.8595 491.691 97.6895C493.041 99.4072 495.041 100.707 497.735 101.563L498.284 101.728L498.64 101.829C500.411 102.312 502.608 102.56 505.243 102.56C508.064 102.56 510.439 102.409 512.372 102.112C514.334 101.779 515.773 101.215 516.738 100.456L516.745 100.45C517.738 99.6967 518.395 98.6704 518.71 97.3418C519.039 95.9177 519.208 94.0669 519.208 91.7773L519.208 72.2197ZM540.832 108.329L526.213 108.329C523.428 108.329 520.243 108.478 516.656 108.78C509.264 109.463 503.563 109.807 499.561 109.807C495.537 109.807 491.971 109.27 488.873 108.186C485.792 107.107 483.245 105.674 481.251 103.875L480.895 103.546C477.266 100.12 475.45 95.7873 475.45 90.584C475.45 84.7058 478.871 79.357 485.498 74.5303C493.406 68.6765 504.665 65.6019 519.208 65.2373V55.8047C519.208 51.9929 517.947 49.2105 515.483 47.3604C512.991 45.4889 509.189 44.5108 503.993 44.5107C498.125 44.5107 494.251 46.3762 492.179 49.9766C491.584 51.0618 491.278 52.3365 491.278 53.8154C491.278 55.1764 491.93 56.9086 493.349 59.0361L493.654 59.4941L493.183 59.7783L489.318 62.1084L489.151 62.209L488.959 62.1768C484.385 61.4015 481.001 59.4673 478.893 56.3252V56.3242C478.099 55.1909 477.724 53.7535 477.724 52.0537C477.724 50.2763 478.448 48.4821 479.819 46.6797C481.199 44.8284 483.117 43.2303 485.553 41.877L485.554 41.876C490.881 38.942 497.568 37.4912 505.584 37.4912C518.612 37.4912 526.952 41.2661 530.222 49.0664C531.237 51.4866 531.739 54.1518 531.739 57.0547L531.739 92.6865C531.739 94.8713 531.844 96.6022 532.046 97.8896C532.252 99.2019 532.547 99.9493 532.848 100.281C533.608 101.075 534.518 101.591 535.588 101.833C536.771 102.092 538.357 102.317 540.355 102.506L540.832 102.551V108.329Z" fill="#FCF6EB" stroke="#FCF6EB" stroke-width="1.05208"/>
<path d="M434.864 33.5029C442.09 33.503 447.804 35.0314 451.942 38.1533L452.308 38.4326C456.03 41.3535 457.895 45.3208 457.895 50.2822C457.895 56.8893 454.674 62.4351 448.352 66.9072V66.9082C445.877 68.6575 442.983 70.1122 439.678 71.2793C442.983 72.4464 445.876 73.9029 448.352 75.6523C454.674 80.1245 457.895 85.6712 457.895 92.2783C457.895 97.3996 455.909 101.462 451.942 104.407L451.941 104.406C447.803 107.528 442.09 109.058 434.864 109.058C425.361 109.058 417.542 105.587 411.453 98.6494L411.452 98.6484C405.332 91.6429 402.287 82.7808 402.287 72.1045V70.4561C402.287 59.7797 405.332 50.9177 411.452 43.9121L411.453 43.9111C417.542 36.974 425.361 33.5029 434.864 33.5029ZM415.57 74.8574C415.629 76.9142 415.825 78.9428 416.159 80.9434C416.524 83.1272 417.053 85.2788 417.747 87.3975C418.418 89.4482 419.256 91.3667 420.26 93.1523C421.261 94.8954 422.428 96.4307 423.757 97.7598H423.756C425.076 99.042 426.56 100.066 428.207 100.835C429.832 101.556 431.707 101.925 433.841 101.925C435.991 101.925 437.752 101.609 439.144 101.002C440.956 100.204 442.288 99.0944 443.17 97.6826C444.054 96.2681 444.51 94.513 444.51 92.3916C444.51 89.1157 443.666 86.4123 442.007 84.2471C437.447 78.3842 428.705 75.1973 415.57 74.8574ZM433.841 40.6357C431.708 40.6358 429.834 41.0222 428.21 41.7803L428.201 41.7842C426.558 42.5147 425.077 43.5378 423.757 44.8574L423.751 44.8633C422.427 46.1508 421.263 47.6814 420.263 49.46L420.261 49.4648C419.257 51.2121 418.419 53.1106 417.747 55.1621V55.1631C417.047 57.3014 416.554 59.487 416.145 61.7041C415.94 62.8131 415.88 63.9342 415.851 65.0459C415.827 65.9361 415.82 66.8368 415.769 67.6934C428.793 67.3268 437.47 64.146 442.007 58.3125C443.666 56.1474 444.51 53.4445 444.51 50.1689C444.51 48.0475 444.054 46.2924 443.17 44.8779C442.288 43.4661 440.956 42.3564 439.144 41.5586L438.878 41.4482C437.53 40.9137 435.856 40.6357 433.841 40.6357Z" fill="#FCF6EB" stroke="#FCF6EB" stroke-width="1.05208"/>
<path d="M355.923 37.4863C366.143 37.4863 374.256 41.1452 380.2 48.4785C385.628 55.1771 388.33 63.4258 388.33 73.1895C388.33 82.7206 385.795 90.8982 380.706 97.6943L380.205 98.3477C374.263 105.91 366.149 109.688 355.923 109.688C345.731 109.687 337.618 105.85 331.641 98.1758L331.639 98.1738C326.293 91.2513 323.63 82.894 323.63 73.1318C323.63 70.1431 323.918 67.1735 324.492 64.2236L324.493 64.2168C325.107 61.2637 326.01 58.4618 327.2 55.8115L327.202 55.8057C328.432 53.153 329.952 50.7102 331.761 48.4785C333.574 46.241 335.677 44.3114 338.068 42.6914L338.553 42.3711C343.576 39.1111 349.372 37.4864 355.923 37.4863ZM356.037 44.6758C351.655 44.6758 348.092 45.93 345.305 48.4072C342.509 50.892 340.448 54.6492 339.157 59.7363L339.156 59.7402C338.147 63.5888 337.639 68.0703 337.639 73.1895C337.639 88.3642 341.56 97.4808 349.119 100.959L349.482 101.12C351.337 101.92 353.499 102.327 355.98 102.327C358.5 102.327 360.68 101.939 362.534 101.177C364.406 100.369 366.015 99.2716 367.366 97.8838C368.726 96.4868 369.85 94.8667 370.735 93.0215L370.737 93.0176C371.668 91.1192 372.414 89.0884 372.974 86.9238V86.9229C373.986 83.0232 374.491 79.1843 374.491 75.4053C374.491 71.549 374.378 68.4615 374.153 66.1367V66.1357C373.929 63.7755 373.535 61.5499 372.975 59.459V59.457C372.415 57.3314 371.67 55.3587 370.741 53.5381L370.737 53.5303C369.854 51.727 368.735 50.1681 367.381 48.8496C364.462 46.0768 360.696 44.6758 356.037 44.6758ZM362.886 1.06055L373.77 8.13477L374.303 8.48047L373.862 8.93945L353.113 30.5654L352.848 30.8438L352.502 30.6738L347.99 28.4561L347.498 28.2148L347.76 27.7334L362.137 1.25098L362.409 0.750977L362.886 1.06055Z" fill="#FCF6EB" stroke="#FCF6EB" stroke-width="1.05208"/>
<path d="M257.731 4.64746C275.234 7.24048 288.462 14.6506 297.349 26.9082L297.35 26.9092C305.307 37.9268 309.27 51.5848 309.27 67.8496C309.27 80.6555 306.353 90.8605 300.463 98.4063V98.4072C294.562 105.927 286.64 109.689 276.749 109.689C267.264 109.689 259.498 105.861 253.491 98.2373V98.2363C247.919 91.2415 245.138 82.9419 245.138 73.3623C245.138 63.6783 247.724 55.3611 252.915 48.4395L252.916 48.4385C258.665 40.7998 266.514 36.9775 276.408 36.9775C281.905 36.9775 286.684 38.2528 290.723 40.8203C284.747 24.4589 273.303 14.4302 256.348 10.6826L255.825 10.5674L255.95 10.0469L257.144 5.0459L257.255 4.57715L257.731 4.64746ZM277.488 44.167C274.141 44.167 271.28 44.9194 268.886 46.4033C266.491 47.8875 264.529 50.1231 263.012 53.1396L263.01 53.1445C260.487 58.0408 259.204 64.8224 259.204 73.5322C259.204 86.4288 262.337 95.1041 268.431 99.7666H268.43C270.666 101.461 273.576 102.33 277.204 102.33C280.875 102.33 283.87 101.496 286.225 99.8662C288.602 98.2206 290.456 95.9485 291.784 93.0332C294.085 87.9478 295.261 80.047 295.261 69.2705C295.261 60.774 293.742 54.4956 290.784 50.3535C287.85 46.2441 283.449 44.1671 277.488 44.167Z" fill="#FCF6EB" stroke="#FCF6EB" stroke-width="1.05208"/>
<path d="M197.47 37.4912C207.69 37.4912 215.803 41.1501 221.747 48.4834C227.175 55.182 229.877 63.4306 229.877 73.1943C229.877 83.0331 227.175 91.4292 221.752 98.3525V98.3535C215.81 105.916 207.696 109.692 197.47 109.692C187.278 109.692 179.165 105.855 173.187 98.1807L173.186 98.1797C167.84 91.2572 165.177 82.8999 165.177 73.1377C165.177 70.1487 165.464 67.1786 166.039 64.2285L166.04 64.2217C166.654 61.2687 167.556 58.4666 168.747 55.8164L168.749 55.8105C169.979 53.1579 171.499 50.715 173.308 48.4834C175.121 46.2459 177.224 44.3163 179.615 42.6963L180.1 42.376C185.123 39.1161 190.919 37.4913 197.47 37.4912ZM197.584 44.6807C193.202 44.6807 189.638 45.9349 186.852 48.4121C184.056 50.8968 181.995 54.6542 180.704 59.7412L180.703 59.7461C179.694 63.5946 179.186 68.0753 179.186 73.1943C179.186 88.6102 183.233 97.7733 191.029 101.125L191.381 101.271C193.155 101.974 195.201 102.333 197.527 102.333C200.05 102.333 202.233 101.943 204.089 101.179C205.957 100.372 207.564 99.2746 208.913 97.8887C210.273 96.4918 211.397 94.8724 212.282 93.0273L212.284 93.0234C213.215 91.1249 213.961 89.0935 214.521 86.9287V86.9277C215.533 83.0282 216.038 79.1891 216.038 75.4102C216.038 71.5539 215.925 68.4664 215.7 66.1416V66.1406C215.475 63.7803 215.082 61.5548 214.521 59.4639V59.4619C213.962 57.3363 213.217 55.3635 212.288 53.543L212.284 53.5361C211.401 51.7326 210.282 50.1731 208.928 48.8545C206.009 46.0818 202.243 44.6807 197.584 44.6807Z" fill="#FCF6EB" stroke="#FCF6EB" stroke-width="1.05208"/>
<path d="M157.508 108.64L128.496 108.64V102.751L128.969 102.703C130.821 102.516 132.322 102.218 133.482 101.819C134.641 101.421 135.421 100.934 135.887 100.393C136.234 99.9509 136.543 99.1268 136.757 97.8271C136.968 96.5405 137.077 94.8575 137.077 92.7695C137.077 88.5706 137.001 84.6569 136.85 81.0283V81.0225C136.736 77.399 136.491 74.1589 136.115 71.3008C135.74 68.4458 135.196 65.9003 134.487 63.6621L134.486 63.6592C133.778 61.3867 132.829 59.2462 131.638 57.2363L131.636 57.2314C129.529 53.5984 126.201 49.6233 121.634 45.3037C116.955 49.7238 113.844 53.2984 112.258 56.0381C110.642 58.8561 109.486 61.3957 108.781 63.6592V63.6621C108.072 65.9003 107.529 68.4457 107.153 71.3008C106.513 76.1612 106.191 81.5363 106.191 87.4277C106.191 93.3187 106.268 96.7792 106.414 97.8721C106.556 98.9349 106.888 99.7651 107.382 100.394C107.848 100.935 108.624 101.422 109.772 101.82C110.924 102.219 112.41 102.516 114.243 102.703L114.716 102.751L114.716 108.64L85.8174 108.64L85.8174 102.77L86.2695 102.705C88.1108 102.442 89.5475 102.131 90.5928 101.776C91.659 101.415 92.2179 101.04 92.4395 100.719C93.0306 99.8137 93.3845 98.7631 93.4912 97.5537L93.4922 97.5459L93.4932 97.5391C93.6405 96.2868 93.7168 93.7034 93.7168 89.7578C93.7168 85.7616 93.9257 81.5208 94.3437 77.0361L94.3447 77.0322C94.8014 72.5412 95.4878 68.5356 96.4053 65.0186L96.4062 65.0137C97.3023 61.7161 98.4196 58.7782 99.7607 56.2041L100.031 55.6943C101.491 52.967 103.259 50.4693 105.334 48.2021L105.335 48.2012C108.794 44.4348 114.147 40.3886 121.363 36.0586L121.634 35.8965L121.904 36.0586C128.67 40.1181 133.798 43.9283 137.263 47.4922L137.934 48.2012L137.935 48.2021C144.023 54.8683 147.648 64.5009 148.867 77.0322L149.027 78.7012C149.377 82.5644 149.552 86.2125 149.552 89.6445C149.552 93.5096 149.589 96.0895 149.664 97.3984C149.727 98.4715 149.954 99.3281 150.32 99.9912L150.486 100.264L150.493 100.274C150.865 100.864 151.557 101.389 152.652 101.812C153.746 102.233 155.2 102.534 157.029 102.702L157.508 102.746V108.64Z" fill="#FCF6EB" stroke="#FCF6EB" stroke-width="1.05208"/>
<path d="M72.8662 108.338L40.5127 108.338L40.5127 102.604L40.9619 102.537L42.9033 102.25L42.9111 102.249C44.6302 102.022 45.9899 101.755 46.999 101.451C48.0277 101.142 48.6097 100.817 48.8701 100.53C49.3106 100.023 49.6867 99.1364 49.9463 97.7881C50.2042 96.4489 50.3369 94.7141 50.3369 92.5742L50.3369 54.0801C50.3369 51.9365 50.2229 50.2427 50.002 48.9873C49.7757 47.7018 49.4545 46.9828 49.1279 46.6689L49.1191 46.6611V46.6602C48.3245 45.8636 47.3391 45.3579 46.1445 45.1465L46.1377 45.1455L46.1299 45.1436C44.9629 44.9026 43.4189 44.6942 41.4922 44.5137C38.3957 44.5096 35.2723 44.503 32.1221 44.4961C30.0927 44.7143 28.4699 44.9306 27.25 45.1465C26.0183 45.3645 25.1365 45.7725 24.5498 46.3281L24.541 46.3369C24.0959 46.7387 23.6967 47.5382 23.418 48.8613C23.1429 50.1669 23.001 51.9023 23.001 54.0801L23.001 92.5742C23.001 94.7409 23.0859 96.4531 23.2529 97.7188C23.3364 98.3515 23.4389 98.8613 23.5566 99.2549C23.6741 99.6476 23.7977 99.8891 23.9043 100.023C24.5585 100.745 25.3209 101.218 26.1982 101.457C27.2094 101.682 28.5641 101.928 30.2666 102.193L30.2676 102.194L32.4385 102.538L32.8828 102.608V108.338L0.52832 108.338L0.52832 102.604L0.977539 102.537L2.91992 102.25L2.92773 102.249C4.64662 102.022 6.00556 101.755 7.01465 101.451C8.04365 101.142 8.62638 100.817 8.88672 100.53C9.32717 100.023 9.7033 99.1362 9.96289 97.7881C10.2208 96.4489 10.3535 94.7141 10.3535 92.5742L10.3535 54.0801C10.3535 51.9365 10.2395 50.2427 10.0186 48.9873C9.79233 47.7018 9.47012 46.9828 9.14355 46.6689L9.13574 46.6611C8.34101 45.8642 7.35599 45.358 6.16113 45.1465L6.15332 45.1455L6.14648 45.1436C4.88028 44.8821 3.17017 44.655 1.00879 44.4648L0.52832 44.4229L0.52832 38.5459L72.8662 38.5459L72.8662 44.415L72.3955 44.4648C70.2304 44.6934 68.5108 44.9204 67.2334 45.1465C66.0021 45.3644 65.1208 45.7727 64.5342 46.3281L64.5244 46.3369C64.0793 46.7387 63.6801 47.5383 63.4014 48.8613C63.1263 50.1669 62.9844 51.9023 62.9844 54.0801L62.9844 92.5742C62.9844 94.7409 63.0703 96.4531 63.2373 97.7188C63.3208 98.3514 63.4233 98.8613 63.541 99.2549C63.6595 99.651 63.7834 99.8938 63.8906 100.027C64.5448 100.747 65.3075 101.219 66.1846 101.458C66.9418 101.626 67.8913 101.807 69.0352 101.998L70.251 102.193L70.252 102.194L72.4219 102.538L72.8662 102.608V108.338Z" fill="#FCF6EB" stroke="#FCF6EB" stroke-width="1.05208"/>
</svg>
