<svg width="408" height="592" viewBox="0 0 408 592" fill="none" xmlns="http://www.w3.org/2000/svg">
<g clip-path="url(#clip0_503_459)">
<rect width="408" height="592" fill="#E73F40"/>
<path d="M653.099 339.934C649.1 325.481 639.111 316.637 624.075 315.117C628.406 299.038 617.212 285.721 603.206 279.866V278.905C613.632 268.261 617.421 252.357 616.286 237.729C614.959 220.969 600.395 210.465 584.294 210.658C587.559 187.798 568.891 168.398 546.486 168.206C545.595 149.751 527.276 141.187 510.93 140.103C509.586 140.016 508.171 140.051 506.984 140.767L506.337 140.138C509.027 129.827 504.05 118.257 498.077 109.903C488.176 96.0266 470.241 87.2008 453.162 88.9485C447.189 78.4798 433.97 70.8774 421.868 74.8621C418.532 58.6086 404.492 45.5883 389.403 39.7685C357.69 27.5172 323.514 40.0132 301.493 64.2362C278.442 51.6353 246.589 72.328 248.317 98.3685C223.694 94.2789 194.775 114.902 198.739 141.449C173.976 137.552 144.498 151.935 145.232 179.986C131.837 177.451 119.718 188.095 117.884 201.237C89.4887 204.226 75.0117 234.496 92.1432 258.282C92.9465 259.418 94.3785 261.515 95.6533 261.62V262.581C84.8784 269.432 77.2645 282.907 82.6257 295.56C53.1826 301.03 39.8756 331.196 48.677 358.564C54.1256 375.482 70.7157 386.65 88.1441 388.275C91.5669 388.572 95.7231 388.275 99.2333 388.275C99.4079 388.275 100.124 387.349 100.875 387.628C91.5669 422.11 141.18 430.15 157.962 407.203C172.492 432.579 209.601 434.065 227.204 411.222C243.62 420.555 268.033 416.867 279.612 401.645L280.572 401.348C297.529 415.644 307.832 432.439 312.582 454.198C319.55 486.093 314.905 533.98 289.112 556.717C271.351 572.359 256.211 571.712 235.412 578.721C226.279 581.797 217.739 586.638 208.676 589.836C190.741 596.163 170.553 594.922 154.173 605.146C153.317 605.67 148.148 609.043 149.143 610.249C150.121 609.742 150.942 609.585 152.042 609.55C176.054 608.886 199.333 611.577 222.996 606.124C228.636 604.814 236.495 601.161 241.507 600.497C247.427 599.71 254.866 600.776 261.048 600.462C275.56 599.745 289.758 596.075 303.763 592.615C297.459 598.435 289.74 604.569 282.021 608.396C272.364 613.185 260.926 614.845 251.321 619.459C247.584 621.259 242.886 623.933 241.105 627.848C250.483 627.534 260.105 628.565 269.413 627.114C280.328 625.401 291.574 617.834 300.952 616.261C305.073 615.562 310.574 615.929 315.062 615.37C328.736 613.657 342.287 608.431 350.041 596.53C356.712 611.332 374.996 626.485 391.481 627.848C392.232 627.918 397.035 628.477 396.354 626.887L375.799 603.695C382.505 606.631 390.451 606.282 397.174 607.767C404.195 609.305 416.803 617.484 424.889 620.508C430.005 622.413 444.028 627.202 448.866 627.202H478.553C471.62 618.009 457.335 616.908 446.892 613.5C433.428 609.113 423.754 601.231 413.974 591.304C422.671 593.366 431.839 594.135 440.483 596.425C448.517 598.557 456.34 602.192 464.705 604.167C489.922 610.127 520.099 609.864 546.066 608.938C546.87 608.903 548.494 609.41 548.337 608.292C537.597 601.545 525.861 596.302 513.253 594.1C504.556 592.597 495.598 592.632 486.883 590.465C473.437 587.092 462.714 578.948 450.28 573.565C426.059 563.096 407.617 565.491 391.901 539.939C378.122 517.534 371.399 456.715 389.176 435.62C397.733 425.483 408.84 430.377 420.139 430.744C429.464 431.041 436.729 429.66 445.443 426.637C447.434 425.955 449.826 424.05 451.607 423.683C455.03 422.967 459.571 423.823 463.203 423.526C477.663 422.285 491.511 417.182 504.259 410.488C514.807 427.79 544.966 433.313 559.181 418.248C564.77 421.289 570.917 423.771 577.378 424.173C593.147 425.151 610.436 414.351 610.977 397.415C643.18 399.513 661.202 369.418 653.047 339.952L653.099 339.934ZM325.645 410.436C310.102 398.01 299.747 380.55 290.736 363.108C301.214 358.407 309.072 349.074 309.648 337.33C313.159 338.955 316.092 340.755 319.952 341.699C324.492 342.8 329.19 343.272 333.783 342.556C332.787 364.716 329.609 386.824 326.57 408.793C326.448 409.737 327.199 410.715 325.645 410.453V410.436ZM370.962 401.313C370.962 401.313 367.465 368.983 370.962 348.76C371.434 346.033 375.59 336.299 376.934 333.188C378.262 330.112 388.19 320.147 389.5 319.5C392.643 326.211 396.5 339 415 337.33C424.115 336.507 434.93 325 434.93 325C413.188 330.33 417.538 335.303 439 341.699C469.075 350.592 424.748 367.445 407.146 382.35C395.917 391.91 384.985 396.891 370.962 401.313ZM434.93 411.467C426.757 413.18 418.27 411.467 410.097 410.436C419.772 403.497 428.713 395.808 435.541 385.916C445.129 388.258 454.751 386.457 463.605 382.385C457.737 394.497 449.145 408.478 434.93 411.467ZM494.899 399.338C486.237 404.581 477.855 409.422 467.499 410.436L481.522 384.989C483.129 388.817 485.626 392.592 489.049 395.056C490.132 395.825 495.912 397.835 494.882 399.338H494.899Z" fill="#AA9951"/>
</g>
<defs>
<clipPath id="clip0_503_459">
<rect width="408" height="592" fill="white"/>
</clipPath>
</defs>
</svg>
