<svg width="259" height="345" viewBox="0 0 259 345" fill="none" xmlns="http://www.w3.org/2000/svg">
<path d="M248.087 115.647C234.237 90.5019 201.286 83.2168 176.214 96.0312C176.772 96.6398 177.633 97.3708 178.692 98.1729C179.862 99.0588 181.132 99.9308 182.28 100.736C183.339 101.479 184.462 102.275 185.072 102.9C197.619 115.77 202.455 134.551 203.736 153.805C205.02 173.097 202.754 193.231 200.767 209.116V209.117C197.736 233.243 191.426 256.947 185.04 280.146L184.685 281.437L183.357 281.601C182.371 281.723 181.171 281.548 180.356 280.532C179.668 279.673 179.635 278.641 179.66 278.058C179.689 277.405 179.827 276.739 179.938 276.244C180.037 275.806 180.108 275.516 180.153 275.29L180.189 275.082C181.449 265.574 183.276 256.094 184.972 246.651C186.567 237.768 188.053 228.891 188.888 219.9L189.046 218.101C190.992 194.422 193.007 165.278 186.808 141.408C183.718 129.511 178.619 119.065 170.573 111.275C162.555 103.513 151.466 98.2477 136.113 96.9375L136.114 96.9365C115.73 95.2041 99.7292 100.337 88.4795 110.61C77.386 120.741 70.6695 136.093 69.1172 155.487L69.0469 156.414C66.0778 198.348 71.6024 242.015 79.5391 283.189L75.6699 284.175L66.2725 254.672L66.2305 254.54L66.207 254.404C62.5348 233.101 55.6355 203.124 54.3008 174.466C52.9898 146.316 56.9893 118.666 75.3564 101.48L76.2412 100.67C76.8074 100.162 77.8088 99.5472 78.6924 99.0049C79.672 98.4036 80.7305 97.7629 81.6836 97.1094C82.2354 96.731 82.6933 96.3853 83.0498 96.082C63.401 88.0084 45.4221 88.1966 31.5 95.3779C17.4328 102.634 7.12235 117.228 3.43555 138.631L3.26465 139.655C0.357543 157.706 2.72529 184.683 7.74805 211.638C12.6062 237.708 19.8956 263.485 27.0664 280.724L27.7598 282.365C32.801 294.117 39.7079 307.723 48.9375 318.104C58.1486 328.463 69.4748 335.404 83.4473 334.398H83.4463C85.1884 334.268 88.521 333.349 91.8525 332.392C93.453 331.931 95.0219 331.473 96.2646 331.149C96.8854 330.988 97.4637 330.848 97.9473 330.758C98.1884 330.713 98.4364 330.674 98.6719 330.653C98.8711 330.635 99.2132 330.615 99.5762 330.685H99.5781C100.485 330.861 101.233 331.408 101.731 331.824C102.274 332.278 102.817 332.835 103.299 333.338C104.241 334.322 104.97 335.096 105.607 335.547L105.876 335.72L105.888 335.727C119.578 343.79 133.572 345.079 147.788 337.722C149.171 337.001 150.812 335.589 152.762 334.03C153.68 333.296 154.651 332.546 155.601 331.946C156.52 331.365 157.596 330.807 158.713 330.627H158.717C159.973 330.427 161.275 330.62 162.457 330.92C163.655 331.224 164.896 331.683 166.066 332.141C168.397 333.052 170.365 333.904 172.007 334.199L172.331 334.251C191.785 336.89 206.726 324.206 218.151 306.25C229.539 288.354 237.001 265.851 241.555 250.331H241.554C246.713 232.713 252.822 207.048 255.376 181.709C257.942 156.256 256.869 131.593 248.087 115.647Z" stroke="#602930" stroke-width="4"/>
<path d="M99.9404 2.18945C97.4599 1.71304 95.4725 2.16807 93.8545 3.16504C92.1911 4.1901 90.79 5.87153 89.707 8.02051C87.5631 12.2749 86.899 17.9089 87.627 22.1992C87.6638 22.2458 87.731 22.3245 87.8516 22.4297C88.11 22.655 88.5047 22.9202 89.0576 23.2178C90.1677 23.8152 91.656 24.4054 93.3438 25.0137C94.9262 25.584 96.8793 26.2368 98.4482 26.8154C100.055 27.4081 101.659 28.0616 102.83 28.7988L102.833 28.8008C110.913 33.9037 116.417 43.5012 117.459 53.0127C118.51 62.6141 115.014 72.4656 104.678 77.4443C100.678 79.38 96.1902 79.6529 92.5127 80.1465C89.6882 80.5256 87.2151 81.0309 85.084 82.2344L99.1377 91.0576C118.446 80.5344 140.045 82.5251 159.636 90.0225C161.974 88.4356 164.849 87.1013 167.511 85.9092C170.352 84.6368 172.924 83.5342 174.828 82.3984C172.561 81.3293 169.198 80.7079 165.331 80.1152C161.283 79.4948 156.703 78.9061 153.367 77.624H153.366C144.533 74.2226 140.394 68.1276 137.962 61.2568C136.765 57.8767 135.97 54.2817 135.22 50.7676C134.461 47.2128 133.749 43.7433 132.714 40.415L132.713 40.416C130.129 32.1313 126.417 23.3932 121.077 16.3096C115.753 9.24639 108.881 3.91395 99.9395 2.19434L99.9404 2.18945Z" stroke="#602930" stroke-width="4"/>
</svg>
