<svg width="195" height="428" viewBox="0 0 195 428" fill="none" xmlns="http://www.w3.org/2000/svg">
<path d="M158.808 422.226C161.056 424.139 163.863 425.292 167.605 425.218L168.701 424.379C170.365 420.515 169.358 416.209 167.723 411.994C167.309 410.925 166.869 409.898 166.442 408.902C166.022 407.921 165.604 406.951 165.265 406.06C164.929 405.178 164.632 404.278 164.484 403.43C164.341 402.609 164.291 401.588 164.72 400.623L164.722 400.618C165.652 398.539 167.655 398.126 169.101 398.087C170.477 398.049 172.25 398.338 173.484 398.462C174.929 398.607 175.967 398.588 176.691 398.313C177.178 398.127 177.672 397.78 177.976 396.695L178.034 396.467C178.473 394.579 177.674 392.699 175.388 390.477C173.095 388.249 169.752 386.121 166.104 383.811C162.558 381.564 158.732 379.149 155.885 376.457C153.198 373.917 151.048 370.816 151.11 367.042C150.967 366.384 151.164 365.698 151.637 365.216L151.708 365.141C152.299 364.539 153.204 364.372 153.971 364.723C154.073 364.77 154.17 364.827 154.261 364.889C156.785 365.592 160.32 365.782 162.855 365.04C164.209 364.644 164.98 364.071 165.33 363.489C165.631 362.99 165.855 362.09 165.191 360.404L165.19 360.403C164.688 359.126 163.598 357.86 161.915 356.584C160.244 355.317 158.138 354.151 155.819 353.02C153.48 351.879 151.093 350.851 148.737 349.763C146.588 348.771 144.487 347.739 142.778 346.62L142.443 346.395C132.901 339.888 127.496 329.966 123.435 319.596C121.403 314.408 119.675 309.018 117.953 303.843C116.222 298.637 114.493 293.636 112.43 289.081C112.068 288.281 112.27 287.338 112.929 286.756C113.588 286.175 114.549 286.092 115.298 286.552C123.676 291.69 128.658 300.313 131.945 308.782L131.945 308.783C132.458 310.108 133.066 312.559 133.751 315.079C134.466 317.707 135.315 320.623 136.359 323.199C137.429 325.84 138.591 327.83 139.792 328.862C140.356 329.346 140.841 329.543 141.267 329.583C141.684 329.621 142.269 329.53 143.081 329.028C143.216 328.944 143.36 328.879 143.51 328.829C143.55 328.778 143.633 328.651 143.74 328.379C143.975 327.776 144.122 327.007 144.324 326.022C144.417 325.573 144.524 325.071 144.659 324.606C144.789 324.16 144.985 323.603 145.314 323.108C145.659 322.588 146.268 321.972 147.23 321.799C148.141 321.634 148.94 321.949 149.517 322.293L149.518 322.292C151.828 323.667 153.417 326.126 154.69 328.559C155.344 329.809 155.959 331.146 156.559 332.454C157.167 333.779 157.759 335.078 158.392 336.327C159.672 338.851 161.01 340.939 162.653 342.306C163.896 343.341 165.357 343.999 167.255 344.035L168.448 335.042C168.515 334.539 168.771 334.079 169.163 333.757C169.731 333.292 170.35 333.263 170.614 333.268C170.917 333.274 171.181 333.334 171.354 333.382C171.709 333.481 172.081 333.64 172.411 333.793C173.091 334.11 173.97 334.586 174.922 335.108C176.876 336.179 179.327 337.548 181.872 338.703C184.45 339.872 186.924 340.727 188.916 340.887C190.856 341.044 191.855 340.54 192.409 339.547L192.411 339.546C193.111 338.294 193.011 337.128 192.19 335.781C191.298 334.317 189.618 332.798 187.43 331.303C183.026 328.294 177.593 326.022 174.764 324.543C174.456 324.382 174.196 324.144 174.009 323.854L173.934 323.727C173.677 323.255 173.515 322.706 173.535 322.106C173.554 321.51 173.748 320.994 174.001 320.577C174.466 319.81 175.2 319.268 175.789 318.891C176.418 318.49 177.156 318.111 177.86 317.76C178.595 317.394 179.31 317.048 180.025 316.665C181.494 315.876 182.582 315.117 183.163 314.303C183.427 313.932 183.563 313.579 183.6 313.211C183.637 312.841 183.585 312.328 183.279 311.625L183.279 311.624C183.17 311.373 182.892 311.027 182.181 310.66C181.465 310.29 180.463 309.981 179.182 309.741C176.614 309.259 173.38 309.129 170.072 309.039C166.866 308.952 163.523 308.903 161.054 308.522C159.841 308.335 158.585 308.036 157.612 307.458C157.104 307.155 156.576 306.72 156.209 306.092C155.822 305.433 155.692 304.694 155.787 303.957C155.857 303.413 156.147 302.921 156.59 302.597C157.636 301.832 158.748 301.198 159.705 300.642C160.702 300.064 161.53 299.57 162.222 299.02C162.895 298.485 163.363 297.953 163.662 297.35C163.91 296.849 164.083 296.209 164.09 295.332C163.185 294.03 162.096 293.341 160.863 292.988C159.426 292.576 157.69 292.591 155.666 292.882C153.633 293.174 151.548 293.703 149.346 294.199C147.224 294.678 144.974 295.132 142.91 295.126C137.919 295.113 134.327 294.255 131.146 292.431C128.051 290.654 125.482 288.027 122.468 284.854L122.463 284.848C121.434 283.758 118.999 280.974 116.996 278.159C116.002 276.761 115.054 275.272 114.451 273.936C114.152 273.273 113.892 272.551 113.79 271.838C113.693 271.153 113.701 270.183 114.302 269.322L114.302 269.321C115.07 268.215 116.262 267.177 117.491 266.23C118.746 265.262 120.231 264.248 121.685 263.238C124.693 261.148 127.589 259.05 129.333 256.829L129.333 256.828C136.013 248.327 137.426 238.165 136.049 227.694C134.739 217.741 130.925 207.673 126.905 198.834L90.9838 206.605C90.0052 206.816 89.0208 206.271 88.6803 205.33C88.3399 204.388 88.7483 203.338 89.6365 202.876L121.942 186.038L121.946 186.026L97.8572 133.769L58.6292 143.504C58.0693 143.643 57.4764 143.534 57.0032 143.204C56.5893 142.915 56.302 142.483 56.1942 141.995L56.1594 141.783C56.0617 140.897 56.0566 140.006 56.3403 139.224C56.6911 138.256 57.391 137.685 58.1567 137.414C58.6773 137.23 59.3677 137.172 59.4704 137.158C59.6597 137.131 59.7251 137.109 59.7397 137.103L59.7396 137.104C65.0026 133.903 70.5352 131.257 75.9923 128.714C81.0936 126.336 86.1112 124.055 90.9165 121.457L90.8574 120.365L57.4232 59.1045L33.1987 62.1662C32.2439 62.2868 31.3386 61.7098 31.0441 60.7937C30.7497 59.8777 31.1491 58.882 31.995 58.4235L50.9975 48.1307C50.9222 47.9721 50.8371 47.797 50.7399 47.6069C50.1583 46.4696 49.2681 44.9469 48.1382 43.1379C45.8842 39.5294 42.7631 34.9207 39.481 30.2573C36.2018 25.5979 32.7776 20.9051 29.9231 17.134C27.0227 13.3023 24.8174 10.5672 23.9285 9.69583L23.9277 9.69474C19.7474 5.58985 16.4163 3.38101 13.8256 2.48385C11.342 1.6239 9.63991 1.98726 8.32442 2.96064C6.87544 4.03304 5.59583 6.06863 4.57864 9.12498C3.57467 12.1418 2.90388 15.9145 2.50032 20.1545C0.879792 37.1809 3.66316 60.2961 4.44542 67.9526L4.44432 67.9535C5.7847 80.9495 8.21822 93.5261 9.9772 106.65C9.9899 106.666 9.99852 106.676 10.0046 106.682C10.0236 106.699 10.0589 106.727 10.144 106.759C10.3814 106.849 10.7327 106.892 11.4791 106.935C11.4839 106.936 11.489 106.936 11.4938 106.936C12.5497 107.005 14.0614 106.768 16.0215 106.29C17.9599 105.817 20.0708 105.18 22.3624 104.541C24.6069 103.915 26.9747 103.303 29.239 102.956C31.4848 102.611 33.7846 102.499 35.8487 102.982C36.6672 103.173 37.2782 103.856 37.3783 104.691C37.4783 105.526 37.0456 106.334 36.2953 106.714L12.0976 118.948L24.8802 185.015L62.2519 178.564C63.1901 178.402 64.1123 178.924 64.4564 179.812C64.8005 180.7 64.4706 181.708 63.6679 182.22C52.9562 189.061 40.9654 194.222 28.8668 197.89C28.9148 198.581 29.0468 199.535 29.2589 200.71C29.6982 203.144 30.4352 206.309 31.2654 209.584C32.9225 216.12 34.9117 222.935 35.5186 224.88C36.0339 226.517 37.9758 232.46 40.0052 238.033C41.0216 240.825 42.0472 243.487 42.9184 245.462C43.3044 246.337 43.6442 247.035 43.9228 247.537L68.1474 241.788C68.9156 241.606 69.7195 241.893 70.1987 242.521C70.6779 243.148 70.7427 243.999 70.3647 244.692C69.8814 245.578 69.0792 246.327 68.2771 246.943C67.4416 247.584 66.4318 248.212 65.348 248.816C63.18 250.024 60.5326 251.238 57.9973 252.362C55.4212 253.505 52.9849 254.545 51.0943 255.46C50.1506 255.916 49.4088 256.31 48.8908 256.638C48.7124 256.751 48.5815 256.846 48.4883 256.918C48.4925 257.018 48.5136 257.181 48.5835 257.425C48.7368 257.958 49.0658 258.662 49.6006 259.522C50.6659 261.235 52.3454 263.248 54.2804 265.265C56.2021 267.268 58.3137 269.211 60.1903 270.78C62.1059 272.381 63.6582 273.493 64.4818 273.925L64.4807 273.926C73.2805 278.539 81.1883 278.089 91.4416 277.741C92.316 277.712 93.1079 278.254 93.3967 279.08C95.5094 285.125 96.6178 292.248 95.9907 299.101C95.3634 305.956 92.9821 312.68 87.9697 317.706C87.5489 318.129 86.8235 318.687 86.0582 319.26C85.2586 319.858 84.2171 320.616 83.1326 321.419C80.9174 323.061 78.3359 325.031 76.119 327.043C73.8382 329.112 72.1948 331.007 71.5733 332.472C71.2785 333.167 71.3153 333.529 71.3691 333.691C71.41 333.815 71.5601 334.125 72.2634 334.495C73.8116 334.984 75.4434 335.218 77.0914 335.223C77.0681 335.223 77.1414 335.22 77.3691 335.164C77.6011 335.108 77.8859 335.026 78.2408 334.92C78.9074 334.723 79.811 334.444 80.6686 334.271C81.4406 334.116 82.6113 333.945 83.6608 334.313C84.2626 334.523 84.8809 334.93 85.2941 335.627C85.6416 336.213 85.7496 336.846 85.7405 337.43L85.7304 337.677C85.6559 338.725 85.1831 339.673 84.6668 340.451C84.1348 341.252 83.4334 342.052 82.6723 342.831C81.1617 344.376 79.1639 346.08 77.2508 347.763C75.2925 349.486 73.3737 351.229 71.839 352.971C70.2796 354.742 69.2884 356.325 68.955 357.697L68.9548 357.699L68.8696 358.073C68.4932 359.863 68.8543 360.382 68.9395 360.479C69.0845 360.642 69.5672 360.93 70.9568 360.919C72.2663 360.908 73.8354 360.645 75.5694 360.345C77.1965 360.063 79.0423 359.732 80.5762 359.74C81.2164 359.744 81.8162 360.054 82.1896 360.574C82.6843 361.263 82.6892 362.046 82.6791 362.393C82.6661 362.841 82.5866 363.318 82.4907 363.768C82.2973 364.677 81.9609 365.806 81.5832 367.007C80.8068 369.476 79.803 372.426 79.0626 375.386C78.312 378.386 77.9184 381.087 78.2016 383.039C78.3391 383.987 78.6161 384.609 78.9516 385.005C79.2573 385.365 79.7319 385.683 80.5925 385.817C81.9437 386.026 83.1584 385.585 84.3621 384.483C85.6143 383.338 86.7514 381.554 87.7321 379.377C89.6881 375.034 90.7598 369.729 91.092 366.773C91.151 366.249 91.414 365.769 91.8248 365.438C92.7963 364.656 93.9224 364.608 94.8602 364.902C95.6797 365.16 96.3948 365.682 96.952 366.154C98.0445 367.081 99.3218 368.544 100.33 369.587C101.494 370.793 102.389 371.549 103.062 371.812C103.322 371.913 103.412 371.885 103.42 371.882C103.428 371.88 103.616 371.826 103.931 371.39C104.945 369.987 105.348 368.222 105.286 366.038C105.222 363.83 104.69 361.367 103.991 358.708C103.315 356.136 102.454 353.287 101.898 350.664C101.338 348.027 101.003 345.287 101.491 342.78C101.605 342.194 101.975 341.69 102.499 341.405C103.023 341.12 103.647 341.084 104.201 341.307L111.535 344.258L113.163 343.208C113.586 342.322 113.685 340.889 113.226 338.73C112.727 336.378 111.664 333.613 110.356 330.663C109.04 327.694 107.578 324.76 106.246 321.891C104.956 319.113 103.787 316.394 103.262 314.168L103.262 314.167C101.711 307.558 101.013 299.335 102.137 292.522C102.287 291.615 103.035 290.927 103.951 290.854C104.867 290.781 105.716 291.341 106.007 292.213L121.948 339.859C121.962 339.901 121.975 339.943 121.986 339.985C122.362 341.413 122.361 343.096 122.189 344.821C122.015 346.575 121.647 348.533 121.182 350.583C120.261 354.637 118.879 359.383 117.744 363.802C116.583 368.321 115.656 372.575 115.497 376.008C115.33 379.593 116.037 381.47 117.171 382.261L117.173 382.263C117.641 382.59 118.009 382.67 118.314 382.665C118.65 382.66 119.071 382.548 119.604 382.25C120.732 381.62 121.907 380.434 123.201 379.018C123.806 378.356 124.454 377.626 125.059 377.007C125.655 376.396 126.333 375.759 127.05 375.312C127.742 374.88 128.831 374.401 130.067 374.761C131.305 375.121 132.032 376.131 132.472 377.077C132.948 378.1 133.016 379.454 132.999 380.657C132.981 381.96 132.847 383.513 132.672 385.173C132.315 388.558 131.787 392.457 131.554 396.35C131.32 400.255 131.406 403.873 132.175 406.615C132.928 409.301 134.204 410.767 136.172 411.22L136.173 411.221C137.095 411.433 137.648 411.271 138.059 411.017C138.543 410.717 139.035 410.153 139.537 409.248C140.036 408.348 140.452 407.288 140.886 406.136C141.293 405.056 141.744 403.81 142.273 402.817C142.798 401.833 143.437 400.924 144.282 400.372C144.736 400.075 145.283 399.859 145.904 399.834C146.529 399.807 147.086 399.98 147.544 400.238C148.386 400.714 148.953 401.51 149.333 402.167C149.741 402.874 150.09 403.703 150.392 404.54C150.997 406.215 151.505 408.19 151.924 409.848C152.374 411.631 152.686 412.874 152.918 413.421L152.917 413.422C154.496 417.112 156.381 420.159 158.808 422.226Z" stroke="#602930" stroke-width="4" stroke-linejoin="round"/>
</svg>
