<svg width="246" height="365" viewBox="0 0 246 365" fill="none" xmlns="http://www.w3.org/2000/svg">
<path d="M80.2002 104.293C100.213 102.47 126.423 104.022 151.654 109.267C176.922 114.518 200.955 123.42 216.794 136.118C233.825 149.77 241.582 166.654 242.934 184.983C244.291 203.389 239.19 223.354 230.274 243.007C212.437 282.328 179.604 319.8 154.53 339.899C131.444 358.398 112.625 364.968 96.0049 361.46C79.3209 357.938 64.1432 344.125 48.7148 320.052L48.7139 320.051L47.6807 318.428C25.9696 284.095 3.8886 233.491 2.11426 190.014C1.21428 167.961 5.54536 147.965 17.5469 132.813C29.3322 117.935 48.7581 107.423 78.7627 104.43L80.2002 104.293Z" stroke="#602930" stroke-width="4" stroke-linejoin="round"/>
<path d="M156.365 2.93457C157.976 1.58099 160.406 1.6979 163.219 3.30664C165.473 4.59577 167.431 6.57433 168.517 8.37598C150.278 25.1436 142.387 48.4379 138.486 72.0117C138.352 72.8216 138.728 73.6306 139.432 74.0527C140.136 74.4749 141.026 74.4246 141.678 73.9248L162.307 58.0918L202.562 41.8848C202.578 57.6047 195.78 72.0621 184.948 83.4961C184.355 84.1223 184.229 85.0585 184.638 85.8184C185.046 86.578 185.896 86.9907 186.745 86.8418C191.746 85.9649 196.872 85.5571 202.088 85.209C207.273 84.8629 212.575 84.5745 217.776 83.9229L217.779 83.9219C220.983 83.5151 224.302 82.6557 227.403 81.8496C230.426 81.0639 233.223 80.3354 235.75 79.9932C234.941 82.1018 233.139 84.8395 230.541 87.8818C227.736 91.1666 224.15 94.6401 220.31 97.8223C216.467 101.006 212.412 103.861 208.68 105.932C204.883 108.038 201.655 109.198 199.4 109.272L199.387 109.273C199.391 109.273 199.357 109.275 199.273 109.267C199.193 109.259 199.085 109.243 198.947 109.218C198.669 109.167 198.314 109.082 197.879 108.961C197.008 108.718 195.909 108.353 194.63 107.889C192.075 106.961 188.918 105.684 185.645 104.327C179.193 101.654 172.151 98.6093 168.879 97.6025H168.878C142.812 89.5918 115.205 87.2785 88.1094 88.4004C84.9822 88.5297 81.2999 89.2989 77.9102 89.9805C74.4032 90.6856 71.2174 91.2942 68.7344 91.2832H68.7334C66.2948 91.2738 63.1015 89.7551 59.5303 86.7998C56.0303 83.9035 52.4542 79.8656 49.2891 75.3838C46.1269 70.9061 43.4244 66.0548 41.6367 61.5684C40.4555 58.6039 39.7202 55.9061 39.46 53.6338C53.9187 62.1466 70.0453 67.4157 85.5186 72.8438C86.3484 73.1346 87.2712 72.8492 87.792 72.1406C88.3128 71.4317 88.3092 70.4649 87.7832 69.7598C79.2102 58.2671 77.1701 44.7154 78.5947 30.2793V30.2754C78.6751 29.4453 78.82 27.4018 79.248 25.6758C79.3404 25.3035 79.4371 24.9922 79.5293 24.7383C85.9935 31.2424 93.2959 35.866 100.273 40.4863C107.695 45.4007 114.805 50.3438 120.777 57.6514L120.781 57.6562C122.209 59.394 123.227 61.3914 124.523 63.6289C125.763 65.7674 127.236 68.0696 129.476 69.7812C130.048 70.2186 130.811 70.3145 131.474 70.0322C132.136 69.7498 132.597 69.1329 132.678 68.417C134.462 52.6272 138.04 34.8932 144.785 20.7617C145.746 18.7591 147.927 14.882 150.276 11.1553C151.448 9.29759 152.643 7.50566 153.732 6.02441C154.712 4.69237 155.532 3.71376 156.125 3.15039L156.365 2.93457Z" stroke="#602930" stroke-width="4" stroke-linejoin="round"/>
</svg>
