<svg width="219" height="317" viewBox="0 0 219 317" fill="none" xmlns="http://www.w3.org/2000/svg">
<path d="M109.395 238.11C126.251 240.759 142.181 232.977 147.602 216.791L147.603 216.79C150.936 206.848 150.811 196.138 150.01 184.979C149.243 174.291 147.837 163.078 148.576 152.295L148.654 151.252C149.869 136.377 154.748 123.56 158.86 110.751C162.992 97.8805 166.428 84.8364 165.177 69.0195C163.512 47.9914 150.616 26.0657 133.082 13.2246C115.631 0.444218 93.9145 -3.15895 74.1367 11.6572L74.1318 11.6611L73.9443 11.8066C73.4877 12.1758 72.8935 12.7491 72.1787 13.4902C71.372 14.3267 70.5259 15.255 69.6338 16.208C68.7662 17.1347 67.8655 18.0727 67.0381 18.8213C66.6236 19.1963 66.1958 19.5528 65.7744 19.8457C65.3768 20.1221 64.8657 20.4274 64.294 20.585L64.291 20.5859L64.0195 20.6475C63.3798 20.7653 62.707 20.7061 62.1797 20.6338C61.509 20.5418 60.7471 20.3752 59.9522 20.1738C58.3642 19.7716 56.4333 19.1757 54.4922 18.5869C52.5223 17.9894 50.5123 17.3903 48.667 16.9434C46.79 16.4887 45.2366 16.2318 44.1436 16.2441C33.6849 16.3787 24.3545 22.3011 17.1182 30.8711C9.88572 39.4366 4.94793 50.4254 3.25392 60.1338L3.25294 60.1348C-1.81865 89.087 9.15911 109.798 24.4668 129.13C32.1918 138.886 40.8127 148.05 49.1514 157.912C57.4166 167.688 65.2378 177.971 70.9541 189.571L70.9551 189.57C73.2927 194.308 75.4083 199.589 77.5987 204.755C79.8073 209.964 82.1129 215.109 84.8848 219.775C90.4057 229.07 97.6489 236.266 109.394 238.11L109.395 238.11Z" fill="#E73F40" stroke="#602930" stroke-width="4"/>
<path d="M216.874 314.146C216.199 305.773 212.314 296.556 207.731 289.448L207.235 288.69C206.853 288.122 206.312 287.535 205.621 286.871C205.278 286.541 204.917 286.211 204.532 285.858C204.154 285.512 203.753 285.144 203.359 284.767C201.834 283.303 200.071 281.383 199.55 278.78C199.087 276.473 199.472 273.816 200.041 271.241C200.6 268.712 201.485 265.697 202.135 263.052C203.479 257.576 204.049 252.79 201.991 249.258C201.207 248.928 200.555 248.874 199.993 248.966C199.301 249.079 198.564 249.438 197.776 250.115C196.149 251.514 194.647 253.963 193.312 256.867C191.998 259.724 190.951 262.775 190.117 265.204C189.71 266.391 189.337 267.478 189.018 268.271C188.861 268.659 188.684 269.06 188.489 269.394C188.394 269.557 188.251 269.78 188.053 269.991C187.893 270.161 187.457 270.588 186.747 270.696L186.426 270.745L186.105 270.689C175.677 268.889 165.966 265.573 156.812 260.27C155.901 259.743 154.362 258.618 152.679 257.383C150.937 256.105 148.924 254.619 146.937 253.251C145.162 252.03 143.47 250.947 142.06 250.2C149.996 268.684 168.523 277.483 188.283 281.957L189.249 282.176L189.66 283.077C195.729 296.368 203.544 309.014 216.874 314.146Z" fill="#E73F40" stroke="#602930" stroke-width="4"/>
</svg>
