<svg width="339" height="532" viewBox="0 0 339 532" fill="none" xmlns="http://www.w3.org/2000/svg">
<mask id="path-1-inside-1_464_5306" fill="white">
<path d="M112.994 523.087L113.38 522.625C124.45 509.379 135.397 491.166 137.055 483.237C137.54 480.922 138.121 475.006 138.347 470.092C138.961 456.77 136.965 447.35 130.094 431.135C125.271 419.752 119.622 412.711 108.983 404.819C96.637 395.66 84.4978 389.627 60.1771 380.565C35.8256 371.49 16.1745 358.905 8.16 347.25C5.4678 343.336 0.558962 329.514 0.0927449 326.402C-0.971982 319.301 7.25717 315.241 17.93 315.241C24.3054 315.241 36.7137 315.969 44.8002 317.965C60.1771 324.304 75.1192 335.732 90.8165 351.688C105.289 366.399 112.353 374.872 124.031 397.226C128.644 406.056 133.912 417.515 135.608 421.412C139.277 429.843 143.451 442.238 145.417 450.542C146.198 453.842 147.006 456.542 147.21 456.542C148.073 456.542 158.033 446.363 159.586 437.472C161.564 426.151 159.398 413.841 158.475 406.081C158.17 403.52 157.207 387.739 145.417 377.842C139.259 372.672 124.031 373.226 108.983 351.688C103.761 344.212 96.0668 328.785 97.8899 318.72C98.2958 316.48 105.476 318.437 119.418 322.39C145.417 329.762 155.918 349.23 160.935 359.38C167.17 371.995 166.163 393.226 167.17 406.081C167.501 410.304 168.691 418.124 168.819 421.636C168.891 423.591 169.171 425.114 169.442 425.02C170.366 424.701 180.474 411.331 185.62 403.62C196.941 386.659 200.484 378.172 203.219 361.467C205.122 349.849 204.757 345.844 201.118 338.39C199.547 335.175 197.917 332.109 197.494 331.576C197.043 331.011 194.809 330.3 192.111 329.864C189.574 329.454 182.654 327.896 176.734 326.402C164.34 323.274 158.212 322.39 148.918 322.39C143.586 322.39 142.29 322.218 142.29 321.512C142.29 320.191 148.433 317.548 154.344 316.325L159.586 315.241L154.45 312.101C139.032 302.675 123.031 285.17 114.402 268.287C112.225 264.028 108.598 255.56 106.341 249.468C101.703 236.947 94.24 221.437 86.9477 209.161C84.2334 204.593 82.0123 200.646 82.0123 200.392C82.0123 200.138 82.2959 199.93 82.6428 199.93C84.0138 199.93 91.8234 204.306 96.752 207.836C99.6152 209.886 102.063 211.459 102.192 211.33C102.32 211.201 102.054 208.515 101.599 205.359C100.33 196.552 100.541 168.018 101.929 160.854C103.698 151.723 105.87 143.632 109.776 131.623C115.305 114.63 115.639 107.572 111.791 89.1622C110.978 85.2699 110.311 81.8773 110.309 81.6238C110.299 80.2103 112.459 81.7019 116.546 85.9314C122.454 92.0464 124.773 95.5005 126.904 101.358C128.792 106.547 129.315 109.316 129.35 114.314C129.379 118.437 129.749 118.193 134.783 110.739C142.781 98.8968 144.392 90.4409 142.51 70.1968C141.87 63.32 141.567 57.3662 141.837 56.9662C142.343 56.2136 142.952 56.8105 149.077 64.0683C154.212 70.1525 161.355 82.1536 161.357 84.7007C161.358 86.5862 162.467 85.02 164.856 79.7586C168.698 71.3002 170.094 65.0861 170.138 56.2395C170.177 48.49 169.952 46.463 168.327 39.932C167.008 34.6262 165.178 29.8435 161.49 22.0584C157.688 14.0326 156.136 9.21543 156.668 7.09115C157.252 4.76749 161.208 2.40751 166.746 1.08199C172.232 -0.231838 175.399 -0.345682 176.788 0.721382C177.324 1.13369 178.057 2.02475 178.415 2.70167C179.487 4.7281 182.059 16.456 183.206 24.5476C183.983 30.033 184.149 31.0595 184.797 34.3936C187.882 50.2654 193.622 63.2935 201.83 73.0534C204.445 76.1635 214.176 84.5216 214.641 84.057C214.761 83.937 214.281 79.2903 213.575 73.731C211.416 56.7392 211.923 39.6612 214.653 37.3942C215.906 36.3542 216.307 36.9733 218.89 43.9319C225.706 62.3003 232.277 74.126 242.323 86.105C246.603 91.2095 259.726 104.18 260.165 103.74C260.276 103.63 259.279 101.065 257.95 98.0427C256.621 95.0199 254.799 90.0545 253.9 87.0083C251.242 77.9925 251.117 68.2393 253.659 68.2393C253.937 68.2393 255.747 71.0775 257.683 74.547C259.618 78.0158 263.599 84.4582 266.53 88.8625C273.653 99.5663 278.324 107.587 281.963 115.362C285.107 122.082 291.736 139.861 294.451 148.854C296.232 154.755 299.749 169.914 299.749 171.689C299.749 173.447 300.789 173.085 301.266 171.161C301.496 170.231 303.109 166.567 304.85 163.02C309.422 153.706 317.139 143.816 318.957 144.941C319.7 145.4 319.401 147.114 316.989 156.237C314.308 166.377 312.228 181.635 311.45 196.873C310.137 222.593 308.075 237.47 304.115 249.792C303.139 252.829 302.526 255.314 302.753 255.314C302.98 255.314 303.714 254.931 304.383 254.462C305.052 253.993 308.008 252.758 310.952 251.718C319.663 248.643 331.118 247.689 331.118 250.041C331.118 250.495 329.25 251.977 326.967 253.335C317.222 259.129 308.771 267.097 295.69 282.826C280.677 300.878 270.049 310.625 257.121 318.199C248.696 323.136 236.246 327.747 225.907 329.762L222.491 330.427L218.973 341.639C217.038 347.806 215.312 353.959 215.139 355.313C213.867 365.211 210.424 380.101 207.435 388.631C205.419 394.382 198.218 409.505 192.464 420.068C190.579 423.531 189.036 426.649 189.036 426.999C189.036 427.95 198.39 423.071 205.028 418.657C215.256 411.855 219.633 407.262 228.134 394.402C237.225 380.649 241.812 374.875 249.424 367.6C262.076 355.508 277.287 347.5 292.603 344.867C299.286 343.718 310.15 343.687 316.375 344.798C324.901 346.32 338.159 352.51 338.857 355.296C339.723 358.745 336.7 363.442 328.496 371.397C320.972 378.694 316.86 381.893 308.668 386.827C292.269 396.702 277.433 402.177 256.561 406.056C234.684 410.121 234.468 410.209 215.48 422.827C207.532 428.108 197.016 434.699 192.111 437.472C184.219 441.936 182.569 443.165 177.775 448.145C171.823 454.329 169.44 458.551 162.27 475.619C142.607 522.426 138.2 530.795 132.724 531.724C131.726 531.892 125.79 531.989 119.532 531.937L118.878 531.932L118.419 531.928L118.418 531.928C111.796 531.877 108.616 531.852 108.084 530.652C107.592 529.543 109.36 527.43 112.761 523.366L112.967 523.119L112.986 523.097L112.994 523.087Z"/>
</mask>
<path d="M112.994 523.087L113.38 522.625C124.45 509.379 135.397 491.166 137.055 483.237C137.54 480.922 138.121 475.006 138.347 470.092C138.961 456.77 136.965 447.35 130.094 431.135C125.271 419.752 119.622 412.711 108.983 404.819C96.637 395.66 84.4978 389.627 60.1771 380.565C35.8256 371.49 16.1745 358.905 8.16 347.25C5.4678 343.336 0.558962 329.514 0.0927449 326.402C-0.971982 319.301 7.25717 315.241 17.93 315.241C24.3054 315.241 36.7137 315.969 44.8002 317.965C60.1771 324.304 75.1192 335.732 90.8165 351.688C105.289 366.399 112.353 374.872 124.031 397.226C128.644 406.056 133.912 417.515 135.608 421.412C139.277 429.843 143.451 442.238 145.417 450.542C146.198 453.842 147.006 456.542 147.21 456.542C148.073 456.542 158.033 446.363 159.586 437.472C161.564 426.151 159.398 413.841 158.475 406.081C158.17 403.52 157.207 387.739 145.417 377.842C139.259 372.672 124.031 373.226 108.983 351.688C103.761 344.212 96.0668 328.785 97.8899 318.72C98.2958 316.48 105.476 318.437 119.418 322.39C145.417 329.762 155.918 349.23 160.935 359.38C167.17 371.995 166.163 393.226 167.17 406.081C167.501 410.304 168.691 418.124 168.819 421.636C168.891 423.591 169.171 425.114 169.442 425.02C170.366 424.701 180.474 411.331 185.62 403.62C196.941 386.659 200.484 378.172 203.219 361.467C205.122 349.849 204.757 345.844 201.118 338.39C199.547 335.175 197.917 332.109 197.494 331.576C197.043 331.011 194.809 330.3 192.111 329.864C189.574 329.454 182.654 327.896 176.734 326.402C164.34 323.274 158.212 322.39 148.918 322.39C143.586 322.39 142.29 322.218 142.29 321.512C142.29 320.191 148.433 317.548 154.344 316.325L159.586 315.241L154.45 312.101C139.032 302.675 123.031 285.17 114.402 268.287C112.225 264.028 108.598 255.56 106.341 249.468C101.703 236.947 94.24 221.437 86.9477 209.161C84.2334 204.593 82.0123 200.646 82.0123 200.392C82.0123 200.138 82.2959 199.93 82.6428 199.93C84.0138 199.93 91.8234 204.306 96.752 207.836C99.6152 209.886 102.063 211.459 102.192 211.33C102.32 211.201 102.054 208.515 101.599 205.359C100.33 196.552 100.541 168.018 101.929 160.854C103.698 151.723 105.87 143.632 109.776 131.623C115.305 114.63 115.639 107.572 111.791 89.1622C110.978 85.2699 110.311 81.8773 110.309 81.6238C110.299 80.2103 112.459 81.7019 116.546 85.9314C122.454 92.0464 124.773 95.5005 126.904 101.358C128.792 106.547 129.315 109.316 129.35 114.314C129.379 118.437 129.749 118.193 134.783 110.739C142.781 98.8968 144.392 90.4409 142.51 70.1968C141.87 63.32 141.567 57.3662 141.837 56.9662C142.343 56.2136 142.952 56.8105 149.077 64.0683C154.212 70.1525 161.355 82.1536 161.357 84.7007C161.358 86.5862 162.467 85.02 164.856 79.7586C168.698 71.3002 170.094 65.0861 170.138 56.2395C170.177 48.49 169.952 46.463 168.327 39.932C167.008 34.6262 165.178 29.8435 161.49 22.0584C157.688 14.0326 156.136 9.21543 156.668 7.09115C157.252 4.76749 161.208 2.40751 166.746 1.08199C172.232 -0.231838 175.399 -0.345682 176.788 0.721382C177.324 1.13369 178.057 2.02475 178.415 2.70167C179.487 4.7281 182.059 16.456 183.206 24.5476C183.983 30.033 184.149 31.0595 184.797 34.3936C187.882 50.2654 193.622 63.2935 201.83 73.0534C204.445 76.1635 214.176 84.5216 214.641 84.057C214.761 83.937 214.281 79.2903 213.575 73.731C211.416 56.7392 211.923 39.6612 214.653 37.3942C215.906 36.3542 216.307 36.9733 218.89 43.9319C225.706 62.3003 232.277 74.126 242.323 86.105C246.603 91.2095 259.726 104.18 260.165 103.74C260.276 103.63 259.279 101.065 257.95 98.0427C256.621 95.0199 254.799 90.0545 253.9 87.0083C251.242 77.9925 251.117 68.2393 253.659 68.2393C253.937 68.2393 255.747 71.0775 257.683 74.547C259.618 78.0158 263.599 84.4582 266.53 88.8625C273.653 99.5663 278.324 107.587 281.963 115.362C285.107 122.082 291.736 139.861 294.451 148.854C296.232 154.755 299.749 169.914 299.749 171.689C299.749 173.447 300.789 173.085 301.266 171.161C301.496 170.231 303.109 166.567 304.85 163.02C309.422 153.706 317.139 143.816 318.957 144.941C319.7 145.4 319.401 147.114 316.989 156.237C314.308 166.377 312.228 181.635 311.45 196.873C310.137 222.593 308.075 237.47 304.115 249.792C303.139 252.829 302.526 255.314 302.753 255.314C302.98 255.314 303.714 254.931 304.383 254.462C305.052 253.993 308.008 252.758 310.952 251.718C319.663 248.643 331.118 247.689 331.118 250.041C331.118 250.495 329.25 251.977 326.967 253.335C317.222 259.129 308.771 267.097 295.69 282.826C280.677 300.878 270.049 310.625 257.121 318.199C248.696 323.136 236.246 327.747 225.907 329.762L222.491 330.427L218.973 341.639C217.038 347.806 215.312 353.959 215.139 355.313C213.867 365.211 210.424 380.101 207.435 388.631C205.419 394.382 198.218 409.505 192.464 420.068C190.579 423.531 189.036 426.649 189.036 426.999C189.036 427.95 198.39 423.071 205.028 418.657C215.256 411.855 219.633 407.262 228.134 394.402C237.225 380.649 241.812 374.875 249.424 367.6C262.076 355.508 277.287 347.5 292.603 344.867C299.286 343.718 310.15 343.687 316.375 344.798C324.901 346.32 338.159 352.51 338.857 355.296C339.723 358.745 336.7 363.442 328.496 371.397C320.972 378.694 316.86 381.893 308.668 386.827C292.269 396.702 277.433 402.177 256.561 406.056C234.684 410.121 234.468 410.209 215.48 422.827C207.532 428.108 197.016 434.699 192.111 437.472C184.219 441.936 182.569 443.165 177.775 448.145C171.823 454.329 169.44 458.551 162.27 475.619C142.607 522.426 138.2 530.795 132.724 531.724C131.726 531.892 125.79 531.989 119.532 531.937L118.878 531.932L118.419 531.928L118.418 531.928C111.796 531.877 108.616 531.852 108.084 530.652C107.592 529.543 109.36 527.43 112.761 523.366L112.967 523.119L112.986 523.097L112.994 523.087Z" fill="#E73F40"/>
<path d="M112.761 523.366L114.294 524.65L114.221 524.736L112.688 523.452L111.154 522.169L111.227 522.082L112.761 523.366ZM113.38 522.625L116.449 525.19L116.448 525.191L113.38 522.625ZM112.994 523.087L109.924 520.522L109.925 520.521L112.994 523.087ZM112.986 523.097L109.916 520.532L109.916 520.532L112.986 523.097ZM112.967 523.119L116.037 525.684L116.035 525.686L112.967 523.119ZM112.761 523.366L115.828 525.933L115.828 525.933L112.761 523.366ZM108.084 530.652L104.428 532.274L104.428 532.274L108.084 530.652ZM118.418 531.928L118.418 535.928C118.408 535.928 118.398 535.928 118.387 535.928L118.418 531.928ZM118.419 531.928L118.419 527.928C118.43 527.928 118.44 527.928 118.451 527.928L118.419 531.928ZM118.878 531.932L118.909 527.932L118.91 527.932L118.878 531.932ZM119.532 531.937L119.564 527.937L119.565 527.937L119.532 531.937ZM132.724 531.724L133.392 535.667L133.39 535.668L132.724 531.724ZM162.27 475.619L165.958 477.168L165.958 477.168L162.27 475.619ZM177.775 448.145L180.657 450.919L180.657 450.919L177.775 448.145ZM192.111 437.472L190.142 433.991L190.142 433.99L192.111 437.472ZM215.48 422.827L213.266 419.495L213.266 419.495L215.48 422.827ZM256.561 406.056L257.292 409.989L257.292 409.989L256.561 406.056ZM308.668 386.827L306.604 383.4L306.604 383.4L308.668 386.827ZM328.496 371.397L325.712 368.526L325.712 368.526L328.496 371.397ZM338.857 355.296L334.977 356.269L334.977 356.269L338.857 355.296ZM316.375 344.798L317.078 340.86L317.078 340.86L316.375 344.798ZM292.603 344.867L293.281 348.81L293.28 348.81L292.603 344.867ZM249.424 367.6L252.188 370.492L252.188 370.492L249.424 367.6ZM228.134 394.402L224.797 392.196L224.797 392.196L228.134 394.402ZM205.028 418.657L202.813 415.326L202.813 415.326L205.028 418.657ZM192.464 420.068L188.951 418.156L188.951 418.155L192.464 420.068ZM207.435 388.631L211.21 389.954L211.21 389.954L207.435 388.631ZM215.139 355.313L219.106 355.821L219.106 355.823L215.139 355.313ZM218.973 341.639L222.789 342.837L222.789 342.837L218.973 341.639ZM222.491 330.427L218.674 329.229C219.114 327.829 220.285 326.781 221.726 326.501L222.491 330.427ZM225.907 329.762L226.672 333.688L226.672 333.688L225.907 329.762ZM257.121 318.199L255.099 314.748L255.099 314.748L257.121 318.199ZM295.69 282.826L298.765 285.384L298.765 285.384L295.69 282.826ZM326.967 253.335L329.011 256.773L329.011 256.773L326.967 253.335ZM310.952 251.718L309.62 247.947L309.621 247.947L310.952 251.718ZM304.383 254.462L302.087 251.186L302.087 251.186L304.383 254.462ZM304.115 249.792L307.923 251.016L307.923 251.016L304.115 249.792ZM311.45 196.873L307.455 196.67L307.455 196.669L311.45 196.873ZM316.989 156.237L313.122 155.214L313.122 155.214L316.989 156.237ZM318.957 144.941L316.855 148.343L316.853 148.343L318.957 144.941ZM304.85 163.02L308.441 164.782L308.441 164.782L304.85 163.02ZM301.266 171.161L297.383 170.199L297.383 170.199L301.266 171.161ZM294.451 148.854L298.28 147.698L298.28 147.698L294.451 148.854ZM281.963 115.362L285.586 113.667L285.586 113.667L281.963 115.362ZM266.53 88.8625L269.86 86.6461L269.861 86.6465L266.53 88.8625ZM257.683 74.547L254.189 76.4956L254.189 76.4953L257.683 74.547ZM253.9 87.0083L250.064 88.1401L250.064 88.1396L253.9 87.0083ZM257.95 98.0427L254.288 99.6528L254.288 99.6522L257.95 98.0427ZM260.165 103.74L257.336 100.913L257.344 100.905L260.165 103.74ZM242.323 86.105L245.388 83.5347L245.388 83.5348L242.323 86.105ZM218.89 43.9319L222.64 42.5401L222.64 42.5403L218.89 43.9319ZM214.653 37.3942L212.098 34.3167L212.098 34.3163L214.653 37.3942ZM213.575 73.731L217.543 73.2266L217.543 73.227L213.575 73.731ZM214.641 84.057L211.812 81.2292L211.819 81.222L214.641 84.057ZM201.83 73.0534L204.891 70.479L204.891 70.479L201.83 73.0534ZM184.797 34.3936L180.871 35.1568L180.871 35.1564L184.797 34.3936ZM183.206 24.5476L187.166 23.9861L187.166 23.9862L183.206 24.5476ZM178.415 2.70167L174.879 4.57221L174.879 4.5716L178.415 2.70167ZM176.788 0.721382L179.225 -2.45052L179.225 -2.44992L176.788 0.721382ZM166.746 1.08199L167.678 4.97199L167.677 4.9721L166.746 1.08199ZM156.668 7.09115L152.789 6.11829L152.789 6.11758L156.668 7.09115ZM161.49 22.0584L165.105 20.3457L165.105 20.3459L161.49 22.0584ZM168.327 39.932L164.446 40.8975L164.445 40.8972L168.327 39.932ZM170.138 56.2395L174.138 56.2595L174.138 56.2595L170.138 56.2395ZM164.856 79.7586L161.214 78.1045L161.214 78.1044L164.856 79.7586ZM161.357 84.7007L157.357 84.7033L157.357 84.7026L161.357 84.7007ZM149.077 64.0683L146.02 66.6483L146.02 66.6482L149.077 64.0683ZM141.837 56.9662L145.156 59.1986L145.154 59.2008L141.837 56.9662ZM142.51 70.1968L146.493 69.8264L146.493 69.8266L142.51 70.1968ZM134.783 110.739L131.469 108.5L131.469 108.5L134.783 110.739ZM129.35 114.314L133.35 114.286L133.35 114.286L129.35 114.314ZM126.904 101.358L130.663 99.9899L130.663 99.9902L126.904 101.358ZM116.546 85.9314L119.422 83.152L119.423 83.1522L116.546 85.9314ZM110.309 81.6238L106.309 81.6529L106.309 81.6516L110.309 81.6238ZM111.791 89.1622L115.707 88.3436L115.707 88.3438L111.791 89.1622ZM109.776 131.623L105.972 130.386L105.972 130.386L109.776 131.623ZM101.929 160.854L98.0021 160.093L98.0021 160.093L101.929 160.854ZM101.599 205.359L97.6398 205.93L97.6397 205.929L101.599 205.359ZM102.192 211.33L99.3561 208.509L99.3626 208.502L102.192 211.33ZM96.752 207.836L94.4231 211.088L94.423 211.088L96.752 207.836ZM86.9477 209.161L90.3865 207.118L90.3866 207.118L86.9477 209.161ZM106.341 249.468L110.092 248.078L110.092 248.078L106.341 249.468ZM114.402 268.287L117.963 266.466L117.963 266.466L114.402 268.287ZM154.45 312.101L156.536 308.688L156.536 308.688L154.45 312.101ZM159.586 315.241L161.672 311.829C163.073 312.685 163.808 314.31 163.526 315.928C163.245 317.545 162.003 318.826 160.396 319.158L159.586 315.241ZM154.344 316.325L153.534 312.408L153.534 312.408L154.344 316.325ZM176.734 326.402L177.713 322.523L177.713 322.523L176.734 326.402ZM192.111 329.864L191.473 333.813L191.473 333.813L192.111 329.864ZM197.494 331.576L200.623 329.085L200.625 329.087L197.494 331.576ZM201.118 338.39L204.712 336.635L204.712 336.635L201.118 338.39ZM203.219 361.467L199.272 360.82L199.272 360.82L203.219 361.467ZM185.62 403.62L182.293 401.399L182.293 401.399L185.62 403.62ZM169.442 425.02L170.748 428.801L170.746 428.802L169.442 425.02ZM168.819 421.636L164.822 421.783L164.822 421.782L168.819 421.636ZM167.17 406.081L171.158 405.769L171.158 405.769L167.17 406.081ZM108.983 351.688L112.262 349.397L112.262 349.397L108.983 351.688ZM145.417 377.842L147.989 374.778L147.989 374.778L145.417 377.842ZM158.475 406.081L162.447 405.609L162.447 405.609L158.475 406.081ZM159.586 437.472L155.645 436.784L155.645 436.784L159.586 437.472ZM145.417 450.542L141.524 451.464L141.524 451.464L145.417 450.542ZM135.608 421.412L139.276 419.815L139.276 419.816L135.608 421.412ZM124.031 397.226L120.485 399.078L120.485 399.078L124.031 397.226ZM90.8165 351.688L87.9651 354.493L87.9651 354.493L90.8165 351.688ZM44.8002 317.965L45.7591 314.082C45.9519 314.13 46.1409 314.192 46.3245 314.267L44.8002 317.965ZM0.0927449 326.402L4.04852 325.808L4.04862 325.809L0.0927449 326.402ZM8.16 347.25L11.4558 344.983L11.4559 344.984L8.16 347.25ZM60.1771 380.565L58.7804 384.313L58.7803 384.313L60.1771 380.565ZM108.983 404.819L106.6 408.032L106.6 408.032L108.983 404.819ZM130.094 431.135L133.777 429.574L133.777 429.574L130.094 431.135ZM138.347 470.092L134.351 469.908L134.351 469.908L138.347 470.092ZM137.055 483.237L133.14 482.419L133.14 482.418L137.055 483.237ZM160.935 359.38L157.349 361.153L157.349 361.153L160.935 359.38ZM119.418 322.39L120.509 318.542L120.509 318.542L119.418 322.39ZM97.8899 318.72L101.826 319.433L101.826 319.433L97.8899 318.72ZM113.38 522.625L116.448 525.191L116.062 525.653L112.994 523.087L109.925 520.521L110.311 520.059L113.38 522.625ZM112.994 523.087L116.064 525.651L116.055 525.661L112.986 523.097L109.916 520.532L109.924 520.522L112.994 523.087ZM112.986 523.097L116.056 525.661L116.037 525.684L112.967 523.119L109.897 520.555L109.916 520.532L112.986 523.097ZM112.967 523.119L116.035 525.686L115.828 525.933L112.761 523.366L109.693 520.799L109.899 520.552L112.967 523.119ZM112.761 523.366L115.828 525.933C114.069 528.035 112.931 529.402 112.261 530.379C111.924 530.871 111.871 531.032 111.894 530.967C111.915 530.908 112.206 530.081 111.74 529.03L108.084 530.652L104.428 532.274C103.715 530.668 104.043 529.161 104.363 528.267C104.686 527.367 105.195 526.538 105.663 525.855C106.604 524.482 108.051 522.761 109.693 520.799L112.761 523.366ZM108.084 530.652L111.74 529.03C111.494 528.476 111.137 528.1 110.843 527.875C110.574 527.668 110.369 527.595 110.35 527.588C110.35 527.588 110.606 527.668 111.351 527.739C112.82 527.881 115.05 527.902 118.449 527.928L118.418 531.928L118.387 535.928C115.164 535.903 112.494 535.886 110.584 535.702C109.639 535.612 108.587 535.457 107.634 535.113C106.711 534.78 105.202 534.021 104.428 532.274L108.084 530.652ZM118.418 531.928L118.418 527.928L118.419 527.928L118.419 531.928L118.419 535.928L118.418 535.928L118.418 531.928ZM118.419 531.928L118.451 527.928L118.909 527.932L118.878 531.932L118.846 535.932L118.388 535.928L118.419 531.928ZM118.878 531.932L118.91 527.932L119.564 527.937L119.532 531.937L119.5 535.937L118.846 535.932L118.878 531.932ZM119.532 531.937L119.565 527.937C122.667 527.963 125.682 527.952 128.036 527.913C129.215 527.894 130.211 527.869 130.961 527.839C131.822 527.804 132.108 527.771 132.057 527.78L132.724 531.724L133.39 535.668C132.84 535.761 132.01 535.803 131.283 535.832C130.444 535.866 129.378 535.893 128.166 535.912C125.737 535.952 122.656 535.963 119.499 535.937L119.532 531.937ZM132.724 531.724L132.055 527.78C132.338 527.732 132.879 527.613 133.92 526.463C135.064 525.199 136.555 522.965 138.637 519.012C142.783 511.139 148.729 497.524 158.582 474.07L162.27 475.619L165.958 477.168C156.147 500.521 150.058 514.494 145.716 522.739C143.553 526.846 141.687 529.803 139.851 531.832C137.91 533.976 135.847 535.251 133.392 535.667L132.724 531.724ZM162.27 475.619L158.582 474.07C165.774 456.951 168.39 452.128 174.893 445.371L177.775 448.145L180.657 450.919C175.256 456.531 173.106 460.152 165.958 477.168L162.27 475.619ZM177.775 448.145L174.893 445.371C177.327 442.843 179.122 441.097 181.392 439.406C183.617 437.75 186.207 436.216 190.142 433.991L192.111 437.472L194.08 440.954C190.123 443.192 187.942 444.504 186.17 445.823C184.444 447.108 183.018 448.466 180.657 450.919L177.775 448.145ZM192.111 437.472L190.142 433.99C194.926 431.285 205.352 424.754 213.266 419.495L215.48 422.827L217.693 426.158C209.713 431.462 199.106 438.112 194.08 440.954L192.111 437.472ZM215.48 422.827L213.266 419.495C222.634 413.27 227.809 409.824 233.425 407.531C239.05 405.235 245.037 404.129 255.83 402.123L256.561 406.056L257.292 409.989C246.207 412.049 241.147 413.019 236.449 414.938C231.74 416.86 227.313 419.766 217.693 426.159L215.48 422.827ZM256.561 406.056L255.83 402.123C276.283 398.323 290.659 393.003 306.604 383.4L308.668 386.827L310.732 390.253C293.88 400.402 278.584 406.032 257.292 409.989L256.561 406.056ZM308.668 386.827L306.604 383.4C314.512 378.638 318.385 375.631 325.712 368.526L328.496 371.397L331.281 374.269C323.559 381.757 319.208 385.149 310.732 390.253L308.668 386.827ZM328.496 371.397L325.712 368.526C329.759 364.601 332.296 361.695 333.714 359.492C335.164 357.239 335.009 356.396 334.977 356.269L338.857 355.296L342.737 354.322C343.571 357.644 342.337 360.875 340.442 363.821C338.513 366.818 335.438 370.238 331.281 374.269L328.496 371.397ZM338.857 355.296L334.977 356.269C335.167 357.024 335.548 357.266 335.235 356.959C335.028 356.755 334.636 356.432 334.01 356.009C332.769 355.171 330.982 354.189 328.859 353.198C324.588 351.203 319.484 349.416 315.672 348.736L316.375 344.798L317.078 340.86C321.792 341.702 327.58 343.771 332.244 345.949C334.588 347.043 336.779 348.226 338.487 349.38C339.335 349.952 340.161 350.582 340.845 351.256C341.425 351.826 342.373 352.871 342.737 354.322L338.857 355.296ZM316.375 344.798L315.672 348.736C309.935 347.712 299.54 347.733 293.281 348.81L292.603 344.867L291.925 340.925C299.032 339.703 310.364 339.662 317.078 340.86L316.375 344.798ZM292.603 344.867L293.28 348.81C278.845 351.291 264.34 358.878 252.188 370.492L249.424 367.6L246.661 364.708C259.812 352.139 275.728 343.709 291.925 340.925L292.603 344.867ZM249.424 367.6L252.188 370.492C244.877 377.479 240.478 382.981 231.47 396.607L228.134 394.402L224.797 392.196C233.972 378.317 238.747 372.271 246.661 364.708L249.424 367.6ZM228.134 394.402L231.47 396.607C227.183 403.094 223.808 407.693 220.124 411.56C216.409 415.461 212.493 418.496 207.242 421.987L205.028 418.657L202.813 415.326C207.79 412.016 211.177 409.354 214.332 406.042C217.519 402.697 220.583 398.57 224.797 392.196L228.134 394.402ZM205.028 418.657L207.243 421.987C203.794 424.281 199.673 426.675 196.392 428.386C194.767 429.234 193.252 429.964 192.088 430.431C191.553 430.645 190.864 430.898 190.196 431.024C189.948 431.071 189.178 431.214 188.282 431.017C187.788 430.908 186.935 430.626 186.185 429.85C185.351 428.986 185.036 427.918 185.036 426.999L189.036 426.999L193.036 426.999C193.036 426.139 192.738 425.119 191.94 424.292C191.226 423.553 190.427 423.297 190.003 423.204C189.565 423.108 189.22 423.115 189.063 423.123C188.884 423.133 188.758 423.155 188.705 423.165C188.574 423.189 188.668 423.183 189.114 423.004C189.911 422.685 191.15 422.098 192.692 421.293C195.749 419.699 199.623 417.447 202.813 415.326L205.028 418.657ZM189.036 426.999L185.036 426.999C185.036 426.41 185.169 425.942 185.196 425.843C185.248 425.654 185.306 425.487 185.349 425.369C185.437 425.128 185.543 424.875 185.645 424.644C185.854 424.169 186.135 423.578 186.458 422.927C187.107 421.614 187.989 419.922 188.951 418.156L192.464 420.068L195.977 421.981C195.053 423.678 194.221 425.276 193.628 426.475C193.329 427.08 193.107 427.55 192.967 427.867C192.934 427.943 192.908 428.004 192.889 428.049C192.869 428.097 192.862 428.117 192.862 428.116C192.863 428.115 192.868 428.102 192.875 428.08C192.882 428.058 192.895 428.017 192.911 427.959C192.915 427.946 193.036 427.544 193.036 426.999L189.036 426.999ZM192.464 420.068L188.951 418.155C194.681 407.636 201.755 392.744 203.66 387.308L207.435 388.631L211.21 389.954C209.084 396.021 201.755 411.374 195.977 421.982L192.464 420.068ZM207.435 388.631L203.66 387.308C206.548 379.068 209.931 364.453 211.171 354.803L215.139 355.313L219.106 355.823C217.802 365.969 214.301 381.135 211.21 389.954L207.435 388.631ZM215.139 355.313L211.171 354.804C211.304 353.769 211.881 351.563 212.544 349.201C213.251 346.679 214.178 343.559 215.156 340.442L218.973 341.639L222.789 342.837C221.832 345.886 220.929 348.926 220.247 351.361C219.905 352.579 219.623 353.63 219.419 354.444C219.317 354.852 219.238 355.185 219.182 355.441C219.121 355.722 219.105 355.829 219.106 355.821L215.139 355.313ZM218.973 341.639L215.156 340.442L218.674 329.229L222.491 330.427L226.307 331.624L222.789 342.837L218.973 341.639ZM222.491 330.427L221.726 326.501L225.142 325.835L225.907 329.762L226.672 333.688L223.255 334.353L222.491 330.427ZM225.907 329.762L225.142 325.836C235.073 323.9 247.092 319.439 255.099 314.748L257.121 318.199L259.143 321.651C250.299 326.833 237.419 331.594 226.672 333.688L225.907 329.762ZM257.121 318.199L255.099 314.748C267.466 307.503 277.75 298.142 292.615 280.269L295.69 282.826L298.765 285.384C283.605 303.613 272.632 313.748 259.143 321.651L257.121 318.199ZM295.69 282.826L292.614 280.269C305.792 264.423 314.59 256.04 324.922 249.897L326.967 253.335L329.011 256.773C319.854 262.218 311.751 269.77 298.765 285.384L295.69 282.826ZM326.967 253.335L324.922 249.897C325.944 249.289 326.829 248.679 327.413 248.215C327.554 248.103 327.666 248.009 327.751 247.934C327.792 247.897 327.824 247.868 327.846 247.846C327.869 247.824 327.879 247.814 327.878 247.815C327.878 247.815 327.859 247.835 327.827 247.874C327.797 247.911 327.738 247.987 327.666 248.098C327.599 248.203 327.483 248.398 327.375 248.671C327.274 248.929 327.118 249.41 327.118 250.041L331.118 250.041L335.118 250.041C335.118 251.287 334.557 252.172 334.401 252.416C334.161 252.79 333.897 253.092 333.704 253.297C333.305 253.721 332.834 254.127 332.385 254.482C331.464 255.213 330.273 256.023 329.011 256.773L326.967 253.335ZM331.118 250.041L327.118 250.041C327.118 251.705 328.242 252.561 328.591 252.765C328.887 252.938 328.971 252.894 328.562 252.828C327.816 252.709 326.481 252.677 324.634 252.831C321.005 253.133 316.301 254.072 312.284 255.49L310.952 251.718L309.621 247.947C314.315 246.289 319.694 245.214 323.97 244.858C326.076 244.683 328.149 244.661 329.823 244.929C330.624 245.056 331.671 245.299 332.627 245.858C333.637 246.448 335.118 247.788 335.118 250.041L331.118 250.041ZM310.952 251.718L312.285 255.49C310.877 255.987 309.472 256.529 308.356 256.995C307.796 257.229 307.333 257.433 306.992 257.595C306.57 257.795 306.539 257.835 306.678 257.738L304.383 254.462L302.087 251.186C302.561 250.854 303.15 250.563 303.563 250.367C304.056 250.134 304.642 249.876 305.273 249.613C306.538 249.085 308.083 248.49 309.62 247.947L310.952 251.718ZM304.383 254.462L306.678 257.738C306.215 258.062 305.718 258.367 305.256 258.608C305.029 258.727 304.754 258.86 304.46 258.974C304.326 259.027 303.624 259.314 302.753 259.314L302.753 255.314L302.753 251.314C302.498 251.314 302.293 251.34 302.161 251.361C302.024 251.383 301.914 251.41 301.839 251.429C301.693 251.468 301.594 251.505 301.559 251.519C301.487 251.547 301.48 251.555 301.549 251.519C301.678 251.452 301.881 251.33 302.087 251.186L304.383 254.462ZM302.753 255.314L302.753 259.314C300.37 259.314 299.298 257.486 299.017 256.799C298.744 256.129 298.717 255.544 298.71 255.367C298.691 254.908 298.746 254.499 298.774 254.303C298.843 253.827 298.966 253.272 299.099 252.734C299.374 251.617 299.8 250.144 300.307 248.568L304.115 249.792L307.923 251.016C307.453 252.477 307.084 253.765 306.866 254.65C306.752 255.112 306.703 255.368 306.691 255.454C306.679 255.538 306.716 255.347 306.703 255.036C306.698 254.932 306.681 254.403 306.423 253.772C306.285 253.434 305.987 252.839 305.371 252.299C304.677 251.691 303.755 251.314 302.753 251.314L302.753 255.314ZM304.115 249.792L300.306 248.568C304.101 236.761 306.147 222.313 307.455 196.67L311.45 196.873L315.445 197.077C314.128 222.872 312.049 238.179 307.923 251.016L304.115 249.792ZM311.45 196.873L307.455 196.669C308.242 181.267 310.346 165.713 313.122 155.214L316.989 156.237L320.856 157.26C318.27 167.041 316.215 182.002 315.445 197.077L311.45 196.873ZM316.989 156.237L313.122 155.214C314.342 150.598 314.968 148.074 315.216 146.653C315.348 145.896 315.301 145.817 315.324 146.036C315.369 146.462 315.662 147.607 316.855 148.343L318.957 144.941L321.06 141.538C322.623 142.504 323.158 144.035 323.28 145.197C323.381 146.152 323.248 147.157 323.097 148.027C322.778 149.859 322.048 152.753 320.856 157.26L316.989 156.237ZM318.957 144.941L316.853 148.343C317.618 148.816 318.379 148.884 318.877 148.843C319.334 148.805 319.622 148.677 319.686 148.647C319.798 148.596 319.663 148.643 319.255 148.998C318.483 149.67 317.386 150.865 316.09 152.527C313.526 155.813 310.602 160.38 308.441 164.782L304.85 163.02L301.259 161.257C303.67 156.345 306.891 151.311 309.783 147.605C311.214 145.771 312.673 144.122 314.002 142.964C314.645 142.405 315.447 141.791 316.346 141.378C317.065 141.048 319.056 140.299 321.061 141.538L318.957 144.941ZM304.85 163.02L308.441 164.782C307.593 166.511 306.778 168.263 306.152 169.683C305.839 170.395 305.582 171.004 305.395 171.474C305.179 172.017 305.132 172.188 305.148 172.124L301.266 171.161L297.383 170.199C297.599 169.327 298.227 167.83 298.831 166.46C299.504 164.929 300.367 163.076 301.26 161.257L304.85 163.02ZM301.266 171.161L305.148 172.123C304.961 172.879 304.68 173.65 304.267 174.345C303.953 174.874 303.159 176.056 301.643 176.583C300.745 176.896 299.604 176.957 298.477 176.456C297.417 175.984 296.789 175.201 296.448 174.606C295.825 173.518 295.749 172.372 295.749 171.689L299.749 171.689L303.749 171.689C303.749 171.884 303.803 171.352 303.391 170.631C303.155 170.219 302.652 169.557 301.73 169.147C300.741 168.707 299.753 168.771 299.014 169.028C298.35 169.259 297.937 169.62 297.747 169.809C297.541 170.015 297.431 170.188 297.388 170.26C297.305 170.401 297.332 170.405 297.383 170.199L301.266 171.161ZM299.749 171.689L295.749 171.689C295.749 171.854 295.758 171.75 295.65 171.1C295.561 170.568 295.426 169.857 295.252 168.997C294.904 167.283 294.418 165.076 293.872 162.723C292.773 157.99 291.472 152.83 290.621 150.01L294.451 148.854L298.28 147.698C299.21 150.779 300.559 156.149 301.664 160.914C302.22 163.311 302.725 165.595 303.092 167.407C303.275 168.31 303.43 169.12 303.54 169.78C303.631 170.322 303.749 171.08 303.749 171.689L299.749 171.689ZM294.451 148.854L290.621 150.01C287.949 141.156 281.384 123.564 278.34 117.058L281.963 115.362L285.586 113.667C288.83 120.6 295.524 138.567 298.28 147.698L294.451 148.854ZM281.963 115.362L278.34 117.058C274.817 109.528 270.261 101.69 263.2 91.0784L266.53 88.8625L269.861 86.6465C277.045 97.4432 281.832 105.646 285.586 113.667L281.963 115.362ZM266.53 88.8625L263.201 91.0788C260.229 86.6138 256.189 80.0798 254.189 76.4956L257.683 74.547L261.176 72.5983C263.046 75.9519 266.969 82.3026 269.86 86.6461L266.53 88.8625ZM257.683 74.547L254.189 76.4953C253.249 74.8099 252.353 73.3037 251.677 72.2433C251.332 71.7031 251.08 71.3344 250.927 71.1293C250.841 71.0138 250.848 71.0339 250.927 71.1173C250.958 71.1504 251.103 71.303 251.336 71.4771C251.454 71.5654 251.676 71.7204 251.985 71.866C252.263 71.9973 252.859 72.2393 253.659 72.2393L253.659 68.2393L253.659 64.2393C255.089 64.2393 256.037 65.003 256.122 65.067C256.413 65.2844 256.627 65.5013 256.738 65.6189C256.976 65.871 257.186 66.1399 257.339 66.3448C257.664 66.7802 258.037 67.3379 258.422 67.9409C259.204 69.167 260.181 70.8145 261.176 72.5986L257.683 74.547ZM253.659 68.2393L253.659 72.2393C254.811 72.2393 255.586 71.6219 255.915 71.2227C256.17 70.9135 256.171 70.7452 256.094 71.0124C255.948 71.5184 255.808 72.5683 255.829 74.1915C255.87 77.3523 256.5 81.6807 257.737 85.8771L253.9 87.0083L250.064 88.1396C248.643 83.3201 247.881 78.264 247.83 74.2943C247.805 72.3522 247.944 70.4003 248.407 68.7959C248.634 68.0078 249.021 67.0071 249.746 66.1293C250.545 65.1616 251.871 64.2393 253.659 64.2393L253.659 68.2393ZM253.9 87.0083L257.737 85.8765C258.586 88.7535 260.349 93.5596 261.612 96.4332L257.95 98.0427L254.288 99.6522C252.894 96.4803 251.012 91.3554 250.064 88.1401L253.9 87.0083ZM257.95 98.0427L261.612 96.4326C262.293 97.9809 262.898 99.4331 263.326 100.534C263.536 101.075 263.724 101.582 263.857 101.992C263.918 102.181 264 102.446 264.061 102.722C264.088 102.841 264.146 103.116 264.166 103.456C264.176 103.618 264.187 103.954 264.12 104.368C264.069 104.677 263.879 105.688 262.986 106.576L260.165 103.74L257.344 100.905C256.875 101.371 256.614 101.862 256.47 102.212C256.325 102.564 256.258 102.872 256.224 103.078C256.16 103.476 256.172 103.79 256.18 103.927C256.197 104.215 256.244 104.421 256.251 104.454C256.274 104.556 256.286 104.58 256.249 104.465C256.185 104.269 256.061 103.925 255.87 103.433C255.495 102.468 254.937 101.127 254.288 99.6528L257.95 98.0427ZM260.165 103.74L262.994 106.568C262.044 107.519 260.922 107.729 260.258 107.749C259.626 107.769 259.133 107.636 258.895 107.561C258.41 107.41 258.043 107.197 257.895 107.109C257.542 106.899 257.211 106.649 256.971 106.46C256.451 106.049 255.803 105.483 255.105 104.849C253.687 103.562 251.827 101.778 249.872 99.8466C245.992 96.0115 241.527 91.3812 239.258 88.6751L242.323 86.105L245.388 83.5348C247.399 85.9333 251.635 90.3405 255.496 94.1568C257.412 96.0508 259.183 97.7465 260.483 98.9268C261.144 99.5268 261.627 99.9423 261.924 100.177C262.093 100.31 262.093 100.298 261.983 100.233C261.957 100.217 261.689 100.053 261.279 99.9247C261.079 99.8622 260.619 99.7346 260.012 99.7532C259.374 99.7728 258.273 99.9756 257.336 100.913L260.165 103.74ZM242.323 86.105L239.258 88.6752C228.855 76.2695 222.076 64.0171 215.14 45.3236L218.89 43.9319L222.64 42.5403C229.335 60.5835 235.7 71.9825 245.388 83.5347L242.323 86.105ZM218.89 43.9319L215.14 45.3238C214.493 43.5825 214.006 42.2995 213.616 41.3522C213.202 40.3489 212.988 39.9508 212.916 39.8388C212.728 39.5493 213.408 40.8441 215.158 40.9854C215.993 41.0528 216.613 40.8033 216.9 40.6577C217.159 40.5263 217.283 40.4091 217.208 40.472L214.653 37.3942L212.098 34.3163C212.347 34.1096 213.76 32.8465 215.802 33.0114C218.061 33.1937 219.237 34.8832 219.629 35.4883C220.137 36.271 220.585 37.2674 221.013 38.3048C221.463 39.3981 221.995 40.8021 222.64 42.5401L218.89 43.9319ZM214.653 37.3942L217.208 40.4716C217.677 40.0822 217.673 39.8026 217.476 40.3232C217.322 40.7315 217.139 41.3936 216.964 42.355C216.617 44.2661 216.375 46.9244 216.279 50.1594C216.088 56.6042 216.487 64.9121 217.543 73.2266L213.575 73.731L209.607 74.2353C208.504 65.558 208.077 56.831 208.282 49.9222C208.384 46.4804 208.646 43.3821 209.094 40.9225C209.316 39.6985 209.605 38.5218 209.992 37.4958C210.338 36.5821 210.946 35.2729 212.098 34.3167L214.653 37.3942ZM213.575 73.731L217.543 73.227C217.899 76.0282 218.2 78.6121 218.397 80.5231C218.495 81.4731 218.57 82.286 218.614 82.8858C218.635 83.1764 218.653 83.4722 218.658 83.7276C218.66 83.8426 218.662 84.0411 218.647 84.2614C218.64 84.3609 218.622 84.582 218.566 84.8503C218.538 84.9837 218.482 85.2219 218.371 85.5047C218.283 85.7303 218.034 86.3235 217.463 86.892L214.641 84.057L211.819 81.222C211.252 81.7867 211.006 82.3739 210.921 82.5914C210.813 82.8661 210.76 83.094 210.735 83.2149C210.684 83.4582 210.67 83.6457 210.666 83.7032C210.657 83.8396 210.66 83.9205 210.659 83.8861C210.658 83.8427 210.653 83.7124 210.635 83.4636C210.6 82.9846 210.534 82.2659 210.439 81.3443C210.25 79.5121 209.958 76.993 209.607 74.235L213.575 73.731ZM214.641 84.057L217.47 86.8847C216.247 88.1083 214.783 88.1004 214.287 88.0651C213.704 88.0236 213.252 87.8672 213.047 87.7905C212.601 87.6236 212.222 87.4049 212 87.2714C211.505 86.9732 210.946 86.5738 210.405 86.1666C209.29 85.3274 207.877 84.1677 206.436 82.9301C203.625 80.5158 200.309 77.4599 198.768 75.6278L201.83 73.0534L204.891 70.479C205.966 71.7571 208.824 74.4353 211.648 76.8614C213.025 78.0439 214.294 79.0811 215.217 79.7755C215.694 80.1351 215.992 80.3368 216.128 80.4188C216.222 80.4755 216.102 80.3918 215.851 80.2978C215.743 80.2575 215.373 80.1221 214.854 80.0852C214.422 80.0545 213.005 80.0347 211.812 81.2293L214.641 84.057ZM201.83 73.0534L198.768 75.6279C190.021 65.2262 184.052 51.5208 180.871 35.1568L184.797 34.3936L188.724 33.6303C191.713 49.01 197.223 61.3609 204.891 70.479L201.83 73.0534ZM184.797 34.3936L180.871 35.1564C180.204 31.7273 180.027 30.6258 179.246 25.1089L183.206 24.5476L187.166 23.9862C187.939 29.4403 188.095 30.3917 188.724 33.6308L184.797 34.3936ZM183.206 24.5476L179.246 25.109C178.689 21.1839 177.779 16.3299 176.875 12.2071C176.423 10.1474 175.981 8.30645 175.594 6.87928C175.4 6.16396 175.228 5.58269 175.083 5.14468C174.92 4.65029 174.847 4.51275 174.879 4.57221L178.415 2.70167L181.95 0.831121C182.463 1.79982 182.927 3.35721 183.315 4.78494C183.747 6.37955 184.221 8.3562 184.689 10.4932C185.626 14.7639 186.576 19.8196 187.166 23.9861L183.206 24.5476ZM178.415 2.70167L174.879 4.5716C174.88 4.57426 174.874 4.56202 174.857 4.53501C174.841 4.50861 174.818 4.47388 174.789 4.43187C174.73 4.34618 174.657 4.2491 174.578 4.15177C174.497 4.05384 174.424 3.97292 174.367 3.9154C174.303 3.85063 174.296 3.85147 174.35 3.89269L176.788 0.721382L179.225 -2.44992C180.272 -1.64542 181.359 -0.28767 181.951 0.831731L178.415 2.70167ZM176.788 0.721382L174.351 3.89328C174.802 4.24016 174.861 3.95547 173.447 4.00627C172.187 4.05154 170.322 4.33863 167.678 4.97199L166.746 1.08199L165.814 -2.808C168.656 -3.48847 171.118 -3.91522 173.16 -3.98857C175.047 -4.05638 177.384 -3.86446 179.225 -2.45052L176.788 0.721382ZM166.746 1.08199L167.677 4.9721C165.187 5.56812 163.216 6.36154 161.898 7.14778C160.38 8.05283 160.437 8.50601 160.548 8.06473L156.668 7.09115L152.789 6.11758C153.483 3.35263 155.81 1.46399 157.801 0.276761C159.991 -1.02929 162.767 -2.07861 165.815 -2.80811L166.746 1.08199ZM156.668 7.09115L160.548 8.06402C160.597 7.87071 160.525 7.97858 160.619 8.61002C160.706 9.1948 160.902 10.0211 161.261 11.1352C161.979 13.3649 163.233 16.3945 165.105 20.3457L161.49 22.0584L157.875 23.771C155.945 19.6965 154.521 16.3046 153.646 13.5882C153.209 12.2292 152.879 10.9514 152.706 9.78465C152.54 8.66462 152.474 7.37374 152.789 6.11829L156.668 7.09115ZM161.49 22.0584L165.105 20.3459C168.85 28.2505 170.8 33.3006 172.209 38.9667L168.327 39.932L164.445 40.8972C163.216 35.9518 161.507 31.4365 157.875 23.7708L161.49 22.0584ZM168.327 39.932L172.209 38.9665C173.03 42.2675 173.547 44.6194 173.832 47.1874C174.114 49.7306 174.157 52.3787 174.138 56.2595L170.138 56.2395L166.138 56.2195C166.157 52.3508 166.107 50.1107 165.881 48.0703C165.657 46.0546 165.249 44.1275 164.446 40.8975L168.327 39.932ZM170.138 56.2395L174.138 56.2595C174.091 65.6982 172.561 72.4673 168.498 81.4127L164.856 79.7586L161.214 78.1044C164.835 70.1331 166.097 64.4741 166.138 56.2195L170.138 56.2395ZM164.856 79.7586L168.498 81.4126C167.329 83.9881 166.307 86.0464 165.475 87.2214C165.263 87.5218 164.917 87.9773 164.445 88.3838C164.207 88.5881 162.715 89.885 160.579 89.3395C158.266 88.7491 157.658 86.6875 157.553 86.3086C157.376 85.6645 157.357 85.0605 157.357 84.7033L161.357 84.7007L165.357 84.698C165.357 84.8123 165.373 84.5718 165.265 84.1824C165.231 84.0581 164.729 82.1424 162.557 81.5881C160.562 81.0787 159.247 82.302 159.224 82.3219C158.966 82.5441 158.871 82.7045 158.946 82.5981C159.267 82.1461 159.995 80.7905 161.214 78.1045L164.856 79.7586ZM161.357 84.7007L157.357 84.7026C157.357 85.1044 157.449 85.1803 157.266 84.6603C157.124 84.2568 156.888 83.6933 156.547 82.9748C155.868 81.5455 154.88 79.7314 153.705 77.7567C151.342 73.7864 148.398 69.4649 146.02 66.6483L149.077 64.0683L152.134 61.4883C154.892 64.756 158.087 69.4771 160.579 73.6652C161.832 75.7697 162.951 77.8136 163.772 79.5411C164.181 80.4009 164.543 81.2404 164.812 82.0045C165.04 82.652 165.356 83.6602 165.357 84.6987L161.357 84.7007ZM149.077 64.0683L146.02 66.6482C142.891 62.94 141.36 61.1646 140.549 60.3691C140.365 60.1885 140.305 60.147 140.338 60.1713C140.359 60.187 140.438 60.2447 140.566 60.3162C140.693 60.3862 140.918 60.498 141.229 60.586C141.959 60.793 142.965 60.8042 143.939 60.2788C144.723 59.8565 145.1 59.2807 145.156 59.1986L141.837 56.9662L138.517 54.7338C138.699 54.4636 139.206 53.7418 140.144 53.2364C141.273 52.6281 142.458 52.619 143.411 52.8896C144.208 53.1155 144.801 53.5191 145.132 53.7667C145.5 54.0426 145.844 54.3571 146.151 54.6577C147.302 55.7869 149.138 57.9389 152.134 61.4884L149.077 64.0683ZM141.837 56.9662L145.154 59.2008C145.453 58.7577 145.583 58.3641 145.628 58.2214C145.686 58.0391 145.714 57.8977 145.726 57.8317C145.75 57.7007 145.753 57.6306 145.75 57.6695C145.745 57.7352 145.738 57.9108 145.738 58.2322C145.739 58.8567 145.768 59.7773 145.827 60.9493C145.946 63.2786 146.177 66.4289 146.493 69.8264L142.51 70.1968L138.527 70.5673C138.204 67.088 137.963 63.8229 137.838 61.3561C137.775 60.1301 137.739 59.0574 137.738 58.2382C137.738 57.8377 137.746 57.4288 137.773 57.0655C137.787 56.89 137.81 56.6442 137.859 56.3787C137.873 56.3017 137.994 55.5105 138.519 54.7317L141.837 56.9662ZM142.51 70.1968L146.493 69.8266C147.443 80.0438 147.556 87.6745 146.281 94.3674C144.983 101.179 142.299 106.757 138.098 112.977L134.783 110.739L131.469 108.5C135.265 102.878 137.386 98.3077 138.422 92.8697C139.481 87.3133 139.459 80.594 138.527 70.5671L142.51 70.1968ZM134.783 110.739L138.098 112.977C136.847 114.83 135.834 116.312 135.033 117.397C134.632 117.94 134.241 118.443 133.868 118.869C133.537 119.246 133.031 119.786 132.388 120.209C131.871 120.55 130.058 121.588 127.96 120.535C126.189 119.646 125.736 117.942 125.638 117.573C125.361 116.536 125.356 115.207 125.35 114.342L129.35 114.314L133.35 114.286C133.353 114.786 133.362 115.145 133.378 115.407C133.396 115.712 133.415 115.689 133.368 115.512C133.343 115.417 133.259 115.125 133.046 114.767C132.827 114.399 132.371 113.798 131.548 113.385C129.674 112.445 128.145 113.425 127.991 113.526C127.711 113.711 127.646 113.831 127.851 113.596C128.014 113.411 128.254 113.11 128.596 112.646C129.282 111.718 130.203 110.374 131.469 108.5L134.783 110.739ZM129.35 114.314L125.35 114.342C125.318 109.846 124.893 107.529 123.145 102.725L126.904 101.358L130.663 99.9902C132.691 105.564 133.311 108.785 133.35 114.286L129.35 114.314ZM126.904 101.358L123.145 102.725C121.262 97.5504 119.321 94.5606 113.669 88.7107L116.546 85.9314L119.423 83.1522C125.586 89.5323 128.284 93.4507 130.663 99.9899L126.904 101.358ZM116.546 85.9314L113.669 88.7108C111.638 86.6085 110.313 85.4327 109.618 84.9528C109.463 84.8458 109.432 84.8391 109.503 84.8725C109.52 84.8801 109.934 85.0864 110.597 85.1043C111.421 85.1266 112.689 84.8273 113.581 83.6632C114.3 82.7255 114.31 81.8012 114.309 81.5959L110.309 81.6238L106.309 81.6516C106.305 81.093 106.381 79.9061 107.232 78.7959C108.257 77.4593 109.723 77.0778 110.813 77.1072C111.74 77.1322 112.486 77.4352 112.897 77.6282C113.365 77.8471 113.794 78.1147 114.164 78.3701C115.569 79.3401 117.367 81.0248 119.422 83.152L116.546 85.9314ZM110.309 81.6238L114.309 81.5947C114.306 81.2511 114.25 80.9814 114.289 81.2272C114.303 81.3113 114.326 81.4483 114.362 81.6447C114.433 82.0325 114.538 82.5812 114.67 83.2568C114.935 84.604 115.302 86.4092 115.707 88.3436L111.791 89.1622L107.876 89.9807C107.467 88.0229 107.093 86.1856 106.821 84.8001C106.685 84.1093 106.572 83.519 106.492 83.0778C106.452 82.8597 106.417 82.6596 106.39 82.4945C106.39 82.491 106.312 82.0598 106.309 81.6529L110.309 81.6238ZM111.791 89.1622L115.707 88.3438C117.648 97.6328 118.614 104.403 118.295 111.113C117.976 117.841 116.379 124.257 113.58 132.861L109.776 131.623L105.972 130.386C108.702 121.996 110.036 116.387 110.304 110.734C110.573 105.065 109.782 99.1011 107.876 89.9805L111.791 89.1622ZM109.776 131.623L113.58 132.861C109.708 144.764 107.585 152.69 105.856 161.614L101.929 160.854L98.0021 160.093C99.8111 150.755 102.032 142.499 105.972 130.386L109.776 131.623ZM101.929 160.854L105.856 161.614C105.245 164.768 104.836 173.309 104.768 182.52C104.7 191.671 104.972 200.723 105.558 204.788L101.599 205.359L97.6397 205.929C96.9566 201.188 96.7003 191.57 96.7679 182.461C96.835 173.412 97.2253 164.104 98.0021 160.093L101.929 160.854ZM101.599 205.359L105.558 204.788C105.791 206.408 105.98 207.929 106.095 209.084C106.151 209.653 106.195 210.184 106.213 210.611C106.222 210.812 106.23 211.077 106.218 211.345C106.212 211.468 106.198 211.708 106.147 211.991C106.121 212.131 106.07 212.381 105.962 212.676C105.88 212.903 105.63 213.548 105.021 214.158L102.192 211.33L99.3626 208.502C98.761 209.104 98.519 209.736 98.4431 209.944C98.3423 210.222 98.2961 210.449 98.2757 210.561C98.2343 210.789 98.2272 210.956 98.2259 210.986C98.2221 211.07 98.2264 211.08 98.2212 210.962C98.2119 210.75 98.1847 210.388 98.1337 209.875C98.0336 208.866 97.8613 207.466 97.6398 205.93L101.599 205.359ZM102.192 211.33L105.027 214.151C104.091 215.092 103.009 215.279 102.526 215.321C102.003 215.368 101.588 215.301 101.388 215.263C100.975 215.184 100.654 215.056 100.526 215.004C100.222 214.88 99.9431 214.731 99.7574 214.629C99.3488 214.403 98.8539 214.099 98.3354 213.766C97.2775 213.086 95.8922 212.14 94.4231 211.088L96.752 207.836L99.0809 204.584C100.475 205.582 101.745 206.448 102.659 207.035C103.127 207.335 103.447 207.528 103.623 207.625C103.73 207.684 103.685 207.653 103.551 207.598C103.508 207.58 103.255 207.475 102.894 207.406C102.719 207.373 102.326 207.308 101.82 207.353C101.354 207.394 100.284 207.576 99.3561 208.509L102.192 211.33ZM96.752 207.836L94.423 211.088C92.1046 209.427 89.05 207.529 86.408 206.049C85.0877 205.309 83.9248 204.704 83.0476 204.297C82.6042 204.091 82.2896 203.961 82.0953 203.892C81.7451 203.767 82.0542 203.93 82.6428 203.93L82.6428 199.93L82.6428 195.93C83.5741 195.93 84.4271 196.23 84.7857 196.358C85.3001 196.542 85.8591 196.782 86.4177 197.041C87.5444 197.565 88.899 198.274 90.3186 199.07C93.1563 200.66 96.4708 202.714 99.081 204.584L96.752 207.836ZM82.6428 199.93L82.6428 203.93C83.2373 203.93 83.9271 203.758 84.5626 203.292C85.191 202.831 86.0123 201.856 86.0123 200.392L82.0123 200.392L78.0123 200.392C78.0123 198.674 78.9754 197.468 79.8323 196.84C80.6964 196.206 81.7013 195.93 82.6428 195.93L82.6428 199.93ZM82.0123 200.392L86.0123 200.392C86.0123 199.822 85.8835 199.393 85.866 199.332C85.8251 199.188 85.7859 199.084 85.7709 199.045C85.7392 198.963 85.7199 198.925 85.7362 198.96C85.7635 199.018 85.8277 199.148 85.9429 199.367C86.1672 199.794 86.508 200.415 86.948 201.197C87.8234 202.753 89.0409 204.853 90.3865 207.118L86.9477 209.161L83.5088 211.204C82.1401 208.901 80.8899 206.744 79.9763 205.121C79.5217 204.313 79.1376 203.615 78.8606 203.087C78.7252 202.83 78.5947 202.573 78.4899 202.35C78.4402 202.243 78.3705 202.09 78.305 201.919C78.273 201.836 78.221 201.695 78.1715 201.521C78.1455 201.43 78.0123 200.978 78.0123 200.392L82.0123 200.392ZM86.9477 209.161L90.3866 207.118C97.794 219.588 105.364 235.315 110.092 248.078L106.341 249.468L102.59 250.857C98.0415 238.578 90.686 223.286 83.5087 211.204L86.9477 209.161ZM106.341 249.468L110.092 248.078C112.312 254.072 115.878 262.387 117.963 266.466L114.402 268.287L110.84 270.107C108.572 265.67 104.884 257.049 102.59 250.857L106.341 249.468ZM114.402 268.287L117.963 266.466C126.275 282.726 141.779 299.666 156.536 308.688L154.45 312.101L152.363 315.514C136.285 305.683 119.788 287.613 110.84 270.107L114.402 268.287ZM154.45 312.101L156.536 308.688L161.672 311.829L159.586 315.241L157.499 318.654L152.363 315.514L154.45 312.101ZM159.586 315.241L160.396 319.158L155.154 320.242L154.344 316.325L153.534 312.408L158.776 311.324L159.586 315.241ZM154.344 316.325L155.154 320.242C152.453 320.801 149.699 321.688 147.681 322.556C146.655 322.997 145.959 323.375 145.585 323.628C145.388 323.762 145.422 323.766 145.549 323.624C145.585 323.583 146.29 322.833 146.29 321.512L142.29 321.512L138.29 321.512C138.29 319.861 139.186 318.738 139.581 318.296C140.068 317.751 140.628 317.323 141.099 317.004C142.062 316.352 143.27 315.745 144.519 315.207C147.051 314.118 150.323 313.072 153.534 312.408L154.344 316.325ZM142.29 321.512L146.29 321.512C146.29 320.953 146.15 320.266 145.734 319.61C145.338 318.987 144.85 318.637 144.539 318.462C144.042 318.182 143.727 318.197 144.13 318.251C144.811 318.341 146.193 318.39 148.918 318.39L148.918 322.39L148.918 326.39C146.311 326.39 144.379 326.354 143.079 326.181C142.492 326.103 141.519 325.943 140.612 325.432C140.097 325.142 139.465 324.663 138.978 323.895C138.47 323.094 138.29 322.248 138.29 321.512L142.29 321.512ZM148.918 322.39L148.918 318.39C158.639 318.39 165.109 319.342 177.713 322.523L176.734 326.402L175.755 330.28C163.571 327.205 157.785 326.39 148.918 326.39L148.918 322.39ZM176.734 326.402L177.713 322.523C183.631 324.017 190.401 325.536 192.749 325.915L192.111 329.864L191.473 333.813C188.747 333.372 181.677 331.775 175.755 330.28L176.734 326.402ZM192.111 329.864L192.749 325.915C194.246 326.157 195.677 326.484 196.858 326.86C197.443 327.046 198.044 327.268 198.59 327.534C198.992 327.729 199.918 328.2 200.623 329.085L197.494 331.576L194.364 334.068C194.652 334.429 194.924 334.618 194.994 334.666C195.09 334.731 195.134 334.749 195.094 334.729C195.011 334.689 194.8 334.6 194.432 334.483C193.709 334.253 192.675 334.007 191.473 333.813L192.111 329.864ZM197.494 331.576L200.625 329.087C200.95 329.496 201.276 330.055 201.486 330.421C201.753 330.885 202.067 331.46 202.407 332.099C203.088 333.379 203.909 334.991 204.712 336.635L201.118 338.39L197.523 340.145C196.756 338.573 195.976 337.044 195.344 335.855C195.027 335.259 194.756 334.767 194.549 334.405C194.285 333.947 194.249 333.923 194.362 334.066L197.494 331.576ZM201.118 338.39L204.712 336.635C206.643 340.59 207.861 343.948 208.23 348.004C208.588 351.931 208.124 356.266 207.167 362.113L203.219 361.467L199.272 360.82C200.217 355.049 200.522 351.573 200.263 348.73C200.016 346.015 199.231 343.643 197.523 340.145L201.118 338.39ZM203.219 361.467L207.167 362.113C205.77 370.641 204.135 377.27 201.33 383.989C198.54 390.672 194.658 397.284 188.947 405.841L185.62 403.62L182.293 401.399C187.902 392.995 191.453 386.883 193.948 380.906C196.429 374.964 197.933 368.997 199.272 360.82L203.219 361.467ZM185.62 403.62L188.947 405.84C186.315 409.784 182.451 415.122 179.138 419.504C177.481 421.697 175.937 423.683 174.735 425.155C174.139 425.886 173.595 426.529 173.148 427.02C172.929 427.26 172.687 427.515 172.445 427.74C172.327 427.85 172.159 427.999 171.96 428.149C171.833 428.245 171.388 428.58 170.748 428.801L169.442 425.02L168.137 421.239C167.555 421.44 167.185 421.73 167.15 421.756C167.092 421.8 167.051 421.835 167.03 421.853C167.007 421.872 166.995 421.884 166.994 421.885C166.993 421.885 167.014 421.866 167.06 421.818C167.104 421.772 167.163 421.711 167.235 421.631C167.538 421.299 167.975 420.786 168.537 420.097C169.651 418.732 171.129 416.834 172.757 414.68C176.016 410.369 179.779 405.166 182.293 401.399L185.62 403.62ZM169.442 425.02L170.746 428.802C168.561 429.555 166.953 428.291 166.403 427.697C165.882 427.133 165.631 426.547 165.538 426.32C165.315 425.774 165.194 425.209 165.122 424.82C164.963 423.957 164.863 422.883 164.822 421.783L168.819 421.636L172.817 421.489C172.848 422.343 172.923 423.008 172.99 423.372C173.031 423.597 173.035 423.517 172.943 423.292C172.916 423.225 172.732 422.758 172.278 422.267C172.033 422.002 171.56 421.566 170.822 421.283C169.996 420.968 169.045 420.926 168.139 421.239L169.442 425.02ZM168.819 421.636L164.822 421.782C164.765 420.232 164.462 417.59 164.1 414.607C163.752 411.744 163.356 408.615 163.182 406.394L167.17 406.081L171.158 405.769C171.315 407.771 171.68 410.663 172.041 413.643C172.389 416.503 172.745 419.527 172.817 421.489L168.819 421.636ZM108.983 351.688L112.262 349.397C119.365 359.564 126.394 364.388 132.31 367.319C135.353 368.827 138.088 369.833 140.728 370.889C143.204 371.88 145.892 373.018 147.989 374.778L145.417 377.842L142.845 380.905C141.863 380.081 140.338 379.349 137.757 378.317C135.339 377.35 132.172 376.179 128.758 374.487C121.758 371.019 113.649 365.351 105.704 353.979L108.983 351.688ZM145.417 377.842L147.989 374.778C161.181 385.852 162.178 403.347 162.447 405.609L158.475 406.081L154.503 406.554C154.163 403.692 153.232 389.625 142.845 380.905L145.417 377.842ZM158.475 406.081L162.447 405.609C163.328 413.019 165.633 426.104 163.526 438.161L159.586 437.472L155.645 436.784C157.495 426.199 155.467 414.663 154.503 406.554L158.475 406.081ZM159.586 437.472L163.526 438.161C162.58 443.577 159.217 448.973 156.318 452.769C154.823 454.727 153.338 456.406 152.136 457.623C151.541 458.225 150.972 458.76 150.474 459.171C150.233 459.37 149.938 459.599 149.62 459.801C149.464 459.901 149.227 460.042 148.935 460.171C148.73 460.262 148.079 460.542 147.21 460.542L147.21 456.542L147.21 452.542C146.395 452.542 145.816 452.803 145.7 452.854C145.496 452.944 145.364 453.028 145.329 453.05C145.252 453.099 145.261 453.101 145.378 453.004C145.596 452.824 145.958 452.493 146.443 452.003C147.4 451.034 148.663 449.612 149.96 447.914C152.645 444.397 155.039 440.258 155.645 436.784L159.586 437.472ZM147.21 456.542L147.21 460.542C146.103 460.542 145.307 460.095 144.919 459.828C144.514 459.549 144.246 459.255 144.107 459.09C143.829 458.76 143.657 458.45 143.584 458.316C143.419 458.008 143.296 457.702 143.218 457.5C143.048 457.055 142.87 456.503 142.697 455.925C142.344 454.744 141.927 453.166 141.524 451.464L145.417 450.542L149.309 449.621C149.687 451.218 150.065 452.64 150.362 453.634C150.515 454.144 150.626 454.473 150.689 454.638C150.728 454.741 150.708 454.671 150.629 454.524C150.599 454.469 150.467 454.221 150.223 453.933C150.101 453.788 149.85 453.51 149.46 453.241C149.087 452.984 148.305 452.542 147.21 452.542L147.21 456.542ZM145.417 450.542L141.524 451.464C139.617 443.408 135.522 431.238 131.94 423.008L135.608 421.412L139.276 419.816C143.032 428.448 147.285 441.069 149.309 449.621L145.417 450.542ZM135.608 421.412L131.941 423.008C130.272 419.175 125.044 407.805 120.485 399.078L124.031 397.226L127.576 395.374C132.243 404.308 137.553 415.855 139.276 419.815L135.608 421.412ZM124.031 397.226L120.485 399.078C109.018 377.127 102.205 368.968 87.9651 354.493L90.8165 351.688L93.668 348.883C108.372 363.829 115.688 372.617 127.576 395.374L124.031 397.226ZM90.8165 351.688L87.9651 354.493C72.4537 338.726 57.9524 327.713 43.2758 321.664L44.8002 317.965L46.3245 314.267C62.4017 320.894 77.7847 332.738 93.668 348.883L90.8165 351.688ZM44.8002 317.965L43.8412 321.849C36.2188 319.967 24.1863 319.241 17.93 319.241L17.93 315.241L17.93 311.241C24.4246 311.241 37.2087 311.971 45.7591 314.082L44.8002 317.965ZM17.93 315.241L17.93 319.241C13.0028 319.241 9.05779 320.194 6.62678 321.613C4.35635 322.939 3.82455 324.315 4.04852 325.808L0.0927449 326.402L-3.86303 326.995C-4.70378 321.388 -1.65337 317.184 2.59279 314.705C6.67837 312.319 12.1843 311.241 17.93 311.241L17.93 315.241ZM0.0927449 326.402L4.04862 325.809C4.11215 326.233 4.41036 327.399 4.985 329.215C5.52927 330.935 6.24754 333.012 7.03784 335.123C8.68705 339.529 10.433 343.496 11.4558 344.983L8.16 347.25L4.86424 349.517C3.1948 347.089 1.14024 342.188 -0.454575 337.927C-1.28629 335.705 -2.05091 333.498 -2.64231 331.629C-3.20333 329.855 -3.69356 328.126 -3.86313 326.994L0.0927449 326.402ZM8.16 347.25L11.4559 344.984C15.0371 350.191 21.4599 355.909 30.1995 361.507C38.8833 367.068 49.6218 372.363 61.5738 376.817L60.1771 380.565L58.7803 384.313C46.3808 379.692 35.1181 374.157 25.8848 368.243C16.7074 362.366 9.29734 355.963 4.86409 349.517L8.16 347.25ZM60.1771 380.565L61.5738 376.817C86.0404 385.934 98.5813 392.122 111.367 401.607L108.983 404.819L106.6 408.032C94.6926 399.198 82.9552 393.321 58.7804 384.313L60.1771 380.565ZM108.983 404.819L111.367 401.607C122.536 409.892 128.655 417.488 133.777 429.574L130.094 431.135L126.411 432.695C121.886 422.016 116.709 415.531 106.6 408.032L108.983 404.819ZM130.094 431.135L133.777 429.574C140.81 446.171 142.992 456.197 142.343 470.276L138.347 470.092L134.351 469.908C134.93 457.343 133.12 448.528 126.411 432.695L130.094 431.135ZM138.347 470.092L142.343 470.276C142.115 475.227 141.524 481.41 140.97 484.057L137.055 483.237L133.14 482.418C133.555 480.433 134.127 474.786 134.351 469.908L138.347 470.092ZM137.055 483.237L140.97 484.056C139.99 488.746 136.506 495.793 132.175 502.998C127.752 510.357 122.129 518.393 116.449 525.19L113.38 522.625L110.311 520.06C115.701 513.61 121.087 505.917 125.319 498.876C129.643 491.682 132.462 485.657 133.14 482.419L137.055 483.237ZM160.935 359.38L157.349 361.153C152.441 351.222 142.608 333.123 118.326 326.238L119.418 322.39L120.509 318.542C148.225 326.4 159.395 347.237 164.521 357.608L160.935 359.38ZM119.418 322.39L118.326 326.238C111.288 324.243 106.196 322.822 102.808 322.158C101.061 321.815 100.137 321.754 99.7581 321.782C99.565 321.796 99.8887 321.812 100.376 321.527C101.034 321.143 101.65 320.402 101.826 319.433L97.8899 318.72L93.954 318.007C94.231 316.478 95.1608 315.308 96.3428 314.618C97.3554 314.027 98.4155 313.859 99.1705 313.803C100.688 313.692 102.506 313.946 104.347 314.307C108.137 315.05 113.606 316.584 120.509 318.542L119.418 322.39ZM97.8899 318.72L101.826 319.433C101.118 323.344 102.243 328.854 104.523 334.727C106.75 340.463 109.824 345.907 112.262 349.397L108.983 351.688L105.704 353.979C102.92 349.993 99.5359 343.986 97.0656 337.623C94.6487 331.397 92.8392 324.162 93.954 318.007L97.8899 318.72ZM167.17 406.081L163.182 406.394C162.923 403.076 162.794 399.24 162.651 395.28C162.506 391.281 162.345 387.102 162.025 382.948C161.377 374.524 160.104 366.725 157.349 361.153L160.935 359.38L164.521 357.608C168.002 364.651 169.343 373.775 170.002 382.334C170.335 386.67 170.501 390.999 170.645 394.99C170.791 399.021 170.914 402.659 171.158 405.769L167.17 406.081Z" fill="#602930" mask="url(#path-1-inside-1_464_5306)"/>
</svg>
