<svg width="363" height="378" viewBox="0 0 363 378" fill="none" xmlns="http://www.w3.org/2000/svg">
<path d="M117.052 279.314C59.6338 271.558 29.7654 217.515 30.5472 162.312L30.5711 161.003C32.351 84.1184 103.648 38.282 175.313 34.0988C211.062 32.0121 246.569 40.3511 273.114 60.1804C299.591 79.9591 317.329 111.293 317.441 155.649C317.475 169.016 314.364 184.484 308.437 198.652C302.504 212.831 293.821 225.545 282.835 233.574L282.833 233.574C280.937 234.957 278.674 235.52 276.01 235.565C273.31 235.612 270.35 235.128 267.139 234.533C263.998 233.952 260.601 233.262 257.306 233.027C255.094 232.869 252.847 232.91 250.65 233.343C251.195 232.125 251.963 230.646 252.825 229.08C253.879 227.164 255.022 225.205 255.985 223.528C256.895 221.943 257.748 220.439 258.064 219.623C258.599 218.24 259.613 214.905 260.425 211.719C260.834 210.114 261.205 208.499 261.443 207.146C261.561 206.471 261.653 205.829 261.696 205.269C261.734 204.774 261.756 204.116 261.604 203.534L254.959 178.056L252.48 180.697C249.491 183.882 247.088 187.481 244.803 190.948C242.633 194.24 240.573 197.406 238.142 200.251L237.65 200.816C233.337 205.682 228.459 209.531 223.289 213.181C218.199 216.775 212.608 220.319 207.329 224.308L207.328 224.307C204.472 226.462 201.895 228.872 199.408 231.162C197.09 233.295 194.841 235.334 192.402 237.129C171.52 234.531 154.135 231.571 138.159 217.798L138.157 217.797C135.989 215.933 134.032 213.771 131.987 211.5C129.972 209.263 127.863 206.912 125.499 204.861L125.492 204.855L125.485 204.849C125.503 204.865 125.483 204.865 125.375 204.663C125.342 204.602 125.041 203.945 124.565 203.497C123.859 202.834 122.971 202.666 122.124 202.796C121.414 202.905 120.657 203.228 119.865 203.643L118.925 204.137L118.806 205.192C116.205 228.401 123.968 249.315 143.341 262.502L117.052 279.314Z" stroke="#602930" stroke-width="4"/>
<path d="M209.335 340.237C208.455 341.323 207.576 341.721 206.479 341.822C205.218 341.938 203.641 341.663 201.394 341.14C199.863 340.784 198.071 340.328 196.054 339.914C204.647 320.122 204.944 297.98 198.428 277.432L196.949 272.765L194.737 277.133C187.215 291.991 181.138 302.875 164.994 308.23L164.995 308.231C163.945 308.578 162.432 309.048 160.85 309.373C170.039 303.434 173.483 292.817 172.538 281.815L172.284 278.855L169.637 280.204C164.426 282.857 158.469 284.741 152.348 286.605C146.295 288.449 140.055 290.282 134.574 292.824L134.573 292.823C129.434 295.199 124.698 299.238 120.433 303.526C117.926 306.047 115.497 308.748 113.221 311.301C118.63 287.392 141.644 273.391 164.984 265.593L169.817 263.979L165.176 261.875C147.793 253.995 134.068 243.853 130.436 225.224C130.47 225.258 130.503 225.293 130.539 225.326L130.547 225.334L131.5 226.183C151.508 243.776 171.532 244.764 195.847 250.004L197.112 250.276L197.88 249.234C205.339 239.102 215.666 232.571 226.001 225.37C234.907 219.164 243.752 212.49 249.936 202.634C250.772 209.505 248.351 215.665 244.571 221.72C242.233 225.466 239.429 229.084 236.606 232.779C233.81 236.437 230.994 240.172 228.785 244.017L226.546 247.914L230.94 246.969C243.915 244.176 258.592 243.676 271.882 246.903C283.301 249.676 293.622 255.177 301.044 264.277L276.642 256.758L276.252 256.637L275.845 256.68L230.844 261.364L227.127 261.751L229.511 264.63C232.417 268.138 235.436 271.133 238.294 273.921C241.175 276.73 243.856 279.297 246.23 282.045C250.478 286.966 253.679 292.408 254.682 300.441C251.353 294.946 246.072 291.62 240.47 289.135C237.005 287.597 233.311 286.335 229.812 285.096C226.364 283.875 223.095 282.672 220.181 281.212L211.185 273.078L207.102 269.386L207.863 274.838C208.572 279.921 209.57 284.925 210.564 289.841C211.562 294.775 212.554 299.614 213.279 304.458C214.681 313.826 215.058 323.069 212.532 332.579L212.279 333.5C211.286 336.987 210.303 339.042 209.335 340.237Z" stroke="#602930" stroke-width="4"/>
</svg>
