<svg width="480" height="461" viewBox="0 0 480 461" fill="none" xmlns="http://www.w3.org/2000/svg">
<path d="M394.088 2.00098C395.433 2.00787 396.228 2.12976 397.048 2.62207C397.064 2.63758 397.13 2.70456 397.238 2.86621C397.4 3.10799 397.593 3.4699 397.806 3.97559C398.232 4.98828 398.661 6.38571 399.086 8.1084C399.933 11.5433 400.698 16.01 401.4 20.7061C402.102 25.3997 402.729 30.2346 403.312 34.4404C403.888 38.5834 404.432 42.2004 404.967 44.2852L404.968 44.2871C410.945 67.4674 425.583 80.9806 439.731 95.1143C453.905 109.273 467.803 124.215 473.607 150.483H473.608C491.406 230.974 452.277 318.008 396.082 374.665L395.502 375.249V375.275C347.59 423.272 273 462.58 204.052 458.169L202.417 458.057L201.769 458.002C194.821 457.353 180.158 454.04 165.732 449.87C158.319 447.727 151.034 445.376 144.977 443.078C138.846 440.753 134.192 438.561 131.867 436.785C130.73 435.912 129.679 434.332 128.802 432.096C127.937 429.891 127.312 427.232 126.909 424.433C126.099 418.806 126.226 412.935 126.871 409.59V409.589C127.037 408.724 127.771 407.688 129.418 406.523C131.023 405.388 133.197 404.342 135.655 403.356C138.101 402.376 140.712 401.5 143.17 400.667C145.581 399.85 147.908 399.053 149.627 398.26L149.63 398.259C157.548 394.592 165.291 390.504 172.987 386.466C180.7 382.419 188.369 378.419 196.215 374.878C244.391 353.127 280.043 344.737 318.79 303.091C340.423 279.838 354.475 259.091 363.965 236.305C373.151 214.248 378.018 190.386 381.435 160.681L381.761 157.787C383.904 138.352 387.264 118.751 387.312 99.707C387.359 80.8606 384.18 62.3092 373.376 44.4023L372.855 43.5498C371.336 41.0874 369.215 38.6795 367.241 36.4258C365.211 34.108 363.322 31.9376 361.991 29.7676C360.666 27.6077 360.048 25.689 360.262 23.8721C360.471 22.0933 361.528 19.9991 364.447 17.5879C364.651 17.4202 365.222 17.0372 366.202 16.4404C367.142 15.8679 368.359 15.1591 369.767 14.3613C372.579 12.7667 376.115 10.8381 379.644 8.97559C383.173 7.11217 386.678 5.32361 389.432 4.00488C390.811 3.34411 391.981 2.81219 392.86 2.44922C393.302 2.26692 393.645 2.13819 393.89 2.05859C393.986 2.02727 394.051 2.01061 394.088 2.00098Z" stroke="#602930" stroke-width="4"/>
<path d="M371.889 98.21C372.125 102.841 371.693 107.688 370.999 112.659C370.021 119.663 368.467 127.206 367.812 134.107L367.811 134.109C364.342 170.972 364.075 196.149 348.521 229.882L347.768 231.495C319.554 291.272 264.185 336.56 203.271 353.947C142.41 371.32 76.139 360.825 25.8037 309.242L25.2148 308.639H25.1777C22.1549 305.584 17.0274 300.667 12.2422 295.516C9.70262 292.782 7.32401 290.047 5.49512 287.589C3.61297 285.059 2.50108 283.063 2.20996 281.764L2.20898 281.763L2.14648 281.452C1.86065 279.874 1.99426 277.859 2.53613 275.534C3.10829 273.079 4.10326 270.417 5.35645 267.797C7.7025 262.892 10.8373 258.376 13.4873 255.795C24.8225 256.66 36.2023 256.946 47.5244 257.235C59.1579 257.533 70.7323 257.838 82.2461 258.775H82.2471C97.6444 260.021 112.013 262.231 126.784 263.873C141.487 265.508 156.402 266.551 172.508 265.393L172.507 265.392C199.137 263.496 229.942 253.662 257.84 238.822C285.73 223.987 310.913 204.042 326.155 181.768L326.212 181.686L326.26 181.599L371.889 98.21Z" stroke="#602930" stroke-width="4"/>
</svg>
