<svg width="400" height="540" viewBox="0 0 400 540" fill="none" xmlns="http://www.w3.org/2000/svg">
<path d="M113.026 45.9292C127.931 55.2244 135.449 68.0117 142.831 84.2583L143.456 85.632L144.948 85.4083C145.488 85.3274 145.86 85.0601 146.014 84.9393C146.2 84.7933 146.347 84.6365 146.45 84.5181C146.658 84.2792 146.855 83.9955 147.029 83.7295C147.383 83.1875 147.807 82.4561 148.259 81.6653C149.188 80.0414 150.328 78.0108 151.62 76.0635C152.927 74.0937 154.291 72.3615 155.612 71.2754C156.559 70.4966 157.255 70.2237 157.78 70.2043C167.238 87.2033 172.822 103.121 167.455 122.174L167.454 122.176C165.961 127.494 164.819 130.933 163.725 133.17C162.649 135.371 161.764 136.104 160.93 136.432C159.932 136.825 158.597 136.831 156.093 136.647C153.857 136.481 150.943 136.201 147.213 136.267L146.456 136.285C132.177 136.707 120.724 140.863 111.473 148.19C102.65 155.178 95.9525 164.955 90.6731 176.823L72.9292 171.746L81.7037 154.138L83.468 150.598L79.5706 151.277C77.5491 151.629 74.2707 151.211 70.2275 150.046C66.2613 148.904 61.8151 147.119 57.5842 144.993C53.3491 142.865 49.3947 140.427 46.3875 138.004C44.884 136.792 43.653 135.612 42.7468 134.507C41.8301 133.39 41.3258 132.444 41.1351 131.698C41.1339 131.693 41.1324 131.683 41.1329 131.666C41.1335 131.645 41.1367 131.604 41.1539 131.541C41.19 131.409 41.28 131.197 41.4795 130.907C41.8887 130.313 42.6198 129.588 43.7008 128.777C45.8491 127.164 48.995 125.49 52.4582 124.031C55.9061 122.578 59.5628 121.38 62.6809 120.679C64.2414 120.328 65.6281 120.111 66.7626 120.039C67.9461 119.964 68.663 120.061 69.0028 120.184L70.2736 120.648L71.1764 119.64C72.1585 118.544 71.8992 117.229 71.6175 116.502C71.3265 115.751 70.81 115.022 70.2835 114.384C69.2046 113.076 67.6111 111.591 66.0003 110.179C64.3811 108.76 62.6154 107.307 61.2057 106.112C59.6953 104.831 58.7325 103.959 58.4119 103.543L58.4085 103.539L58.0111 103.016C53.9315 97.5383 50.7614 89.9012 48.4138 81.7645C46.2428 74.2401 44.8128 66.4177 44.0007 59.7402C66.5683 59.7436 87.7787 63.1783 104.724 78.5186L107.93 76.3101C107.759 75.8715 107.578 75.0396 107.453 73.7893C107.331 72.5771 107.272 71.0963 107.284 69.439C107.307 66.1242 107.611 62.2001 108.204 58.4682C108.801 54.7092 109.672 51.2749 110.775 48.8702C111.328 47.6628 111.883 46.8424 112.387 46.3627C112.647 46.1148 112.857 45.9898 113.026 45.9292Z" fill="#E73F40" stroke="#602930" stroke-width="4"/>
<path d="M236.335 150.396C252.396 146.143 265.422 150.185 275.108 158.728C284.869 167.337 291.351 180.63 293.885 194.944C296.418 209.253 294.966 224.354 289.128 236.476C283.319 248.538 273.182 257.656 258.147 260.281C244.085 262.736 232.275 258.131 223.239 249.537C214.155 240.897 207.866 228.198 205.144 214.609C202.422 201.021 203.305 186.736 208.332 174.981C213.337 163.279 222.441 154.073 236.334 150.396L236.335 150.396Z" fill="#E73F40" stroke="#602930" stroke-width="4"/>
<path d="M135.485 153.56C149.107 149.972 160.805 152.884 170.041 159.66C179.33 166.475 186.22 177.278 189.916 189.542C197.28 213.98 191.763 243.266 168.731 257.328L168.184 257.657C152.806 266.781 139.295 265.829 128.544 259.294C117.656 252.674 109.336 240.158 104.96 225.735C100.59 211.33 100.245 195.304 104.994 181.89C109.719 168.548 119.47 157.776 135.485 153.56Z" fill="#E73F40" stroke="#602930" stroke-width="4"/>
<path d="M190.265 264.554C204.817 261.272 216.773 265.465 225.804 273.811C234.902 282.217 241.089 294.909 243.723 308.571C246.355 322.228 245.393 336.642 240.436 348.4C235.498 360.111 226.632 369.144 213.342 372.38C196.976 376.363 183.845 372.445 174.158 364.242C164.404 355.983 158 343.249 155.501 329.454C153.003 315.663 154.447 301.013 160.149 289.038C165.829 277.11 175.719 267.837 190.265 264.554Z" fill="#E73F40" stroke="#602930" stroke-width="4"/>
<path d="M248.094 57.1346C251.233 59.7234 253.338 63.1702 254.997 67.0929C256.774 71.2918 257.907 75.6445 259.371 80.0827L257.423 82.8561L264.304 82.1728L263.812 80.7329C275.294 64.9645 291.924 58.1329 310.818 53.8396C312.318 72.6676 310.169 91.8998 298.119 106.16L294.689 110.219L299.944 109.43C309.704 107.962 320.255 108.293 327.846 114.114C319.368 125.326 311.131 135.577 297.436 138.228L295.953 138.515L295.824 140.02C295.775 140.589 295.731 141.121 295.733 141.567C295.736 142.031 295.786 142.597 296.053 143.172C296.322 143.752 296.72 144.139 297.031 144.405C297.165 144.52 297.332 144.652 297.504 144.785L298.011 145.175C299.169 146.084 300.515 146.863 301.755 147.579C303.043 148.322 304.249 149.013 305.341 149.814C307.09 151.095 308.414 152.556 308.959 154.683L297.245 159.354C283.267 140.761 262.661 129.634 238.812 133.7C237.013 134.006 235.067 134.703 233.219 135.411C231.302 136.145 229.475 136.899 227.671 137.474C223.891 138.678 221.524 138.652 220.065 137.072L220.066 137.072C214.52 131.063 211.552 121.769 211.048 111.974C210.586 103.009 212.205 93.916 215.515 86.9945L229.824 95.4637L233.223 97.4745L232.833 93.5446C231.483 79.9553 237.858 65.8842 248.094 57.1346Z" fill="#E73F40" stroke="#602930" stroke-width="4"/>
<path d="M97.4799 263.466C101.009 262.504 103.768 262.459 106.11 262.934C108.465 263.412 110.537 264.445 112.669 265.845C114.893 267.305 116.889 268.948 119.488 270.817C121.997 272.621 124.84 274.452 128.317 275.927L128.317 275.928C129.524 276.442 131.318 276.947 133.194 277.443C135.142 277.957 137.235 278.474 139.275 279.04C141.313 279.605 143.154 280.182 144.522 280.774C145.069 281.011 145.491 281.232 145.801 281.426C138.924 298.654 137.604 312.807 139.446 331.35C139.665 333.559 140.149 335.235 140.611 336.609C141.1 338.064 141.436 338.871 141.59 339.768C141.822 341.123 141.652 342.875 138.256 347.293C125.686 363.618 107.998 367.605 92.9904 362.651C77.943 357.685 65.409 343.665 63.4362 323.516L63.4359 323.513C62.3723 312.803 65.4005 299.219 71.548 287.526C77.7091 275.807 86.7799 266.396 97.4809 263.467L97.4799 263.466Z" fill="#E73F40" stroke="#602930" stroke-width="4"/>
<path d="M289.216 262.98C296.048 261.42 303.913 264.512 311.215 270.008C318.846 275.751 325.336 283.742 328.562 290.207C341.281 315.748 335.22 340.257 321.493 353.826C314.625 360.615 305.854 364.665 296.496 364.839C287.158 365.012 277.038 361.329 267.449 352.292L267.448 352.291C263.978 349.025 262.038 346.335 260.983 343.948C259.945 341.597 259.709 339.41 259.861 337.032C260.02 334.545 260.577 332.043 261.109 328.799C261.628 325.633 262.072 322.003 261.886 317.664L261.886 317.659C261.722 314.032 261.324 309.887 260.713 306.233L260.588 305.508C260.119 302.873 259.101 300.057 258.051 297.345C256.975 294.565 255.867 291.897 255.059 289.317C254.251 286.733 253.831 284.487 254.011 282.615C254.181 280.85 254.883 279.398 256.485 278.225L256.49 278.223C256.451 278.251 256.524 278.199 256.836 278.029C257.104 277.883 257.468 277.693 257.923 277.46C258.832 276.996 260.063 276.385 261.517 275.675C264.423 274.255 268.191 272.454 271.986 270.662C275.781 268.871 279.598 267.094 282.601 265.724C284.103 265.039 285.396 264.458 286.378 264.03C286.869 263.816 287.275 263.643 287.587 263.515C287.743 263.452 287.869 263.402 287.966 263.365C288.014 263.347 288.052 263.333 288.08 263.323C288.104 263.315 288.116 263.311 288.118 263.31L289.216 262.98Z" fill="#E73F40" stroke="#602930" stroke-width="4"/>
<path d="M149.494 358.907C161.223 378.995 181.49 390.141 204.379 391.122C208.937 410.846 200.036 430.673 185.927 441.562C178.725 447.12 170.258 450.275 161.646 449.965C153.066 449.656 144.145 445.904 135.984 437.291L135.983 437.29C130.008 430.987 124.806 419.69 122.434 407.914C120.05 396.082 120.65 384.421 125.509 377.154L125.51 377.155C125.727 376.831 126.179 376.346 126.947 375.697C127.691 375.068 128.636 374.365 129.742 373.59C131.974 372.028 134.678 370.306 137.526 368.413C140.334 366.547 143.235 364.545 145.695 362.515C147.089 361.365 148.404 360.155 149.494 358.907Z" fill="#E73F40" stroke="#602930" stroke-width="4"/>
<path d="M215.585 428.18C227.493 442.192 240.315 454.169 259.8 457.327C261.892 467.612 261.019 479.7 257.204 490.498C253.221 501.768 246.126 511.399 236.16 516.223C219.614 524.218 204.272 519.497 193.329 508.591C182.58 497.878 176.198 481.271 177.45 465.203C194.269 458.637 209.627 446.123 215.585 428.18Z" fill="#E73F40" stroke="#602930" stroke-width="4"/>
<path d="M310.912 170.379C334.42 163.565 354.724 179.872 364.112 201.866C373.514 223.892 371.317 250.093 351.336 262.344L351.334 262.345C341.227 268.553 337.314 268.799 334.292 267.389C332.577 266.589 330.953 265.182 328.639 263.143C326.386 261.158 323.641 258.735 319.88 256.287L318.624 255.489C312.964 251.967 306.961 249.241 301.255 246.34C315.089 224.064 313.729 197.166 305.114 173.286C305.181 173.195 305.273 173.089 305.399 172.969C305.756 172.625 306.279 172.267 306.938 171.915C308.256 171.212 309.827 170.691 310.913 170.385L310.912 170.379Z" fill="#E73F40" stroke="#602930" stroke-width="4"/>
<path d="M51.1658 191.696C60.9786 186.524 72.9219 185.514 86.2498 191.509C82.8333 211.522 86.9781 229.792 95.043 247.796C79.6971 253.075 68.7113 262.066 59.274 275.513C57.6998 277.754 56.7497 279.986 56.0166 281.855C55.2357 283.845 54.7914 285.128 54.1803 286.023C53.9132 286.413 53.6809 286.618 53.4718 286.735C53.2738 286.845 52.9767 286.946 52.4664 286.938C51.4084 286.921 49.6875 286.45 46.8491 285.041L46.2664 284.747C22.0762 272.281 18.2722 242.631 28.008 218.895C32.8463 207.099 40.9392 197.086 51.1658 191.696Z" fill="#E73F40" stroke="#602930" stroke-width="4"/>
<path d="M252.879 358.829C265.243 373.577 283.986 381.059 302.933 379.6C306.641 398.935 303.649 413.603 297.223 423.66C290.61 434.011 280.236 439.685 269.204 440.57C247.525 442.309 222.714 425.448 220.032 387.602C233.992 381.848 245.282 371.954 252.879 358.829Z" fill="#E73F40" stroke="#602930" stroke-width="4"/>
<path d="M211.22 15.7634C212.055 15.5147 213.443 15.605 215.295 16.2341C217.083 16.8421 219.043 17.864 220.862 19.1052C222.684 20.348 224.284 21.7557 225.388 23.0846C226.438 24.3473 226.807 25.2576 226.861 25.7529C226.787 25.9232 226.665 26.1739 226.484 26.5116C226.122 27.1891 225.592 28.1024 224.93 29.1999C223.608 31.3896 221.818 34.2161 219.94 37.1666C216.234 42.986 212.088 49.4252 210.777 52.0218L210.775 52.0239C199.227 74.9807 193.761 103.148 195.216 128.886C195.408 132.366 196.071 135.941 196.782 139.409C197.502 142.924 198.262 146.298 198.725 149.582C199.549 155.441 199.33 160.453 196.494 164.485C190.365 159.299 187.019 151.742 185.149 143.188C183.13 133.948 182.894 123.859 182.562 114.855C181.56 86.6023 188.122 51.1739 202.499 27.032L202.5 27.0328C203.133 25.9739 203.799 24.7278 204.458 23.541C205.132 22.325 205.825 21.1193 206.569 20.0104C207.969 17.9256 209.353 16.4957 210.785 15.892L211.22 15.7634Z" fill="#E73F40" stroke="#602930" stroke-width="4"/>
</svg>
