<svg width="211" height="431" viewBox="0 0 211 431" fill="none" xmlns="http://www.w3.org/2000/svg">
<path d="M208.008 422.648C207.477 423.864 205.781 425.75 201.799 428.549C200.405 428.866 198.501 428.407 196.073 426.907C193.591 425.374 190.928 422.978 188.338 420.193C183.163 414.628 178.588 407.85 176.683 404.401L175.94 403.057L174.449 403.427C162.777 406.329 152.614 406.304 143.1 403.748C133.567 401.186 124.556 396.047 115.247 388.528L115.246 388.527C106.194 381.22 100.282 373.052 94.9651 364.992C89.6923 356.999 84.8891 348.904 78.1922 342.271C76.2306 340.323 73.6566 338.866 71.6908 337.56C69.6031 336.174 67.9507 334.828 66.9437 332.929C66.2827 331.67 66.1827 330.182 66.2276 328.19C66.2691 326.352 66.4547 323.941 65.9145 321.657L65.9137 321.655C65.4956 319.9 64.3949 317.062 63.0045 313.828C61.5927 310.543 59.8177 306.704 57.9766 302.876C54.3058 295.243 50.3174 287.539 48.3749 284.305L48.3724 284.301C47.0974 282.188 45.0142 280.148 43.3664 278.448C42.5014 277.555 41.7303 276.735 41.109 275.953C40.4812 275.162 40.0931 274.516 39.909 273.989C39.5446 272.932 39.6449 271.629 39.9101 269.683C40.1525 267.904 40.527 265.609 40.1606 263.29C39.9529 261.942 39.0452 258.838 37.8563 255.083C36.6418 251.246 35.0682 246.531 33.4462 241.832C31.8241 237.134 30.1492 232.439 28.7317 228.641C27.5133 225.377 26.4409 222.652 25.748 221.197L25.4748 220.652C24.214 218.295 22.1799 216.348 20.5625 214.73C18.8118 212.979 17.5531 211.617 17.0141 210.182C16.7991 209.61 16.6835 208.605 16.7237 207.091C16.7625 205.627 16.9364 203.918 17.1463 202.048C17.5527 198.426 18.1158 194.123 17.7895 190.712C16.5966 178.225 11.6892 149.377 8.593 136.1L8.29924 134.865C6.82377 128.787 4.31074 125.424 3.09824 122.79C2.47979 121.446 2.07171 120.116 2.00888 118.373C1.94465 116.591 2.239 114.277 3.17743 110.982L3.17751 110.98C6.91479 97.8028 7.83581 83.3845 9.61596 69.5831C11.4125 55.6545 14.0901 42.1636 21.2011 30.1523L21.2006 30.1531C31.6969 12.4441 45.6485 3.12845 59.8537 2.09754C74.044 1.06785 89.0618 8.26456 101.796 24.7949L101.796 24.7954C108.948 34.068 113.102 44.4076 116.736 55.0927C120.34 65.6922 123.472 76.7903 128.552 87.0493C130.98 91.9575 130.962 95.2854 130.38 98.6404C129.8 101.979 128.412 106.121 128.458 111.457L128.459 111.457C128.48 113.98 129.515 121.837 130.687 129.377C131.279 133.19 131.917 136.989 132.499 140.091C133.066 143.117 133.613 145.668 134.04 146.846C134.907 149.236 136.538 151.035 137.761 152.484C139.06 154.026 140 155.269 140.373 156.855L140.374 156.856C140.728 158.358 140.531 160.02 140.171 162.112C139.834 164.071 139.337 166.474 139.516 168.871L139.516 168.873C139.663 170.81 140.545 174.671 141.757 179.257C142.989 183.919 144.617 189.529 146.341 195.085C148.066 200.64 149.893 206.161 151.523 210.641C152.338 212.88 153.11 214.875 153.8 216.492C154.473 218.067 155.12 219.412 155.7 220.261L155.703 220.266C157.145 222.367 159.41 224.304 161.173 225.922C162.1 226.773 162.92 227.557 163.579 228.319C164.243 229.088 164.654 229.737 164.854 230.29L164.858 230.298L164.86 230.306C165.193 231.207 165.125 232.497 164.875 234.512C164.65 236.324 164.29 238.667 164.587 240.919L164.587 240.923C164.686 241.655 164.986 242.676 165.356 243.776C165.743 244.924 166.26 246.311 166.863 247.845C168.071 250.915 169.65 254.635 171.289 258.321C172.928 262.007 174.636 265.678 176.103 268.651C177.528 271.539 178.825 273.977 179.625 275.023C181.119 276.977 182.983 278.383 184.493 279.587C186.07 280.846 187.307 281.914 188.149 283.329C189.012 284.793 189.189 286.654 189.167 289.051C189.147 291.252 188.934 294.094 189.483 296.583L189.484 296.589C191.929 307.495 196.19 315.912 199.398 324.352C202.625 332.844 205.002 341.799 204.093 354.465C203.423 363.645 201.808 370.93 198.753 377.48C195.698 384.03 191.148 389.966 184.445 396.372L183.857 396.933L183.828 397.747C183.782 399.061 184.393 400.53 185.022 401.748C185.703 403.067 186.626 404.496 187.603 405.85C189.524 408.513 191.865 411.178 193.327 412.333L193.332 412.335C195.874 414.332 198.795 415.832 201.312 417.098C203.954 418.426 205.978 419.423 207.221 420.485C207.81 420.989 208.049 421.368 208.136 421.628C208.202 421.827 208.239 422.12 208.008 422.648Z" stroke="#602930" stroke-width="4"/>
</svg>
